<?xml version="1.0" encoding="utf-8"?>
<!-- Generator: Adobe Illustrator 16.0.0, SVG Export Plug-In . SVG Version: 6.00 Build 0)  -->
<!DOCTYPE svg PUBLIC "-//W3C//DTD SVG 1.1//EN" "http://www.w3.org/Graphics/SVG/1.1/DTD/svg11.dtd">
<svg version="1.1" id="Layer_1" xmlns="http://www.w3.org/2000/svg" xmlns:xlink="http://www.w3.org/1999/xlink" x="0px" y="0px"
	 width="160px" height="80px" viewBox="0 0 160 80" enable-background="new 0 0 160 80" xml:space="preserve">
<g>
	<g>
		<g>
			<defs>
				<rect id="SVGID_1_" x="-27.5" y="-54.567" width="213.167" height="191.886"/>
			</defs>
			<clipPath id="SVGID_2_">
				<use xlink:href="#SVGID_1_"  overflow="visible"/>
			</clipPath>
			<path clip-path="url(#SVGID_2_)" fill="#D41C5D" d="M47.838,62.118h-2.264c-4.981,0-9.034-3.646-9.034-8.129V23.813
				c0-3.161-2.855-5.732-6.367-5.732h-3.171c-4.979,0-9.033-3.648-9.033-8.131c0-4.484,4.054-8.132,9.033-8.132h20.899
				c3.022,0,5.833,1.353,7.514,3.617c0.41,0.55,0.246,1.296-0.367,1.664C54.437,7.469,53.61,7.32,53.2,6.768
				c-1.187-1.598-3.168-2.55-5.299-2.55H27.002c-3.512,0-6.368,2.57-6.368,5.732c0,3.161,2.856,5.732,6.368,5.732h3.171
				c4.979,0,9.033,3.648,9.033,8.131v30.176c0,3.158,2.855,5.732,6.367,5.732h2.264c1.386,0,2.703-0.396,3.81-1.14
				c0.589-0.397,1.424-0.286,1.863,0.243c0.441,0.531,0.321,1.281-0.268,1.679C51.672,61.562,49.805,62.118,47.838,62.118"/>
		</g>
	</g>
	<g>
		<g>
			<defs>
				<rect id="SVGID_3_" x="-27.5" y="-54.567" width="213.167" height="191.886"/>
			</defs>
			<clipPath id="SVGID_4_">
				<use xlink:href="#SVGID_3_"  overflow="visible"/>
			</clipPath>
			<path clip-path="url(#SVGID_4_)" fill="#D41C5D" d="M79.249,48.173c-2.59,0-5.202-0.347-7.762-1.028
				c-2.492-0.665-4.791-1.423-6.832-2.259c-0.291-0.12-0.589-0.245-0.891-0.376c-0.662-0.285-0.942-1.001-0.626-1.598
				c0.318-0.599,1.114-0.851,1.778-0.564c0.285,0.121,0.565,0.237,0.843,0.354c1.927,0.79,4.11,1.511,6.486,2.143
				c2.313,0.618,4.67,0.933,7.003,0.933c2.261,0,3.065-0.328,3.308-0.471c0.484-0.283,0.524-0.531,0.524-0.743
				c0-0.454-0.143-1.041-1.274-1.568c-1.244-0.581-2.92-1.154-4.971-1.695c-2.156-0.569-4.559-1.24-7.146-1.995
				c-3.854-1.165-7.066-2.507-9.564-3.986c-2.595-1.535-4.545-3.401-5.793-5.547c-1.241-2.134-1.873-4.732-1.873-7.724
				c0-4.498,1.21-8.325,3.596-11.379c2.36-3.025,5.515-5.354,9.375-6.923c3.811-1.547,7.973-2.333,12.369-2.333
				c3.237,0,6.415,0.354,9.438,1.057c2.985,0.693,5.823,1.549,8.432,2.543l0.266,0.102c0.679,0.257,0.997,0.961,0.707,1.571
				c-0.285,0.609-1.07,0.896-1.744,0.636l-0.27-0.102c-2.487-0.948-5.198-1.765-8.055-2.429c-2.808-0.652-5.759-0.981-8.774-0.981
				c-4.016,0-7.809,0.714-11.273,2.121c-3.418,1.39-6.207,3.449-8.29,6.117c-2.064,2.642-3.11,6.005-3.11,10
				c0,2.6,0.527,4.824,1.569,6.611c1.036,1.78,2.683,3.348,4.897,4.655c2.307,1.371,5.313,2.617,8.933,3.714
				c2.548,0.744,4.928,1.408,7.063,1.971c2.219,0.586,4.047,1.214,5.448,1.867c2.241,1.047,2.711,2.588,2.711,3.698
				c0,0.796-0.304,1.916-1.737,2.756C83.007,47.903,81.496,48.173,79.249,48.173"/>
		</g>
	</g>
	<g>
		<g>
			<defs>
				<rect id="SVGID_5_" x="-27.5" y="-54.567" width="213.167" height="191.886"/>
			</defs>
			<clipPath id="SVGID_6_">
				<use xlink:href="#SVGID_5_"  overflow="visible"/>
			</clipPath>
			<path clip-path="url(#SVGID_6_)" fill="#D41C5D" d="M78.978,62.527c-3.146,0-6.477-0.294-9.896-0.879
				c-3.412-0.581-6.755-1.391-9.939-2.412c-0.761-0.245-1.515-0.503-2.234-0.761c-0.684-0.246-1.014-0.947-0.739-1.561
				c0.275-0.616,1.05-0.912,1.733-0.666c0.687,0.248,1.405,0.495,2.134,0.728c3.053,0.979,6.264,1.757,9.541,2.316
				c3.257,0.554,6.421,0.834,9.4,0.834c2.898,0,5.781-0.301,8.57-0.896c2.734-0.584,5.241-1.548,7.454-2.863
				c2.16-1.286,3.901-3.026,5.182-5.181c1.274-2.16,1.925-4.896,1.925-8.124c0-3.359-0.725-6.063-2.144-8.035
				c-1.44-2-3.532-3.674-6.216-4.971c-2.806-1.355-6.197-2.575-10.082-3.624c-2.469-0.699-4.613-1.296-6.389-1.779
				c-1.931-0.525-3.398-1.104-4.486-1.775c-1.329-0.813-2.031-1.966-2.031-3.333c0-1.47,0.779-2.627,2.191-3.256
				c1.147-0.512,2.597-0.772,4.305-0.772c2.051,0,4.163,0.292,6.272,0.867c2.037,0.557,3.951,1.191,5.688,1.889
				c0.669,0.268,0.998,0.985,0.697,1.589c-0.295,0.606-1.055,0.89-1.726,0.624c-0.007-0.002-0.036-0.015-0.041-0.018
				c-1.651-0.663-3.459-1.261-5.388-1.788c-1.861-0.507-3.714-0.765-5.502-0.765c-1.295,0-2.346,0.176-3.123,0.522
				c-0.427,0.191-0.71,0.45-0.71,1.107c0,0.568,0.269,0.985,0.868,1.352c0.852,0.523,2.112,1.014,3.759,1.46
				c1.783,0.486,3.938,1.085,6.4,1.783c4.037,1.091,7.598,2.375,10.56,3.805c3.085,1.491,5.504,3.436,7.191,5.778
				c1.705,2.369,2.569,5.511,2.569,9.34c0,3.632-0.753,6.742-2.24,9.252c-1.49,2.511-3.528,4.545-6.062,6.053
				c-2.472,1.469-5.268,2.548-8.305,3.195C85.169,62.206,82.082,62.527,78.978,62.527"/>
		</g>
	</g>
	<g>
		<g>
			<defs>
				<rect id="SVGID_7_" x="-27.5" y="-54.567" width="213.167" height="191.886"/>
			</defs>
			<clipPath id="SVGID_8_">
				<use xlink:href="#SVGID_7_"  overflow="visible"/>
			</clipPath>
			<path clip-path="url(#SVGID_8_)" fill="#D41C5D" d="M115.023,62.527c-4.951,0-9.552-0.903-13.669-2.691
				c-0.664-0.284-0.94-1.001-0.623-1.596c0.318-0.598,1.115-0.851,1.781-0.563c3.751,1.625,7.962,2.451,12.511,2.451
				c3.531,0,7.145-0.52,10.744-1.536c3.58-1.013,6.827-2.502,9.652-4.421l0.081-0.053c1.591-1.093,2.432-2.753,2.318-4.57
				c-0.112-1.835-1.227-3.493-2.973-4.434l-1.488-0.8c-2.282-1.224-5.212-0.987-7.122,0.578c-0.129,0.107-0.263,0.212-0.396,0.313
				c-1.525,1.134-3.232,1.963-5.088,2.47c-1.808,0.492-3.613,0.744-5.367,0.744c-2.489,0-4.775-0.454-6.793-1.347
				c-0.66-0.292-0.933-1.013-0.609-1.605c0.328-0.591,1.122-0.841,1.782-0.546c1.653,0.729,3.541,1.099,5.62,1.099
				c1.491,0,3.038-0.215,4.594-0.642c1.516-0.412,2.915-1.094,4.163-2.019c0.1-0.078,0.197-0.154,0.297-0.237
				c2.775-2.276,7.005-2.629,10.287-0.865l1.483,0.801c2.506,1.349,4.105,3.723,4.271,6.356c0.161,2.581-1.096,5.053-3.361,6.607
				l-0.092,0.065c-3.066,2.084-6.588,3.696-10.462,4.794C122.707,61.976,118.825,62.527,115.023,62.527 M101.479,27.705
				c-0.121,0-0.244-0.017-0.366-0.047c-0.709-0.184-1.114-0.848-0.913-1.484c0.614-1.918,1.562-3.689,2.828-5.264
				c1.289-1.61,2.964-2.923,4.975-3.901c2.027-0.989,4.454-1.49,7.203-1.49c1.734,0,3.545,0.219,5.366,0.65
				c1.887,0.447,3.66,1.246,5.28,2.374c0.139,0.099,0.276,0.202,0.414,0.308c2.063,1.601,5.095,1.694,7.387,0.228l1.155-0.741
				c1.554-0.993,2.481-2.547,2.556-4.259c0.071-1.714-0.727-3.326-2.192-4.423c-1.235-0.924-2.625-1.775-4.129-2.534
				c-4.369-2.198-9.572-3.313-15.475-3.313c-4.917,0-9.382,0.802-13.267,2.382c-0.672,0.272-1.462,0.003-1.762-0.599
				c-0.302-0.604-0.005-1.315,0.664-1.587c4.229-1.721,9.065-2.594,14.366-2.594c6.36,0,12.002,1.217,16.776,3.618
				c1.645,0.832,3.17,1.768,4.529,2.784c2.107,1.577,3.255,3.893,3.154,6.356c-0.104,2.464-1.444,4.697-3.677,6.125l-1.156,0.741
				c-3.29,2.109-7.681,1.958-10.672-0.369c-0.101-0.078-0.201-0.152-0.311-0.225c-1.329-0.933-2.784-1.586-4.321-1.95
				c-1.603-0.38-3.179-0.573-4.688-0.573c-2.301,0-4.298,0.403-5.936,1.201c-1.655,0.806-3.028,1.881-4.084,3.195
				c-1.082,1.35-1.899,2.87-2.423,4.521C102.595,27.362,102.061,27.705,101.479,27.705"/>
		</g>
	</g>
	<g>
		<g>
			<defs>
				<rect id="SVGID_9_" x="-27.5" y="-54.567" width="213.167" height="191.886"/>
			</defs>
			<clipPath id="SVGID_10_">
				<use xlink:href="#SVGID_9_"  overflow="visible"/>
			</clipPath>
			<polygon clip-path="url(#SVGID_10_)" fill="#333333" points="24.449,70.739 21.416,70.739 21.416,77.733 20.576,77.733 
				20.576,70.739 17.543,70.739 17.543,70.072 24.449,70.072 			"/>
		</g>
	</g>
	<g>
		<g>
			<defs>
				<rect id="SVGID_11_" x="-27.5" y="-54.567" width="213.167" height="191.886"/>
			</defs>
			<clipPath id="SVGID_12_">
				<use xlink:href="#SVGID_11_"  overflow="visible"/>
			</clipPath>
			<polygon clip-path="url(#SVGID_12_)" fill="#333333" points="32.435,70.072 32.435,77.733 31.607,77.733 31.607,74.152 
				26.558,74.152 26.558,77.733 25.72,77.733 25.72,70.072 26.558,70.072 26.558,73.481 31.607,73.481 31.607,70.072 			"/>
		</g>
	</g>
	<g>
		<g>
			<defs>
				<rect id="SVGID_13_" x="-27.5" y="-54.567" width="213.167" height="191.886"/>
			</defs>
			<clipPath id="SVGID_14_">
				<use xlink:href="#SVGID_13_"  overflow="visible"/>
			</clipPath>
			<polygon clip-path="url(#SVGID_14_)" fill="#333333" points="40.289,77.067 40.289,77.733 34.569,77.733 34.569,70.072 
				40.179,70.072 40.179,70.739 35.408,70.739 35.408,73.504 39.569,73.504 39.569,74.141 35.408,74.141 35.408,77.067 			"/>
		</g>
	</g>
	<g>
		<g>
			<defs>
				<rect id="SVGID_15_" x="-27.5" y="-54.567" width="213.167" height="191.886"/>
			</defs>
			<clipPath id="SVGID_16_">
				<use xlink:href="#SVGID_15_"  overflow="visible"/>
			</clipPath>
			<path clip-path="url(#SVGID_16_)" fill="#333333" d="M49.857,71.877c-0.08-0.08-0.198-0.168-0.349-0.255
				c-0.152-0.091-0.331-0.175-0.54-0.256c-0.208-0.077-0.431-0.142-0.67-0.191c-0.239-0.054-0.49-0.077-0.745-0.077
				c-0.559,0-0.975,0.093-1.246,0.278c-0.271,0.188-0.408,0.447-0.408,0.777c0,0.239,0.075,0.436,0.229,0.573
				c0.15,0.14,0.382,0.258,0.693,0.351c0.314,0.093,0.704,0.193,1.176,0.301c0.576,0.121,1.074,0.267,1.498,0.434
				c0.424,0.174,0.748,0.393,0.973,0.675c0.222,0.28,0.335,0.65,0.335,1.106c0,0.389-0.081,0.725-0.24,1.004
				s-0.383,0.508-0.67,0.682c-0.289,0.178-0.621,0.306-0.996,0.39c-0.376,0.077-0.781,0.121-1.212,0.121
				c-0.422,0-0.845-0.038-1.264-0.119c-0.42-0.078-0.819-0.195-1.2-0.349c-0.379-0.155-0.729-0.344-1.048-0.57l0.612-1.034
				c0.105,0.093,0.255,0.197,0.449,0.308c0.197,0.112,0.424,0.219,0.684,0.317c0.258,0.102,0.542,0.187,0.85,0.257
				c0.309,0.066,0.622,0.101,0.943,0.101c0.535,0,0.944-0.085,1.229-0.253c0.283-0.167,0.424-0.408,0.424-0.724
				c0-0.256-0.092-0.463-0.274-0.62c-0.185-0.154-0.453-0.282-0.804-0.391c-0.353-0.11-0.771-0.216-1.257-0.323
				c-0.561-0.137-1.028-0.283-1.404-0.445c-0.377-0.163-0.659-0.371-0.846-0.626c-0.188-0.253-0.283-0.579-0.283-0.974
				c0-0.501,0.137-0.928,0.408-1.275c0.272-0.349,0.643-0.61,1.108-0.786c0.469-0.177,0.996-0.264,1.577-0.264
				c0.384,0,0.748,0.036,1.093,0.116c0.343,0.071,0.664,0.176,0.964,0.308c0.301,0.129,0.574,0.276,0.823,0.44L49.857,71.877z"/>
		</g>
	</g>
	<g>
		<g>
			<defs>
				<rect id="SVGID_17_" x="-27.5" y="-54.567" width="213.167" height="191.886"/>
			</defs>
			<clipPath id="SVGID_18_">
				<use xlink:href="#SVGID_17_"  overflow="visible"/>
			</clipPath>
			<path clip-path="url(#SVGID_18_)" fill="#333333" d="M55.685,77.789c-0.617,0-1.171-0.107-1.668-0.322
				c-0.494-0.217-0.923-0.508-1.282-0.881c-0.36-0.37-0.638-0.786-0.833-1.251c-0.198-0.464-0.294-0.941-0.294-1.429
				c0-0.512,0.104-1.002,0.312-1.465c0.208-0.465,0.496-0.877,0.863-1.239c0.37-0.363,0.801-0.653,1.3-0.863
				c0.5-0.212,1.041-0.32,1.627-0.32c0.606,0,1.16,0.111,1.659,0.335c0.5,0.223,0.928,0.522,1.283,0.897
				c0.356,0.374,0.633,0.791,0.827,1.253c0.196,0.462,0.294,0.931,0.294,1.414c0,0.51-0.102,0.999-0.306,1.462
				c-0.205,0.464-0.489,0.878-0.857,1.239c-0.367,0.363-0.801,0.65-1.3,0.858C56.809,77.687,56.267,77.789,55.685,77.789
				 M52.973,73.905c0,0.358,0.066,0.709,0.192,1.046c0.128,0.339,0.31,0.64,0.546,0.903c0.236,0.262,0.521,0.468,0.857,0.618
				c0.336,0.151,0.711,0.227,1.126,0.227c0.434,0,0.816-0.078,1.152-0.239c0.336-0.155,0.618-0.369,0.844-0.641
				c0.229-0.27,0.403-0.57,0.521-0.906c0.122-0.335,0.182-0.669,0.182-1.007c0-0.362-0.061-0.711-0.186-1.044
				c-0.124-0.335-0.306-0.634-0.543-0.894c-0.242-0.263-0.529-0.471-0.859-0.621c-0.331-0.153-0.702-0.228-1.111-0.228
				c-0.43,0-0.814,0.08-1.15,0.236c-0.335,0.161-0.62,0.371-0.852,0.638c-0.231,0.266-0.41,0.563-0.533,0.896
				C53.037,73.223,52.973,73.56,52.973,73.905"/>
		</g>
	</g>
	<g>
		<g>
			<defs>
				<rect id="SVGID_19_" x="-27.5" y="-54.567" width="213.167" height="191.886"/>
			</defs>
			<clipPath id="SVGID_20_">
				<use xlink:href="#SVGID_19_"  overflow="visible"/>
			</clipPath>
			<path clip-path="url(#SVGID_20_)" fill="#333333" d="M60.624,73.84c0-0.468,0.092-0.925,0.277-1.376
				c0.184-0.451,0.453-0.859,0.809-1.232c0.356-0.368,0.79-0.664,1.3-0.883c0.511-0.22,1.092-0.33,1.74-0.33
				c0.767,0,1.429,0.157,1.99,0.469c0.56,0.315,0.975,0.715,1.247,1.205l-1.055,0.636c-0.161-0.31-0.363-0.554-0.606-0.734
				c-0.243-0.18-0.508-0.305-0.79-0.376c-0.283-0.073-0.563-0.108-0.835-0.108c-0.448,0-0.838,0.079-1.175,0.242
				c-0.335,0.163-0.616,0.376-0.844,0.642c-0.229,0.266-0.4,0.564-0.517,0.896c-0.117,0.331-0.173,0.66-0.173,0.992
				c0,0.367,0.067,0.72,0.204,1.064c0.134,0.344,0.325,0.645,0.569,0.908c0.243,0.262,0.534,0.468,0.869,0.618
				c0.335,0.151,0.704,0.227,1.102,0.227c0.272,0,0.556-0.043,0.852-0.129c0.295-0.089,0.569-0.222,0.822-0.405
				c0.251-0.183,0.448-0.425,0.593-0.728l1.116,0.569c-0.174,0.383-0.451,0.707-0.823,0.975c-0.371,0.265-0.786,0.468-1.245,0.603
				c-0.462,0.138-0.915,0.205-1.362,0.205c-0.599,0-1.147-0.113-1.644-0.34c-0.496-0.227-0.924-0.53-1.282-0.906
				c-0.361-0.381-0.64-0.801-0.84-1.275C60.724,74.797,60.624,74.321,60.624,73.84"/>
		</g>
	</g>
	<g>
		<g>
			<defs>
				<rect id="SVGID_21_" x="-27.5" y="-54.567" width="213.167" height="191.886"/>
			</defs>
			<clipPath id="SVGID_22_">
				<use xlink:href="#SVGID_21_"  overflow="visible"/>
			</clipPath>
			<rect x="69.364" y="70.072" clip-path="url(#SVGID_22_)" fill="#333333" width="1.343" height="7.661"/>
		</g>
	</g>
	<g>
		<g>
			<defs>
				<rect id="SVGID_23_" x="-27.5" y="-54.567" width="213.167" height="191.886"/>
			</defs>
			<clipPath id="SVGID_24_">
				<use xlink:href="#SVGID_23_"  overflow="visible"/>
			</clipPath>
			<path clip-path="url(#SVGID_24_)" fill="#333333" d="M75.085,70.072h1.272l3.307,7.661H78.25l-0.831-2.08h-3.405l-0.836,2.08
				H71.75L75.085,70.072z M77.06,74.757l-1.337-3.357l-1.35,3.357H77.06z"/>
		</g>
	</g>
	<g>
		<g>
			<defs>
				<rect id="SVGID_25_" x="-27.5" y="-54.567" width="213.167" height="191.886"/>
			</defs>
			<clipPath id="SVGID_26_">
				<use xlink:href="#SVGID_25_"  overflow="visible"/>
			</clipPath>
			<polygon clip-path="url(#SVGID_26_)" fill="#333333" points="80.719,77.733 80.719,70.072 82.064,70.072 82.064,76.668 
				86.631,76.668 86.631,77.733 			"/>
		</g>
	</g>
	<g>
		<g>
			<defs>
				<rect id="SVGID_27_" x="-27.5" y="-54.567" width="213.167" height="191.886"/>
			</defs>
			<clipPath id="SVGID_28_">
				<use xlink:href="#SVGID_27_"  overflow="visible"/>
			</clipPath>
			<path clip-path="url(#SVGID_28_)" fill="#333333" d="M90.325,73.84c0-0.468,0.09-0.925,0.27-1.376
				c0.179-0.451,0.444-0.859,0.784-1.232c0.345-0.368,0.767-0.664,1.271-0.883c0.506-0.22,1.079-0.33,1.717-0.33
				c0.761,0,1.408,0.157,1.947,0.469c0.54,0.315,0.937,0.715,1.196,1.205l-0.663,0.369c-0.186-0.342-0.414-0.611-0.695-0.807
				c-0.278-0.198-0.578-0.343-0.892-0.427c-0.318-0.087-0.631-0.13-0.943-0.13c-0.512,0-0.965,0.095-1.354,0.276
				c-0.394,0.185-0.724,0.428-0.987,0.732c-0.271,0.307-0.472,0.648-0.606,1.028c-0.136,0.375-0.206,0.761-0.206,1.148
				c0,0.425,0.083,0.832,0.244,1.221c0.155,0.386,0.38,0.73,0.668,1.027c0.286,0.299,0.625,0.537,1.014,0.714
				c0.387,0.178,0.811,0.264,1.266,0.264c0.317,0,0.646-0.05,0.982-0.15c0.334-0.1,0.647-0.257,0.94-0.462
				c0.292-0.209,0.526-0.479,0.701-0.813l0.695,0.323c-0.177,0.383-0.451,0.707-0.815,0.975c-0.366,0.268-0.777,0.468-1.23,0.603
				c-0.45,0.138-0.893,0.205-1.321,0.205c-0.585,0-1.121-0.113-1.607-0.34c-0.487-0.227-0.911-0.53-1.268-0.906
				c-0.355-0.378-0.629-0.801-0.822-1.275C90.424,74.797,90.325,74.321,90.325,73.84"/>
		</g>
	</g>
	<g>
		<g>
			<defs>
				<rect id="SVGID_29_" x="-27.5" y="-54.567" width="213.167" height="191.886"/>
			</defs>
			<clipPath id="SVGID_30_">
				<use xlink:href="#SVGID_29_"  overflow="visible"/>
			</clipPath>
			<path clip-path="url(#SVGID_30_)" fill="#333333" d="M101.63,70.072h0.709l3.538,7.661h-0.888l-1.062-2.393h-3.894l-1.063,2.393
				H98.07L101.63,70.072z M103.663,74.746l-1.684-3.789l-1.683,3.789H103.663z"/>
		</g>
	</g>
	<g>
		<g>
			<defs>
				<rect id="SVGID_31_" x="-27.5" y="-54.567" width="213.167" height="191.886"/>
			</defs>
			<clipPath id="SVGID_32_">
				<use xlink:href="#SVGID_31_"  overflow="visible"/>
			</clipPath>
			<polygon clip-path="url(#SVGID_32_)" fill="#333333" points="107.099,77.733 107.099,70.072 107.938,70.072 107.938,77.067 
				112.855,77.067 112.855,77.733 			"/>
		</g>
	</g>
	<g>
		<g>
			<defs>
				<rect id="SVGID_33_" x="-27.5" y="-54.567" width="213.167" height="191.886"/>
			</defs>
			<clipPath id="SVGID_34_">
				<use xlink:href="#SVGID_33_"  overflow="visible"/>
			</clipPath>
			<polygon clip-path="url(#SVGID_34_)" fill="#333333" points="114.091,77.733 114.091,70.072 114.93,70.072 114.93,77.067 
				119.848,77.067 119.848,77.733 			"/>
		</g>
	</g>
	<g>
		<g>
			<defs>
				<rect id="SVGID_35_" x="-27.5" y="-54.567" width="213.167" height="191.886"/>
			</defs>
			<clipPath id="SVGID_36_">
				<use xlink:href="#SVGID_35_"  overflow="visible"/>
			</clipPath>
			<rect x="121.082" y="70.072" clip-path="url(#SVGID_36_)" fill="#333333" width="0.84" height="7.661"/>
		</g>
	</g>
	<g>
		<g>
			<defs>
				<rect id="SVGID_37_" x="-27.5" y="-54.567" width="213.167" height="191.886"/>
			</defs>
			<clipPath id="SVGID_38_">
				<use xlink:href="#SVGID_37_"  overflow="visible"/>
			</clipPath>
			<polygon clip-path="url(#SVGID_38_)" fill="#333333" points="124.894,71.465 124.894,77.733 124.057,77.733 124.057,70.072 
				124.751,70.072 130.338,76.46 130.338,70.085 131.176,70.085 131.176,77.733 130.398,77.733 			"/>
		</g>
	</g>
	<g>
		<g>
			<defs>
				<rect id="SVGID_39_" x="-27.5" y="-54.567" width="213.167" height="191.886"/>
			</defs>
			<clipPath id="SVGID_40_">
				<use xlink:href="#SVGID_39_"  overflow="visible"/>
			</clipPath>
			<path clip-path="url(#SVGID_40_)" fill="#333333" d="M136.73,77.789c-0.571,0-1.099-0.109-1.585-0.329
				c-0.487-0.217-0.912-0.515-1.27-0.89c-0.361-0.374-0.64-0.791-0.834-1.253c-0.195-0.461-0.292-0.935-0.292-1.424
				c0-0.52,0.097-1.009,0.292-1.472c0.194-0.468,0.469-0.88,0.818-1.237c0.352-0.361,0.771-0.645,1.251-0.851
				c0.476-0.209,1.002-0.316,1.567-0.316c0.841,0,1.525,0.157,2.051,0.466c0.528,0.309,0.929,0.711,1.2,1.209l-0.649,0.388
				c-0.272-0.475-0.635-0.823-1.089-1.047c-0.457-0.221-0.964-0.335-1.522-0.335c-0.473,0-0.902,0.088-1.279,0.271
				c-0.38,0.177-0.704,0.421-0.978,0.723c-0.271,0.302-0.477,0.645-0.618,1.023c-0.136,0.384-0.212,0.78-0.212,1.191
				c0,0.429,0.083,0.839,0.244,1.226c0.159,0.383,0.384,0.725,0.682,1.021c0.295,0.303,0.639,0.534,1.023,0.702
				c0.39,0.171,0.807,0.254,1.258,0.254c0.518,0,1.009-0.117,1.472-0.35c0.464-0.232,0.906-0.595,1.333-1.084v0.798
				C138.784,77.351,137.831,77.789,136.73,77.789 M139.46,74.553h-1.891v-0.586h2.601v3.767h-0.71V74.553L139.46,74.553z"/>
		</g>
	</g>
	<g>
		<g>
			<defs>
				<rect id="SVGID_41_" x="-27.5" y="-54.567" width="213.167" height="191.886"/>
			</defs>
			<clipPath id="SVGID_42_">
				<use xlink:href="#SVGID_41_"  overflow="visible"/>
			</clipPath>
			<path clip-path="url(#SVGID_42_)" fill="#FFFFFF" d="M47.838,62.118h-2.264c-4.981,0-9.034-3.646-9.034-8.129V23.813
				c0-3.161-2.855-5.732-6.367-5.732h-3.171c-4.979,0-9.033-3.648-9.033-8.131c0-4.484,4.054-8.132,9.033-8.132h20.899
				c3.022,0,5.833,1.353,7.514,3.617c0.41,0.55,0.246,1.296-0.367,1.664C54.437,7.469,53.61,7.32,53.2,6.768
				c-1.187-1.598-3.168-2.55-5.299-2.55H27.002c-3.512,0-6.368,2.57-6.368,5.732c0,3.161,2.856,5.732,6.368,5.732h3.171
				c4.979,0,9.033,3.648,9.033,8.131v30.176c0,3.158,2.855,5.732,6.367,5.732h2.264c1.386,0,2.703-0.396,3.81-1.14
				c0.589-0.397,1.424-0.286,1.863,0.243c0.441,0.531,0.321,1.281-0.268,1.679C51.672,61.562,49.805,62.118,47.838,62.118"/>
		</g>
	</g>
	<g>
		<g>
			<defs>
				<rect id="SVGID_43_" x="-27.5" y="-54.567" width="213.167" height="191.886"/>
			</defs>
			<clipPath id="SVGID_44_">
				<use xlink:href="#SVGID_43_"  overflow="visible"/>
			</clipPath>
			<path clip-path="url(#SVGID_44_)" fill="#FFFFFF" d="M79.249,48.173c-2.59,0-5.202-0.347-7.762-1.028
				c-2.492-0.665-4.791-1.423-6.832-2.259c-0.291-0.12-0.589-0.245-0.891-0.376c-0.662-0.285-0.942-1.001-0.626-1.598
				c0.318-0.599,1.114-0.851,1.778-0.564c0.285,0.121,0.565,0.237,0.843,0.354c1.927,0.79,4.11,1.511,6.486,2.143
				c2.313,0.618,4.67,0.933,7.003,0.933c2.261,0,3.065-0.328,3.308-0.471c0.484-0.283,0.524-0.531,0.524-0.743
				c0-0.454-0.143-1.041-1.274-1.568c-1.244-0.581-2.92-1.154-4.971-1.695c-2.156-0.569-4.559-1.24-7.146-1.995
				c-3.854-1.165-7.066-2.507-9.564-3.986c-2.595-1.535-4.545-3.401-5.793-5.547c-1.241-2.134-1.873-4.732-1.873-7.724
				c0-4.498,1.21-8.325,3.596-11.379c2.36-3.025,5.515-5.354,9.375-6.923c3.811-1.547,7.973-2.333,12.369-2.333
				c3.237,0,6.415,0.354,9.438,1.057c2.985,0.693,5.823,1.549,8.432,2.543l0.266,0.102c0.679,0.257,0.997,0.961,0.707,1.571
				c-0.285,0.609-1.07,0.896-1.744,0.636l-0.27-0.102c-2.487-0.948-5.198-1.765-8.055-2.429c-2.808-0.652-5.759-0.981-8.774-0.981
				c-4.016,0-7.809,0.714-11.273,2.121c-3.418,1.39-6.207,3.449-8.29,6.117c-2.064,2.642-3.11,6.005-3.11,10
				c0,2.6,0.527,4.824,1.569,6.611c1.036,1.78,2.683,3.348,4.897,4.655c2.307,1.371,5.313,2.617,8.933,3.714
				c2.548,0.744,4.928,1.408,7.063,1.971c2.219,0.586,4.047,1.214,5.448,1.867c2.241,1.047,2.711,2.588,2.711,3.698
				c0,0.796-0.304,1.916-1.737,2.756C83.007,47.903,81.496,48.173,79.249,48.173"/>
		</g>
	</g>
	<g>
		<g>
			<defs>
				<rect id="SVGID_45_" x="-27.5" y="-54.567" width="213.167" height="191.886"/>
			</defs>
			<clipPath id="SVGID_46_">
				<use xlink:href="#SVGID_45_"  overflow="visible"/>
			</clipPath>
			<path clip-path="url(#SVGID_46_)" fill="#FFFFFF" d="M78.978,62.527c-3.146,0-6.477-0.294-9.896-0.879
				c-3.412-0.581-6.755-1.391-9.939-2.412c-0.761-0.245-1.515-0.503-2.234-0.761c-0.684-0.246-1.014-0.947-0.739-1.561
				c0.275-0.616,1.05-0.912,1.733-0.666c0.687,0.248,1.405,0.495,2.134,0.728c3.053,0.979,6.264,1.757,9.541,2.316
				c3.257,0.554,6.421,0.834,9.4,0.834c2.898,0,5.781-0.301,8.57-0.896c2.734-0.584,5.241-1.548,7.454-2.863
				c2.16-1.286,3.901-3.026,5.182-5.181c1.274-2.16,1.925-4.896,1.925-8.124c0-3.359-0.725-6.063-2.144-8.035
				c-1.44-2-3.532-3.674-6.216-4.971c-2.806-1.355-6.197-2.575-10.082-3.624c-2.469-0.699-4.613-1.296-6.389-1.779
				c-1.931-0.525-3.398-1.104-4.486-1.775c-1.329-0.813-2.031-1.966-2.031-3.333c0-1.47,0.779-2.627,2.191-3.256
				c1.147-0.512,2.597-0.772,4.305-0.772c2.051,0,4.163,0.292,6.272,0.867c2.037,0.557,3.951,1.191,5.688,1.889
				c0.669,0.268,0.998,0.985,0.697,1.589c-0.295,0.606-1.055,0.89-1.726,0.624c-0.007-0.002-0.036-0.015-0.041-0.018
				c-1.651-0.663-3.459-1.261-5.388-1.788c-1.861-0.507-3.714-0.765-5.502-0.765c-1.295,0-2.346,0.176-3.123,0.522
				c-0.427,0.191-0.71,0.45-0.71,1.107c0,0.568,0.269,0.985,0.868,1.352c0.852,0.523,2.112,1.014,3.759,1.46
				c1.783,0.486,3.938,1.085,6.4,1.783c4.037,1.091,7.598,2.375,10.56,3.805c3.085,1.491,5.504,3.436,7.191,5.778
				c1.705,2.369,2.569,5.511,2.569,9.34c0,3.632-0.753,6.742-2.24,9.252c-1.49,2.511-3.528,4.545-6.062,6.053
				c-2.472,1.469-5.268,2.548-8.305,3.195C85.169,62.206,82.082,62.527,78.978,62.527"/>
		</g>
	</g>
	<g>
		<g>
			<defs>
				<rect id="SVGID_47_" x="-27.5" y="-54.567" width="213.167" height="191.886"/>
			</defs>
			<clipPath id="SVGID_48_">
				<use xlink:href="#SVGID_47_"  overflow="visible"/>
			</clipPath>
			<path clip-path="url(#SVGID_48_)" fill="#FFFFFF" d="M115.023,62.527c-4.951,0-9.552-0.903-13.669-2.691
				c-0.664-0.284-0.94-1.001-0.623-1.596c0.318-0.598,1.115-0.851,1.781-0.563c3.751,1.625,7.962,2.451,12.511,2.451
				c3.531,0,7.145-0.52,10.744-1.536c3.58-1.013,6.827-2.502,9.652-4.421l0.081-0.053c1.591-1.093,2.432-2.753,2.318-4.57
				c-0.112-1.835-1.227-3.493-2.973-4.434l-1.488-0.8c-2.282-1.224-5.212-0.987-7.122,0.578c-0.129,0.107-0.263,0.212-0.396,0.313
				c-1.525,1.134-3.232,1.963-5.088,2.47c-1.808,0.492-3.613,0.744-5.367,0.744c-2.489,0-4.775-0.454-6.793-1.347
				c-0.66-0.292-0.933-1.013-0.609-1.605c0.328-0.591,1.122-0.841,1.782-0.546c1.653,0.729,3.541,1.099,5.62,1.099
				c1.491,0,3.038-0.215,4.594-0.642c1.516-0.412,2.915-1.094,4.163-2.019c0.1-0.078,0.197-0.154,0.297-0.237
				c2.775-2.276,7.005-2.629,10.287-0.865l1.483,0.801c2.506,1.349,4.105,3.723,4.271,6.356c0.161,2.581-1.096,5.053-3.361,6.607
				l-0.092,0.065c-3.066,2.084-6.588,3.696-10.462,4.794C122.707,61.976,118.825,62.527,115.023,62.527 M101.479,27.705
				c-0.121,0-0.244-0.017-0.366-0.047c-0.709-0.184-1.114-0.848-0.913-1.484c0.614-1.918,1.562-3.689,2.828-5.264
				c1.289-1.61,2.964-2.923,4.975-3.901c2.027-0.989,4.454-1.49,7.203-1.49c1.734,0,3.545,0.219,5.366,0.65
				c1.887,0.447,3.66,1.246,5.28,2.374c0.139,0.099,0.276,0.202,0.414,0.308c2.063,1.601,5.095,1.694,7.387,0.228l1.155-0.741
				c1.554-0.993,2.481-2.547,2.556-4.259c0.071-1.714-0.727-3.326-2.192-4.423c-1.235-0.924-2.625-1.775-4.129-2.534
				c-4.369-2.198-9.572-3.313-15.475-3.313c-4.917,0-9.382,0.802-13.267,2.382c-0.672,0.272-1.462,0.003-1.762-0.599
				c-0.302-0.604-0.005-1.315,0.664-1.587c4.229-1.721,9.065-2.594,14.366-2.594c6.36,0,12.002,1.217,16.776,3.618
				c1.645,0.832,3.17,1.768,4.529,2.784c2.107,1.577,3.255,3.893,3.154,6.356c-0.104,2.464-1.444,4.697-3.677,6.125l-1.156,0.741
				c-3.29,2.109-7.681,1.958-10.672-0.369c-0.101-0.078-0.201-0.152-0.311-0.225c-1.329-0.933-2.784-1.586-4.321-1.95
				c-1.603-0.38-3.179-0.573-4.688-0.573c-2.301,0-4.298,0.403-5.936,1.201c-1.655,0.806-3.028,1.881-4.084,3.195
				c-1.082,1.35-1.899,2.87-2.423,4.521C102.595,27.362,102.061,27.705,101.479,27.705"/>
		</g>
	</g>
	<g>
		<g>
			<defs>
				<rect id="SVGID_49_" x="-27.5" y="-54.567" width="213.167" height="191.886"/>
			</defs>
			<clipPath id="SVGID_50_">
				<use xlink:href="#SVGID_49_"  overflow="visible"/>
			</clipPath>
			<polygon clip-path="url(#SVGID_50_)" fill="#F3F3F3" points="24.449,70.739 21.416,70.739 21.416,77.733 20.576,77.733 
				20.576,70.739 17.543,70.739 17.543,70.072 24.449,70.072 			"/>
		</g>
	</g>
	<g>
		<g>
			<defs>
				<rect id="SVGID_51_" x="-27.5" y="-54.567" width="213.167" height="191.886"/>
			</defs>
			<clipPath id="SVGID_52_">
				<use xlink:href="#SVGID_51_"  overflow="visible"/>
			</clipPath>
			<polygon clip-path="url(#SVGID_52_)" fill="#F3F3F3" points="32.435,70.072 32.435,77.733 31.607,77.733 31.607,74.152 
				26.558,74.152 26.558,77.733 25.72,77.733 25.72,70.072 26.558,70.072 26.558,73.481 31.607,73.481 31.607,70.072 			"/>
		</g>
	</g>
	<g>
		<g>
			<defs>
				<rect id="SVGID_53_" x="-27.5" y="-54.567" width="213.167" height="191.886"/>
			</defs>
			<clipPath id="SVGID_54_">
				<use xlink:href="#SVGID_53_"  overflow="visible"/>
			</clipPath>
			<polygon clip-path="url(#SVGID_54_)" fill="#F3F3F3" points="40.289,77.067 40.289,77.733 34.569,77.733 34.569,70.072 
				40.179,70.072 40.179,70.739 35.408,70.739 35.408,73.504 39.569,73.504 39.569,74.141 35.408,74.141 35.408,77.067 			"/>
		</g>
	</g>
	<g>
		<g>
			<defs>
				<rect id="SVGID_55_" x="-27.5" y="-54.567" width="213.167" height="191.886"/>
			</defs>
			<clipPath id="SVGID_56_">
				<use xlink:href="#SVGID_55_"  overflow="visible"/>
			</clipPath>
			<path clip-path="url(#SVGID_56_)" fill="#F3F3F3" d="M49.857,71.877c-0.08-0.08-0.198-0.168-0.349-0.255
				c-0.152-0.091-0.331-0.175-0.54-0.256c-0.208-0.077-0.431-0.142-0.67-0.191c-0.239-0.054-0.49-0.077-0.745-0.077
				c-0.559,0-0.975,0.093-1.246,0.278c-0.271,0.188-0.408,0.447-0.408,0.777c0,0.239,0.075,0.436,0.229,0.573
				c0.15,0.14,0.382,0.258,0.693,0.351c0.314,0.093,0.704,0.193,1.176,0.301c0.576,0.121,1.074,0.267,1.498,0.434
				c0.424,0.174,0.748,0.393,0.973,0.675c0.222,0.28,0.335,0.65,0.335,1.106c0,0.389-0.081,0.725-0.24,1.004
				s-0.383,0.508-0.67,0.682c-0.289,0.178-0.621,0.306-0.996,0.39c-0.376,0.077-0.781,0.121-1.212,0.121
				c-0.422,0-0.845-0.038-1.264-0.119c-0.42-0.078-0.819-0.195-1.2-0.349c-0.379-0.155-0.729-0.344-1.048-0.57l0.612-1.034
				c0.105,0.093,0.255,0.197,0.449,0.308c0.197,0.112,0.424,0.219,0.684,0.317c0.258,0.102,0.542,0.187,0.85,0.257
				c0.309,0.066,0.622,0.101,0.943,0.101c0.535,0,0.944-0.085,1.229-0.253c0.283-0.167,0.424-0.408,0.424-0.724
				c0-0.256-0.092-0.463-0.274-0.62c-0.185-0.154-0.453-0.282-0.804-0.391c-0.353-0.11-0.771-0.216-1.257-0.323
				c-0.561-0.137-1.028-0.283-1.404-0.445c-0.377-0.163-0.659-0.371-0.846-0.626c-0.188-0.253-0.283-0.579-0.283-0.974
				c0-0.501,0.137-0.928,0.408-1.275c0.272-0.349,0.643-0.61,1.108-0.786c0.469-0.177,0.996-0.264,1.577-0.264
				c0.384,0,0.748,0.036,1.093,0.116c0.343,0.071,0.664,0.176,0.964,0.308c0.301,0.129,0.574,0.276,0.823,0.44L49.857,71.877z"/>
		</g>
	</g>
	<g>
		<g>
			<defs>
				<rect id="SVGID_57_" x="-27.5" y="-54.567" width="213.167" height="191.886"/>
			</defs>
			<clipPath id="SVGID_58_">
				<use xlink:href="#SVGID_57_"  overflow="visible"/>
			</clipPath>
			<path clip-path="url(#SVGID_58_)" fill="#F3F3F3" d="M55.685,77.789c-0.617,0-1.171-0.107-1.668-0.322
				c-0.494-0.217-0.923-0.508-1.282-0.881c-0.36-0.37-0.638-0.786-0.833-1.251c-0.198-0.464-0.294-0.941-0.294-1.429
				c0-0.512,0.104-1.002,0.312-1.465c0.208-0.465,0.496-0.877,0.863-1.239c0.37-0.363,0.801-0.653,1.3-0.863
				c0.5-0.212,1.041-0.32,1.627-0.32c0.606,0,1.16,0.111,1.659,0.335c0.5,0.223,0.928,0.522,1.283,0.897
				c0.356,0.374,0.633,0.791,0.827,1.253c0.196,0.462,0.294,0.931,0.294,1.414c0,0.51-0.102,0.999-0.306,1.462
				c-0.205,0.464-0.489,0.878-0.857,1.239c-0.367,0.363-0.801,0.65-1.3,0.858C56.809,77.687,56.267,77.789,55.685,77.789
				 M52.973,73.905c0,0.358,0.066,0.709,0.192,1.046c0.128,0.339,0.31,0.64,0.546,0.903c0.236,0.262,0.521,0.468,0.857,0.618
				c0.336,0.151,0.711,0.227,1.126,0.227c0.434,0,0.816-0.078,1.152-0.239c0.336-0.155,0.618-0.369,0.844-0.641
				c0.229-0.27,0.403-0.57,0.521-0.906c0.122-0.335,0.182-0.669,0.182-1.007c0-0.362-0.061-0.711-0.186-1.044
				c-0.124-0.335-0.306-0.634-0.543-0.894c-0.242-0.263-0.529-0.471-0.859-0.621c-0.331-0.153-0.702-0.228-1.111-0.228
				c-0.43,0-0.814,0.08-1.15,0.236c-0.335,0.161-0.62,0.371-0.852,0.638c-0.231,0.266-0.41,0.563-0.533,0.896
				C53.037,73.223,52.973,73.56,52.973,73.905"/>
		</g>
	</g>
	<g>
		<g>
			<defs>
				<rect id="SVGID_59_" x="-27.5" y="-54.567" width="213.167" height="191.886"/>
			</defs>
			<clipPath id="SVGID_60_">
				<use xlink:href="#SVGID_59_"  overflow="visible"/>
			</clipPath>
			<path clip-path="url(#SVGID_60_)" fill="#F3F3F3" d="M60.624,73.84c0-0.468,0.092-0.925,0.277-1.376
				c0.184-0.451,0.453-0.859,0.809-1.232c0.356-0.368,0.79-0.664,1.3-0.883c0.511-0.22,1.092-0.33,1.74-0.33
				c0.767,0,1.429,0.157,1.99,0.469c0.56,0.315,0.975,0.715,1.247,1.205l-1.055,0.636c-0.161-0.31-0.363-0.554-0.606-0.734
				c-0.243-0.18-0.508-0.305-0.79-0.376c-0.283-0.073-0.563-0.108-0.835-0.108c-0.448,0-0.838,0.079-1.175,0.242
				c-0.335,0.163-0.616,0.376-0.844,0.642c-0.229,0.266-0.4,0.564-0.517,0.896c-0.117,0.331-0.173,0.66-0.173,0.992
				c0,0.367,0.067,0.72,0.204,1.064c0.134,0.344,0.325,0.645,0.569,0.908c0.243,0.262,0.534,0.468,0.869,0.618
				c0.335,0.151,0.704,0.227,1.102,0.227c0.272,0,0.556-0.043,0.852-0.129c0.295-0.089,0.569-0.222,0.822-0.405
				c0.251-0.183,0.448-0.425,0.593-0.728l1.116,0.569c-0.174,0.383-0.451,0.707-0.823,0.975c-0.371,0.265-0.786,0.468-1.245,0.603
				c-0.462,0.138-0.915,0.205-1.362,0.205c-0.599,0-1.147-0.113-1.644-0.34c-0.496-0.227-0.924-0.53-1.282-0.906
				c-0.361-0.381-0.64-0.801-0.84-1.275C60.724,74.797,60.624,74.321,60.624,73.84"/>
		</g>
	</g>
	<g>
		<g>
			<defs>
				<rect id="SVGID_61_" x="-27.5" y="-54.567" width="213.167" height="191.886"/>
			</defs>
			<clipPath id="SVGID_62_">
				<use xlink:href="#SVGID_61_"  overflow="visible"/>
			</clipPath>
			<rect x="69.364" y="70.072" clip-path="url(#SVGID_62_)" fill="#F3F3F3" width="1.343" height="7.661"/>
		</g>
	</g>
	<g>
		<g>
			<defs>
				<rect id="SVGID_63_" x="-27.5" y="-54.567" width="213.167" height="191.886"/>
			</defs>
			<clipPath id="SVGID_64_">
				<use xlink:href="#SVGID_63_"  overflow="visible"/>
			</clipPath>
			<path clip-path="url(#SVGID_64_)" fill="#F3F3F3" d="M75.085,70.072h1.272l3.307,7.661H78.25l-0.831-2.08h-3.405l-0.836,2.08
				H71.75L75.085,70.072z M77.06,74.757l-1.337-3.357l-1.35,3.357H77.06z"/>
		</g>
	</g>
	<g>
		<g>
			<defs>
				<rect id="SVGID_65_" x="-27.5" y="-54.567" width="213.167" height="191.886"/>
			</defs>
			<clipPath id="SVGID_66_">
				<use xlink:href="#SVGID_65_"  overflow="visible"/>
			</clipPath>
			<polygon clip-path="url(#SVGID_66_)" fill="#F3F3F3" points="80.719,77.733 80.719,70.072 82.064,70.072 82.064,76.668 
				86.631,76.668 86.631,77.733 			"/>
		</g>
	</g>
	<g>
		<g>
			<defs>
				<rect id="SVGID_67_" x="-27.5" y="-54.567" width="213.167" height="191.886"/>
			</defs>
			<clipPath id="SVGID_68_">
				<use xlink:href="#SVGID_67_"  overflow="visible"/>
			</clipPath>
			<path clip-path="url(#SVGID_68_)" fill="#F3F3F3" d="M90.325,73.84c0-0.468,0.09-0.925,0.27-1.376
				c0.179-0.451,0.444-0.859,0.784-1.232c0.345-0.368,0.767-0.664,1.271-0.883c0.506-0.22,1.079-0.33,1.717-0.33
				c0.761,0,1.408,0.157,1.947,0.469c0.54,0.315,0.937,0.715,1.196,1.205l-0.663,0.369c-0.186-0.342-0.414-0.611-0.695-0.807
				c-0.278-0.198-0.578-0.343-0.892-0.427c-0.318-0.087-0.631-0.13-0.943-0.13c-0.512,0-0.965,0.095-1.354,0.276
				c-0.394,0.185-0.724,0.428-0.987,0.732c-0.271,0.307-0.472,0.648-0.606,1.028c-0.136,0.375-0.206,0.761-0.206,1.148
				c0,0.425,0.083,0.832,0.244,1.221c0.155,0.386,0.38,0.73,0.668,1.027c0.286,0.299,0.625,0.537,1.014,0.714
				c0.387,0.178,0.811,0.264,1.266,0.264c0.317,0,0.646-0.05,0.982-0.15c0.334-0.1,0.647-0.257,0.94-0.462
				c0.292-0.209,0.526-0.479,0.701-0.813l0.695,0.323c-0.177,0.383-0.451,0.707-0.815,0.975c-0.366,0.268-0.777,0.468-1.23,0.603
				c-0.45,0.138-0.893,0.205-1.321,0.205c-0.585,0-1.121-0.113-1.607-0.34c-0.487-0.227-0.911-0.53-1.268-0.906
				c-0.355-0.378-0.629-0.801-0.822-1.275C90.424,74.797,90.325,74.321,90.325,73.84"/>
		</g>
	</g>
	<g>
		<g>
			<defs>
				<rect id="SVGID_69_" x="-27.5" y="-54.567" width="213.167" height="191.886"/>
			</defs>
			<clipPath id="SVGID_70_">
				<use xlink:href="#SVGID_69_"  overflow="visible"/>
			</clipPath>
			<path clip-path="url(#SVGID_70_)" fill="#F3F3F3" d="M101.63,70.072h0.709l3.538,7.661h-0.888l-1.062-2.393h-3.894l-1.063,2.393
				H98.07L101.63,70.072z M103.663,74.746l-1.684-3.789l-1.683,3.789H103.663z"/>
		</g>
	</g>
	<g>
		<g>
			<defs>
				<rect id="SVGID_71_" x="-27.5" y="-54.567" width="213.167" height="191.886"/>
			</defs>
			<clipPath id="SVGID_72_">
				<use xlink:href="#SVGID_71_"  overflow="visible"/>
			</clipPath>
			<polygon clip-path="url(#SVGID_72_)" fill="#F3F3F3" points="107.099,77.733 107.099,70.072 107.938,70.072 107.938,77.067 
				112.855,77.067 112.855,77.733 			"/>
		</g>
	</g>
	<g>
		<g>
			<defs>
				<rect id="SVGID_73_" x="-27.5" y="-54.567" width="213.167" height="191.886"/>
			</defs>
			<clipPath id="SVGID_74_">
				<use xlink:href="#SVGID_73_"  overflow="visible"/>
			</clipPath>
			<polygon clip-path="url(#SVGID_74_)" fill="#F3F3F3" points="114.091,77.733 114.091,70.072 114.93,70.072 114.93,77.067 
				119.848,77.067 119.848,77.733 			"/>
		</g>
	</g>
	<g>
		<g>
			<defs>
				<rect id="SVGID_75_" x="-27.5" y="-54.567" width="213.167" height="191.886"/>
			</defs>
			<clipPath id="SVGID_76_">
				<use xlink:href="#SVGID_75_"  overflow="visible"/>
			</clipPath>
			<rect x="121.082" y="70.072" clip-path="url(#SVGID_76_)" fill="#F3F3F3" width="0.84" height="7.661"/>
		</g>
	</g>
	<g>
		<g>
			<defs>
				<rect id="SVGID_77_" x="-27.5" y="-54.567" width="213.167" height="191.886"/>
			</defs>
			<clipPath id="SVGID_78_">
				<use xlink:href="#SVGID_77_"  overflow="visible"/>
			</clipPath>
			<polygon clip-path="url(#SVGID_78_)" fill="#F3F3F3" points="124.894,71.465 124.894,77.733 124.057,77.733 124.057,70.072 
				124.751,70.072 130.338,76.46 130.338,70.085 131.176,70.085 131.176,77.733 130.398,77.733 			"/>
		</g>
	</g>
	<g>
		<g>
			<defs>
				<rect id="SVGID_79_" x="-27.5" y="-54.567" width="213.167" height="191.886"/>
			</defs>
			<clipPath id="SVGID_80_">
				<use xlink:href="#SVGID_79_"  overflow="visible"/>
			</clipPath>
			<path clip-path="url(#SVGID_80_)" fill="#F3F3F3" d="M136.73,77.789c-0.571,0-1.099-0.109-1.585-0.329
				c-0.487-0.217-0.912-0.515-1.27-0.89c-0.361-0.374-0.64-0.791-0.834-1.253c-0.195-0.461-0.292-0.935-0.292-1.424
				c0-0.52,0.097-1.009,0.292-1.472c0.194-0.468,0.469-0.88,0.818-1.237c0.352-0.361,0.771-0.645,1.251-0.851
				c0.476-0.209,1.002-0.316,1.567-0.316c0.841,0,1.525,0.157,2.051,0.466c0.528,0.309,0.929,0.711,1.2,1.209l-0.649,0.388
				c-0.272-0.475-0.635-0.823-1.089-1.047c-0.457-0.221-0.964-0.335-1.522-0.335c-0.473,0-0.902,0.088-1.279,0.271
				c-0.38,0.177-0.704,0.421-0.978,0.723c-0.271,0.302-0.477,0.645-0.618,1.023c-0.136,0.384-0.212,0.78-0.212,1.191
				c0,0.429,0.083,0.839,0.244,1.226c0.159,0.383,0.384,0.725,0.682,1.021c0.295,0.303,0.639,0.534,1.023,0.702
				c0.39,0.171,0.807,0.254,1.258,0.254c0.518,0,1.009-0.117,1.472-0.35c0.464-0.232,0.906-0.595,1.333-1.084v0.798
				C138.784,77.351,137.831,77.789,136.73,77.789 M139.46,74.553h-1.891v-0.586h2.601v3.767h-0.71V74.553L139.46,74.553z"/>
		</g>
	</g>
	<g>
		<g>
			<defs>
				<rect id="SVGID_81_" x="-27.5" y="-54.567" width="213.167" height="191.886"/>
			</defs>
			<clipPath id="SVGID_82_">
				<use xlink:href="#SVGID_81_"  overflow="visible"/>
			</clipPath>
			<path clip-path="url(#SVGID_82_)" fill="#D41C5D" d="M47.838,62.118h-2.264c-4.981,0-9.034-3.646-9.034-8.129V23.813
				c0-3.161-2.855-5.732-6.367-5.732h-3.171c-4.979,0-9.033-3.648-9.033-8.131c0-4.484,4.054-8.132,9.033-8.132h20.899
				c3.022,0,5.833,1.353,7.514,3.617c0.41,0.55,0.246,1.296-0.367,1.664C54.437,7.469,53.61,7.32,53.2,6.768
				c-1.187-1.598-3.168-2.55-5.299-2.55H27.002c-3.512,0-6.368,2.57-6.368,5.732c0,3.161,2.856,5.732,6.368,5.732h3.171
				c4.979,0,9.033,3.648,9.033,8.131v30.176c0,3.158,2.855,5.732,6.367,5.732h2.264c1.386,0,2.703-0.396,3.81-1.14
				c0.589-0.397,1.424-0.286,1.863,0.243c0.441,0.531,0.321,1.281-0.268,1.679C51.672,61.562,49.805,62.118,47.838,62.118"/>
		</g>
	</g>
	<g>
		<g>
			<defs>
				<rect id="SVGID_83_" x="-27.5" y="-54.567" width="213.167" height="191.886"/>
			</defs>
			<clipPath id="SVGID_84_">
				<use xlink:href="#SVGID_83_"  overflow="visible"/>
			</clipPath>
			<path clip-path="url(#SVGID_84_)" fill="#D41C5D" d="M79.249,48.173c-2.59,0-5.202-0.347-7.762-1.028
				c-2.492-0.665-4.791-1.423-6.832-2.259c-0.291-0.12-0.589-0.245-0.891-0.376c-0.662-0.285-0.942-1.001-0.626-1.598
				c0.318-0.599,1.114-0.851,1.778-0.564c0.285,0.121,0.565,0.237,0.843,0.354c1.927,0.79,4.11,1.511,6.486,2.143
				c2.313,0.618,4.67,0.933,7.003,0.933c2.261,0,3.065-0.328,3.308-0.471c0.484-0.283,0.524-0.531,0.524-0.743
				c0-0.454-0.143-1.041-1.274-1.568c-1.244-0.581-2.92-1.154-4.971-1.695c-2.156-0.569-4.559-1.24-7.146-1.995
				c-3.854-1.165-7.066-2.507-9.564-3.986c-2.595-1.535-4.545-3.401-5.793-5.547c-1.241-2.134-1.873-4.732-1.873-7.724
				c0-4.498,1.21-8.325,3.596-11.379c2.36-3.025,5.515-5.354,9.375-6.923c3.811-1.547,7.973-2.333,12.369-2.333
				c3.237,0,6.415,0.354,9.438,1.057c2.985,0.693,5.823,1.549,8.432,2.543l0.266,0.102c0.679,0.257,0.997,0.961,0.707,1.571
				c-0.285,0.609-1.07,0.896-1.744,0.636l-0.27-0.102c-2.487-0.948-5.198-1.765-8.055-2.429c-2.808-0.652-5.759-0.981-8.774-0.981
				c-4.016,0-7.809,0.714-11.273,2.121c-3.418,1.39-6.207,3.449-8.29,6.117c-2.064,2.642-3.11,6.005-3.11,10
				c0,2.6,0.527,4.824,1.569,6.611c1.036,1.78,2.683,3.348,4.897,4.655c2.307,1.371,5.313,2.617,8.933,3.714
				c2.548,0.744,4.928,1.408,7.063,1.971c2.219,0.586,4.047,1.214,5.448,1.867c2.241,1.047,2.711,2.588,2.711,3.698
				c0,0.796-0.304,1.916-1.737,2.756C83.007,47.903,81.496,48.173,79.249,48.173"/>
		</g>
	</g>
	<g>
		<g>
			<defs>
				<rect id="SVGID_85_" x="-27.5" y="-54.567" width="213.167" height="191.886"/>
			</defs>
			<clipPath id="SVGID_86_">
				<use xlink:href="#SVGID_85_"  overflow="visible"/>
			</clipPath>
			<path clip-path="url(#SVGID_86_)" fill="#D41C5D" d="M78.978,62.527c-3.146,0-6.477-0.294-9.896-0.879
				c-3.412-0.581-6.755-1.391-9.939-2.412c-0.761-0.245-1.515-0.503-2.234-0.761c-0.684-0.246-1.014-0.947-0.739-1.561
				c0.275-0.616,1.05-0.912,1.733-0.666c0.687,0.248,1.405,0.495,2.134,0.728c3.053,0.979,6.264,1.757,9.541,2.316
				c3.257,0.554,6.421,0.834,9.4,0.834c2.898,0,5.781-0.301,8.57-0.896c2.734-0.584,5.241-1.548,7.454-2.863
				c2.16-1.286,3.901-3.026,5.182-5.181c1.274-2.16,1.925-4.896,1.925-8.124c0-3.359-0.725-6.063-2.144-8.035
				c-1.44-2-3.532-3.674-6.216-4.971c-2.806-1.355-6.197-2.575-10.082-3.624c-2.469-0.699-4.613-1.296-6.389-1.779
				c-1.931-0.525-3.398-1.104-4.486-1.775c-1.329-0.813-2.031-1.966-2.031-3.333c0-1.47,0.779-2.627,2.191-3.256
				c1.147-0.512,2.597-0.772,4.305-0.772c2.051,0,4.163,0.292,6.272,0.867c2.037,0.557,3.951,1.191,5.688,1.889
				c0.669,0.268,0.998,0.985,0.697,1.589c-0.295,0.606-1.055,0.89-1.726,0.624c-0.007-0.002-0.036-0.015-0.041-0.018
				c-1.651-0.663-3.459-1.261-5.388-1.788c-1.861-0.507-3.714-0.765-5.502-0.765c-1.295,0-2.346,0.176-3.123,0.522
				c-0.427,0.191-0.71,0.45-0.71,1.107c0,0.568,0.269,0.985,0.868,1.352c0.852,0.523,2.112,1.014,3.759,1.46
				c1.783,0.486,3.938,1.085,6.4,1.783c4.037,1.091,7.598,2.375,10.56,3.805c3.085,1.491,5.504,3.436,7.191,5.778
				c1.705,2.369,2.569,5.511,2.569,9.34c0,3.632-0.753,6.742-2.24,9.252c-1.49,2.511-3.528,4.545-6.062,6.053
				c-2.472,1.469-5.268,2.548-8.305,3.195C85.169,62.206,82.082,62.527,78.978,62.527"/>
		</g>
	</g>
	<g>
		<g>
			<defs>
				<rect id="SVGID_87_" x="-27.5" y="-54.567" width="213.167" height="191.886"/>
			</defs>
			<clipPath id="SVGID_88_">
				<use xlink:href="#SVGID_87_"  overflow="visible"/>
			</clipPath>
			<path clip-path="url(#SVGID_88_)" fill="#D41C5D" d="M115.023,62.527c-4.951,0-9.552-0.903-13.669-2.691
				c-0.664-0.284-0.94-1.001-0.623-1.596c0.318-0.598,1.115-0.851,1.781-0.563c3.751,1.625,7.962,2.451,12.511,2.451
				c3.531,0,7.145-0.52,10.744-1.536c3.58-1.013,6.827-2.502,9.652-4.421l0.081-0.053c1.591-1.093,2.432-2.753,2.318-4.57
				c-0.112-1.835-1.227-3.493-2.973-4.434l-1.488-0.8c-2.282-1.224-5.212-0.987-7.122,0.578c-0.129,0.107-0.263,0.212-0.396,0.313
				c-1.525,1.134-3.232,1.963-5.088,2.47c-1.808,0.492-3.613,0.744-5.367,0.744c-2.489,0-4.775-0.454-6.793-1.347
				c-0.66-0.292-0.933-1.013-0.609-1.605c0.328-0.591,1.122-0.841,1.782-0.546c1.653,0.729,3.541,1.099,5.62,1.099
				c1.491,0,3.038-0.215,4.594-0.642c1.516-0.412,2.915-1.094,4.163-2.019c0.1-0.078,0.197-0.154,0.297-0.237
				c2.775-2.276,7.005-2.629,10.287-0.865l1.483,0.801c2.506,1.349,4.105,3.723,4.271,6.356c0.161,2.581-1.096,5.053-3.361,6.607
				l-0.092,0.065c-3.066,2.084-6.588,3.696-10.462,4.794C122.707,61.976,118.825,62.527,115.023,62.527 M101.479,27.705
				c-0.121,0-0.244-0.017-0.366-0.047c-0.709-0.184-1.114-0.848-0.913-1.484c0.614-1.918,1.562-3.689,2.828-5.264
				c1.289-1.61,2.964-2.923,4.975-3.901c2.027-0.989,4.454-1.49,7.203-1.49c1.734,0,3.545,0.219,5.366,0.65
				c1.887,0.447,3.66,1.246,5.28,2.374c0.139,0.099,0.276,0.202,0.414,0.308c2.063,1.601,5.095,1.694,7.387,0.228l1.155-0.741
				c1.554-0.993,2.481-2.547,2.556-4.259c0.071-1.714-0.727-3.326-2.192-4.423c-1.235-0.924-2.625-1.775-4.129-2.534
				c-4.369-2.198-9.572-3.313-15.475-3.313c-4.917,0-9.382,0.802-13.267,2.382c-0.672,0.272-1.462,0.003-1.762-0.599
				c-0.302-0.604-0.005-1.315,0.664-1.587c4.229-1.721,9.065-2.594,14.366-2.594c6.36,0,12.002,1.217,16.776,3.618
				c1.645,0.832,3.17,1.768,4.529,2.784c2.107,1.577,3.255,3.893,3.154,6.356c-0.104,2.464-1.444,4.697-3.677,6.125l-1.156,0.741
				c-3.29,2.109-7.681,1.958-10.672-0.369c-0.101-0.078-0.201-0.152-0.311-0.225c-1.329-0.933-2.784-1.586-4.321-1.95
				c-1.603-0.38-3.179-0.573-4.688-0.573c-2.301,0-4.298,0.403-5.936,1.201c-1.655,0.806-3.028,1.881-4.084,3.195
				c-1.082,1.35-1.899,2.87-2.423,4.521C102.595,27.362,102.061,27.705,101.479,27.705"/>
		</g>
	</g>
	<g>
		<g>
			<defs>
				<rect id="SVGID_89_" x="-27.5" y="-54.567" width="213.167" height="191.886"/>
			</defs>
			<clipPath id="SVGID_90_">
				<use xlink:href="#SVGID_89_"  overflow="visible"/>
			</clipPath>
			<polygon clip-path="url(#SVGID_90_)" fill="#FFFFFF" points="24.449,70.739 21.416,70.739 21.416,77.733 20.576,77.733 
				20.576,70.739 17.543,70.739 17.543,70.072 24.449,70.072 			"/>
		</g>
	</g>
	<g>
		<g>
			<defs>
				<rect id="SVGID_91_" x="-27.5" y="-54.567" width="213.167" height="191.886"/>
			</defs>
			<clipPath id="SVGID_92_">
				<use xlink:href="#SVGID_91_"  overflow="visible"/>
			</clipPath>
			<polygon clip-path="url(#SVGID_92_)" fill="#FFFFFF" points="32.435,70.072 32.435,77.733 31.607,77.733 31.607,74.152 
				26.558,74.152 26.558,77.733 25.72,77.733 25.72,70.072 26.558,70.072 26.558,73.481 31.607,73.481 31.607,70.072 			"/>
		</g>
	</g>
	<g>
		<g>
			<defs>
				<rect id="SVGID_93_" x="-27.5" y="-54.567" width="213.167" height="191.886"/>
			</defs>
			<clipPath id="SVGID_94_">
				<use xlink:href="#SVGID_93_"  overflow="visible"/>
			</clipPath>
			<polygon clip-path="url(#SVGID_94_)" fill="#FFFFFF" points="40.289,77.067 40.289,77.733 34.569,77.733 34.569,70.072 
				40.179,70.072 40.179,70.739 35.408,70.739 35.408,73.504 39.569,73.504 39.569,74.141 35.408,74.141 35.408,77.067 			"/>
		</g>
	</g>
	<g>
		<g>
			<defs>
				<rect id="SVGID_95_" x="-27.5" y="-54.567" width="213.167" height="191.886"/>
			</defs>
			<clipPath id="SVGID_96_">
				<use xlink:href="#SVGID_95_"  overflow="visible"/>
			</clipPath>
			<path clip-path="url(#SVGID_96_)" fill="#FFFFFF" d="M49.857,71.877c-0.08-0.08-0.198-0.168-0.349-0.255
				c-0.152-0.091-0.331-0.175-0.54-0.256c-0.208-0.077-0.431-0.142-0.67-0.191c-0.239-0.054-0.49-0.077-0.745-0.077
				c-0.559,0-0.975,0.093-1.246,0.278c-0.271,0.188-0.408,0.447-0.408,0.777c0,0.239,0.075,0.436,0.229,0.573
				c0.15,0.14,0.382,0.258,0.693,0.351c0.314,0.093,0.704,0.193,1.176,0.301c0.576,0.121,1.074,0.267,1.498,0.434
				c0.424,0.174,0.748,0.393,0.973,0.675c0.222,0.28,0.335,0.65,0.335,1.106c0,0.389-0.081,0.725-0.24,1.004
				s-0.383,0.508-0.67,0.682c-0.289,0.178-0.621,0.306-0.996,0.39c-0.376,0.077-0.781,0.121-1.212,0.121
				c-0.422,0-0.845-0.038-1.264-0.119c-0.42-0.078-0.819-0.195-1.2-0.349c-0.379-0.155-0.729-0.344-1.048-0.57l0.612-1.034
				c0.105,0.093,0.255,0.197,0.449,0.308c0.197,0.112,0.424,0.219,0.684,0.317c0.258,0.102,0.542,0.187,0.85,0.257
				c0.309,0.066,0.622,0.101,0.943,0.101c0.535,0,0.944-0.085,1.229-0.253c0.283-0.167,0.424-0.408,0.424-0.724
				c0-0.256-0.092-0.463-0.274-0.62c-0.185-0.154-0.453-0.282-0.804-0.391c-0.353-0.11-0.771-0.216-1.257-0.323
				c-0.561-0.137-1.028-0.283-1.404-0.445c-0.377-0.163-0.659-0.371-0.846-0.626c-0.188-0.253-0.283-0.579-0.283-0.974
				c0-0.501,0.137-0.928,0.408-1.275c0.272-0.349,0.643-0.61,1.108-0.786c0.469-0.177,0.996-0.264,1.577-0.264
				c0.384,0,0.748,0.036,1.093,0.116c0.343,0.071,0.664,0.176,0.964,0.308c0.301,0.129,0.574,0.276,0.823,0.44L49.857,71.877z"/>
		</g>
	</g>
	<g>
		<g>
			<defs>
				<rect id="SVGID_97_" x="-27.5" y="-54.567" width="213.167" height="191.886"/>
			</defs>
			<clipPath id="SVGID_98_">
				<use xlink:href="#SVGID_97_"  overflow="visible"/>
			</clipPath>
			<path clip-path="url(#SVGID_98_)" fill="#FFFFFF" d="M55.685,77.789c-0.617,0-1.171-0.107-1.668-0.322
				c-0.494-0.217-0.923-0.508-1.282-0.881c-0.36-0.37-0.638-0.786-0.833-1.251c-0.198-0.464-0.294-0.941-0.294-1.429
				c0-0.512,0.104-1.002,0.312-1.465c0.208-0.465,0.496-0.877,0.863-1.239c0.37-0.363,0.801-0.653,1.3-0.863
				c0.5-0.212,1.041-0.32,1.627-0.32c0.606,0,1.16,0.111,1.659,0.335c0.5,0.223,0.928,0.522,1.283,0.897
				c0.356,0.374,0.633,0.791,0.827,1.253c0.196,0.462,0.294,0.931,0.294,1.414c0,0.51-0.102,0.999-0.306,1.462
				c-0.205,0.464-0.489,0.878-0.857,1.239c-0.367,0.363-0.801,0.65-1.3,0.858C56.809,77.687,56.267,77.789,55.685,77.789
				 M52.973,73.905c0,0.358,0.066,0.709,0.192,1.046c0.128,0.339,0.31,0.64,0.546,0.903c0.236,0.262,0.521,0.468,0.857,0.618
				c0.336,0.151,0.711,0.227,1.126,0.227c0.434,0,0.816-0.078,1.152-0.239c0.336-0.155,0.618-0.369,0.844-0.641
				c0.229-0.27,0.403-0.57,0.521-0.906c0.122-0.335,0.182-0.669,0.182-1.007c0-0.362-0.061-0.711-0.186-1.044
				c-0.124-0.335-0.306-0.634-0.543-0.894c-0.242-0.263-0.529-0.471-0.859-0.621c-0.331-0.153-0.702-0.228-1.111-0.228
				c-0.43,0-0.814,0.08-1.15,0.236c-0.335,0.161-0.62,0.371-0.852,0.638c-0.231,0.266-0.41,0.563-0.533,0.896
				C53.037,73.223,52.973,73.56,52.973,73.905"/>
		</g>
	</g>
	<g>
		<g>
			<defs>
				<rect id="SVGID_99_" x="-27.5" y="-54.567" width="213.167" height="191.886"/>
			</defs>
			<clipPath id="SVGID_100_">
				<use xlink:href="#SVGID_99_"  overflow="visible"/>
			</clipPath>
			<path clip-path="url(#SVGID_100_)" fill="#FFFFFF" d="M60.624,73.84c0-0.468,0.092-0.925,0.277-1.376
				c0.184-0.451,0.453-0.859,0.809-1.232c0.356-0.368,0.79-0.664,1.3-0.883c0.511-0.22,1.092-0.33,1.74-0.33
				c0.767,0,1.429,0.157,1.99,0.469c0.56,0.315,0.975,0.715,1.247,1.205l-1.055,0.636c-0.161-0.31-0.363-0.554-0.606-0.734
				c-0.243-0.18-0.508-0.305-0.79-0.376c-0.283-0.073-0.563-0.108-0.835-0.108c-0.448,0-0.838,0.079-1.175,0.242
				c-0.335,0.163-0.616,0.376-0.844,0.642c-0.229,0.266-0.4,0.564-0.517,0.896c-0.117,0.331-0.173,0.66-0.173,0.992
				c0,0.367,0.067,0.72,0.204,1.064c0.134,0.344,0.325,0.645,0.569,0.908c0.243,0.262,0.534,0.468,0.869,0.618
				c0.335,0.151,0.704,0.227,1.102,0.227c0.272,0,0.556-0.043,0.852-0.129c0.295-0.089,0.569-0.222,0.822-0.405
				c0.251-0.183,0.448-0.425,0.593-0.728l1.116,0.569c-0.174,0.383-0.451,0.707-0.823,0.975c-0.371,0.265-0.786,0.468-1.245,0.603
				c-0.462,0.138-0.915,0.205-1.362,0.205c-0.599,0-1.147-0.113-1.644-0.34c-0.496-0.227-0.924-0.53-1.282-0.906
				c-0.361-0.381-0.64-0.801-0.84-1.275C60.724,74.797,60.624,74.321,60.624,73.84"/>
		</g>
	</g>
	<g>
		<g>
			<defs>
				<rect id="SVGID_101_" x="-27.5" y="-54.567" width="213.167" height="191.886"/>
			</defs>
			<clipPath id="SVGID_102_">
				<use xlink:href="#SVGID_101_"  overflow="visible"/>
			</clipPath>
			<rect x="69.364" y="70.072" clip-path="url(#SVGID_102_)" fill="#FFFFFF" width="1.343" height="7.661"/>
		</g>
	</g>
	<g>
		<g>
			<defs>
				<rect id="SVGID_103_" x="-27.5" y="-54.567" width="213.167" height="191.886"/>
			</defs>
			<clipPath id="SVGID_104_">
				<use xlink:href="#SVGID_103_"  overflow="visible"/>
			</clipPath>
			<path clip-path="url(#SVGID_104_)" fill="#FFFFFF" d="M75.085,70.072h1.272l3.307,7.661H78.25l-0.831-2.08h-3.405l-0.836,2.08
				H71.75L75.085,70.072z M77.06,74.757l-1.337-3.357l-1.35,3.357H77.06z"/>
		</g>
	</g>
	<g>
		<g>
			<defs>
				<rect id="SVGID_105_" x="-27.5" y="-54.567" width="213.167" height="191.886"/>
			</defs>
			<clipPath id="SVGID_106_">
				<use xlink:href="#SVGID_105_"  overflow="visible"/>
			</clipPath>
			<polygon clip-path="url(#SVGID_106_)" fill="#FFFFFF" points="80.719,77.733 80.719,70.072 82.064,70.072 82.064,76.668 
				86.631,76.668 86.631,77.733 			"/>
		</g>
	</g>
	<g>
		<g>
			<defs>
				<rect id="SVGID_107_" x="-27.5" y="-54.567" width="213.167" height="191.886"/>
			</defs>
			<clipPath id="SVGID_108_">
				<use xlink:href="#SVGID_107_"  overflow="visible"/>
			</clipPath>
			<path clip-path="url(#SVGID_108_)" fill="#FFFFFF" d="M90.325,73.84c0-0.468,0.09-0.925,0.27-1.376
				c0.179-0.451,0.444-0.859,0.784-1.232c0.345-0.368,0.767-0.664,1.271-0.883c0.506-0.22,1.079-0.33,1.717-0.33
				c0.761,0,1.408,0.157,1.947,0.469c0.54,0.315,0.937,0.715,1.196,1.205l-0.663,0.369c-0.186-0.342-0.414-0.611-0.695-0.807
				c-0.278-0.198-0.578-0.343-0.892-0.427c-0.318-0.087-0.631-0.13-0.943-0.13c-0.512,0-0.965,0.095-1.354,0.276
				c-0.394,0.185-0.724,0.428-0.987,0.732c-0.271,0.307-0.472,0.648-0.606,1.028c-0.136,0.375-0.206,0.761-0.206,1.148
				c0,0.425,0.083,0.832,0.244,1.221c0.155,0.386,0.38,0.73,0.668,1.027c0.286,0.299,0.625,0.537,1.014,0.714
				c0.387,0.178,0.811,0.264,1.266,0.264c0.317,0,0.646-0.05,0.982-0.15c0.334-0.1,0.647-0.257,0.94-0.462
				c0.292-0.209,0.526-0.479,0.701-0.813l0.695,0.323c-0.177,0.383-0.451,0.707-0.815,0.975c-0.366,0.268-0.777,0.468-1.23,0.603
				c-0.45,0.138-0.893,0.205-1.321,0.205c-0.585,0-1.121-0.113-1.607-0.34c-0.487-0.227-0.911-0.53-1.268-0.906
				c-0.355-0.378-0.629-0.801-0.822-1.275C90.424,74.797,90.325,74.321,90.325,73.84"/>
		</g>
	</g>
	<g>
		<g>
			<defs>
				<rect id="SVGID_109_" x="-27.5" y="-54.567" width="213.167" height="191.886"/>
			</defs>
			<clipPath id="SVGID_110_">
				<use xlink:href="#SVGID_109_"  overflow="visible"/>
			</clipPath>
			<path clip-path="url(#SVGID_110_)" fill="#FFFFFF" d="M101.63,70.072h0.709l3.538,7.661h-0.888l-1.062-2.393h-3.894l-1.063,2.393
				H98.07L101.63,70.072z M103.663,74.746l-1.684-3.789l-1.683,3.789H103.663z"/>
		</g>
	</g>
	<g>
		<g>
			<defs>
				<rect id="SVGID_111_" x="-27.5" y="-54.567" width="213.167" height="191.886"/>
			</defs>
			<clipPath id="SVGID_112_">
				<use xlink:href="#SVGID_111_"  overflow="visible"/>
			</clipPath>
			<polygon clip-path="url(#SVGID_112_)" fill="#FFFFFF" points="107.099,77.733 107.099,70.072 107.938,70.072 107.938,77.067 
				112.855,77.067 112.855,77.733 			"/>
		</g>
	</g>
	<g>
		<g>
			<defs>
				<rect id="SVGID_113_" x="-27.5" y="-54.567" width="213.167" height="191.886"/>
			</defs>
			<clipPath id="SVGID_114_">
				<use xlink:href="#SVGID_113_"  overflow="visible"/>
			</clipPath>
			<polygon clip-path="url(#SVGID_114_)" fill="#FFFFFF" points="114.091,77.733 114.091,70.072 114.93,70.072 114.93,77.067 
				119.848,77.067 119.848,77.733 			"/>
		</g>
	</g>
	<g>
		<g>
			<defs>
				<rect id="SVGID_115_" x="-27.5" y="-54.567" width="213.167" height="191.886"/>
			</defs>
			<clipPath id="SVGID_116_">
				<use xlink:href="#SVGID_115_"  overflow="visible"/>
			</clipPath>
			<rect x="121.082" y="70.072" clip-path="url(#SVGID_116_)" fill="#FFFFFF" width="0.84" height="7.661"/>
		</g>
	</g>
	<g>
		<g>
			<defs>
				<rect id="SVGID_117_" x="-27.5" y="-54.567" width="213.167" height="191.886"/>
			</defs>
			<clipPath id="SVGID_118_">
				<use xlink:href="#SVGID_117_"  overflow="visible"/>
			</clipPath>
			<polygon clip-path="url(#SVGID_118_)" fill="#FFFFFF" points="124.894,71.465 124.894,77.733 124.057,77.733 124.057,70.072 
				124.751,70.072 130.338,76.46 130.338,70.085 131.176,70.085 131.176,77.733 130.398,77.733 			"/>
		</g>
	</g>
	<g>
		<g>
			<defs>
				<rect id="SVGID_119_" x="-27.5" y="-54.567" width="213.167" height="191.886"/>
			</defs>
			<clipPath id="SVGID_120_">
				<use xlink:href="#SVGID_119_"  overflow="visible"/>
			</clipPath>
			<path clip-path="url(#SVGID_120_)" fill="#FFFFFF" d="M136.73,77.789c-0.571,0-1.099-0.109-1.585-0.329
				c-0.487-0.217-0.912-0.515-1.27-0.89c-0.361-0.374-0.64-0.791-0.834-1.253c-0.195-0.461-0.292-0.935-0.292-1.424
				c0-0.52,0.097-1.009,0.292-1.472c0.194-0.468,0.469-0.88,0.818-1.237c0.352-0.361,0.771-0.645,1.251-0.851
				c0.476-0.209,1.002-0.316,1.567-0.316c0.841,0,1.525,0.157,2.051,0.466c0.528,0.309,0.929,0.711,1.2,1.209l-0.649,0.388
				c-0.272-0.475-0.635-0.823-1.089-1.047c-0.457-0.221-0.964-0.335-1.522-0.335c-0.473,0-0.902,0.088-1.279,0.271
				c-0.38,0.177-0.704,0.421-0.978,0.723c-0.271,0.302-0.477,0.645-0.618,1.023c-0.136,0.384-0.212,0.78-0.212,1.191
				c0,0.429,0.083,0.839,0.244,1.226c0.159,0.383,0.384,0.725,0.682,1.021c0.295,0.303,0.639,0.534,1.023,0.702
				c0.39,0.171,0.807,0.254,1.258,0.254c0.518,0,1.009-0.117,1.472-0.35c0.464-0.232,0.906-0.595,1.333-1.084v0.798
				C138.784,77.351,137.831,77.789,136.73,77.789 M139.46,74.553h-1.891v-0.586h2.601v3.767h-0.71V74.553L139.46,74.553z"/>
		</g>
	</g>
</g>
</svg>
