<?xml version="1.0" encoding="utf-8"?>
<!-- Generator: Adobe Illustrator 16.0.0, SVG Export Plug-In . SVG Version: 6.00 Build 0)  -->
<!DOCTYPE svg PUBLIC "-//W3C//DTD SVG 1.1//EN" "http://www.w3.org/Graphics/SVG/1.1/DTD/svg11.dtd">
<svg version="1.1" id="Layer_1" xmlns="http://www.w3.org/2000/svg" xmlns:xlink="http://www.w3.org/1999/xlink" x="0px" y="0px"
	 width="140px" height="70px" viewBox="0 0 140 70" enable-background="new 0 0 140 70" xml:space="preserve">
<g>
	<g>
		<g>
			<defs>
				<rect id="SVGID_1_" x="-26.333" y="-46.842" width="183.865" height="165.509"/>
			</defs>
			<clipPath id="SVGID_2_">
				<use xlink:href="#SVGID_1_"  overflow="visible"/>
			</clipPath>
			<path clip-path="url(#SVGID_2_)" fill="#D41C5D" d="M38.648,53.803h-1.953c-4.296,0-7.792-3.145-7.792-7.011V20.763
				c0-2.726-2.463-4.944-5.493-4.944h-2.735c-4.294,0-7.791-3.146-7.791-7.013c0-3.868,3.497-7.014,7.791-7.014h18.027
				c2.607,0,5.031,1.167,6.48,3.12c0.354,0.475,0.212,1.118-0.316,1.436c-0.527,0.319-1.24,0.19-1.594-0.286
				c-1.023-1.378-2.732-2.2-4.57-2.2H20.676c-3.029,0-5.492,2.218-5.492,4.944s2.463,4.944,5.492,4.944h2.735
				c4.296,0,7.792,3.146,7.792,7.013v26.029c0,2.724,2.463,4.943,5.492,4.943h1.953c1.195,0,2.332-0.342,3.286-0.982
				c0.508-0.343,1.229-0.247,1.607,0.21c0.38,0.458,0.277,1.104-0.231,1.447C41.956,53.323,40.345,53.803,38.648,53.803"/>
		</g>
	</g>
	<g>
		<g>
			<defs>
				<rect id="SVGID_3_" x="-26.333" y="-46.842" width="183.865" height="165.509"/>
			</defs>
			<clipPath id="SVGID_4_">
				<use xlink:href="#SVGID_3_"  overflow="visible"/>
			</clipPath>
			<path clip-path="url(#SVGID_4_)" fill="#D41C5D" d="M65.742,41.774c-2.234,0-4.487-0.299-6.695-0.887
				c-2.149-0.573-4.132-1.228-5.892-1.949c-0.251-0.103-0.508-0.211-0.769-0.323c-0.571-0.246-0.813-0.863-0.541-1.378
				c0.274-0.517,0.961-0.734,1.534-0.487c0.246,0.104,0.487,0.205,0.727,0.305c1.663,0.682,3.545,1.304,5.594,1.849
				c1.996,0.533,4.028,0.804,6.041,0.804c1.95,0,2.644-0.283,2.853-0.405c0.418-0.245,0.453-0.458,0.453-0.642
				c0-0.392-0.124-0.896-1.099-1.353c-1.074-0.501-2.519-0.996-4.288-1.462c-1.86-0.491-3.933-1.069-6.164-1.721
				c-3.324-1.005-6.095-2.162-8.249-3.438c-2.238-1.324-3.921-2.934-4.998-4.785c-1.07-1.841-1.615-4.082-1.615-6.663
				c0-3.879,1.044-7.18,3.101-9.815c2.036-2.609,4.757-4.618,8.086-5.972c3.287-1.334,6.877-2.013,10.669-2.013
				c2.792,0,5.532,0.306,8.14,0.912c2.575,0.598,5.022,1.336,7.272,2.194l0.23,0.088c0.584,0.222,0.859,0.829,0.609,1.355
				c-0.247,0.526-0.924,0.772-1.505,0.548L79.006,6.45c-2.146-0.817-4.483-1.522-6.947-2.095c-2.422-0.562-4.968-0.846-7.568-0.846
				c-3.464,0-6.736,0.616-9.724,1.829c-2.949,1.199-5.354,2.974-7.15,5.276c-1.78,2.278-2.683,5.18-2.683,8.625
				c0,2.243,0.455,4.161,1.354,5.702c0.893,1.536,2.314,2.887,4.224,4.016c1.99,1.182,4.583,2.257,7.705,3.204
				c2.197,0.642,4.251,1.214,6.092,1.699c1.913,0.506,3.491,1.048,4.699,1.61c1.933,0.904,2.338,2.233,2.338,3.189
				c0,0.687-0.262,1.653-1.499,2.377C68.982,41.542,67.679,41.774,65.742,41.774"/>
		</g>
	</g>
	<g>
		<g>
			<defs>
				<rect id="SVGID_5_" x="-26.333" y="-46.842" width="183.865" height="165.509"/>
			</defs>
			<clipPath id="SVGID_6_">
				<use xlink:href="#SVGID_5_"  overflow="visible"/>
			</clipPath>
			<path clip-path="url(#SVGID_6_)" fill="#D41C5D" d="M65.508,54.156c-2.714,0-5.586-0.254-8.536-0.759
				c-2.942-0.501-5.827-1.199-8.573-2.08c-0.657-0.211-1.306-0.434-1.927-0.656c-0.589-0.213-0.875-0.817-0.638-1.346
				c0.237-0.531,0.906-0.787,1.496-0.575c0.592,0.214,1.211,0.427,1.841,0.627c2.633,0.845,5.402,1.517,8.229,2
				c2.809,0.477,5.539,0.719,8.108,0.719c2.5,0,4.985-0.26,7.391-0.773c2.358-0.503,4.521-1.335,6.43-2.469
				c1.863-1.109,3.365-2.61,4.47-4.47c1.099-1.862,1.66-4.222,1.66-7.006c0-2.897-0.625-5.229-1.849-6.931
				c-1.243-1.726-3.048-3.169-5.361-4.288c-2.42-1.168-5.346-2.221-8.696-3.126c-2.13-0.603-3.98-1.118-5.512-1.535
				c-1.666-0.453-2.932-0.953-3.87-1.531c-1.146-0.701-1.752-1.696-1.752-2.875c0-1.269,0.672-2.266,1.891-2.809
				c0.989-0.441,2.24-0.666,3.713-0.666c1.769,0,3.59,0.251,5.411,0.748c1.756,0.48,3.407,1.028,4.905,1.629
				c0.576,0.231,0.86,0.85,0.601,1.372c-0.253,0.522-0.91,0.767-1.488,0.538c-0.006-0.002-0.031-0.013-0.035-0.016
				c-1.424-0.571-2.983-1.088-4.647-1.542c-1.606-0.438-3.204-0.66-4.746-0.66c-1.117,0-2.023,0.152-2.694,0.451
				c-0.368,0.165-0.612,0.389-0.612,0.956c0,0.489,0.231,0.849,0.749,1.166c0.734,0.451,1.821,0.874,3.242,1.259
				c1.538,0.419,3.396,0.937,5.521,1.538c3.482,0.941,6.554,2.048,9.108,3.282c2.661,1.286,4.747,2.963,6.202,4.984
				c1.471,2.043,2.217,4.754,2.217,8.057c0,3.132-0.649,5.814-1.933,7.979c-1.285,2.166-3.043,3.921-5.228,5.221
				c-2.133,1.268-4.545,2.197-7.164,2.757C70.849,53.878,68.185,54.156,65.508,54.156"/>
		</g>
	</g>
	<g>
		<g>
			<defs>
				<rect id="SVGID_7_" x="-26.333" y="-46.842" width="183.865" height="165.509"/>
			</defs>
			<clipPath id="SVGID_8_">
				<use xlink:href="#SVGID_7_"  overflow="visible"/>
			</clipPath>
			<path clip-path="url(#SVGID_8_)" fill="#D41C5D" d="M96.599,54.156c-4.271,0-8.239-0.779-11.79-2.321
				c-0.572-0.246-0.812-0.863-0.538-1.377c0.275-0.515,0.963-0.733,1.536-0.485c3.236,1.402,6.868,2.115,10.792,2.115
				c3.046,0,6.162-0.448,9.267-1.325c3.089-0.874,5.89-2.158,8.326-3.813l0.07-0.045c1.371-0.943,2.098-2.376,1.999-3.942
				c-0.098-1.583-1.058-3.014-2.563-3.824l-1.284-0.689c-1.969-1.057-4.495-0.853-6.144,0.498c-0.111,0.093-0.226,0.182-0.341,0.27
				c-1.315,0.978-2.788,1.693-4.389,2.13c-1.559,0.425-3.116,0.643-4.63,0.643c-2.146,0-4.118-0.392-5.859-1.162
				c-0.568-0.252-0.804-0.873-0.524-1.385c0.283-0.51,0.968-0.725,1.537-0.471c1.426,0.628,3.055,0.948,4.847,0.948
				c1.287,0,2.621-0.187,3.964-0.555c1.306-0.355,2.513-0.942,3.59-1.741c0.086-0.066,0.171-0.132,0.256-0.203
				c2.395-1.964,6.042-2.269,8.873-0.747l1.28,0.69c2.162,1.163,3.541,3.211,3.683,5.482c0.14,2.227-0.944,4.358-2.898,5.7
				l-0.079,0.056c-2.646,1.797-5.682,3.188-9.024,4.135C103.227,53.68,99.878,54.156,96.599,54.156 M84.916,24.12
				c-0.105,0-0.211-0.015-0.317-0.041c-0.611-0.159-0.96-0.731-0.786-1.28c0.529-1.655,1.347-3.182,2.439-4.54
				c1.111-1.389,2.557-2.521,4.29-3.365c1.749-0.854,3.842-1.286,6.214-1.286c1.495,0,3.057,0.189,4.628,0.561
				c1.627,0.386,3.157,1.075,4.554,2.048c0.121,0.086,0.239,0.174,0.358,0.266c1.778,1.381,4.395,1.461,6.371,0.196l0.996-0.639
				c1.34-0.856,2.141-2.197,2.204-3.673c0.062-1.479-0.627-2.869-1.891-3.815c-1.065-0.796-2.264-1.531-3.562-2.186
				c-3.769-1.896-8.257-2.858-13.348-2.858c-4.241,0-8.092,0.691-11.442,2.055c-0.579,0.235-1.262,0.003-1.52-0.517
				c-0.261-0.521-0.005-1.134,0.572-1.369c3.648-1.485,7.819-2.238,12.392-2.238c5.486,0,10.353,1.05,14.471,3.121
				c1.418,0.717,2.734,1.524,3.906,2.401c1.817,1.36,2.808,3.358,2.721,5.483c-0.09,2.125-1.246,4.051-3.171,5.283l-0.997,0.639
				c-2.838,1.819-6.625,1.688-9.205-0.318c-0.087-0.067-0.174-0.131-0.269-0.193c-1.146-0.805-2.401-1.369-3.727-1.682
				c-1.383-0.328-2.742-0.494-4.043-0.494c-1.985,0-3.707,0.348-5.12,1.036c-1.428,0.695-2.611,1.623-3.522,2.756
				c-0.934,1.164-1.639,2.475-2.091,3.9C85.878,23.824,85.417,24.12,84.916,24.12"/>
		</g>
	</g>
	<g>
		<g>
			<defs>
				<rect id="SVGID_9_" x="-26.333" y="-46.842" width="183.865" height="165.509"/>
			</defs>
			<clipPath id="SVGID_10_">
				<use xlink:href="#SVGID_9_"  overflow="visible"/>
			</clipPath>
			<polygon clip-path="url(#SVGID_10_)" fill="#333333" points="18.475,61.239 15.858,61.239 15.858,67.271 15.134,67.271 
				15.134,61.239 12.518,61.239 12.518,60.664 18.475,60.664 			"/>
		</g>
	</g>
	<g>
		<g>
			<defs>
				<rect id="SVGID_11_" x="-26.333" y="-46.842" width="183.865" height="165.509"/>
			</defs>
			<clipPath id="SVGID_12_">
				<use xlink:href="#SVGID_11_"  overflow="visible"/>
			</clipPath>
			<polygon clip-path="url(#SVGID_12_)" fill="#333333" points="25.362,60.664 25.362,67.271 24.648,67.271 24.648,64.183 
				20.294,64.183 20.294,67.271 19.57,67.271 19.57,60.664 20.294,60.664 20.294,63.604 24.648,63.604 24.648,60.664 			"/>
		</g>
	</g>
	<g>
		<g>
			<defs>
				<rect id="SVGID_13_" x="-26.333" y="-46.842" width="183.865" height="165.509"/>
			</defs>
			<clipPath id="SVGID_14_">
				<use xlink:href="#SVGID_13_"  overflow="visible"/>
			</clipPath>
			<polygon clip-path="url(#SVGID_14_)" fill="#333333" points="32.137,66.697 32.137,67.271 27.204,67.271 27.204,60.664 
				32.042,60.664 32.042,61.239 27.927,61.239 27.927,63.624 31.516,63.624 31.516,64.173 27.927,64.173 27.927,66.697 			"/>
		</g>
	</g>
	<g>
		<g>
			<defs>
				<rect id="SVGID_15_" x="-26.333" y="-46.842" width="183.865" height="165.509"/>
			</defs>
			<clipPath id="SVGID_16_">
				<use xlink:href="#SVGID_15_"  overflow="visible"/>
			</clipPath>
			<path clip-path="url(#SVGID_16_)" fill="#333333" d="M40.39,62.22c-0.069-0.068-0.17-0.144-0.3-0.22
				c-0.131-0.078-0.286-0.15-0.466-0.22c-0.18-0.066-0.372-0.123-0.579-0.166c-0.207-0.046-0.422-0.066-0.643-0.066
				c-0.482,0-0.84,0.08-1.075,0.24c-0.234,0.163-0.352,0.386-0.352,0.671c0,0.206,0.065,0.375,0.197,0.495
				c0.13,0.12,0.331,0.221,0.598,0.301c0.271,0.081,0.607,0.168,1.014,0.26c0.497,0.105,0.927,0.23,1.292,0.375
				c0.366,0.148,0.646,0.338,0.839,0.582c0.192,0.24,0.289,0.561,0.289,0.954c0,0.335-0.069,0.625-0.207,0.865
				c-0.138,0.241-0.331,0.438-0.579,0.588c-0.249,0.153-0.535,0.264-0.859,0.336c-0.324,0.066-0.673,0.105-1.044,0.105
				c-0.365,0-0.729-0.033-1.091-0.104c-0.362-0.067-0.707-0.168-1.035-0.301c-0.327-0.134-0.629-0.297-0.904-0.491l0.527-0.893
				c0.091,0.08,0.22,0.171,0.388,0.266c0.169,0.097,0.365,0.188,0.59,0.273c0.223,0.088,0.468,0.161,0.733,0.222
				c0.266,0.058,0.536,0.087,0.814,0.087c0.461,0,0.814-0.073,1.059-0.218s0.367-0.353,0.367-0.624c0-0.222-0.08-0.4-0.237-0.535
				c-0.16-0.134-0.391-0.244-0.694-0.338c-0.304-0.095-0.665-0.186-1.085-0.278c-0.483-0.117-0.887-0.244-1.21-0.384
				c-0.325-0.141-0.568-0.32-0.729-0.54c-0.162-0.219-0.244-0.5-0.244-0.84c0-0.433,0.118-0.801,0.353-1.1
				c0.235-0.302,0.554-0.526,0.956-0.679c0.404-0.152,0.859-0.228,1.361-0.228c0.331,0,0.646,0.032,0.942,0.101
				c0.296,0.062,0.573,0.151,0.832,0.265c0.259,0.111,0.495,0.238,0.709,0.38L40.39,62.22z"/>
		</g>
	</g>
	<g>
		<g>
			<defs>
				<rect id="SVGID_17_" x="-26.333" y="-46.842" width="183.865" height="165.509"/>
			</defs>
			<clipPath id="SVGID_18_">
				<use xlink:href="#SVGID_17_"  overflow="visible"/>
			</clipPath>
			<path clip-path="url(#SVGID_18_)" fill="#333333" d="M45.417,67.32c-0.533,0-1.01-0.093-1.439-0.278
				c-0.426-0.188-0.796-0.438-1.106-0.76c-0.311-0.319-0.55-0.679-0.718-1.079c-0.17-0.4-0.253-0.813-0.253-1.232
				c0-0.441,0.089-0.864,0.27-1.264c0.179-0.4,0.427-0.756,0.744-1.068c0.318-0.313,0.691-0.563,1.122-0.745
				c0.431-0.183,0.898-0.276,1.403-0.276c0.523,0,1.001,0.097,1.431,0.289c0.431,0.192,0.8,0.451,1.107,0.773
				c0.307,0.323,0.545,0.683,0.713,1.081c0.169,0.398,0.254,0.803,0.254,1.22c0,0.44-0.088,0.861-0.264,1.262
				s-0.422,0.757-0.739,1.068c-0.317,0.313-0.691,0.561-1.122,0.741C46.386,67.231,45.918,67.32,45.417,67.32 M43.078,63.97
				c0,0.31,0.057,0.611,0.166,0.902c0.11,0.292,0.267,0.552,0.471,0.778s0.45,0.404,0.739,0.534c0.29,0.131,0.613,0.195,0.971,0.195
				c0.374,0,0.704-0.067,0.994-0.206c0.29-0.135,0.533-0.319,0.728-0.553c0.197-0.233,0.348-0.492,0.45-0.781
				c0.105-0.289,0.156-0.578,0.156-0.869c0-0.313-0.053-0.612-0.161-0.9c-0.107-0.289-0.263-0.547-0.468-0.771
				c-0.208-0.226-0.456-0.406-0.741-0.535c-0.286-0.132-0.605-0.196-0.958-0.196c-0.371,0-0.702,0.069-0.992,0.204
				c-0.29,0.139-0.535,0.32-0.735,0.55s-0.354,0.486-0.46,0.772C43.132,63.381,43.078,63.672,43.078,63.97"/>
		</g>
	</g>
	<g>
		<g>
			<defs>
				<rect id="SVGID_19_" x="-26.333" y="-46.842" width="183.865" height="165.509"/>
			</defs>
			<clipPath id="SVGID_20_">
				<use xlink:href="#SVGID_19_"  overflow="visible"/>
			</clipPath>
			<path clip-path="url(#SVGID_20_)" fill="#333333" d="M49.677,63.913c0-0.403,0.08-0.798,0.239-1.187
				c0.158-0.389,0.391-0.741,0.698-1.063c0.307-0.318,0.681-0.573,1.122-0.762c0.44-0.189,0.942-0.285,1.5-0.285
				c0.662,0,1.233,0.136,1.716,0.404c0.483,0.272,0.841,0.617,1.076,1.04l-0.91,0.549c-0.138-0.268-0.313-0.479-0.522-0.635
				c-0.209-0.154-0.438-0.262-0.681-0.323c-0.245-0.063-0.486-0.094-0.72-0.094c-0.387,0-0.723,0.067-1.014,0.208
				c-0.289,0.141-0.532,0.325-0.728,0.554c-0.197,0.229-0.345,0.487-0.445,0.773c-0.101,0.285-0.15,0.569-0.15,0.856
				c0,0.316,0.058,0.62,0.176,0.917c0.116,0.297,0.28,0.557,0.491,0.783c0.209,0.227,0.46,0.404,0.75,0.534
				c0.289,0.131,0.607,0.195,0.951,0.195c0.235,0,0.479-0.037,0.735-0.111c0.254-0.077,0.49-0.191,0.709-0.351
				c0.217-0.156,0.387-0.365,0.512-0.627l0.962,0.492c-0.15,0.33-0.388,0.608-0.709,0.84c-0.319,0.229-0.678,0.403-1.074,0.52
				c-0.398,0.119-0.789,0.178-1.175,0.178c-0.517,0-0.99-0.099-1.418-0.294c-0.427-0.195-0.796-0.457-1.106-0.781
				c-0.311-0.328-0.552-0.691-0.724-1.1C49.763,64.739,49.677,64.329,49.677,63.913"/>
		</g>
	</g>
	<g>
		<g>
			<defs>
				<rect id="SVGID_21_" x="-26.333" y="-46.842" width="183.865" height="165.509"/>
			</defs>
			<clipPath id="SVGID_22_">
				<use xlink:href="#SVGID_21_"  overflow="visible"/>
			</clipPath>
			<rect x="57.216" y="60.664" clip-path="url(#SVGID_22_)" fill="#333333" width="1.158" height="6.607"/>
		</g>
	</g>
	<g>
		<g>
			<defs>
				<rect id="SVGID_23_" x="-26.333" y="-46.842" width="183.865" height="165.509"/>
			</defs>
			<clipPath id="SVGID_24_">
				<use xlink:href="#SVGID_23_"  overflow="visible"/>
			</clipPath>
			<path clip-path="url(#SVGID_24_)" fill="#333333" d="M62.15,60.664h1.097l2.853,6.607h-1.221l-0.717-1.794h-2.937l-0.721,1.794
				h-1.231L62.15,60.664z M63.854,64.705L62.7,61.81l-1.164,2.896H63.854z"/>
		</g>
	</g>
	<g>
		<g>
			<defs>
				<rect id="SVGID_25_" x="-26.333" y="-46.842" width="183.865" height="165.509"/>
			</defs>
			<clipPath id="SVGID_26_">
				<use xlink:href="#SVGID_25_"  overflow="visible"/>
			</clipPath>
			<polygon clip-path="url(#SVGID_26_)" fill="#333333" points="67.01,67.271 67.01,60.664 68.169,60.664 68.169,66.353 
				72.109,66.353 72.109,67.271 			"/>
		</g>
	</g>
	<g>
		<g>
			<defs>
				<rect id="SVGID_27_" x="-26.333" y="-46.842" width="183.865" height="165.509"/>
			</defs>
			<clipPath id="SVGID_28_">
				<use xlink:href="#SVGID_27_"  overflow="visible"/>
			</clipPath>
			<path clip-path="url(#SVGID_28_)" fill="#333333" d="M75.295,63.913c0-0.403,0.078-0.798,0.233-1.187
				c0.154-0.389,0.382-0.741,0.676-1.063c0.298-0.318,0.661-0.573,1.097-0.762c0.436-0.189,0.93-0.285,1.48-0.285
				c0.655,0,1.214,0.136,1.68,0.404c0.466,0.272,0.808,0.617,1.031,1.04l-0.572,0.317c-0.159-0.295-0.357-0.526-0.599-0.695
				c-0.241-0.17-0.499-0.295-0.77-0.368c-0.275-0.074-0.544-0.111-0.814-0.111c-0.44,0-0.831,0.081-1.168,0.238
				c-0.339,0.159-0.624,0.369-0.852,0.632c-0.233,0.265-0.407,0.559-0.523,0.886c-0.116,0.324-0.177,0.657-0.177,0.992
				c0,0.365,0.071,0.717,0.21,1.053c0.135,0.332,0.328,0.629,0.576,0.886c0.247,0.258,0.539,0.463,0.874,0.616
				c0.334,0.152,0.7,0.227,1.093,0.227c0.273,0,0.557-0.043,0.847-0.13c0.288-0.085,0.559-0.221,0.812-0.398
				c0.251-0.181,0.453-0.413,0.604-0.701l0.6,0.279c-0.151,0.33-0.389,0.608-0.703,0.84c-0.316,0.23-0.67,0.403-1.061,0.52
				c-0.39,0.119-0.771,0.178-1.142,0.178c-0.503,0-0.966-0.099-1.386-0.294s-0.785-0.457-1.093-0.781
				c-0.307-0.327-0.543-0.691-0.709-1.1C75.38,64.739,75.295,64.329,75.295,63.913"/>
		</g>
	</g>
	<g>
		<g>
			<defs>
				<rect id="SVGID_29_" x="-26.333" y="-46.842" width="183.865" height="165.509"/>
			</defs>
			<clipPath id="SVGID_30_">
				<use xlink:href="#SVGID_29_"  overflow="visible"/>
			</clipPath>
			<path clip-path="url(#SVGID_30_)" fill="#333333" d="M85.047,60.664h0.611l3.051,6.607h-0.765l-0.917-2.063H83.67l-0.917,2.063
				h-0.777L85.047,60.664z M86.8,64.695l-1.452-3.269l-1.451,3.269H86.8z"/>
		</g>
	</g>
	<g>
		<g>
			<defs>
				<rect id="SVGID_31_" x="-26.333" y="-46.842" width="183.865" height="165.509"/>
			</defs>
			<clipPath id="SVGID_32_">
				<use xlink:href="#SVGID_31_"  overflow="visible"/>
			</clipPath>
			<polygon clip-path="url(#SVGID_32_)" fill="#333333" points="89.764,67.271 89.764,60.664 90.487,60.664 90.487,66.697 
				94.729,66.697 94.729,67.271 			"/>
		</g>
	</g>
	<g>
		<g>
			<defs>
				<rect id="SVGID_33_" x="-26.333" y="-46.842" width="183.865" height="165.509"/>
			</defs>
			<clipPath id="SVGID_34_">
				<use xlink:href="#SVGID_33_"  overflow="visible"/>
			</clipPath>
			<polygon clip-path="url(#SVGID_34_)" fill="#333333" points="95.794,67.271 95.794,60.664 96.518,60.664 96.518,66.697 
				100.759,66.697 100.759,67.271 			"/>
		</g>
	</g>
	<g>
		<g>
			<defs>
				<rect id="SVGID_35_" x="-26.333" y="-46.842" width="183.865" height="165.509"/>
			</defs>
			<clipPath id="SVGID_36_">
				<use xlink:href="#SVGID_35_"  overflow="visible"/>
			</clipPath>
			<rect x="101.823" y="60.664" clip-path="url(#SVGID_36_)" fill="#333333" width="0.726" height="6.607"/>
		</g>
	</g>
	<g>
		<g>
			<defs>
				<rect id="SVGID_37_" x="-26.333" y="-46.842" width="183.865" height="165.509"/>
			</defs>
			<clipPath id="SVGID_38_">
				<use xlink:href="#SVGID_37_"  overflow="visible"/>
			</clipPath>
			<polygon clip-path="url(#SVGID_38_)" fill="#333333" points="105.112,61.865 105.112,67.271 104.39,67.271 104.39,60.664 
				104.988,60.664 109.808,66.174 109.808,60.674 110.53,60.674 110.53,67.271 109.86,67.271 			"/>
		</g>
	</g>
	<g>
		<g>
			<defs>
				<rect id="SVGID_39_" x="-26.333" y="-46.842" width="183.865" height="165.509"/>
			</defs>
			<clipPath id="SVGID_40_">
				<use xlink:href="#SVGID_39_"  overflow="visible"/>
			</clipPath>
			<path clip-path="url(#SVGID_40_)" fill="#333333" d="M115.321,67.32c-0.492,0-0.947-0.095-1.367-0.284
				c-0.42-0.187-0.786-0.444-1.095-0.768c-0.312-0.323-0.551-0.683-0.72-1.081c-0.168-0.397-0.252-0.807-0.252-1.228
				c0-0.448,0.084-0.87,0.252-1.271c0.169-0.403,0.404-0.758,0.706-1.066c0.304-0.312,0.665-0.556,1.079-0.734
				c0.411-0.18,0.864-0.272,1.353-0.272c0.726,0,1.315,0.136,1.769,0.401c0.456,0.267,0.801,0.614,1.035,1.044l-0.56,0.334
				c-0.235-0.409-0.548-0.71-0.939-0.903c-0.395-0.19-0.831-0.288-1.313-0.288c-0.408,0-0.778,0.075-1.104,0.233
				c-0.327,0.153-0.607,0.363-0.843,0.624c-0.233,0.26-0.411,0.556-0.533,0.883c-0.118,0.331-0.183,0.673-0.183,1.027
				c0,0.37,0.071,0.724,0.21,1.058c0.137,0.33,0.331,0.624,0.588,0.881c0.255,0.261,0.551,0.46,0.883,0.605
				c0.336,0.147,0.696,0.219,1.085,0.219c0.446,0,0.87-0.101,1.27-0.302c0.399-0.2,0.782-0.514,1.149-0.935v0.688
				C117.094,66.941,116.271,67.32,115.321,67.32 M117.676,64.528h-1.631v-0.505h2.244v3.248h-0.613V64.528L117.676,64.528z"/>
		</g>
	</g>
	<g>
		<g>
			<defs>
				<rect id="SVGID_41_" x="-26.333" y="-46.842" width="183.865" height="165.509"/>
			</defs>
			<clipPath id="SVGID_42_">
				<use xlink:href="#SVGID_41_"  overflow="visible"/>
			</clipPath>
			<path clip-path="url(#SVGID_42_)" fill="#FFFFFF" d="M38.648,53.803h-1.953c-4.296,0-7.792-3.145-7.792-7.011V20.763
				c0-2.726-2.463-4.944-5.493-4.944h-2.735c-4.294,0-7.791-3.146-7.791-7.013c0-3.868,3.497-7.014,7.791-7.014h18.027
				c2.607,0,5.031,1.167,6.48,3.12c0.354,0.475,0.212,1.118-0.316,1.436c-0.527,0.319-1.24,0.19-1.594-0.286
				c-1.023-1.378-2.732-2.2-4.57-2.2H20.676c-3.029,0-5.492,2.218-5.492,4.944s2.463,4.944,5.492,4.944h2.735
				c4.296,0,7.792,3.146,7.792,7.013v26.029c0,2.724,2.463,4.943,5.492,4.943h1.953c1.195,0,2.332-0.342,3.286-0.982
				c0.508-0.343,1.229-0.247,1.607,0.21c0.38,0.458,0.277,1.104-0.231,1.447C41.956,53.323,40.345,53.803,38.648,53.803"/>
		</g>
	</g>
	<g>
		<g>
			<defs>
				<rect id="SVGID_43_" x="-26.333" y="-46.842" width="183.865" height="165.509"/>
			</defs>
			<clipPath id="SVGID_44_">
				<use xlink:href="#SVGID_43_"  overflow="visible"/>
			</clipPath>
			<path clip-path="url(#SVGID_44_)" fill="#FFFFFF" d="M65.742,41.774c-2.234,0-4.487-0.299-6.695-0.887
				c-2.149-0.573-4.132-1.228-5.892-1.949c-0.251-0.103-0.508-0.211-0.769-0.323c-0.571-0.246-0.813-0.863-0.541-1.378
				c0.274-0.517,0.961-0.734,1.534-0.487c0.246,0.104,0.487,0.205,0.727,0.305c1.663,0.682,3.545,1.304,5.594,1.849
				c1.996,0.533,4.028,0.804,6.041,0.804c1.95,0,2.644-0.283,2.853-0.405c0.418-0.245,0.453-0.458,0.453-0.642
				c0-0.392-0.124-0.896-1.099-1.353c-1.074-0.501-2.519-0.996-4.288-1.462c-1.86-0.491-3.933-1.069-6.164-1.721
				c-3.324-1.005-6.095-2.162-8.249-3.438c-2.238-1.324-3.921-2.934-4.998-4.785c-1.07-1.841-1.615-4.082-1.615-6.663
				c0-3.879,1.044-7.18,3.101-9.815c2.036-2.609,4.757-4.618,8.086-5.972c3.287-1.334,6.877-2.013,10.669-2.013
				c2.792,0,5.532,0.306,8.14,0.912c2.575,0.598,5.022,1.336,7.272,2.194l0.23,0.088c0.584,0.222,0.859,0.829,0.609,1.355
				c-0.247,0.526-0.924,0.772-1.505,0.548L79.006,6.45c-2.146-0.817-4.483-1.522-6.947-2.095c-2.422-0.562-4.968-0.846-7.568-0.846
				c-3.464,0-6.736,0.616-9.724,1.829c-2.949,1.199-5.354,2.974-7.15,5.276c-1.78,2.278-2.683,5.18-2.683,8.625
				c0,2.243,0.455,4.161,1.354,5.702c0.893,1.536,2.314,2.887,4.224,4.016c1.99,1.182,4.583,2.257,7.705,3.204
				c2.197,0.642,4.251,1.214,6.092,1.699c1.913,0.506,3.491,1.048,4.699,1.61c1.933,0.904,2.338,2.233,2.338,3.189
				c0,0.687-0.262,1.653-1.499,2.377C68.982,41.542,67.679,41.774,65.742,41.774"/>
		</g>
	</g>
	<g>
		<g>
			<defs>
				<rect id="SVGID_45_" x="-26.333" y="-46.842" width="183.865" height="165.509"/>
			</defs>
			<clipPath id="SVGID_46_">
				<use xlink:href="#SVGID_45_"  overflow="visible"/>
			</clipPath>
			<path clip-path="url(#SVGID_46_)" fill="#FFFFFF" d="M65.508,54.156c-2.714,0-5.586-0.254-8.536-0.759
				c-2.942-0.501-5.827-1.199-8.573-2.08c-0.657-0.211-1.306-0.434-1.927-0.656c-0.589-0.213-0.875-0.817-0.638-1.346
				c0.237-0.531,0.906-0.787,1.496-0.575c0.592,0.214,1.211,0.427,1.841,0.627c2.633,0.845,5.402,1.517,8.229,2
				c2.809,0.477,5.539,0.719,8.108,0.719c2.5,0,4.985-0.26,7.391-0.773c2.358-0.503,4.521-1.335,6.43-2.469
				c1.863-1.109,3.365-2.61,4.47-4.47c1.099-1.862,1.66-4.222,1.66-7.006c0-2.897-0.625-5.229-1.849-6.931
				c-1.243-1.726-3.048-3.169-5.361-4.288c-2.42-1.168-5.346-2.221-8.696-3.126c-2.13-0.603-3.98-1.118-5.512-1.535
				c-1.666-0.453-2.932-0.953-3.87-1.531c-1.146-0.701-1.752-1.696-1.752-2.875c0-1.269,0.672-2.266,1.891-2.809
				c0.989-0.441,2.24-0.666,3.713-0.666c1.769,0,3.59,0.251,5.411,0.748c1.756,0.48,3.407,1.028,4.905,1.629
				c0.576,0.231,0.86,0.85,0.601,1.372c-0.253,0.522-0.91,0.767-1.488,0.538c-0.006-0.002-0.031-0.013-0.035-0.016
				c-1.424-0.571-2.983-1.088-4.647-1.542c-1.606-0.438-3.204-0.66-4.746-0.66c-1.117,0-2.023,0.152-2.694,0.451
				c-0.368,0.165-0.612,0.389-0.612,0.956c0,0.489,0.231,0.849,0.749,1.166c0.734,0.451,1.821,0.874,3.242,1.259
				c1.538,0.419,3.396,0.937,5.521,1.538c3.482,0.941,6.554,2.048,9.108,3.282c2.661,1.286,4.747,2.963,6.202,4.984
				c1.471,2.043,2.217,4.754,2.217,8.057c0,3.132-0.649,5.814-1.933,7.979c-1.285,2.166-3.043,3.921-5.228,5.221
				c-2.133,1.268-4.545,2.197-7.164,2.757C70.849,53.878,68.185,54.156,65.508,54.156"/>
		</g>
	</g>
	<g>
		<g>
			<defs>
				<rect id="SVGID_47_" x="-26.333" y="-46.842" width="183.865" height="165.509"/>
			</defs>
			<clipPath id="SVGID_48_">
				<use xlink:href="#SVGID_47_"  overflow="visible"/>
			</clipPath>
			<path clip-path="url(#SVGID_48_)" fill="#FFFFFF" d="M96.599,54.156c-4.271,0-8.239-0.779-11.79-2.321
				c-0.572-0.246-0.812-0.863-0.538-1.377c0.275-0.515,0.963-0.733,1.536-0.485c3.236,1.402,6.868,2.115,10.792,2.115
				c3.046,0,6.162-0.448,9.267-1.325c3.089-0.874,5.89-2.158,8.326-3.813l0.07-0.045c1.371-0.943,2.098-2.376,1.999-3.942
				c-0.098-1.583-1.058-3.014-2.563-3.824l-1.284-0.689c-1.969-1.057-4.495-0.853-6.144,0.498c-0.111,0.093-0.226,0.182-0.341,0.27
				c-1.315,0.978-2.788,1.693-4.389,2.13c-1.559,0.425-3.116,0.643-4.63,0.643c-2.146,0-4.118-0.392-5.859-1.162
				c-0.568-0.252-0.804-0.873-0.524-1.385c0.283-0.51,0.968-0.725,1.537-0.471c1.426,0.628,3.055,0.948,4.847,0.948
				c1.287,0,2.621-0.187,3.964-0.555c1.306-0.355,2.513-0.942,3.59-1.741c0.086-0.066,0.171-0.132,0.256-0.203
				c2.395-1.964,6.042-2.269,8.873-0.747l1.28,0.69c2.162,1.163,3.541,3.211,3.683,5.482c0.14,2.227-0.944,4.358-2.898,5.7
				l-0.079,0.056c-2.646,1.797-5.682,3.188-9.024,4.135C103.227,53.68,99.878,54.156,96.599,54.156 M84.916,24.12
				c-0.105,0-0.211-0.015-0.317-0.041c-0.611-0.159-0.96-0.731-0.786-1.28c0.529-1.655,1.347-3.182,2.439-4.54
				c1.111-1.389,2.557-2.521,4.29-3.365c1.749-0.854,3.842-1.286,6.214-1.286c1.495,0,3.057,0.189,4.628,0.561
				c1.627,0.386,3.157,1.075,4.554,2.048c0.121,0.086,0.239,0.174,0.358,0.266c1.778,1.381,4.395,1.461,6.371,0.196l0.996-0.639
				c1.34-0.856,2.141-2.197,2.204-3.673c0.062-1.479-0.627-2.869-1.891-3.815c-1.065-0.796-2.264-1.531-3.562-2.186
				c-3.769-1.896-8.257-2.858-13.348-2.858c-4.241,0-8.092,0.691-11.442,2.055c-0.579,0.235-1.262,0.003-1.52-0.517
				c-0.261-0.521-0.005-1.134,0.572-1.369c3.648-1.485,7.819-2.238,12.392-2.238c5.486,0,10.353,1.05,14.471,3.121
				c1.418,0.717,2.734,1.524,3.906,2.401c1.817,1.36,2.808,3.358,2.721,5.483c-0.09,2.125-1.246,4.051-3.171,5.283l-0.997,0.639
				c-2.838,1.819-6.625,1.688-9.205-0.318c-0.087-0.067-0.174-0.131-0.269-0.193c-1.146-0.805-2.401-1.369-3.727-1.682
				c-1.383-0.328-2.742-0.494-4.043-0.494c-1.985,0-3.707,0.348-5.12,1.036c-1.428,0.695-2.611,1.623-3.522,2.756
				c-0.934,1.164-1.639,2.475-2.091,3.9C85.878,23.824,85.417,24.12,84.916,24.12"/>
		</g>
	</g>
	<g>
		<g>
			<defs>
				<rect id="SVGID_49_" x="-26.333" y="-46.842" width="183.865" height="165.509"/>
			</defs>
			<clipPath id="SVGID_50_">
				<use xlink:href="#SVGID_49_"  overflow="visible"/>
			</clipPath>
			<polygon clip-path="url(#SVGID_50_)" fill="#F3F3F3" points="18.475,61.239 15.858,61.239 15.858,67.271 15.134,67.271 
				15.134,61.239 12.518,61.239 12.518,60.664 18.475,60.664 			"/>
		</g>
	</g>
	<g>
		<g>
			<defs>
				<rect id="SVGID_51_" x="-26.333" y="-46.842" width="183.865" height="165.509"/>
			</defs>
			<clipPath id="SVGID_52_">
				<use xlink:href="#SVGID_51_"  overflow="visible"/>
			</clipPath>
			<polygon clip-path="url(#SVGID_52_)" fill="#F3F3F3" points="25.362,60.664 25.362,67.271 24.648,67.271 24.648,64.183 
				20.294,64.183 20.294,67.271 19.57,67.271 19.57,60.664 20.294,60.664 20.294,63.604 24.648,63.604 24.648,60.664 			"/>
		</g>
	</g>
	<g>
		<g>
			<defs>
				<rect id="SVGID_53_" x="-26.333" y="-46.842" width="183.865" height="165.509"/>
			</defs>
			<clipPath id="SVGID_54_">
				<use xlink:href="#SVGID_53_"  overflow="visible"/>
			</clipPath>
			<polygon clip-path="url(#SVGID_54_)" fill="#F3F3F3" points="32.137,66.697 32.137,67.271 27.204,67.271 27.204,60.664 
				32.042,60.664 32.042,61.239 27.927,61.239 27.927,63.624 31.516,63.624 31.516,64.173 27.927,64.173 27.927,66.697 			"/>
		</g>
	</g>
	<g>
		<g>
			<defs>
				<rect id="SVGID_55_" x="-26.333" y="-46.842" width="183.865" height="165.509"/>
			</defs>
			<clipPath id="SVGID_56_">
				<use xlink:href="#SVGID_55_"  overflow="visible"/>
			</clipPath>
			<path clip-path="url(#SVGID_56_)" fill="#F3F3F3" d="M40.39,62.22c-0.069-0.068-0.17-0.144-0.3-0.22
				c-0.131-0.078-0.286-0.15-0.466-0.22c-0.18-0.066-0.372-0.123-0.579-0.166c-0.207-0.046-0.422-0.066-0.643-0.066
				c-0.482,0-0.84,0.08-1.075,0.24c-0.234,0.163-0.352,0.386-0.352,0.671c0,0.206,0.065,0.375,0.197,0.495
				c0.13,0.12,0.331,0.221,0.598,0.301c0.271,0.081,0.607,0.168,1.014,0.26c0.497,0.105,0.927,0.23,1.292,0.375
				c0.366,0.148,0.646,0.338,0.839,0.582c0.192,0.24,0.289,0.561,0.289,0.954c0,0.335-0.069,0.625-0.207,0.865
				c-0.138,0.241-0.331,0.438-0.579,0.588c-0.249,0.153-0.535,0.264-0.859,0.336c-0.324,0.066-0.673,0.105-1.044,0.105
				c-0.365,0-0.729-0.033-1.091-0.104c-0.362-0.067-0.707-0.168-1.035-0.301c-0.327-0.134-0.629-0.297-0.904-0.491l0.527-0.893
				c0.091,0.08,0.22,0.171,0.388,0.266c0.169,0.097,0.365,0.188,0.59,0.273c0.223,0.088,0.468,0.161,0.733,0.222
				c0.266,0.058,0.536,0.087,0.814,0.087c0.461,0,0.814-0.073,1.059-0.218s0.367-0.353,0.367-0.624c0-0.222-0.08-0.4-0.237-0.535
				c-0.16-0.134-0.391-0.244-0.694-0.338c-0.304-0.095-0.665-0.186-1.085-0.278c-0.483-0.117-0.887-0.244-1.21-0.384
				c-0.325-0.141-0.568-0.32-0.729-0.54c-0.162-0.219-0.244-0.5-0.244-0.84c0-0.433,0.118-0.801,0.353-1.1
				c0.235-0.302,0.554-0.526,0.956-0.679c0.404-0.152,0.859-0.228,1.361-0.228c0.331,0,0.646,0.032,0.942,0.101
				c0.296,0.062,0.573,0.151,0.832,0.265c0.259,0.111,0.495,0.238,0.709,0.38L40.39,62.22z"/>
		</g>
	</g>
	<g>
		<g>
			<defs>
				<rect id="SVGID_57_" x="-26.333" y="-46.842" width="183.865" height="165.509"/>
			</defs>
			<clipPath id="SVGID_58_">
				<use xlink:href="#SVGID_57_"  overflow="visible"/>
			</clipPath>
			<path clip-path="url(#SVGID_58_)" fill="#F3F3F3" d="M45.417,67.32c-0.533,0-1.01-0.093-1.439-0.278
				c-0.426-0.188-0.796-0.438-1.106-0.76c-0.311-0.319-0.55-0.679-0.718-1.079c-0.17-0.4-0.253-0.813-0.253-1.232
				c0-0.441,0.089-0.864,0.27-1.264c0.179-0.4,0.427-0.756,0.744-1.068c0.318-0.313,0.691-0.563,1.122-0.745
				c0.431-0.183,0.898-0.276,1.403-0.276c0.523,0,1.001,0.097,1.431,0.289c0.431,0.192,0.8,0.451,1.107,0.773
				c0.307,0.323,0.545,0.683,0.713,1.081c0.169,0.398,0.254,0.803,0.254,1.22c0,0.44-0.088,0.861-0.264,1.262
				s-0.422,0.757-0.739,1.068c-0.317,0.313-0.691,0.561-1.122,0.741C46.386,67.231,45.918,67.32,45.417,67.32 M43.078,63.97
				c0,0.31,0.057,0.611,0.166,0.902c0.11,0.292,0.267,0.552,0.471,0.778s0.45,0.404,0.739,0.534c0.29,0.131,0.613,0.195,0.971,0.195
				c0.374,0,0.704-0.067,0.994-0.206c0.29-0.135,0.533-0.319,0.728-0.553c0.197-0.233,0.348-0.492,0.45-0.781
				c0.105-0.289,0.156-0.578,0.156-0.869c0-0.313-0.053-0.612-0.161-0.9c-0.107-0.289-0.263-0.547-0.468-0.771
				c-0.208-0.226-0.456-0.406-0.741-0.535c-0.286-0.132-0.605-0.196-0.958-0.196c-0.371,0-0.702,0.069-0.992,0.204
				c-0.29,0.139-0.535,0.32-0.735,0.55s-0.354,0.486-0.46,0.772C43.132,63.381,43.078,63.672,43.078,63.97"/>
		</g>
	</g>
	<g>
		<g>
			<defs>
				<rect id="SVGID_59_" x="-26.333" y="-46.842" width="183.865" height="165.509"/>
			</defs>
			<clipPath id="SVGID_60_">
				<use xlink:href="#SVGID_59_"  overflow="visible"/>
			</clipPath>
			<path clip-path="url(#SVGID_60_)" fill="#F3F3F3" d="M49.677,63.913c0-0.403,0.08-0.798,0.239-1.187
				c0.158-0.389,0.391-0.741,0.698-1.063c0.307-0.318,0.681-0.573,1.122-0.762c0.44-0.189,0.942-0.285,1.5-0.285
				c0.662,0,1.233,0.136,1.716,0.404c0.483,0.272,0.841,0.617,1.076,1.04l-0.91,0.549c-0.138-0.268-0.313-0.479-0.522-0.635
				c-0.209-0.154-0.438-0.262-0.681-0.323c-0.245-0.063-0.486-0.094-0.72-0.094c-0.387,0-0.723,0.067-1.014,0.208
				c-0.289,0.141-0.532,0.325-0.728,0.554c-0.197,0.229-0.345,0.487-0.445,0.773c-0.101,0.285-0.15,0.569-0.15,0.856
				c0,0.316,0.058,0.62,0.176,0.917c0.116,0.297,0.28,0.557,0.491,0.783c0.209,0.227,0.46,0.404,0.75,0.534
				c0.289,0.131,0.607,0.195,0.951,0.195c0.235,0,0.479-0.037,0.735-0.111c0.254-0.077,0.49-0.191,0.709-0.351
				c0.217-0.156,0.387-0.365,0.512-0.627l0.962,0.492c-0.15,0.33-0.388,0.608-0.709,0.84c-0.319,0.229-0.678,0.403-1.074,0.52
				c-0.398,0.119-0.789,0.178-1.175,0.178c-0.517,0-0.99-0.099-1.418-0.294c-0.427-0.195-0.796-0.457-1.106-0.781
				c-0.311-0.328-0.552-0.691-0.724-1.1C49.763,64.739,49.677,64.329,49.677,63.913"/>
		</g>
	</g>
	<g>
		<g>
			<defs>
				<rect id="SVGID_61_" x="-26.333" y="-46.842" width="183.865" height="165.509"/>
			</defs>
			<clipPath id="SVGID_62_">
				<use xlink:href="#SVGID_61_"  overflow="visible"/>
			</clipPath>
			<rect x="57.216" y="60.664" clip-path="url(#SVGID_62_)" fill="#F3F3F3" width="1.158" height="6.607"/>
		</g>
	</g>
	<g>
		<g>
			<defs>
				<rect id="SVGID_63_" x="-26.333" y="-46.842" width="183.865" height="165.509"/>
			</defs>
			<clipPath id="SVGID_64_">
				<use xlink:href="#SVGID_63_"  overflow="visible"/>
			</clipPath>
			<path clip-path="url(#SVGID_64_)" fill="#F3F3F3" d="M62.15,60.664h1.097l2.853,6.607h-1.221l-0.717-1.794h-2.937l-0.721,1.794
				h-1.231L62.15,60.664z M63.854,64.705L62.7,61.81l-1.164,2.896H63.854z"/>
		</g>
	</g>
	<g>
		<g>
			<defs>
				<rect id="SVGID_65_" x="-26.333" y="-46.842" width="183.865" height="165.509"/>
			</defs>
			<clipPath id="SVGID_66_">
				<use xlink:href="#SVGID_65_"  overflow="visible"/>
			</clipPath>
			<polygon clip-path="url(#SVGID_66_)" fill="#F3F3F3" points="67.01,67.271 67.01,60.664 68.169,60.664 68.169,66.353 
				72.109,66.353 72.109,67.271 			"/>
		</g>
	</g>
	<g>
		<g>
			<defs>
				<rect id="SVGID_67_" x="-26.333" y="-46.842" width="183.865" height="165.509"/>
			</defs>
			<clipPath id="SVGID_68_">
				<use xlink:href="#SVGID_67_"  overflow="visible"/>
			</clipPath>
			<path clip-path="url(#SVGID_68_)" fill="#F3F3F3" d="M75.295,63.913c0-0.403,0.078-0.798,0.233-1.187
				c0.154-0.389,0.382-0.741,0.676-1.063c0.298-0.318,0.661-0.573,1.097-0.762c0.436-0.189,0.93-0.285,1.48-0.285
				c0.655,0,1.214,0.136,1.68,0.404c0.466,0.272,0.808,0.617,1.031,1.04l-0.572,0.317c-0.159-0.295-0.357-0.526-0.599-0.695
				c-0.241-0.17-0.499-0.295-0.77-0.368c-0.275-0.074-0.544-0.111-0.814-0.111c-0.44,0-0.831,0.081-1.168,0.238
				c-0.339,0.159-0.624,0.369-0.852,0.632c-0.233,0.265-0.407,0.559-0.523,0.886c-0.116,0.324-0.177,0.657-0.177,0.992
				c0,0.365,0.071,0.717,0.21,1.053c0.135,0.332,0.328,0.629,0.576,0.886c0.247,0.258,0.539,0.463,0.874,0.616
				c0.334,0.152,0.7,0.227,1.093,0.227c0.273,0,0.557-0.043,0.847-0.13c0.288-0.085,0.559-0.221,0.812-0.398
				c0.251-0.181,0.453-0.413,0.604-0.701l0.6,0.279c-0.151,0.33-0.389,0.608-0.703,0.84c-0.316,0.23-0.67,0.403-1.061,0.52
				c-0.39,0.119-0.771,0.178-1.142,0.178c-0.503,0-0.966-0.099-1.386-0.294s-0.785-0.457-1.093-0.781
				c-0.307-0.327-0.543-0.691-0.709-1.1C75.38,64.739,75.295,64.329,75.295,63.913"/>
		</g>
	</g>
	<g>
		<g>
			<defs>
				<rect id="SVGID_69_" x="-26.333" y="-46.842" width="183.865" height="165.509"/>
			</defs>
			<clipPath id="SVGID_70_">
				<use xlink:href="#SVGID_69_"  overflow="visible"/>
			</clipPath>
			<path clip-path="url(#SVGID_70_)" fill="#F3F3F3" d="M85.047,60.664h0.611l3.051,6.607h-0.765l-0.917-2.063H83.67l-0.917,2.063
				h-0.777L85.047,60.664z M86.8,64.695l-1.452-3.269l-1.451,3.269H86.8z"/>
		</g>
	</g>
	<g>
		<g>
			<defs>
				<rect id="SVGID_71_" x="-26.333" y="-46.842" width="183.865" height="165.509"/>
			</defs>
			<clipPath id="SVGID_72_">
				<use xlink:href="#SVGID_71_"  overflow="visible"/>
			</clipPath>
			<polygon clip-path="url(#SVGID_72_)" fill="#F3F3F3" points="89.764,67.271 89.764,60.664 90.487,60.664 90.487,66.697 
				94.729,66.697 94.729,67.271 			"/>
		</g>
	</g>
	<g>
		<g>
			<defs>
				<rect id="SVGID_73_" x="-26.333" y="-46.842" width="183.865" height="165.509"/>
			</defs>
			<clipPath id="SVGID_74_">
				<use xlink:href="#SVGID_73_"  overflow="visible"/>
			</clipPath>
			<polygon clip-path="url(#SVGID_74_)" fill="#F3F3F3" points="95.794,67.271 95.794,60.664 96.518,60.664 96.518,66.697 
				100.759,66.697 100.759,67.271 			"/>
		</g>
	</g>
	<g>
		<g>
			<defs>
				<rect id="SVGID_75_" x="-26.333" y="-46.842" width="183.865" height="165.509"/>
			</defs>
			<clipPath id="SVGID_76_">
				<use xlink:href="#SVGID_75_"  overflow="visible"/>
			</clipPath>
			<rect x="101.823" y="60.664" clip-path="url(#SVGID_76_)" fill="#F3F3F3" width="0.726" height="6.607"/>
		</g>
	</g>
	<g>
		<g>
			<defs>
				<rect id="SVGID_77_" x="-26.333" y="-46.842" width="183.865" height="165.509"/>
			</defs>
			<clipPath id="SVGID_78_">
				<use xlink:href="#SVGID_77_"  overflow="visible"/>
			</clipPath>
			<polygon clip-path="url(#SVGID_78_)" fill="#F3F3F3" points="105.112,61.865 105.112,67.271 104.39,67.271 104.39,60.664 
				104.988,60.664 109.808,66.174 109.808,60.674 110.53,60.674 110.53,67.271 109.86,67.271 			"/>
		</g>
	</g>
	<g>
		<g>
			<defs>
				<rect id="SVGID_79_" x="-26.333" y="-46.842" width="183.865" height="165.509"/>
			</defs>
			<clipPath id="SVGID_80_">
				<use xlink:href="#SVGID_79_"  overflow="visible"/>
			</clipPath>
			<path clip-path="url(#SVGID_80_)" fill="#F3F3F3" d="M115.321,67.32c-0.492,0-0.947-0.095-1.367-0.284
				c-0.42-0.187-0.786-0.444-1.095-0.768c-0.312-0.323-0.551-0.683-0.72-1.081c-0.168-0.397-0.252-0.807-0.252-1.228
				c0-0.448,0.084-0.87,0.252-1.271c0.169-0.403,0.404-0.758,0.706-1.066c0.304-0.312,0.665-0.556,1.079-0.734
				c0.411-0.18,0.864-0.272,1.353-0.272c0.726,0,1.315,0.136,1.769,0.401c0.456,0.267,0.801,0.614,1.035,1.044l-0.56,0.334
				c-0.235-0.409-0.548-0.71-0.939-0.903c-0.395-0.19-0.831-0.288-1.313-0.288c-0.408,0-0.778,0.075-1.104,0.233
				c-0.327,0.153-0.607,0.363-0.843,0.624c-0.233,0.26-0.411,0.556-0.533,0.883c-0.118,0.331-0.183,0.673-0.183,1.027
				c0,0.37,0.071,0.724,0.21,1.058c0.137,0.33,0.331,0.624,0.588,0.881c0.255,0.261,0.551,0.46,0.883,0.605
				c0.336,0.147,0.696,0.219,1.085,0.219c0.446,0,0.87-0.101,1.27-0.302c0.399-0.2,0.782-0.514,1.149-0.935v0.688
				C117.094,66.941,116.271,67.32,115.321,67.32 M117.676,64.528h-1.631v-0.505h2.244v3.248h-0.613V64.528L117.676,64.528z"/>
		</g>
	</g>
	<g>
		<g>
			<defs>
				<rect id="SVGID_81_" x="-26.333" y="-46.842" width="183.865" height="165.509"/>
			</defs>
			<clipPath id="SVGID_82_">
				<use xlink:href="#SVGID_81_"  overflow="visible"/>
			</clipPath>
			<path clip-path="url(#SVGID_82_)" fill="#D41C5D" d="M38.648,53.803h-1.953c-4.296,0-7.792-3.145-7.792-7.011V20.763
				c0-2.726-2.463-4.944-5.493-4.944h-2.735c-4.294,0-7.791-3.146-7.791-7.013c0-3.868,3.497-7.014,7.791-7.014h18.027
				c2.607,0,5.031,1.167,6.48,3.12c0.354,0.475,0.212,1.118-0.316,1.436c-0.527,0.319-1.24,0.19-1.594-0.286
				c-1.023-1.378-2.732-2.2-4.57-2.2H20.676c-3.029,0-5.492,2.218-5.492,4.944s2.463,4.944,5.492,4.944h2.735
				c4.296,0,7.792,3.146,7.792,7.013v26.029c0,2.724,2.463,4.943,5.492,4.943h1.953c1.195,0,2.332-0.342,3.286-0.982
				c0.508-0.343,1.229-0.247,1.607,0.21c0.38,0.458,0.277,1.104-0.231,1.447C41.956,53.323,40.345,53.803,38.648,53.803"/>
		</g>
	</g>
	<g>
		<g>
			<defs>
				<rect id="SVGID_83_" x="-26.333" y="-46.842" width="183.865" height="165.509"/>
			</defs>
			<clipPath id="SVGID_84_">
				<use xlink:href="#SVGID_83_"  overflow="visible"/>
			</clipPath>
			<path clip-path="url(#SVGID_84_)" fill="#D41C5D" d="M65.742,41.774c-2.234,0-4.487-0.299-6.695-0.887
				c-2.149-0.573-4.132-1.228-5.892-1.949c-0.251-0.103-0.508-0.211-0.769-0.323c-0.571-0.246-0.813-0.863-0.541-1.378
				c0.274-0.517,0.961-0.734,1.534-0.487c0.246,0.104,0.487,0.205,0.727,0.305c1.663,0.682,3.545,1.304,5.594,1.849
				c1.996,0.533,4.028,0.804,6.041,0.804c1.95,0,2.644-0.283,2.853-0.405c0.418-0.245,0.453-0.458,0.453-0.642
				c0-0.392-0.124-0.896-1.099-1.353c-1.074-0.501-2.519-0.996-4.288-1.462c-1.86-0.491-3.933-1.069-6.164-1.721
				c-3.324-1.005-6.095-2.162-8.249-3.438c-2.238-1.324-3.921-2.934-4.998-4.785c-1.07-1.841-1.615-4.082-1.615-6.663
				c0-3.879,1.044-7.18,3.101-9.815c2.036-2.609,4.757-4.618,8.086-5.972c3.287-1.334,6.877-2.013,10.669-2.013
				c2.792,0,5.532,0.306,8.14,0.912c2.575,0.598,5.022,1.336,7.272,2.194l0.23,0.088c0.584,0.222,0.859,0.829,0.609,1.355
				c-0.247,0.526-0.924,0.772-1.505,0.548L79.006,6.45c-2.146-0.817-4.483-1.522-6.947-2.095c-2.422-0.562-4.968-0.846-7.568-0.846
				c-3.464,0-6.736,0.616-9.724,1.829c-2.949,1.199-5.354,2.974-7.15,5.276c-1.78,2.278-2.683,5.18-2.683,8.625
				c0,2.243,0.455,4.161,1.354,5.702c0.893,1.536,2.314,2.887,4.224,4.016c1.99,1.182,4.583,2.257,7.705,3.204
				c2.197,0.642,4.251,1.214,6.092,1.699c1.913,0.506,3.491,1.048,4.699,1.61c1.933,0.904,2.338,2.233,2.338,3.189
				c0,0.687-0.262,1.653-1.499,2.377C68.982,41.542,67.679,41.774,65.742,41.774"/>
		</g>
	</g>
	<g>
		<g>
			<defs>
				<rect id="SVGID_85_" x="-26.333" y="-46.842" width="183.865" height="165.509"/>
			</defs>
			<clipPath id="SVGID_86_">
				<use xlink:href="#SVGID_85_"  overflow="visible"/>
			</clipPath>
			<path clip-path="url(#SVGID_86_)" fill="#D41C5D" d="M65.508,54.156c-2.714,0-5.586-0.254-8.536-0.759
				c-2.942-0.501-5.827-1.199-8.573-2.08c-0.657-0.211-1.306-0.434-1.927-0.656c-0.589-0.213-0.875-0.817-0.638-1.346
				c0.237-0.531,0.906-0.787,1.496-0.575c0.592,0.214,1.211,0.427,1.841,0.627c2.633,0.845,5.402,1.517,8.229,2
				c2.809,0.477,5.539,0.719,8.108,0.719c2.5,0,4.985-0.26,7.391-0.773c2.358-0.503,4.521-1.335,6.43-2.469
				c1.863-1.109,3.365-2.61,4.47-4.47c1.099-1.862,1.66-4.222,1.66-7.006c0-2.897-0.625-5.229-1.849-6.931
				c-1.243-1.726-3.048-3.169-5.361-4.288c-2.42-1.168-5.346-2.221-8.696-3.126c-2.13-0.603-3.98-1.118-5.512-1.535
				c-1.666-0.453-2.932-0.953-3.87-1.531c-1.146-0.701-1.752-1.696-1.752-2.875c0-1.269,0.672-2.266,1.891-2.809
				c0.989-0.441,2.24-0.666,3.713-0.666c1.769,0,3.59,0.251,5.411,0.748c1.756,0.48,3.407,1.028,4.905,1.629
				c0.576,0.231,0.86,0.85,0.601,1.372c-0.253,0.522-0.91,0.767-1.488,0.538c-0.006-0.002-0.031-0.013-0.035-0.016
				c-1.424-0.571-2.983-1.088-4.647-1.542c-1.606-0.438-3.204-0.66-4.746-0.66c-1.117,0-2.023,0.152-2.694,0.451
				c-0.368,0.165-0.612,0.389-0.612,0.956c0,0.489,0.231,0.849,0.749,1.166c0.734,0.451,1.821,0.874,3.242,1.259
				c1.538,0.419,3.396,0.937,5.521,1.538c3.482,0.941,6.554,2.048,9.108,3.282c2.661,1.286,4.747,2.963,6.202,4.984
				c1.471,2.043,2.217,4.754,2.217,8.057c0,3.132-0.649,5.814-1.933,7.979c-1.285,2.166-3.043,3.921-5.228,5.221
				c-2.133,1.268-4.545,2.197-7.164,2.757C70.849,53.878,68.185,54.156,65.508,54.156"/>
		</g>
	</g>
	<g>
		<g>
			<defs>
				<rect id="SVGID_87_" x="-26.333" y="-46.842" width="183.865" height="165.509"/>
			</defs>
			<clipPath id="SVGID_88_">
				<use xlink:href="#SVGID_87_"  overflow="visible"/>
			</clipPath>
			<path clip-path="url(#SVGID_88_)" fill="#D41C5D" d="M96.599,54.156c-4.271,0-8.239-0.779-11.79-2.321
				c-0.572-0.246-0.812-0.863-0.538-1.377c0.275-0.515,0.963-0.733,1.536-0.485c3.236,1.402,6.868,2.115,10.792,2.115
				c3.046,0,6.162-0.448,9.267-1.325c3.089-0.874,5.89-2.158,8.326-3.813l0.07-0.045c1.371-0.943,2.098-2.376,1.999-3.942
				c-0.098-1.583-1.058-3.014-2.563-3.824l-1.284-0.689c-1.969-1.057-4.495-0.853-6.144,0.498c-0.111,0.093-0.226,0.182-0.341,0.27
				c-1.315,0.978-2.788,1.693-4.389,2.13c-1.559,0.425-3.116,0.643-4.63,0.643c-2.146,0-4.118-0.392-5.859-1.162
				c-0.568-0.252-0.804-0.873-0.524-1.385c0.283-0.51,0.968-0.725,1.537-0.471c1.426,0.628,3.055,0.948,4.847,0.948
				c1.287,0,2.621-0.187,3.964-0.555c1.306-0.355,2.513-0.942,3.59-1.741c0.086-0.066,0.171-0.132,0.256-0.203
				c2.395-1.964,6.042-2.269,8.873-0.747l1.28,0.69c2.162,1.163,3.541,3.211,3.683,5.482c0.14,2.227-0.944,4.358-2.898,5.7
				l-0.079,0.056c-2.646,1.797-5.682,3.188-9.024,4.135C103.227,53.68,99.878,54.156,96.599,54.156 M84.916,24.12
				c-0.105,0-0.211-0.015-0.317-0.041c-0.611-0.159-0.96-0.731-0.786-1.28c0.529-1.655,1.347-3.182,2.439-4.54
				c1.111-1.389,2.557-2.521,4.29-3.365c1.749-0.854,3.842-1.286,6.214-1.286c1.495,0,3.057,0.189,4.628,0.561
				c1.627,0.386,3.157,1.075,4.554,2.048c0.121,0.086,0.239,0.174,0.358,0.266c1.778,1.381,4.395,1.461,6.371,0.196l0.996-0.639
				c1.34-0.856,2.141-2.197,2.204-3.673c0.062-1.479-0.627-2.869-1.891-3.815c-1.065-0.796-2.264-1.531-3.562-2.186
				c-3.769-1.896-8.257-2.858-13.348-2.858c-4.241,0-8.092,0.691-11.442,2.055c-0.579,0.235-1.262,0.003-1.52-0.517
				c-0.261-0.521-0.005-1.134,0.572-1.369c3.648-1.485,7.819-2.238,12.392-2.238c5.486,0,10.353,1.05,14.471,3.121
				c1.418,0.717,2.734,1.524,3.906,2.401c1.817,1.36,2.808,3.358,2.721,5.483c-0.09,2.125-1.246,4.051-3.171,5.283l-0.997,0.639
				c-2.838,1.819-6.625,1.688-9.205-0.318c-0.087-0.067-0.174-0.131-0.269-0.193c-1.146-0.805-2.401-1.369-3.727-1.682
				c-1.383-0.328-2.742-0.494-4.043-0.494c-1.985,0-3.707,0.348-5.12,1.036c-1.428,0.695-2.611,1.623-3.522,2.756
				c-0.934,1.164-1.639,2.475-2.091,3.9C85.878,23.824,85.417,24.12,84.916,24.12"/>
		</g>
	</g>
	<g>
		<g>
			<defs>
				<rect id="SVGID_89_" x="-26.333" y="-46.842" width="183.865" height="165.509"/>
			</defs>
			<clipPath id="SVGID_90_">
				<use xlink:href="#SVGID_89_"  overflow="visible"/>
			</clipPath>
			<polygon clip-path="url(#SVGID_90_)" fill="#FFFFFF" points="18.475,61.239 15.858,61.239 15.858,67.271 15.134,67.271 
				15.134,61.239 12.518,61.239 12.518,60.664 18.475,60.664 			"/>
		</g>
	</g>
	<g>
		<g>
			<defs>
				<rect id="SVGID_91_" x="-26.333" y="-46.842" width="183.865" height="165.509"/>
			</defs>
			<clipPath id="SVGID_92_">
				<use xlink:href="#SVGID_91_"  overflow="visible"/>
			</clipPath>
			<polygon clip-path="url(#SVGID_92_)" fill="#FFFFFF" points="25.362,60.664 25.362,67.271 24.648,67.271 24.648,64.183 
				20.294,64.183 20.294,67.271 19.57,67.271 19.57,60.664 20.294,60.664 20.294,63.604 24.648,63.604 24.648,60.664 			"/>
		</g>
	</g>
	<g>
		<g>
			<defs>
				<rect id="SVGID_93_" x="-26.333" y="-46.842" width="183.865" height="165.509"/>
			</defs>
			<clipPath id="SVGID_94_">
				<use xlink:href="#SVGID_93_"  overflow="visible"/>
			</clipPath>
			<polygon clip-path="url(#SVGID_94_)" fill="#FFFFFF" points="32.137,66.697 32.137,67.271 27.204,67.271 27.204,60.664 
				32.042,60.664 32.042,61.239 27.927,61.239 27.927,63.624 31.516,63.624 31.516,64.173 27.927,64.173 27.927,66.697 			"/>
		</g>
	</g>
	<g>
		<g>
			<defs>
				<rect id="SVGID_95_" x="-26.333" y="-46.842" width="183.865" height="165.509"/>
			</defs>
			<clipPath id="SVGID_96_">
				<use xlink:href="#SVGID_95_"  overflow="visible"/>
			</clipPath>
			<path clip-path="url(#SVGID_96_)" fill="#FFFFFF" d="M40.39,62.22c-0.069-0.068-0.17-0.144-0.3-0.22
				c-0.131-0.078-0.286-0.15-0.466-0.22c-0.18-0.066-0.372-0.123-0.579-0.166c-0.207-0.046-0.422-0.066-0.643-0.066
				c-0.482,0-0.84,0.08-1.075,0.24c-0.234,0.163-0.352,0.386-0.352,0.671c0,0.206,0.065,0.375,0.197,0.495
				c0.13,0.12,0.331,0.221,0.598,0.301c0.271,0.081,0.607,0.168,1.014,0.26c0.497,0.105,0.927,0.23,1.292,0.375
				c0.366,0.148,0.646,0.338,0.839,0.582c0.192,0.24,0.289,0.561,0.289,0.954c0,0.335-0.069,0.625-0.207,0.865
				c-0.138,0.241-0.331,0.438-0.579,0.588c-0.249,0.153-0.535,0.264-0.859,0.336c-0.324,0.066-0.673,0.105-1.044,0.105
				c-0.365,0-0.729-0.033-1.091-0.104c-0.362-0.067-0.707-0.168-1.035-0.301c-0.327-0.134-0.629-0.297-0.904-0.491l0.527-0.893
				c0.091,0.08,0.22,0.171,0.388,0.266c0.169,0.097,0.365,0.188,0.59,0.273c0.223,0.088,0.468,0.161,0.733,0.222
				c0.266,0.058,0.536,0.087,0.814,0.087c0.461,0,0.814-0.073,1.059-0.218s0.367-0.353,0.367-0.624c0-0.222-0.08-0.4-0.237-0.535
				c-0.16-0.134-0.391-0.244-0.694-0.338c-0.304-0.095-0.665-0.186-1.085-0.278c-0.483-0.117-0.887-0.244-1.21-0.384
				c-0.325-0.141-0.568-0.32-0.729-0.54c-0.162-0.219-0.244-0.5-0.244-0.84c0-0.433,0.118-0.801,0.353-1.1
				c0.235-0.302,0.554-0.526,0.956-0.679c0.404-0.152,0.859-0.228,1.361-0.228c0.331,0,0.646,0.032,0.942,0.101
				c0.296,0.062,0.573,0.151,0.832,0.265c0.259,0.111,0.495,0.238,0.709,0.38L40.39,62.22z"/>
		</g>
	</g>
	<g>
		<g>
			<defs>
				<rect id="SVGID_97_" x="-26.333" y="-46.842" width="183.865" height="165.509"/>
			</defs>
			<clipPath id="SVGID_98_">
				<use xlink:href="#SVGID_97_"  overflow="visible"/>
			</clipPath>
			<path clip-path="url(#SVGID_98_)" fill="#FFFFFF" d="M45.417,67.32c-0.533,0-1.01-0.093-1.439-0.278
				c-0.426-0.188-0.796-0.438-1.106-0.76c-0.311-0.319-0.55-0.679-0.718-1.079c-0.17-0.4-0.253-0.813-0.253-1.232
				c0-0.441,0.089-0.864,0.27-1.264c0.179-0.4,0.427-0.756,0.744-1.068c0.318-0.313,0.691-0.563,1.122-0.745
				c0.431-0.183,0.898-0.276,1.403-0.276c0.523,0,1.001,0.097,1.431,0.289c0.431,0.192,0.8,0.451,1.107,0.773
				c0.307,0.323,0.545,0.683,0.713,1.081c0.169,0.398,0.254,0.803,0.254,1.22c0,0.44-0.088,0.861-0.264,1.262
				s-0.422,0.757-0.739,1.068c-0.317,0.313-0.691,0.561-1.122,0.741C46.386,67.231,45.918,67.32,45.417,67.32 M43.078,63.97
				c0,0.31,0.057,0.611,0.166,0.902c0.11,0.292,0.267,0.552,0.471,0.778s0.45,0.404,0.739,0.534c0.29,0.131,0.613,0.195,0.971,0.195
				c0.374,0,0.704-0.067,0.994-0.206c0.29-0.135,0.533-0.319,0.728-0.553c0.197-0.233,0.348-0.492,0.45-0.781
				c0.105-0.289,0.156-0.578,0.156-0.869c0-0.313-0.053-0.612-0.161-0.9c-0.107-0.289-0.263-0.547-0.468-0.771
				c-0.208-0.226-0.456-0.406-0.741-0.535c-0.286-0.132-0.605-0.196-0.958-0.196c-0.371,0-0.702,0.069-0.992,0.204
				c-0.29,0.139-0.535,0.32-0.735,0.55s-0.354,0.486-0.46,0.772C43.132,63.381,43.078,63.672,43.078,63.97"/>
		</g>
	</g>
	<g>
		<g>
			<defs>
				<rect id="SVGID_99_" x="-26.333" y="-46.842" width="183.865" height="165.509"/>
			</defs>
			<clipPath id="SVGID_100_">
				<use xlink:href="#SVGID_99_"  overflow="visible"/>
			</clipPath>
			<path clip-path="url(#SVGID_100_)" fill="#FFFFFF" d="M49.677,63.913c0-0.403,0.08-0.798,0.239-1.187
				c0.158-0.389,0.391-0.741,0.698-1.063c0.307-0.318,0.681-0.573,1.122-0.762c0.44-0.189,0.942-0.285,1.5-0.285
				c0.662,0,1.233,0.136,1.716,0.404c0.483,0.272,0.841,0.617,1.076,1.04l-0.91,0.549c-0.138-0.268-0.313-0.479-0.522-0.635
				c-0.209-0.154-0.438-0.262-0.681-0.323c-0.245-0.063-0.486-0.094-0.72-0.094c-0.387,0-0.723,0.067-1.014,0.208
				c-0.289,0.141-0.532,0.325-0.728,0.554c-0.197,0.229-0.345,0.487-0.445,0.773c-0.101,0.285-0.15,0.569-0.15,0.856
				c0,0.316,0.058,0.62,0.176,0.917c0.116,0.297,0.28,0.557,0.491,0.783c0.209,0.227,0.46,0.404,0.75,0.534
				c0.289,0.131,0.607,0.195,0.951,0.195c0.235,0,0.479-0.037,0.735-0.111c0.254-0.077,0.49-0.191,0.709-0.351
				c0.217-0.156,0.387-0.365,0.512-0.627l0.962,0.492c-0.15,0.33-0.388,0.608-0.709,0.84c-0.319,0.229-0.678,0.403-1.074,0.52
				c-0.398,0.119-0.789,0.178-1.175,0.178c-0.517,0-0.99-0.099-1.418-0.294c-0.427-0.195-0.796-0.457-1.106-0.781
				c-0.311-0.328-0.552-0.691-0.724-1.1C49.763,64.739,49.677,64.329,49.677,63.913"/>
		</g>
	</g>
	<g>
		<g>
			<defs>
				<rect id="SVGID_101_" x="-26.333" y="-46.842" width="183.865" height="165.509"/>
			</defs>
			<clipPath id="SVGID_102_">
				<use xlink:href="#SVGID_101_"  overflow="visible"/>
			</clipPath>
			<rect x="57.216" y="60.664" clip-path="url(#SVGID_102_)" fill="#FFFFFF" width="1.158" height="6.607"/>
		</g>
	</g>
	<g>
		<g>
			<defs>
				<rect id="SVGID_103_" x="-26.333" y="-46.842" width="183.865" height="165.509"/>
			</defs>
			<clipPath id="SVGID_104_">
				<use xlink:href="#SVGID_103_"  overflow="visible"/>
			</clipPath>
			<path clip-path="url(#SVGID_104_)" fill="#FFFFFF" d="M62.15,60.664h1.097l2.853,6.607h-1.221l-0.717-1.794h-2.937l-0.721,1.794
				h-1.231L62.15,60.664z M63.854,64.705L62.7,61.81l-1.164,2.896H63.854z"/>
		</g>
	</g>
	<g>
		<g>
			<defs>
				<rect id="SVGID_105_" x="-26.333" y="-46.842" width="183.865" height="165.509"/>
			</defs>
			<clipPath id="SVGID_106_">
				<use xlink:href="#SVGID_105_"  overflow="visible"/>
			</clipPath>
			<polygon clip-path="url(#SVGID_106_)" fill="#FFFFFF" points="67.01,67.271 67.01,60.664 68.169,60.664 68.169,66.353 
				72.109,66.353 72.109,67.271 			"/>
		</g>
	</g>
	<g>
		<g>
			<defs>
				<rect id="SVGID_107_" x="-26.333" y="-46.842" width="183.865" height="165.509"/>
			</defs>
			<clipPath id="SVGID_108_">
				<use xlink:href="#SVGID_107_"  overflow="visible"/>
			</clipPath>
			<path clip-path="url(#SVGID_108_)" fill="#FFFFFF" d="M75.295,63.913c0-0.403,0.078-0.798,0.233-1.187
				c0.154-0.389,0.382-0.741,0.676-1.063c0.298-0.318,0.661-0.573,1.097-0.762c0.436-0.189,0.93-0.285,1.48-0.285
				c0.655,0,1.214,0.136,1.68,0.404c0.466,0.272,0.808,0.617,1.031,1.04l-0.572,0.317c-0.159-0.295-0.357-0.526-0.599-0.695
				c-0.241-0.17-0.499-0.295-0.77-0.368c-0.275-0.074-0.544-0.111-0.814-0.111c-0.44,0-0.831,0.081-1.168,0.238
				c-0.339,0.159-0.624,0.369-0.852,0.632c-0.233,0.265-0.407,0.559-0.523,0.886c-0.116,0.324-0.177,0.657-0.177,0.992
				c0,0.365,0.071,0.717,0.21,1.053c0.135,0.332,0.328,0.629,0.576,0.886c0.247,0.258,0.539,0.463,0.874,0.616
				c0.334,0.152,0.7,0.227,1.093,0.227c0.273,0,0.557-0.043,0.847-0.13c0.288-0.085,0.559-0.221,0.812-0.398
				c0.251-0.181,0.453-0.413,0.604-0.701l0.6,0.279c-0.151,0.33-0.389,0.608-0.703,0.84c-0.316,0.23-0.67,0.403-1.061,0.52
				c-0.39,0.119-0.771,0.178-1.142,0.178c-0.503,0-0.966-0.099-1.386-0.294s-0.785-0.457-1.093-0.781
				c-0.307-0.327-0.543-0.691-0.709-1.1C75.38,64.739,75.295,64.329,75.295,63.913"/>
		</g>
	</g>
	<g>
		<g>
			<defs>
				<rect id="SVGID_109_" x="-26.333" y="-46.842" width="183.865" height="165.509"/>
			</defs>
			<clipPath id="SVGID_110_">
				<use xlink:href="#SVGID_109_"  overflow="visible"/>
			</clipPath>
			<path clip-path="url(#SVGID_110_)" fill="#FFFFFF" d="M85.047,60.664h0.611l3.051,6.607h-0.765l-0.917-2.063H83.67l-0.917,2.063
				h-0.777L85.047,60.664z M86.8,64.695l-1.452-3.269l-1.451,3.269H86.8z"/>
		</g>
	</g>
	<g>
		<g>
			<defs>
				<rect id="SVGID_111_" x="-26.333" y="-46.842" width="183.865" height="165.509"/>
			</defs>
			<clipPath id="SVGID_112_">
				<use xlink:href="#SVGID_111_"  overflow="visible"/>
			</clipPath>
			<polygon clip-path="url(#SVGID_112_)" fill="#FFFFFF" points="89.764,67.271 89.764,60.664 90.487,60.664 90.487,66.697 
				94.729,66.697 94.729,67.271 			"/>
		</g>
	</g>
	<g>
		<g>
			<defs>
				<rect id="SVGID_113_" x="-26.333" y="-46.842" width="183.865" height="165.509"/>
			</defs>
			<clipPath id="SVGID_114_">
				<use xlink:href="#SVGID_113_"  overflow="visible"/>
			</clipPath>
			<polygon clip-path="url(#SVGID_114_)" fill="#FFFFFF" points="95.794,67.271 95.794,60.664 96.518,60.664 96.518,66.697 
				100.759,66.697 100.759,67.271 			"/>
		</g>
	</g>
	<g>
		<g>
			<defs>
				<rect id="SVGID_115_" x="-26.333" y="-46.842" width="183.865" height="165.509"/>
			</defs>
			<clipPath id="SVGID_116_">
				<use xlink:href="#SVGID_115_"  overflow="visible"/>
			</clipPath>
			<rect x="101.823" y="60.664" clip-path="url(#SVGID_116_)" fill="#FFFFFF" width="0.726" height="6.607"/>
		</g>
	</g>
	<g>
		<g>
			<defs>
				<rect id="SVGID_117_" x="-26.333" y="-46.842" width="183.865" height="165.509"/>
			</defs>
			<clipPath id="SVGID_118_">
				<use xlink:href="#SVGID_117_"  overflow="visible"/>
			</clipPath>
			<polygon clip-path="url(#SVGID_118_)" fill="#FFFFFF" points="105.112,61.865 105.112,67.271 104.39,67.271 104.39,60.664 
				104.988,60.664 109.808,66.174 109.808,60.674 110.53,60.674 110.53,67.271 109.86,67.271 			"/>
		</g>
	</g>
	<g>
		<g>
			<defs>
				<rect id="SVGID_119_" x="-26.333" y="-46.842" width="183.865" height="165.509"/>
			</defs>
			<clipPath id="SVGID_120_">
				<use xlink:href="#SVGID_119_"  overflow="visible"/>
			</clipPath>
			<path clip-path="url(#SVGID_120_)" fill="#FFFFFF" d="M115.321,67.32c-0.492,0-0.947-0.095-1.367-0.284
				c-0.42-0.187-0.786-0.444-1.095-0.768c-0.312-0.323-0.551-0.683-0.72-1.081c-0.168-0.397-0.252-0.807-0.252-1.228
				c0-0.448,0.084-0.87,0.252-1.271c0.169-0.403,0.404-0.758,0.706-1.066c0.304-0.312,0.665-0.556,1.079-0.734
				c0.411-0.18,0.864-0.272,1.353-0.272c0.726,0,1.315,0.136,1.769,0.401c0.456,0.267,0.801,0.614,1.035,1.044l-0.56,0.334
				c-0.235-0.409-0.548-0.71-0.939-0.903c-0.395-0.19-0.831-0.288-1.313-0.288c-0.408,0-0.778,0.075-1.104,0.233
				c-0.327,0.153-0.607,0.363-0.843,0.624c-0.233,0.26-0.411,0.556-0.533,0.883c-0.118,0.331-0.183,0.673-0.183,1.027
				c0,0.37,0.071,0.724,0.21,1.058c0.137,0.33,0.331,0.624,0.588,0.881c0.255,0.261,0.551,0.46,0.883,0.605
				c0.336,0.147,0.696,0.219,1.085,0.219c0.446,0,0.87-0.101,1.27-0.302c0.399-0.2,0.782-0.514,1.149-0.935v0.688
				C117.094,66.941,116.271,67.32,115.321,67.32 M117.676,64.528h-1.631v-0.505h2.244v3.248h-0.613V64.528L117.676,64.528z"/>
		</g>
	</g>
</g>
</svg>
