<?xml version="1.0" encoding="utf-8"?>
<!-- Generator: Adobe Illustrator 16.0.0, SVG Export Plug-In . SVG Version: 6.00 Build 0)  -->
<!DOCTYPE svg PUBLIC "-//W3C//DTD SVG 1.1//EN" "http://www.w3.org/Graphics/SVG/1.1/DTD/svg11.dtd">
<svg version="1.1" id="Layer_1" xmlns="http://www.w3.org/2000/svg" xmlns:xlink="http://www.w3.org/1999/xlink" x="0px" y="0px"
	 width="140px" height="50px" viewBox="0 0 140 50" enable-background="new 0 0 140 50" xml:space="preserve">
<g>
	<g>
		<g>
			<defs>
				<rect id="SVGID_1_" x="2.469" y="-32.955" width="132.295" height="118.376"/>
			</defs>
			<clipPath id="SVGID_2_">
				<use xlink:href="#SVGID_1_"  overflow="visible"/>
			</clipPath>
			<path clip-path="url(#SVGID_2_)" fill="#D41C5D" d="M49.225,39.028H47.82c-3.091,0-5.606-2.249-5.606-5.015V15.399
				c0-1.95-1.772-3.538-3.952-3.538h-1.968c-3.09,0-5.606-2.25-5.606-5.016c0-2.766,2.516-5.017,5.606-5.017h12.97
				c1.877,0,3.621,0.834,4.664,2.231C54.182,4.4,54.08,4.859,53.7,5.087c-0.379,0.228-0.893,0.136-1.147-0.205
				c-0.736-0.985-1.966-1.573-3.29-1.573h-12.97c-2.179,0-3.952,1.586-3.952,3.537s1.773,3.536,3.952,3.536h1.968
				c3.091,0,5.606,2.25,5.606,5.017v18.615c0,1.949,1.773,3.535,3.952,3.535h1.405c0.86,0,1.677-0.243,2.363-0.701
				c0.367-0.246,0.885-0.178,1.158,0.148c0.273,0.329,0.198,0.792-0.167,1.037C51.604,38.686,50.445,39.028,49.225,39.028"/>
		</g>
	</g>
	<g>
		<g>
			<defs>
				<rect id="SVGID_3_" x="2.469" y="-32.955" width="132.295" height="118.376"/>
			</defs>
			<clipPath id="SVGID_4_">
				<use xlink:href="#SVGID_3_"  overflow="visible"/>
			</clipPath>
			<path clip-path="url(#SVGID_4_)" fill="#D41C5D" d="M68.72,30.426c-1.609,0-3.229-0.214-4.817-0.635
				c-1.547-0.41-2.974-0.878-4.24-1.394c-0.18-0.072-0.365-0.151-0.552-0.23c-0.412-0.178-0.586-0.619-0.389-0.987
				c0.197-0.369,0.69-0.525,1.103-0.349c0.177,0.075,0.352,0.147,0.523,0.219c1.196,0.487,2.55,0.933,4.025,1.323
				c1.436,0.38,2.897,0.573,4.347,0.573c1.402,0,1.902-0.202,2.053-0.29c0.299-0.174,0.325-0.327,0.325-0.458
				c0-0.28-0.09-0.642-0.791-0.968c-0.772-0.357-1.813-0.713-3.086-1.046c-1.338-0.351-2.829-0.765-4.434-1.229
				c-2.392-0.719-4.385-1.546-5.935-2.46c-1.611-0.946-2.821-2.098-3.596-3.421c-0.771-1.316-1.162-2.918-1.162-4.766
				c0-2.774,0.75-5.135,2.231-7.02c1.465-1.866,3.423-3.303,5.818-4.271c2.365-0.955,4.948-1.439,7.677-1.439
				c2.008,0,3.979,0.219,5.857,0.652c1.854,0.428,3.613,0.956,5.231,1.569l0.167,0.063c0.42,0.159,0.618,0.594,0.439,0.97
				s-0.666,0.552-1.084,0.393l-0.167-0.063c-1.543-0.585-3.227-1.089-4.997-1.499c-1.744-0.402-3.575-0.606-5.447-0.606
				c-2.492,0-4.847,0.441-6.997,1.309c-2.122,0.857-3.852,2.127-5.145,3.773c-1.281,1.63-1.93,3.706-1.93,6.169
				c0,1.604,0.328,2.977,0.974,4.078c0.643,1.099,1.665,2.066,3.039,2.873c1.432,0.845,3.297,1.614,5.544,2.292
				c1.582,0.458,3.06,0.868,4.383,1.215c1.377,0.362,2.513,0.749,3.381,1.152c1.391,0.647,1.683,1.599,1.683,2.281
				c0,0.49-0.188,1.182-1.079,1.701C71.051,30.259,70.114,30.426,68.72,30.426"/>
		</g>
	</g>
	<g>
		<g>
			<defs>
				<rect id="SVGID_5_" x="2.469" y="-32.955" width="132.295" height="118.376"/>
			</defs>
			<clipPath id="SVGID_6_">
				<use xlink:href="#SVGID_5_"  overflow="visible"/>
			</clipPath>
			<path clip-path="url(#SVGID_6_)" fill="#D41C5D" d="M68.551,39.281c-1.954,0-4.019-0.182-6.142-0.543
				c-2.118-0.357-4.193-0.858-6.168-1.488c-0.472-0.15-0.94-0.309-1.387-0.469c-0.424-0.152-0.629-0.585-0.459-0.963
				c0.171-0.379,0.652-0.563,1.076-0.41c0.426,0.153,0.872,0.305,1.325,0.449c1.895,0.603,3.886,1.084,5.92,1.429
				c2.022,0.341,3.985,0.514,5.834,0.514c1.799,0,3.587-0.185,5.319-0.553c1.697-0.358,3.253-0.955,4.626-1.767
				c1.339-0.791,2.42-1.866,3.215-3.195c0.792-1.333,1.195-3.018,1.195-5.012c0-2.07-0.449-3.739-1.331-4.957
				c-0.894-1.234-2.191-2.267-3.857-3.067c-1.74-0.835-3.846-1.587-6.257-2.235c-1.533-0.432-2.862-0.799-3.965-1.097
				c-1.198-0.324-2.11-0.682-2.785-1.095c-0.824-0.501-1.26-1.213-1.26-2.056c0-0.907,0.483-1.621,1.36-2.009
				c0.711-0.316,1.611-0.476,2.67-0.476c1.274,0,2.584,0.18,3.896,0.535c1.263,0.343,2.451,0.734,3.526,1.165
				c0.416,0.166,0.621,0.608,0.436,0.981c-0.184,0.373-0.656,0.548-1.072,0.384c-0.004-0.001-0.022-0.009-0.025-0.01
				c-1.024-0.409-2.147-0.778-3.344-1.104c-1.155-0.313-2.304-0.472-3.416-0.472c-0.803,0-1.455,0.109-1.937,0.322
				c-0.264,0.118-0.441,0.278-0.441,0.684c0,0.35,0.166,0.606,0.54,0.833c0.527,0.323,1.31,0.625,2.331,0.9
				c1.107,0.3,2.444,0.67,3.973,1.1c2.507,0.674,4.716,1.465,6.554,2.348c1.914,0.92,3.416,2.119,4.463,3.564
				c1.059,1.462,1.594,3.4,1.594,5.762c0,2.24-0.466,4.158-1.39,5.709c-0.925,1.548-2.19,2.804-3.76,3.732
				c-1.536,0.908-3.271,1.572-5.156,1.973C72.393,39.082,70.477,39.281,68.551,39.281"/>
		</g>
	</g>
	<g>
		<g>
			<defs>
				<rect id="SVGID_7_" x="2.469" y="-32.955" width="132.295" height="118.376"/>
			</defs>
			<clipPath id="SVGID_8_">
				<use xlink:href="#SVGID_7_"  overflow="visible"/>
			</clipPath>
			<path clip-path="url(#SVGID_8_)" fill="#D41C5D" d="M90.921,39.281c-3.071,0-5.928-0.559-8.483-1.66
				c-0.41-0.177-0.584-0.618-0.386-0.986c0.198-0.367,0.693-0.522,1.104-0.346c2.33,1.004,4.943,1.513,7.766,1.513
				c2.191,0,4.435-0.319,6.667-0.947c2.223-0.626,4.24-1.544,5.992-2.729l0.05-0.032c0.985-0.674,1.511-1.698,1.438-2.819
				c-0.07-1.132-0.762-2.155-1.846-2.733l-0.923-0.493c-1.416-0.757-3.234-0.61-4.42,0.355c-0.08,0.065-0.162,0.13-0.245,0.192
				c-0.947,0.699-2.006,1.211-3.158,1.523c-1.121,0.305-2.241,0.459-3.332,0.459c-1.544,0-2.962-0.278-4.215-0.829
				c-0.408-0.183-0.579-0.626-0.376-0.992c0.2-0.363,0.693-0.518,1.105-0.337c1.025,0.449,2.196,0.678,3.485,0.678
				c0.927,0,1.887-0.134,2.854-0.396c0.939-0.254,1.808-0.675,2.581-1.245c0.062-0.048,0.124-0.096,0.186-0.146
				c1.723-1.403,4.348-1.621,6.384-0.533l0.921,0.494c1.558,0.832,2.549,2.296,2.649,3.92c0.102,1.594-0.679,3.116-2.084,4.079
				l-0.058,0.038c-1.903,1.285-4.087,2.281-6.493,2.957C95.69,38.939,93.281,39.281,90.921,39.281 M82.517,17.798
				c-0.076,0-0.153-0.01-0.229-0.028c-0.44-0.114-0.692-0.524-0.567-0.916c0.38-1.183,0.969-2.276,1.755-3.248
				c0.801-0.993,1.84-1.802,3.088-2.406c1.259-0.61,2.765-0.919,4.472-0.919c1.076,0,2.198,0.135,3.329,0.401
				c1.17,0.275,2.271,0.768,3.276,1.464c0.087,0.061,0.173,0.124,0.258,0.188c1.279,0.989,3.162,1.047,4.583,0.142l0.718-0.458
				c0.964-0.613,1.542-1.571,1.586-2.627c0.045-1.058-0.451-2.053-1.36-2.729c-0.767-0.569-1.628-1.095-2.562-1.563
				c-2.711-1.356-5.942-2.044-9.604-2.044c-3.055,0-5.824,0.495-8.235,1.469c-0.416,0.169-0.906,0.002-1.093-0.369
				c-0.187-0.373-0.003-0.811,0.412-0.979c2.627-1.062,5.627-1.6,8.916-1.6c3.948,0,7.448,0.75,10.412,2.231
				c1.021,0.513,1.967,1.09,2.811,1.717c1.309,0.973,2.021,2.401,1.957,3.922c-0.063,1.52-0.895,2.897-2.279,3.778l-0.719,0.457
				c-2.042,1.301-4.767,1.207-6.624-0.228c-0.063-0.048-0.124-0.094-0.19-0.139c-0.826-0.575-1.73-0.979-2.683-1.203
				c-0.996-0.234-1.974-0.353-2.909-0.353c-1.43,0-2.668,0.25-3.685,0.741c-1.027,0.497-1.879,1.16-2.535,1.971
				c-0.672,0.833-1.179,1.771-1.506,2.79C83.205,17.587,82.876,17.798,82.517,17.798"/>
		</g>
	</g>
	<g>
		<g>
			<defs>
				<rect id="SVGID_9_" x="2.469" y="-32.955" width="132.295" height="118.376"/>
			</defs>
			<clipPath id="SVGID_10_">
				<use xlink:href="#SVGID_9_"  overflow="visible"/>
			</clipPath>
			<polygon clip-path="url(#SVGID_10_)" fill="#333333" points="34.709,44.349 32.827,44.349 32.827,48.663 32.306,48.663 
				32.306,44.349 30.423,44.349 30.423,43.937 34.709,43.937 			"/>
		</g>
	</g>
	<g>
		<g>
			<defs>
				<rect id="SVGID_11_" x="2.469" y="-32.955" width="132.295" height="118.376"/>
			</defs>
			<clipPath id="SVGID_12_">
				<use xlink:href="#SVGID_11_"  overflow="visible"/>
			</clipPath>
			<polygon clip-path="url(#SVGID_12_)" fill="#333333" points="39.665,43.937 39.665,48.663 39.151,48.663 39.151,46.452 
				36.018,46.452 36.018,48.663 35.498,48.663 35.498,43.937 36.018,43.937 36.018,46.039 39.151,46.039 39.151,43.937 			"/>
		</g>
	</g>
	<g>
		<g>
			<defs>
				<rect id="SVGID_13_" x="2.469" y="-32.955" width="132.295" height="118.376"/>
			</defs>
			<clipPath id="SVGID_14_">
				<use xlink:href="#SVGID_13_"  overflow="visible"/>
			</clipPath>
			<polygon clip-path="url(#SVGID_14_)" fill="#333333" points="44.539,48.251 44.539,48.663 40.99,48.663 40.99,43.937 
				44.471,43.937 44.471,44.349 41.51,44.349 41.51,46.053 44.093,46.053 44.093,46.446 41.51,46.446 41.51,48.251 			"/>
		</g>
	</g>
	<g>
		<g>
			<defs>
				<rect id="SVGID_15_" x="2.469" y="-32.955" width="132.295" height="118.376"/>
			</defs>
			<clipPath id="SVGID_16_">
				<use xlink:href="#SVGID_15_"  overflow="visible"/>
			</clipPath>
			<path clip-path="url(#SVGID_16_)" fill="#333333" d="M50.478,45.048c-0.049-0.048-0.122-0.101-0.216-0.156
				s-0.206-0.108-0.335-0.157c-0.129-0.048-0.267-0.09-0.417-0.119c-0.149-0.032-0.303-0.047-0.461-0.047
				c-0.348,0-0.605,0.058-0.773,0.172c-0.169,0.116-0.253,0.275-0.253,0.479c0,0.148,0.046,0.268,0.141,0.354
				c0.095,0.085,0.238,0.158,0.432,0.216c0.194,0.057,0.436,0.118,0.729,0.185c0.357,0.076,0.666,0.164,0.93,0.269
				c0.264,0.106,0.463,0.241,0.603,0.415c0.139,0.173,0.208,0.402,0.208,0.684c0,0.239-0.05,0.446-0.149,0.618
				c-0.101,0.172-0.239,0.313-0.417,0.422c-0.179,0.107-0.385,0.188-0.618,0.237c-0.233,0.051-0.485,0.078-0.752,0.078
				c-0.263,0-0.524-0.025-0.785-0.075c-0.261-0.048-0.508-0.119-0.745-0.214c-0.235-0.097-0.453-0.213-0.65-0.352l0.379-0.639
				c0.065,0.057,0.158,0.121,0.279,0.189c0.122,0.07,0.263,0.135,0.425,0.197c0.161,0.062,0.337,0.114,0.527,0.157
				c0.191,0.041,0.386,0.063,0.586,0.063c0.331,0,0.585-0.054,0.761-0.156c0.176-0.104,0.265-0.253,0.265-0.447
				c0-0.16-0.058-0.286-0.171-0.382c-0.115-0.096-0.281-0.175-0.499-0.241c-0.219-0.068-0.479-0.133-0.781-0.199
				c-0.347-0.084-0.638-0.176-0.871-0.276c-0.233-0.1-0.408-0.227-0.524-0.385c-0.116-0.157-0.175-0.357-0.175-0.602
				c0-0.308,0.084-0.57,0.253-0.786c0.168-0.215,0.398-0.376,0.688-0.485c0.29-0.107,0.617-0.162,0.978-0.162
				c0.239,0,0.464,0.023,0.678,0.071c0.213,0.045,0.414,0.109,0.599,0.189c0.187,0.08,0.356,0.17,0.51,0.273L50.478,45.048z"/>
		</g>
	</g>
	<g>
		<g>
			<defs>
				<rect id="SVGID_17_" x="2.469" y="-32.955" width="132.295" height="118.376"/>
			</defs>
			<clipPath id="SVGID_18_">
				<use xlink:href="#SVGID_17_"  overflow="visible"/>
			</clipPath>
			<path clip-path="url(#SVGID_18_)" fill="#333333" d="M54.095,48.697c-0.382,0-0.727-0.066-1.036-0.2
				c-0.307-0.135-0.573-0.313-0.795-0.543c-0.224-0.228-0.396-0.485-0.517-0.772c-0.123-0.285-0.182-0.581-0.182-0.881
				c0-0.315,0.063-0.618,0.193-0.904c0.129-0.285,0.308-0.54,0.537-0.765c0.229-0.223,0.497-0.402,0.807-0.533
				c0.31-0.131,0.646-0.196,1.008-0.196c0.378,0,0.722,0.069,1.031,0.207c0.311,0.138,0.576,0.321,0.796,0.553
				c0.222,0.232,0.394,0.488,0.514,0.772c0.123,0.284,0.183,0.575,0.183,0.873c0,0.315-0.063,0.616-0.19,0.902
				c-0.125,0.286-0.303,0.541-0.531,0.764c-0.229,0.225-0.497,0.401-0.807,0.531C54.792,48.633,54.456,48.697,54.095,48.697
				 M52.412,46.301c0,0.221,0.041,0.437,0.12,0.645s0.192,0.395,0.339,0.557c0.146,0.162,0.323,0.289,0.532,0.383
				c0.209,0.093,0.441,0.14,0.7,0.14c0.269,0,0.506-0.048,0.714-0.147c0.209-0.097,0.383-0.229,0.524-0.395
				c0.141-0.167,0.25-0.354,0.323-0.561c0.076-0.207,0.112-0.413,0.112-0.621c0-0.223-0.039-0.438-0.116-0.645
				c-0.076-0.205-0.189-0.391-0.337-0.552c-0.149-0.162-0.328-0.289-0.533-0.383c-0.206-0.095-0.435-0.141-0.688-0.141
				c-0.268,0-0.506,0.05-0.713,0.146c-0.209,0.099-0.386,0.229-0.53,0.394c-0.143,0.165-0.254,0.348-0.331,0.554
				C52.451,45.878,52.412,46.088,52.412,46.301"/>
		</g>
	</g>
	<g>
		<g>
			<defs>
				<rect id="SVGID_19_" x="2.469" y="-32.955" width="132.295" height="118.376"/>
			</defs>
			<clipPath id="SVGID_20_">
				<use xlink:href="#SVGID_19_"  overflow="visible"/>
			</clipPath>
			<path clip-path="url(#SVGID_20_)" fill="#333333" d="M57.16,46.26c0-0.288,0.058-0.571,0.172-0.849
				c0.113-0.278,0.28-0.53,0.501-0.761c0.221-0.228,0.491-0.409,0.808-0.545c0.317-0.136,0.677-0.203,1.079-0.203
				c0.476,0,0.888,0.097,1.234,0.289c0.348,0.194,0.606,0.441,0.775,0.742l-0.656,0.394c-0.099-0.191-0.224-0.341-0.375-0.452
				c-0.15-0.11-0.314-0.188-0.49-0.232c-0.177-0.045-0.35-0.066-0.519-0.066c-0.278,0-0.521,0.048-0.729,0.148
				c-0.208,0.1-0.382,0.231-0.524,0.396c-0.142,0.164-0.248,0.348-0.32,0.554c-0.073,0.202-0.108,0.406-0.108,0.611
				c0,0.227,0.042,0.445,0.126,0.656c0.083,0.211,0.202,0.397,0.353,0.56s0.332,0.289,0.54,0.383c0.208,0.093,0.436,0.14,0.683,0.14
				c0.169,0,0.346-0.027,0.529-0.081c0.184-0.055,0.353-0.136,0.51-0.25c0.155-0.111,0.278-0.261,0.368-0.449l0.692,0.354
				c-0.109,0.235-0.279,0.435-0.51,0.599c-0.231,0.164-0.488,0.289-0.773,0.373c-0.287,0.085-0.568,0.128-0.846,0.128
				c-0.372,0-0.712-0.072-1.02-0.212c-0.307-0.14-0.573-0.325-0.796-0.558c-0.224-0.234-0.396-0.495-0.521-0.786
				C57.222,46.851,57.16,46.557,57.16,46.26"/>
		</g>
	</g>
	<g>
		<g>
			<defs>
				<rect id="SVGID_21_" x="2.469" y="-32.955" width="132.295" height="118.376"/>
			</defs>
			<clipPath id="SVGID_22_">
				<use xlink:href="#SVGID_21_"  overflow="visible"/>
			</clipPath>
			<rect x="62.584" y="43.937" clip-path="url(#SVGID_22_)" fill="#333333" width="0.833" height="4.727"/>
		</g>
	</g>
	<g>
		<g>
			<defs>
				<rect id="SVGID_23_" x="2.469" y="-32.955" width="132.295" height="118.376"/>
			</defs>
			<clipPath id="SVGID_24_">
				<use xlink:href="#SVGID_23_"  overflow="visible"/>
			</clipPath>
			<path clip-path="url(#SVGID_24_)" fill="#333333" d="M66.135,43.937h0.79l2.053,4.727h-0.879l-0.517-1.284H65.47l-0.519,1.284
				h-0.886L66.135,43.937z M67.361,46.826l-0.832-2.071l-0.836,2.071H67.361z"/>
		</g>
	</g>
	<g>
		<g>
			<defs>
				<rect id="SVGID_25_" x="2.469" y="-32.955" width="132.295" height="118.376"/>
			</defs>
			<clipPath id="SVGID_26_">
				<use xlink:href="#SVGID_25_"  overflow="visible"/>
			</clipPath>
			<polygon clip-path="url(#SVGID_26_)" fill="#333333" points="69.632,48.663 69.632,43.937 70.466,43.937 70.466,48.004 
				73.301,48.004 73.301,48.663 			"/>
		</g>
	</g>
	<g>
		<g>
			<defs>
				<rect id="SVGID_27_" x="2.469" y="-32.955" width="132.295" height="118.376"/>
			</defs>
			<clipPath id="SVGID_28_">
				<use xlink:href="#SVGID_27_"  overflow="visible"/>
			</clipPath>
			<path clip-path="url(#SVGID_28_)" fill="#333333" d="M75.593,46.26c0-0.288,0.054-0.571,0.167-0.849
				c0.112-0.278,0.273-0.53,0.488-0.761c0.212-0.228,0.477-0.409,0.787-0.545c0.313-0.136,0.669-0.203,1.064-0.203
				c0.473,0,0.875,0.097,1.211,0.289c0.334,0.194,0.58,0.441,0.74,0.742l-0.41,0.229c-0.114-0.209-0.257-0.375-0.431-0.497
				c-0.176-0.121-0.36-0.212-0.556-0.263c-0.196-0.053-0.392-0.08-0.585-0.08c-0.316,0-0.598,0.058-0.84,0.17
				c-0.244,0.114-0.448,0.264-0.614,0.453c-0.166,0.188-0.292,0.399-0.375,0.632c-0.084,0.233-0.127,0.471-0.127,0.711
				c0,0.261,0.051,0.511,0.149,0.751c0.098,0.238,0.237,0.451,0.415,0.636c0.18,0.185,0.388,0.331,0.629,0.44
				c0.24,0.109,0.503,0.162,0.787,0.162c0.196,0,0.4-0.03,0.609-0.094c0.206-0.062,0.402-0.157,0.585-0.286
				c0.181-0.127,0.325-0.295,0.434-0.499l0.432,0.199c-0.109,0.235-0.28,0.435-0.507,0.6c-0.227,0.164-0.483,0.289-0.763,0.373
				c-0.279,0.085-0.554,0.127-0.821,0.127c-0.361,0-0.696-0.072-0.998-0.211c-0.301-0.139-0.563-0.326-0.784-0.558
				c-0.221-0.235-0.392-0.495-0.51-0.787C75.653,46.851,75.593,46.557,75.593,46.26"/>
		</g>
	</g>
	<g>
		<g>
			<defs>
				<rect id="SVGID_29_" x="2.469" y="-32.955" width="132.295" height="118.376"/>
			</defs>
			<clipPath id="SVGID_30_">
				<use xlink:href="#SVGID_29_"  overflow="visible"/>
			</clipPath>
			<path clip-path="url(#SVGID_30_)" fill="#333333" d="M82.61,43.937h0.438l2.195,4.727h-0.55l-0.66-1.478h-2.416l-0.659,1.478
				H80.4L82.61,43.937z M83.87,46.819l-1.044-2.338l-1.045,2.338H83.87z"/>
		</g>
	</g>
	<g>
		<g>
			<defs>
				<rect id="SVGID_31_" x="2.469" y="-32.955" width="132.295" height="118.376"/>
			</defs>
			<clipPath id="SVGID_32_">
				<use xlink:href="#SVGID_31_"  overflow="visible"/>
			</clipPath>
			<polygon clip-path="url(#SVGID_32_)" fill="#333333" points="86.004,48.663 86.004,43.937 86.524,43.937 86.524,48.251 
				89.575,48.251 89.575,48.663 			"/>
		</g>
	</g>
	<g>
		<g>
			<defs>
				<rect id="SVGID_33_" x="2.469" y="-32.955" width="132.295" height="118.376"/>
			</defs>
			<clipPath id="SVGID_34_">
				<use xlink:href="#SVGID_33_"  overflow="visible"/>
			</clipPath>
			<polygon clip-path="url(#SVGID_34_)" fill="#333333" points="90.342,48.663 90.342,43.937 90.864,43.937 90.864,48.251 
				93.914,48.251 93.914,48.663 			"/>
		</g>
	</g>
	<g>
		<g>
			<defs>
				<rect id="SVGID_35_" x="2.469" y="-32.955" width="132.295" height="118.376"/>
			</defs>
			<clipPath id="SVGID_36_">
				<use xlink:href="#SVGID_35_"  overflow="visible"/>
			</clipPath>
			<rect x="94.681" y="43.937" clip-path="url(#SVGID_36_)" fill="#333333" width="0.521" height="4.727"/>
		</g>
	</g>
	<g>
		<g>
			<defs>
				<rect id="SVGID_37_" x="2.469" y="-32.955" width="132.295" height="118.376"/>
			</defs>
			<clipPath id="SVGID_38_">
				<use xlink:href="#SVGID_37_"  overflow="visible"/>
			</clipPath>
			<polygon clip-path="url(#SVGID_38_)" fill="#333333" points="97.046,44.795 97.046,48.663 96.526,48.663 96.526,43.937 
				96.958,43.937 100.425,47.877 100.425,43.942 100.946,43.942 100.946,48.663 100.462,48.663 			"/>
		</g>
	</g>
	<g>
		<g>
			<defs>
				<rect id="SVGID_39_" x="2.469" y="-32.955" width="132.295" height="118.376"/>
			</defs>
			<clipPath id="SVGID_40_">
				<use xlink:href="#SVGID_39_"  overflow="visible"/>
			</clipPath>
			<path clip-path="url(#SVGID_40_)" fill="#333333" d="M104.392,48.697c-0.353,0-0.681-0.067-0.983-0.204
				c-0.301-0.134-0.564-0.318-0.788-0.549c-0.223-0.231-0.395-0.488-0.518-0.773c-0.121-0.283-0.181-0.576-0.181-0.879
				c0-0.32,0.06-0.621,0.181-0.907c0.122-0.289,0.292-0.542,0.51-0.763c0.218-0.223,0.478-0.398,0.774-0.525
				c0.297-0.13,0.623-0.195,0.974-0.195c0.522,0,0.946,0.097,1.273,0.288c0.327,0.19,0.576,0.438,0.746,0.744l-0.404,0.241
				c-0.168-0.293-0.394-0.509-0.676-0.646c-0.283-0.137-0.597-0.206-0.945-0.206c-0.294,0-0.559,0.056-0.794,0.168
				c-0.236,0.109-0.437,0.259-0.606,0.443c-0.168,0.188-0.296,0.398-0.382,0.634c-0.088,0.236-0.133,0.48-0.133,0.733
				c0,0.266,0.051,0.518,0.151,0.757c0.098,0.236,0.238,0.446,0.423,0.631c0.183,0.185,0.396,0.328,0.634,0.432
				c0.243,0.106,0.503,0.157,0.781,0.157c0.321,0,0.626-0.072,0.914-0.216c0.287-0.144,0.563-0.367,0.826-0.67v0.494
				C105.667,48.425,105.076,48.697,104.392,48.697 M106.088,46.699h-1.175v-0.36h1.614v2.324h-0.439V46.699L106.088,46.699z"/>
		</g>
	</g>
	<g>
		<g>
			<defs>
				<rect id="SVGID_41_" x="2.469" y="-32.955" width="132.295" height="118.376"/>
			</defs>
			<clipPath id="SVGID_42_">
				<use xlink:href="#SVGID_41_"  overflow="visible"/>
			</clipPath>
			<path clip-path="url(#SVGID_42_)" fill="#FFFFFF" d="M49.225,39.028H47.82c-3.091,0-5.606-2.249-5.606-5.015V15.399
				c0-1.95-1.772-3.538-3.952-3.538h-1.968c-3.09,0-5.606-2.25-5.606-5.016c0-2.766,2.516-5.017,5.606-5.017h12.97
				c1.877,0,3.621,0.834,4.664,2.231C54.182,4.4,54.08,4.859,53.7,5.087c-0.379,0.228-0.893,0.136-1.147-0.205
				c-0.736-0.985-1.966-1.573-3.29-1.573h-12.97c-2.179,0-3.952,1.586-3.952,3.537s1.773,3.536,3.952,3.536h1.968
				c3.091,0,5.606,2.25,5.606,5.017v18.615c0,1.949,1.773,3.535,3.952,3.535h1.405c0.86,0,1.677-0.243,2.363-0.701
				c0.367-0.246,0.885-0.178,1.158,0.148c0.273,0.329,0.198,0.792-0.167,1.037C51.604,38.686,50.445,39.028,49.225,39.028"/>
		</g>
	</g>
	<g>
		<g>
			<defs>
				<rect id="SVGID_43_" x="2.469" y="-32.955" width="132.295" height="118.376"/>
			</defs>
			<clipPath id="SVGID_44_">
				<use xlink:href="#SVGID_43_"  overflow="visible"/>
			</clipPath>
			<path clip-path="url(#SVGID_44_)" fill="#FFFFFF" d="M68.72,30.426c-1.609,0-3.229-0.214-4.817-0.635
				c-1.547-0.41-2.974-0.878-4.24-1.394c-0.18-0.072-0.365-0.151-0.552-0.23c-0.412-0.178-0.586-0.619-0.389-0.987
				c0.197-0.369,0.69-0.525,1.103-0.349c0.177,0.075,0.352,0.147,0.523,0.219c1.196,0.487,2.55,0.933,4.025,1.323
				c1.436,0.38,2.897,0.573,4.347,0.573c1.402,0,1.902-0.202,2.053-0.29c0.299-0.174,0.325-0.327,0.325-0.458
				c0-0.28-0.09-0.642-0.791-0.968c-0.772-0.357-1.813-0.713-3.086-1.046c-1.338-0.351-2.829-0.765-4.434-1.229
				c-2.392-0.719-4.385-1.546-5.935-2.46c-1.611-0.946-2.821-2.098-3.596-3.421c-0.771-1.316-1.162-2.918-1.162-4.766
				c0-2.774,0.75-5.135,2.231-7.02c1.465-1.866,3.423-3.303,5.818-4.271c2.365-0.955,4.948-1.439,7.677-1.439
				c2.008,0,3.979,0.219,5.857,0.652c1.854,0.428,3.613,0.956,5.231,1.569l0.167,0.063c0.42,0.159,0.618,0.594,0.439,0.97
				s-0.666,0.552-1.084,0.393l-0.167-0.063c-1.543-0.585-3.227-1.089-4.997-1.499c-1.744-0.402-3.575-0.606-5.447-0.606
				c-2.492,0-4.847,0.441-6.997,1.309c-2.122,0.857-3.852,2.127-5.145,3.773c-1.281,1.63-1.93,3.706-1.93,6.169
				c0,1.604,0.328,2.977,0.974,4.078c0.643,1.099,1.665,2.066,3.039,2.873c1.432,0.845,3.297,1.614,5.544,2.292
				c1.582,0.458,3.06,0.868,4.383,1.215c1.377,0.362,2.513,0.749,3.381,1.152c1.391,0.647,1.683,1.599,1.683,2.281
				c0,0.49-0.188,1.182-1.079,1.701C71.051,30.259,70.114,30.426,68.72,30.426"/>
		</g>
	</g>
	<g>
		<g>
			<defs>
				<rect id="SVGID_45_" x="2.469" y="-32.955" width="132.295" height="118.376"/>
			</defs>
			<clipPath id="SVGID_46_">
				<use xlink:href="#SVGID_45_"  overflow="visible"/>
			</clipPath>
			<path clip-path="url(#SVGID_46_)" fill="#FFFFFF" d="M68.551,39.281c-1.954,0-4.019-0.182-6.142-0.543
				c-2.118-0.357-4.193-0.858-6.168-1.488c-0.472-0.15-0.94-0.309-1.387-0.469c-0.424-0.152-0.629-0.585-0.459-0.963
				c0.171-0.379,0.652-0.563,1.076-0.41c0.426,0.153,0.872,0.305,1.325,0.449c1.895,0.603,3.886,1.084,5.92,1.429
				c2.022,0.341,3.985,0.514,5.834,0.514c1.799,0,3.587-0.185,5.319-0.553c1.697-0.358,3.253-0.955,4.626-1.767
				c1.339-0.791,2.42-1.866,3.215-3.195c0.792-1.333,1.195-3.018,1.195-5.012c0-2.07-0.449-3.739-1.331-4.957
				c-0.894-1.234-2.191-2.267-3.857-3.067c-1.74-0.835-3.846-1.587-6.257-2.235c-1.533-0.432-2.862-0.799-3.965-1.097
				c-1.198-0.324-2.11-0.682-2.785-1.095c-0.824-0.501-1.26-1.213-1.26-2.056c0-0.907,0.483-1.621,1.36-2.009
				c0.711-0.316,1.611-0.476,2.67-0.476c1.274,0,2.584,0.18,3.896,0.535c1.263,0.343,2.451,0.734,3.526,1.165
				c0.416,0.166,0.621,0.608,0.436,0.981c-0.184,0.373-0.656,0.548-1.072,0.384c-0.004-0.001-0.022-0.009-0.025-0.01
				c-1.024-0.409-2.147-0.778-3.344-1.104c-1.155-0.313-2.304-0.472-3.416-0.472c-0.803,0-1.455,0.109-1.937,0.322
				c-0.264,0.118-0.441,0.278-0.441,0.684c0,0.35,0.166,0.606,0.54,0.833c0.527,0.323,1.31,0.625,2.331,0.9
				c1.107,0.3,2.444,0.67,3.973,1.1c2.507,0.674,4.716,1.465,6.554,2.348c1.914,0.92,3.416,2.119,4.463,3.564
				c1.059,1.462,1.594,3.4,1.594,5.762c0,2.24-0.466,4.158-1.39,5.709c-0.925,1.548-2.19,2.804-3.76,3.732
				c-1.536,0.908-3.271,1.572-5.156,1.973C72.393,39.082,70.477,39.281,68.551,39.281"/>
		</g>
	</g>
	<g>
		<g>
			<defs>
				<rect id="SVGID_47_" x="2.469" y="-32.955" width="132.295" height="118.376"/>
			</defs>
			<clipPath id="SVGID_48_">
				<use xlink:href="#SVGID_47_"  overflow="visible"/>
			</clipPath>
			<path clip-path="url(#SVGID_48_)" fill="#FFFFFF" d="M90.921,39.281c-3.071,0-5.928-0.559-8.483-1.66
				c-0.41-0.177-0.584-0.618-0.386-0.986c0.198-0.367,0.693-0.522,1.104-0.346c2.33,1.004,4.943,1.513,7.766,1.513
				c2.191,0,4.435-0.319,6.667-0.947c2.223-0.626,4.24-1.544,5.992-2.729l0.05-0.032c0.985-0.674,1.511-1.698,1.438-2.819
				c-0.07-1.132-0.762-2.155-1.846-2.733l-0.923-0.493c-1.416-0.757-3.234-0.61-4.42,0.355c-0.08,0.065-0.162,0.13-0.245,0.192
				c-0.947,0.699-2.006,1.211-3.158,1.523c-1.121,0.305-2.241,0.459-3.332,0.459c-1.544,0-2.962-0.278-4.215-0.829
				c-0.408-0.183-0.579-0.626-0.376-0.992c0.2-0.363,0.693-0.518,1.105-0.337c1.025,0.449,2.196,0.678,3.485,0.678
				c0.927,0,1.887-0.134,2.854-0.396c0.939-0.254,1.808-0.675,2.581-1.245c0.062-0.048,0.124-0.096,0.186-0.146
				c1.723-1.403,4.348-1.621,6.384-0.533l0.921,0.494c1.558,0.832,2.549,2.296,2.649,3.92c0.102,1.594-0.679,3.116-2.084,4.079
				l-0.058,0.038c-1.903,1.285-4.087,2.281-6.493,2.957C95.69,38.939,93.281,39.281,90.921,39.281 M82.517,17.798
				c-0.076,0-0.153-0.01-0.229-0.028c-0.44-0.114-0.692-0.524-0.567-0.916c0.38-1.183,0.969-2.276,1.755-3.248
				c0.801-0.993,1.84-1.802,3.088-2.406c1.259-0.61,2.765-0.919,4.472-0.919c1.076,0,2.198,0.135,3.329,0.401
				c1.17,0.275,2.271,0.768,3.276,1.464c0.087,0.061,0.173,0.124,0.258,0.188c1.279,0.989,3.162,1.047,4.583,0.142l0.718-0.458
				c0.964-0.613,1.542-1.571,1.586-2.627c0.045-1.058-0.451-2.053-1.36-2.729c-0.767-0.569-1.628-1.095-2.562-1.563
				c-2.711-1.356-5.942-2.044-9.604-2.044c-3.055,0-5.824,0.495-8.235,1.469c-0.416,0.169-0.906,0.002-1.093-0.369
				c-0.187-0.373-0.003-0.811,0.412-0.979c2.627-1.062,5.627-1.6,8.916-1.6c3.948,0,7.448,0.75,10.412,2.231
				c1.021,0.513,1.967,1.09,2.811,1.717c1.309,0.973,2.021,2.401,1.957,3.922c-0.063,1.52-0.895,2.897-2.279,3.778l-0.719,0.457
				c-2.042,1.301-4.767,1.207-6.624-0.228c-0.063-0.048-0.124-0.094-0.19-0.139c-0.826-0.575-1.73-0.979-2.683-1.203
				c-0.996-0.234-1.974-0.353-2.909-0.353c-1.43,0-2.668,0.25-3.685,0.741c-1.027,0.497-1.879,1.16-2.535,1.971
				c-0.672,0.833-1.179,1.771-1.506,2.79C83.205,17.587,82.876,17.798,82.517,17.798"/>
		</g>
	</g>
	<g>
		<g>
			<defs>
				<rect id="SVGID_49_" x="2.469" y="-32.955" width="132.295" height="118.376"/>
			</defs>
			<clipPath id="SVGID_50_">
				<use xlink:href="#SVGID_49_"  overflow="visible"/>
			</clipPath>
			<polygon clip-path="url(#SVGID_50_)" fill="#F3F3F3" points="34.709,44.349 32.827,44.349 32.827,48.663 32.306,48.663 
				32.306,44.349 30.423,44.349 30.423,43.937 34.709,43.937 			"/>
		</g>
	</g>
	<g>
		<g>
			<defs>
				<rect id="SVGID_51_" x="2.469" y="-32.955" width="132.295" height="118.376"/>
			</defs>
			<clipPath id="SVGID_52_">
				<use xlink:href="#SVGID_51_"  overflow="visible"/>
			</clipPath>
			<polygon clip-path="url(#SVGID_52_)" fill="#F3F3F3" points="39.665,43.937 39.665,48.663 39.151,48.663 39.151,46.452 
				36.018,46.452 36.018,48.663 35.498,48.663 35.498,43.937 36.018,43.937 36.018,46.039 39.151,46.039 39.151,43.937 			"/>
		</g>
	</g>
	<g>
		<g>
			<defs>
				<rect id="SVGID_53_" x="2.469" y="-32.955" width="132.295" height="118.376"/>
			</defs>
			<clipPath id="SVGID_54_">
				<use xlink:href="#SVGID_53_"  overflow="visible"/>
			</clipPath>
			<polygon clip-path="url(#SVGID_54_)" fill="#F3F3F3" points="44.539,48.251 44.539,48.663 40.99,48.663 40.99,43.937 
				44.471,43.937 44.471,44.349 41.51,44.349 41.51,46.053 44.093,46.053 44.093,46.446 41.51,46.446 41.51,48.251 			"/>
		</g>
	</g>
	<g>
		<g>
			<defs>
				<rect id="SVGID_55_" x="2.469" y="-32.955" width="132.295" height="118.376"/>
			</defs>
			<clipPath id="SVGID_56_">
				<use xlink:href="#SVGID_55_"  overflow="visible"/>
			</clipPath>
			<path clip-path="url(#SVGID_56_)" fill="#F3F3F3" d="M50.478,45.048c-0.049-0.048-0.122-0.101-0.216-0.156
				s-0.206-0.108-0.335-0.157c-0.129-0.048-0.267-0.09-0.417-0.119c-0.149-0.032-0.303-0.047-0.461-0.047
				c-0.348,0-0.605,0.058-0.773,0.172c-0.169,0.116-0.253,0.275-0.253,0.479c0,0.148,0.046,0.268,0.141,0.354
				c0.095,0.085,0.238,0.158,0.432,0.216c0.194,0.057,0.436,0.118,0.729,0.185c0.357,0.076,0.666,0.164,0.93,0.269
				c0.264,0.106,0.463,0.241,0.603,0.415c0.139,0.173,0.208,0.402,0.208,0.684c0,0.239-0.05,0.446-0.149,0.618
				c-0.101,0.172-0.239,0.313-0.417,0.422c-0.179,0.107-0.385,0.188-0.618,0.237c-0.233,0.051-0.485,0.078-0.752,0.078
				c-0.263,0-0.524-0.025-0.785-0.075c-0.261-0.048-0.508-0.119-0.745-0.214c-0.235-0.097-0.453-0.213-0.65-0.352l0.379-0.639
				c0.065,0.057,0.158,0.121,0.279,0.189c0.122,0.07,0.263,0.135,0.425,0.197c0.161,0.062,0.337,0.114,0.527,0.157
				c0.191,0.041,0.386,0.063,0.586,0.063c0.331,0,0.585-0.054,0.761-0.156c0.176-0.104,0.265-0.253,0.265-0.447
				c0-0.16-0.058-0.286-0.171-0.382c-0.115-0.096-0.281-0.175-0.499-0.241c-0.219-0.068-0.479-0.133-0.781-0.199
				c-0.347-0.084-0.638-0.176-0.871-0.276c-0.233-0.1-0.408-0.227-0.524-0.385c-0.116-0.157-0.175-0.357-0.175-0.602
				c0-0.308,0.084-0.57,0.253-0.786c0.168-0.215,0.398-0.376,0.688-0.485c0.29-0.107,0.617-0.162,0.978-0.162
				c0.239,0,0.464,0.023,0.678,0.071c0.213,0.045,0.414,0.109,0.599,0.189c0.187,0.08,0.356,0.17,0.51,0.273L50.478,45.048z"/>
		</g>
	</g>
	<g>
		<g>
			<defs>
				<rect id="SVGID_57_" x="2.469" y="-32.955" width="132.295" height="118.376"/>
			</defs>
			<clipPath id="SVGID_58_">
				<use xlink:href="#SVGID_57_"  overflow="visible"/>
			</clipPath>
			<path clip-path="url(#SVGID_58_)" fill="#F3F3F3" d="M54.095,48.697c-0.382,0-0.727-0.066-1.036-0.2
				c-0.307-0.135-0.573-0.313-0.795-0.543c-0.224-0.228-0.396-0.485-0.517-0.772c-0.123-0.285-0.182-0.581-0.182-0.881
				c0-0.315,0.063-0.618,0.193-0.904c0.129-0.285,0.308-0.54,0.537-0.765c0.229-0.223,0.497-0.402,0.807-0.533
				c0.31-0.131,0.646-0.196,1.008-0.196c0.378,0,0.722,0.069,1.031,0.207c0.311,0.138,0.576,0.321,0.796,0.553
				c0.222,0.232,0.394,0.488,0.514,0.772c0.123,0.284,0.183,0.575,0.183,0.873c0,0.315-0.063,0.616-0.19,0.902
				c-0.125,0.286-0.303,0.541-0.531,0.764c-0.229,0.225-0.497,0.401-0.807,0.531C54.792,48.633,54.456,48.697,54.095,48.697
				 M52.412,46.301c0,0.221,0.041,0.437,0.12,0.645s0.192,0.395,0.339,0.557c0.146,0.162,0.323,0.289,0.532,0.383
				c0.209,0.093,0.441,0.14,0.7,0.14c0.269,0,0.506-0.048,0.714-0.147c0.209-0.097,0.383-0.229,0.524-0.395
				c0.141-0.167,0.25-0.354,0.323-0.561c0.076-0.207,0.112-0.413,0.112-0.621c0-0.223-0.039-0.438-0.116-0.645
				c-0.076-0.205-0.189-0.391-0.337-0.552c-0.149-0.162-0.328-0.289-0.533-0.383c-0.206-0.095-0.435-0.141-0.688-0.141
				c-0.268,0-0.506,0.05-0.713,0.146c-0.209,0.099-0.386,0.229-0.53,0.394c-0.143,0.165-0.254,0.348-0.331,0.554
				C52.451,45.878,52.412,46.088,52.412,46.301"/>
		</g>
	</g>
	<g>
		<g>
			<defs>
				<rect id="SVGID_59_" x="2.469" y="-32.955" width="132.295" height="118.376"/>
			</defs>
			<clipPath id="SVGID_60_">
				<use xlink:href="#SVGID_59_"  overflow="visible"/>
			</clipPath>
			<path clip-path="url(#SVGID_60_)" fill="#F3F3F3" d="M57.16,46.26c0-0.288,0.058-0.571,0.172-0.849
				c0.113-0.278,0.28-0.53,0.501-0.761c0.221-0.228,0.491-0.409,0.808-0.545c0.317-0.136,0.677-0.203,1.079-0.203
				c0.476,0,0.888,0.097,1.234,0.289c0.348,0.194,0.606,0.441,0.775,0.742l-0.656,0.394c-0.099-0.191-0.224-0.341-0.375-0.452
				c-0.15-0.11-0.314-0.188-0.49-0.232c-0.177-0.045-0.35-0.066-0.519-0.066c-0.278,0-0.521,0.048-0.729,0.148
				c-0.208,0.1-0.382,0.231-0.524,0.396c-0.142,0.164-0.248,0.348-0.32,0.554c-0.073,0.202-0.108,0.406-0.108,0.611
				c0,0.227,0.042,0.445,0.126,0.656c0.083,0.211,0.202,0.397,0.353,0.56s0.332,0.289,0.54,0.383c0.208,0.093,0.436,0.14,0.683,0.14
				c0.169,0,0.346-0.027,0.529-0.081c0.184-0.055,0.353-0.136,0.51-0.25c0.155-0.111,0.278-0.261,0.368-0.449l0.692,0.354
				c-0.109,0.235-0.279,0.435-0.51,0.599c-0.231,0.164-0.488,0.289-0.773,0.373c-0.287,0.085-0.568,0.128-0.846,0.128
				c-0.372,0-0.712-0.072-1.02-0.212c-0.307-0.14-0.573-0.325-0.796-0.558c-0.224-0.234-0.396-0.495-0.521-0.786
				C57.222,46.851,57.16,46.557,57.16,46.26"/>
		</g>
	</g>
	<g>
		<g>
			<defs>
				<rect id="SVGID_61_" x="2.469" y="-32.955" width="132.295" height="118.376"/>
			</defs>
			<clipPath id="SVGID_62_">
				<use xlink:href="#SVGID_61_"  overflow="visible"/>
			</clipPath>
			<rect x="62.584" y="43.937" clip-path="url(#SVGID_62_)" fill="#F3F3F3" width="0.833" height="4.727"/>
		</g>
	</g>
	<g>
		<g>
			<defs>
				<rect id="SVGID_63_" x="2.469" y="-32.955" width="132.295" height="118.376"/>
			</defs>
			<clipPath id="SVGID_64_">
				<use xlink:href="#SVGID_63_"  overflow="visible"/>
			</clipPath>
			<path clip-path="url(#SVGID_64_)" fill="#F3F3F3" d="M66.135,43.937h0.79l2.053,4.727h-0.879l-0.517-1.284H65.47l-0.519,1.284
				h-0.886L66.135,43.937z M67.361,46.826l-0.832-2.071l-0.836,2.071H67.361z"/>
		</g>
	</g>
	<g>
		<g>
			<defs>
				<rect id="SVGID_65_" x="2.469" y="-32.955" width="132.295" height="118.376"/>
			</defs>
			<clipPath id="SVGID_66_">
				<use xlink:href="#SVGID_65_"  overflow="visible"/>
			</clipPath>
			<polygon clip-path="url(#SVGID_66_)" fill="#F3F3F3" points="69.632,48.663 69.632,43.937 70.466,43.937 70.466,48.004 
				73.301,48.004 73.301,48.663 			"/>
		</g>
	</g>
	<g>
		<g>
			<defs>
				<rect id="SVGID_67_" x="2.469" y="-32.955" width="132.295" height="118.376"/>
			</defs>
			<clipPath id="SVGID_68_">
				<use xlink:href="#SVGID_67_"  overflow="visible"/>
			</clipPath>
			<path clip-path="url(#SVGID_68_)" fill="#F3F3F3" d="M75.593,46.26c0-0.288,0.054-0.571,0.167-0.849
				c0.112-0.278,0.273-0.53,0.488-0.761c0.212-0.228,0.477-0.409,0.787-0.545c0.313-0.136,0.669-0.203,1.064-0.203
				c0.473,0,0.875,0.097,1.211,0.289c0.334,0.194,0.58,0.441,0.74,0.742l-0.41,0.229c-0.114-0.209-0.257-0.375-0.431-0.497
				c-0.176-0.121-0.36-0.212-0.556-0.263c-0.196-0.053-0.392-0.08-0.585-0.08c-0.316,0-0.598,0.058-0.84,0.17
				c-0.244,0.114-0.448,0.264-0.614,0.453c-0.166,0.188-0.292,0.399-0.375,0.632c-0.084,0.233-0.127,0.471-0.127,0.711
				c0,0.261,0.051,0.511,0.149,0.751c0.098,0.238,0.237,0.451,0.415,0.636c0.18,0.185,0.388,0.331,0.629,0.44
				c0.24,0.109,0.503,0.162,0.787,0.162c0.196,0,0.4-0.03,0.609-0.094c0.206-0.062,0.402-0.157,0.585-0.286
				c0.181-0.127,0.325-0.295,0.434-0.499l0.432,0.199c-0.109,0.235-0.28,0.435-0.507,0.6c-0.227,0.164-0.483,0.289-0.763,0.373
				c-0.279,0.085-0.554,0.127-0.821,0.127c-0.361,0-0.696-0.072-0.998-0.211c-0.301-0.139-0.563-0.326-0.784-0.558
				c-0.221-0.235-0.392-0.495-0.51-0.787C75.653,46.851,75.593,46.557,75.593,46.26"/>
		</g>
	</g>
	<g>
		<g>
			<defs>
				<rect id="SVGID_69_" x="2.469" y="-32.955" width="132.295" height="118.376"/>
			</defs>
			<clipPath id="SVGID_70_">
				<use xlink:href="#SVGID_69_"  overflow="visible"/>
			</clipPath>
			<path clip-path="url(#SVGID_70_)" fill="#F3F3F3" d="M82.61,43.937h0.438l2.195,4.727h-0.55l-0.66-1.478h-2.416l-0.659,1.478
				H80.4L82.61,43.937z M83.87,46.819l-1.044-2.338l-1.045,2.338H83.87z"/>
		</g>
	</g>
	<g>
		<g>
			<defs>
				<rect id="SVGID_71_" x="2.469" y="-32.955" width="132.295" height="118.376"/>
			</defs>
			<clipPath id="SVGID_72_">
				<use xlink:href="#SVGID_71_"  overflow="visible"/>
			</clipPath>
			<polygon clip-path="url(#SVGID_72_)" fill="#F3F3F3" points="86.004,48.663 86.004,43.937 86.524,43.937 86.524,48.251 
				89.575,48.251 89.575,48.663 			"/>
		</g>
	</g>
	<g>
		<g>
			<defs>
				<rect id="SVGID_73_" x="2.469" y="-32.955" width="132.295" height="118.376"/>
			</defs>
			<clipPath id="SVGID_74_">
				<use xlink:href="#SVGID_73_"  overflow="visible"/>
			</clipPath>
			<polygon clip-path="url(#SVGID_74_)" fill="#F3F3F3" points="90.342,48.663 90.342,43.937 90.864,43.937 90.864,48.251 
				93.914,48.251 93.914,48.663 			"/>
		</g>
	</g>
	<g>
		<g>
			<defs>
				<rect id="SVGID_75_" x="2.469" y="-32.955" width="132.295" height="118.376"/>
			</defs>
			<clipPath id="SVGID_76_">
				<use xlink:href="#SVGID_75_"  overflow="visible"/>
			</clipPath>
			<rect x="94.681" y="43.937" clip-path="url(#SVGID_76_)" fill="#F3F3F3" width="0.521" height="4.727"/>
		</g>
	</g>
	<g>
		<g>
			<defs>
				<rect id="SVGID_77_" x="2.469" y="-32.955" width="132.295" height="118.376"/>
			</defs>
			<clipPath id="SVGID_78_">
				<use xlink:href="#SVGID_77_"  overflow="visible"/>
			</clipPath>
			<polygon clip-path="url(#SVGID_78_)" fill="#F3F3F3" points="97.046,44.795 97.046,48.663 96.526,48.663 96.526,43.937 
				96.958,43.937 100.425,47.877 100.425,43.942 100.946,43.942 100.946,48.663 100.462,48.663 			"/>
		</g>
	</g>
	<g>
		<g>
			<defs>
				<rect id="SVGID_79_" x="2.469" y="-32.955" width="132.295" height="118.376"/>
			</defs>
			<clipPath id="SVGID_80_">
				<use xlink:href="#SVGID_79_"  overflow="visible"/>
			</clipPath>
			<path clip-path="url(#SVGID_80_)" fill="#F3F3F3" d="M104.392,48.697c-0.353,0-0.681-0.067-0.983-0.204
				c-0.301-0.134-0.564-0.318-0.788-0.549c-0.223-0.231-0.395-0.488-0.518-0.773c-0.121-0.283-0.181-0.576-0.181-0.879
				c0-0.32,0.06-0.621,0.181-0.907c0.122-0.289,0.292-0.542,0.51-0.763c0.218-0.223,0.478-0.398,0.774-0.525
				c0.297-0.13,0.623-0.195,0.974-0.195c0.522,0,0.946,0.097,1.273,0.288c0.327,0.19,0.576,0.438,0.746,0.744l-0.404,0.241
				c-0.168-0.293-0.394-0.509-0.676-0.646c-0.283-0.137-0.597-0.206-0.945-0.206c-0.294,0-0.559,0.056-0.794,0.168
				c-0.236,0.109-0.437,0.259-0.606,0.443c-0.168,0.188-0.296,0.398-0.382,0.634c-0.088,0.236-0.133,0.48-0.133,0.733
				c0,0.266,0.051,0.518,0.151,0.757c0.098,0.236,0.238,0.446,0.423,0.631c0.183,0.185,0.396,0.328,0.634,0.432
				c0.243,0.106,0.503,0.157,0.781,0.157c0.321,0,0.626-0.072,0.914-0.216c0.287-0.144,0.563-0.367,0.826-0.67v0.494
				C105.667,48.425,105.076,48.697,104.392,48.697 M106.088,46.699h-1.175v-0.36h1.614v2.324h-0.439V46.699L106.088,46.699z"/>
		</g>
	</g>
	<g>
		<g>
			<defs>
				<rect id="SVGID_81_" x="2.469" y="-32.955" width="132.295" height="118.376"/>
			</defs>
			<clipPath id="SVGID_82_">
				<use xlink:href="#SVGID_81_"  overflow="visible"/>
			</clipPath>
			<path clip-path="url(#SVGID_82_)" fill="#D41C5D" d="M49.225,39.028H47.82c-3.091,0-5.606-2.249-5.606-5.015V15.399
				c0-1.95-1.772-3.538-3.952-3.538h-1.968c-3.09,0-5.606-2.25-5.606-5.016c0-2.766,2.516-5.017,5.606-5.017h12.97
				c1.877,0,3.621,0.834,4.664,2.231C54.182,4.4,54.08,4.859,53.7,5.087c-0.379,0.228-0.893,0.136-1.147-0.205
				c-0.736-0.985-1.966-1.573-3.29-1.573h-12.97c-2.179,0-3.952,1.586-3.952,3.537s1.773,3.536,3.952,3.536h1.968
				c3.091,0,5.606,2.25,5.606,5.017v18.615c0,1.949,1.773,3.535,3.952,3.535h1.405c0.86,0,1.677-0.243,2.363-0.701
				c0.367-0.246,0.885-0.178,1.158,0.148c0.273,0.329,0.198,0.792-0.167,1.037C51.604,38.686,50.445,39.028,49.225,39.028"/>
		</g>
	</g>
	<g>
		<g>
			<defs>
				<rect id="SVGID_83_" x="2.469" y="-32.955" width="132.295" height="118.376"/>
			</defs>
			<clipPath id="SVGID_84_">
				<use xlink:href="#SVGID_83_"  overflow="visible"/>
			</clipPath>
			<path clip-path="url(#SVGID_84_)" fill="#D41C5D" d="M68.72,30.426c-1.609,0-3.229-0.214-4.817-0.635
				c-1.547-0.41-2.974-0.878-4.24-1.394c-0.18-0.072-0.365-0.151-0.552-0.23c-0.412-0.178-0.586-0.619-0.389-0.987
				c0.197-0.369,0.69-0.525,1.103-0.349c0.177,0.075,0.352,0.147,0.523,0.219c1.196,0.487,2.55,0.933,4.025,1.323
				c1.436,0.38,2.897,0.573,4.347,0.573c1.402,0,1.902-0.202,2.053-0.29c0.299-0.174,0.325-0.327,0.325-0.458
				c0-0.28-0.09-0.642-0.791-0.968c-0.772-0.357-1.813-0.713-3.086-1.046c-1.338-0.351-2.829-0.765-4.434-1.229
				c-2.392-0.719-4.385-1.546-5.935-2.46c-1.611-0.946-2.821-2.098-3.596-3.421c-0.771-1.316-1.162-2.918-1.162-4.766
				c0-2.774,0.75-5.135,2.231-7.02c1.465-1.866,3.423-3.303,5.818-4.271c2.365-0.955,4.948-1.439,7.677-1.439
				c2.008,0,3.979,0.219,5.857,0.652c1.854,0.428,3.613,0.956,5.231,1.569l0.167,0.063c0.42,0.159,0.618,0.594,0.439,0.97
				s-0.666,0.552-1.084,0.393l-0.167-0.063c-1.543-0.585-3.227-1.089-4.997-1.499c-1.744-0.402-3.575-0.606-5.447-0.606
				c-2.492,0-4.847,0.441-6.997,1.309c-2.122,0.857-3.852,2.127-5.145,3.773c-1.281,1.63-1.93,3.706-1.93,6.169
				c0,1.604,0.328,2.977,0.974,4.078c0.643,1.099,1.665,2.066,3.039,2.873c1.432,0.845,3.297,1.614,5.544,2.292
				c1.582,0.458,3.06,0.868,4.383,1.215c1.377,0.362,2.513,0.749,3.381,1.152c1.391,0.647,1.683,1.599,1.683,2.281
				c0,0.49-0.188,1.182-1.079,1.701C71.051,30.259,70.114,30.426,68.72,30.426"/>
		</g>
	</g>
	<g>
		<g>
			<defs>
				<rect id="SVGID_85_" x="2.469" y="-32.955" width="132.295" height="118.376"/>
			</defs>
			<clipPath id="SVGID_86_">
				<use xlink:href="#SVGID_85_"  overflow="visible"/>
			</clipPath>
			<path clip-path="url(#SVGID_86_)" fill="#D41C5D" d="M68.551,39.281c-1.954,0-4.019-0.182-6.142-0.543
				c-2.118-0.357-4.193-0.858-6.168-1.488c-0.472-0.15-0.94-0.309-1.387-0.469c-0.424-0.152-0.629-0.585-0.459-0.963
				c0.171-0.379,0.652-0.563,1.076-0.41c0.426,0.153,0.872,0.305,1.325,0.449c1.895,0.603,3.886,1.084,5.92,1.429
				c2.022,0.341,3.985,0.514,5.834,0.514c1.799,0,3.587-0.185,5.319-0.553c1.697-0.358,3.253-0.955,4.626-1.767
				c1.339-0.791,2.42-1.866,3.215-3.195c0.792-1.333,1.195-3.018,1.195-5.012c0-2.07-0.449-3.739-1.331-4.957
				c-0.894-1.234-2.191-2.267-3.857-3.067c-1.74-0.835-3.846-1.587-6.257-2.235c-1.533-0.432-2.862-0.799-3.965-1.097
				c-1.198-0.324-2.11-0.682-2.785-1.095c-0.824-0.501-1.26-1.213-1.26-2.056c0-0.907,0.483-1.621,1.36-2.009
				c0.711-0.316,1.611-0.476,2.67-0.476c1.274,0,2.584,0.18,3.896,0.535c1.263,0.343,2.451,0.734,3.526,1.165
				c0.416,0.166,0.621,0.608,0.436,0.981c-0.184,0.373-0.656,0.548-1.072,0.384c-0.004-0.001-0.022-0.009-0.025-0.01
				c-1.024-0.409-2.147-0.778-3.344-1.104c-1.155-0.313-2.304-0.472-3.416-0.472c-0.803,0-1.455,0.109-1.937,0.322
				c-0.264,0.118-0.441,0.278-0.441,0.684c0,0.35,0.166,0.606,0.54,0.833c0.527,0.323,1.31,0.625,2.331,0.9
				c1.107,0.3,2.444,0.67,3.973,1.1c2.507,0.674,4.716,1.465,6.554,2.348c1.914,0.92,3.416,2.119,4.463,3.564
				c1.059,1.462,1.594,3.4,1.594,5.762c0,2.24-0.466,4.158-1.39,5.709c-0.925,1.548-2.19,2.804-3.76,3.732
				c-1.536,0.908-3.271,1.572-5.156,1.973C72.393,39.082,70.477,39.281,68.551,39.281"/>
		</g>
	</g>
	<g>
		<g>
			<defs>
				<rect id="SVGID_87_" x="2.469" y="-32.955" width="132.295" height="118.376"/>
			</defs>
			<clipPath id="SVGID_88_">
				<use xlink:href="#SVGID_87_"  overflow="visible"/>
			</clipPath>
			<path clip-path="url(#SVGID_88_)" fill="#D41C5D" d="M90.921,39.281c-3.071,0-5.928-0.559-8.483-1.66
				c-0.41-0.177-0.584-0.618-0.386-0.986c0.198-0.367,0.693-0.522,1.104-0.346c2.33,1.004,4.943,1.513,7.766,1.513
				c2.191,0,4.435-0.319,6.667-0.947c2.223-0.626,4.24-1.544,5.992-2.729l0.05-0.032c0.985-0.674,1.511-1.698,1.438-2.819
				c-0.07-1.132-0.762-2.155-1.846-2.733l-0.923-0.493c-1.416-0.757-3.234-0.61-4.42,0.355c-0.08,0.065-0.162,0.13-0.245,0.192
				c-0.947,0.699-2.006,1.211-3.158,1.523c-1.121,0.305-2.241,0.459-3.332,0.459c-1.544,0-2.962-0.278-4.215-0.829
				c-0.408-0.183-0.579-0.626-0.376-0.992c0.2-0.363,0.693-0.518,1.105-0.337c1.025,0.449,2.196,0.678,3.485,0.678
				c0.927,0,1.887-0.134,2.854-0.396c0.939-0.254,1.808-0.675,2.581-1.245c0.062-0.048,0.124-0.096,0.186-0.146
				c1.723-1.403,4.348-1.621,6.384-0.533l0.921,0.494c1.558,0.832,2.549,2.296,2.649,3.92c0.102,1.594-0.679,3.116-2.084,4.079
				l-0.058,0.038c-1.903,1.285-4.087,2.281-6.493,2.957C95.69,38.939,93.281,39.281,90.921,39.281 M82.517,17.798
				c-0.076,0-0.153-0.01-0.229-0.028c-0.44-0.114-0.692-0.524-0.567-0.916c0.38-1.183,0.969-2.276,1.755-3.248
				c0.801-0.993,1.84-1.802,3.088-2.406c1.259-0.61,2.765-0.919,4.472-0.919c1.076,0,2.198,0.135,3.329,0.401
				c1.17,0.275,2.271,0.768,3.276,1.464c0.087,0.061,0.173,0.124,0.258,0.188c1.279,0.989,3.162,1.047,4.583,0.142l0.718-0.458
				c0.964-0.613,1.542-1.571,1.586-2.627c0.045-1.058-0.451-2.053-1.36-2.729c-0.767-0.569-1.628-1.095-2.562-1.563
				c-2.711-1.356-5.942-2.044-9.604-2.044c-3.055,0-5.824,0.495-8.235,1.469c-0.416,0.169-0.906,0.002-1.093-0.369
				c-0.187-0.373-0.003-0.811,0.412-0.979c2.627-1.062,5.627-1.6,8.916-1.6c3.948,0,7.448,0.75,10.412,2.231
				c1.021,0.513,1.967,1.09,2.811,1.717c1.309,0.973,2.021,2.401,1.957,3.922c-0.063,1.52-0.895,2.897-2.279,3.778l-0.719,0.457
				c-2.042,1.301-4.767,1.207-6.624-0.228c-0.063-0.048-0.124-0.094-0.19-0.139c-0.826-0.575-1.73-0.979-2.683-1.203
				c-0.996-0.234-1.974-0.353-2.909-0.353c-1.43,0-2.668,0.25-3.685,0.741c-1.027,0.497-1.879,1.16-2.535,1.971
				c-0.672,0.833-1.179,1.771-1.506,2.79C83.205,17.587,82.876,17.798,82.517,17.798"/>
		</g>
	</g>
	<g>
		<g>
			<defs>
				<rect id="SVGID_89_" x="2.469" y="-32.955" width="132.295" height="118.376"/>
			</defs>
			<clipPath id="SVGID_90_">
				<use xlink:href="#SVGID_89_"  overflow="visible"/>
			</clipPath>
			<polygon clip-path="url(#SVGID_90_)" fill="#FFFFFF" points="34.709,44.349 32.827,44.349 32.827,48.663 32.306,48.663 
				32.306,44.349 30.423,44.349 30.423,43.937 34.709,43.937 			"/>
		</g>
	</g>
	<g>
		<g>
			<defs>
				<rect id="SVGID_91_" x="2.469" y="-32.955" width="132.295" height="118.376"/>
			</defs>
			<clipPath id="SVGID_92_">
				<use xlink:href="#SVGID_91_"  overflow="visible"/>
			</clipPath>
			<polygon clip-path="url(#SVGID_92_)" fill="#FFFFFF" points="39.665,43.937 39.665,48.663 39.151,48.663 39.151,46.452 
				36.018,46.452 36.018,48.663 35.498,48.663 35.498,43.937 36.018,43.937 36.018,46.039 39.151,46.039 39.151,43.937 			"/>
		</g>
	</g>
	<g>
		<g>
			<defs>
				<rect id="SVGID_93_" x="2.469" y="-32.955" width="132.295" height="118.376"/>
			</defs>
			<clipPath id="SVGID_94_">
				<use xlink:href="#SVGID_93_"  overflow="visible"/>
			</clipPath>
			<polygon clip-path="url(#SVGID_94_)" fill="#FFFFFF" points="44.539,48.251 44.539,48.663 40.99,48.663 40.99,43.937 
				44.471,43.937 44.471,44.349 41.51,44.349 41.51,46.053 44.093,46.053 44.093,46.446 41.51,46.446 41.51,48.251 			"/>
		</g>
	</g>
	<g>
		<g>
			<defs>
				<rect id="SVGID_95_" x="2.469" y="-32.955" width="132.295" height="118.376"/>
			</defs>
			<clipPath id="SVGID_96_">
				<use xlink:href="#SVGID_95_"  overflow="visible"/>
			</clipPath>
			<path clip-path="url(#SVGID_96_)" fill="#FFFFFF" d="M50.478,45.048c-0.049-0.048-0.122-0.101-0.216-0.156
				s-0.206-0.108-0.335-0.157c-0.129-0.048-0.267-0.09-0.417-0.119c-0.149-0.032-0.303-0.047-0.461-0.047
				c-0.348,0-0.605,0.058-0.773,0.172c-0.169,0.116-0.253,0.275-0.253,0.479c0,0.148,0.046,0.268,0.141,0.354
				c0.095,0.085,0.238,0.158,0.432,0.216c0.194,0.057,0.436,0.118,0.729,0.185c0.357,0.076,0.666,0.164,0.93,0.269
				c0.264,0.106,0.463,0.241,0.603,0.415c0.139,0.173,0.208,0.402,0.208,0.684c0,0.239-0.05,0.446-0.149,0.618
				c-0.101,0.172-0.239,0.313-0.417,0.422c-0.179,0.107-0.385,0.188-0.618,0.237c-0.233,0.051-0.485,0.078-0.752,0.078
				c-0.263,0-0.524-0.025-0.785-0.075c-0.261-0.048-0.508-0.119-0.745-0.214c-0.235-0.097-0.453-0.213-0.65-0.352l0.379-0.639
				c0.065,0.057,0.158,0.121,0.279,0.189c0.122,0.07,0.263,0.135,0.425,0.197c0.161,0.062,0.337,0.114,0.527,0.157
				c0.191,0.041,0.386,0.063,0.586,0.063c0.331,0,0.585-0.054,0.761-0.156c0.176-0.104,0.265-0.253,0.265-0.447
				c0-0.16-0.058-0.286-0.171-0.382c-0.115-0.096-0.281-0.175-0.499-0.241c-0.219-0.068-0.479-0.133-0.781-0.199
				c-0.347-0.084-0.638-0.176-0.871-0.276c-0.233-0.1-0.408-0.227-0.524-0.385c-0.116-0.157-0.175-0.357-0.175-0.602
				c0-0.308,0.084-0.57,0.253-0.786c0.168-0.215,0.398-0.376,0.688-0.485c0.29-0.107,0.617-0.162,0.978-0.162
				c0.239,0,0.464,0.023,0.678,0.071c0.213,0.045,0.414,0.109,0.599,0.189c0.187,0.08,0.356,0.17,0.51,0.273L50.478,45.048z"/>
		</g>
	</g>
	<g>
		<g>
			<defs>
				<rect id="SVGID_97_" x="2.469" y="-32.955" width="132.295" height="118.376"/>
			</defs>
			<clipPath id="SVGID_98_">
				<use xlink:href="#SVGID_97_"  overflow="visible"/>
			</clipPath>
			<path clip-path="url(#SVGID_98_)" fill="#FFFFFF" d="M54.095,48.697c-0.382,0-0.727-0.066-1.036-0.2
				c-0.307-0.135-0.573-0.313-0.795-0.543c-0.224-0.228-0.396-0.485-0.517-0.772c-0.123-0.285-0.182-0.581-0.182-0.881
				c0-0.315,0.063-0.618,0.193-0.904c0.129-0.285,0.308-0.54,0.537-0.765c0.229-0.223,0.497-0.402,0.807-0.533
				c0.31-0.131,0.646-0.196,1.008-0.196c0.378,0,0.722,0.069,1.031,0.207c0.311,0.138,0.576,0.321,0.796,0.553
				c0.222,0.232,0.394,0.488,0.514,0.772c0.123,0.284,0.183,0.575,0.183,0.873c0,0.315-0.063,0.616-0.19,0.902
				c-0.125,0.286-0.303,0.541-0.531,0.764c-0.229,0.225-0.497,0.401-0.807,0.531C54.792,48.633,54.456,48.697,54.095,48.697
				 M52.412,46.301c0,0.221,0.041,0.437,0.12,0.645s0.192,0.395,0.339,0.557c0.146,0.162,0.323,0.289,0.532,0.383
				c0.209,0.093,0.441,0.14,0.7,0.14c0.269,0,0.506-0.048,0.714-0.147c0.209-0.097,0.383-0.229,0.524-0.395
				c0.141-0.167,0.25-0.354,0.323-0.561c0.076-0.207,0.112-0.413,0.112-0.621c0-0.223-0.039-0.438-0.116-0.645
				c-0.076-0.205-0.189-0.391-0.337-0.552c-0.149-0.162-0.328-0.289-0.533-0.383c-0.206-0.095-0.435-0.141-0.688-0.141
				c-0.268,0-0.506,0.05-0.713,0.146c-0.209,0.099-0.386,0.229-0.53,0.394c-0.143,0.165-0.254,0.348-0.331,0.554
				C52.451,45.878,52.412,46.088,52.412,46.301"/>
		</g>
	</g>
	<g>
		<g>
			<defs>
				<rect id="SVGID_99_" x="2.469" y="-32.955" width="132.295" height="118.376"/>
			</defs>
			<clipPath id="SVGID_100_">
				<use xlink:href="#SVGID_99_"  overflow="visible"/>
			</clipPath>
			<path clip-path="url(#SVGID_100_)" fill="#FFFFFF" d="M57.16,46.26c0-0.288,0.058-0.571,0.172-0.849
				c0.113-0.278,0.28-0.53,0.501-0.761c0.221-0.228,0.491-0.409,0.808-0.545c0.317-0.136,0.677-0.203,1.079-0.203
				c0.476,0,0.888,0.097,1.234,0.289c0.348,0.194,0.606,0.441,0.775,0.742l-0.656,0.394c-0.099-0.191-0.224-0.341-0.375-0.452
				c-0.15-0.11-0.314-0.188-0.49-0.232c-0.177-0.045-0.35-0.066-0.519-0.066c-0.278,0-0.521,0.048-0.729,0.148
				c-0.208,0.1-0.382,0.231-0.524,0.396c-0.142,0.164-0.248,0.348-0.32,0.554c-0.073,0.202-0.108,0.406-0.108,0.611
				c0,0.227,0.042,0.445,0.126,0.656c0.083,0.211,0.202,0.397,0.353,0.56s0.332,0.289,0.54,0.383c0.208,0.093,0.436,0.14,0.683,0.14
				c0.169,0,0.346-0.027,0.529-0.081c0.184-0.055,0.353-0.136,0.51-0.25c0.155-0.111,0.278-0.261,0.368-0.449l0.692,0.354
				c-0.109,0.235-0.279,0.435-0.51,0.599c-0.231,0.164-0.488,0.289-0.773,0.373c-0.287,0.085-0.568,0.128-0.846,0.128
				c-0.372,0-0.712-0.072-1.02-0.212c-0.307-0.14-0.573-0.325-0.796-0.558c-0.224-0.234-0.396-0.495-0.521-0.786
				C57.222,46.851,57.16,46.557,57.16,46.26"/>
		</g>
	</g>
	<g>
		<g>
			<defs>
				<rect id="SVGID_101_" x="2.469" y="-32.955" width="132.295" height="118.376"/>
			</defs>
			<clipPath id="SVGID_102_">
				<use xlink:href="#SVGID_101_"  overflow="visible"/>
			</clipPath>
			<rect x="62.584" y="43.937" clip-path="url(#SVGID_102_)" fill="#FFFFFF" width="0.833" height="4.727"/>
		</g>
	</g>
	<g>
		<g>
			<defs>
				<rect id="SVGID_103_" x="2.469" y="-32.955" width="132.295" height="118.376"/>
			</defs>
			<clipPath id="SVGID_104_">
				<use xlink:href="#SVGID_103_"  overflow="visible"/>
			</clipPath>
			<path clip-path="url(#SVGID_104_)" fill="#FFFFFF" d="M66.135,43.937h0.79l2.053,4.727h-0.879l-0.517-1.284H65.47l-0.519,1.284
				h-0.886L66.135,43.937z M67.361,46.826l-0.832-2.071l-0.836,2.071H67.361z"/>
		</g>
	</g>
	<g>
		<g>
			<defs>
				<rect id="SVGID_105_" x="2.469" y="-32.955" width="132.295" height="118.376"/>
			</defs>
			<clipPath id="SVGID_106_">
				<use xlink:href="#SVGID_105_"  overflow="visible"/>
			</clipPath>
			<polygon clip-path="url(#SVGID_106_)" fill="#FFFFFF" points="69.632,48.663 69.632,43.937 70.466,43.937 70.466,48.004 
				73.301,48.004 73.301,48.663 			"/>
		</g>
	</g>
	<g>
		<g>
			<defs>
				<rect id="SVGID_107_" x="2.469" y="-32.955" width="132.295" height="118.376"/>
			</defs>
			<clipPath id="SVGID_108_">
				<use xlink:href="#SVGID_107_"  overflow="visible"/>
			</clipPath>
			<path clip-path="url(#SVGID_108_)" fill="#FFFFFF" d="M75.593,46.26c0-0.288,0.054-0.571,0.167-0.849
				c0.112-0.278,0.273-0.53,0.488-0.761c0.212-0.228,0.477-0.409,0.787-0.545c0.313-0.136,0.669-0.203,1.064-0.203
				c0.473,0,0.875,0.097,1.211,0.289c0.334,0.194,0.58,0.441,0.74,0.742l-0.41,0.229c-0.114-0.209-0.257-0.375-0.431-0.497
				c-0.176-0.121-0.36-0.212-0.556-0.263c-0.196-0.053-0.392-0.08-0.585-0.08c-0.316,0-0.598,0.058-0.84,0.17
				c-0.244,0.114-0.448,0.264-0.614,0.453c-0.166,0.188-0.292,0.399-0.375,0.632c-0.084,0.233-0.127,0.471-0.127,0.711
				c0,0.261,0.051,0.511,0.149,0.751c0.098,0.238,0.237,0.451,0.415,0.636c0.18,0.185,0.388,0.331,0.629,0.44
				c0.24,0.109,0.503,0.162,0.787,0.162c0.196,0,0.4-0.03,0.609-0.094c0.206-0.062,0.402-0.157,0.585-0.286
				c0.181-0.127,0.325-0.295,0.434-0.499l0.432,0.199c-0.109,0.235-0.28,0.435-0.507,0.6c-0.227,0.164-0.483,0.289-0.763,0.373
				c-0.279,0.085-0.554,0.127-0.821,0.127c-0.361,0-0.696-0.072-0.998-0.211c-0.301-0.139-0.563-0.326-0.784-0.558
				c-0.221-0.235-0.392-0.495-0.51-0.787C75.653,46.851,75.593,46.557,75.593,46.26"/>
		</g>
	</g>
	<g>
		<g>
			<defs>
				<rect id="SVGID_109_" x="2.469" y="-32.955" width="132.295" height="118.376"/>
			</defs>
			<clipPath id="SVGID_110_">
				<use xlink:href="#SVGID_109_"  overflow="visible"/>
			</clipPath>
			<path clip-path="url(#SVGID_110_)" fill="#FFFFFF" d="M82.61,43.937h0.438l2.195,4.727h-0.55l-0.66-1.478h-2.416l-0.659,1.478
				H80.4L82.61,43.937z M83.87,46.819l-1.044-2.338l-1.045,2.338H83.87z"/>
		</g>
	</g>
	<g>
		<g>
			<defs>
				<rect id="SVGID_111_" x="2.469" y="-32.955" width="132.295" height="118.376"/>
			</defs>
			<clipPath id="SVGID_112_">
				<use xlink:href="#SVGID_111_"  overflow="visible"/>
			</clipPath>
			<polygon clip-path="url(#SVGID_112_)" fill="#FFFFFF" points="86.004,48.663 86.004,43.937 86.524,43.937 86.524,48.251 
				89.575,48.251 89.575,48.663 			"/>
		</g>
	</g>
	<g>
		<g>
			<defs>
				<rect id="SVGID_113_" x="2.469" y="-32.955" width="132.295" height="118.376"/>
			</defs>
			<clipPath id="SVGID_114_">
				<use xlink:href="#SVGID_113_"  overflow="visible"/>
			</clipPath>
			<polygon clip-path="url(#SVGID_114_)" fill="#FFFFFF" points="90.342,48.663 90.342,43.937 90.864,43.937 90.864,48.251 
				93.914,48.251 93.914,48.663 			"/>
		</g>
	</g>
	<g>
		<g>
			<defs>
				<rect id="SVGID_115_" x="2.469" y="-32.955" width="132.295" height="118.376"/>
			</defs>
			<clipPath id="SVGID_116_">
				<use xlink:href="#SVGID_115_"  overflow="visible"/>
			</clipPath>
			<rect x="94.681" y="43.937" clip-path="url(#SVGID_116_)" fill="#FFFFFF" width="0.521" height="4.727"/>
		</g>
	</g>
	<g>
		<g>
			<defs>
				<rect id="SVGID_117_" x="2.469" y="-32.955" width="132.295" height="118.376"/>
			</defs>
			<clipPath id="SVGID_118_">
				<use xlink:href="#SVGID_117_"  overflow="visible"/>
			</clipPath>
			<polygon clip-path="url(#SVGID_118_)" fill="#FFFFFF" points="97.046,44.795 97.046,48.663 96.526,48.663 96.526,43.937 
				96.958,43.937 100.425,47.877 100.425,43.942 100.946,43.942 100.946,48.663 100.462,48.663 			"/>
		</g>
	</g>
	<g>
		<g>
			<defs>
				<rect id="SVGID_119_" x="2.469" y="-32.955" width="132.295" height="118.376"/>
			</defs>
			<clipPath id="SVGID_120_">
				<use xlink:href="#SVGID_119_"  overflow="visible"/>
			</clipPath>
			<path clip-path="url(#SVGID_120_)" fill="#FFFFFF" d="M104.392,48.697c-0.353,0-0.681-0.067-0.983-0.204
				c-0.301-0.134-0.564-0.318-0.788-0.549c-0.223-0.231-0.395-0.488-0.518-0.773c-0.121-0.283-0.181-0.576-0.181-0.879
				c0-0.32,0.06-0.621,0.181-0.907c0.122-0.289,0.292-0.542,0.51-0.763c0.218-0.223,0.478-0.398,0.774-0.525
				c0.297-0.13,0.623-0.195,0.974-0.195c0.522,0,0.946,0.097,1.273,0.288c0.327,0.19,0.576,0.438,0.746,0.744l-0.404,0.241
				c-0.168-0.293-0.394-0.509-0.676-0.646c-0.283-0.137-0.597-0.206-0.945-0.206c-0.294,0-0.559,0.056-0.794,0.168
				c-0.236,0.109-0.437,0.259-0.606,0.443c-0.168,0.188-0.296,0.398-0.382,0.634c-0.088,0.236-0.133,0.48-0.133,0.733
				c0,0.266,0.051,0.518,0.151,0.757c0.098,0.236,0.238,0.446,0.423,0.631c0.183,0.185,0.396,0.328,0.634,0.432
				c0.243,0.106,0.503,0.157,0.781,0.157c0.321,0,0.626-0.072,0.914-0.216c0.287-0.144,0.563-0.367,0.826-0.67v0.494
				C105.667,48.425,105.076,48.697,104.392,48.697 M106.088,46.699h-1.175v-0.36h1.614v2.324h-0.439V46.699L106.088,46.699z"/>
		</g>
	</g>
</g>
</svg>
