<?xml version="1.0" encoding="utf-8"?>
<!-- Generator: Adobe Illustrator 16.0.0, SVG Export Plug-In . SVG Version: 6.00 Build 0)  -->
<!DOCTYPE svg PUBLIC "-//W3C//DTD SVG 1.1//EN" "http://www.w3.org/Graphics/SVG/1.1/DTD/svg11.dtd">
<svg version="1.1" id="Layer_1" xmlns="http://www.w3.org/2000/svg" xmlns:xlink="http://www.w3.org/1999/xlink" x="0px" y="0px"
	 width="100px" height="45px" viewBox="0 0 100 45" enable-background="new 0 0 100 45" xml:space="preserve">
<g>
	<g>
		<defs>
			<rect id="SVGID_1_" x="-12.444" y="-29.25" width="118.944" height="106.429"/>
		</defs>
		<clipPath id="SVGID_2_">
			<use xlink:href="#SVGID_1_"  overflow="visible"/>
		</clipPath>
		<path clip-path="url(#SVGID_2_)" fill="#D41C5D" d="M29.594,35.469H28.33c-2.779,0-5.04-2.022-5.04-4.508V14.224
			c0-1.753-1.594-3.18-3.553-3.18h-1.769c-2.779,0-5.041-2.023-5.041-4.51c0-2.486,2.261-4.51,5.041-4.51h11.661
			c1.688,0,3.255,0.751,4.192,2.007c0.229,0.305,0.137,0.718-0.205,0.923c-0.341,0.206-0.802,0.123-1.031-0.184
			c-0.661-0.887-1.768-1.415-2.957-1.415H17.968c-1.959,0-3.553,1.427-3.553,3.179c0,1.754,1.594,3.18,3.553,3.18h1.769
			c2.778,0,5.04,2.023,5.04,4.511v16.737c0,1.751,1.593,3.178,3.553,3.178h1.264c0.773,0,1.508-0.22,2.126-0.631
			c0.329-0.221,0.794-0.159,1.04,0.134c0.246,0.296,0.178,0.712-0.149,0.934C31.733,35.159,30.691,35.469,29.594,35.469"/>
	</g>
	<g>
		<defs>
			<rect id="SVGID_3_" x="-12.444" y="-29.25" width="118.944" height="106.429"/>
		</defs>
		<clipPath id="SVGID_4_">
			<use xlink:href="#SVGID_3_"  overflow="visible"/>
		</clipPath>
		<path clip-path="url(#SVGID_4_)" fill="#D41C5D" d="M47.12,27.733c-1.445,0-2.902-0.191-4.331-0.569
			c-1.391-0.369-2.672-0.791-3.812-1.254c-0.163-0.065-0.329-0.136-0.497-0.208c-0.37-0.159-0.526-0.556-0.349-0.885
			c0.176-0.333,0.62-0.474,0.991-0.315c0.16,0.068,0.316,0.133,0.471,0.197c1.075,0.438,2.293,0.839,3.619,1.189
			c1.291,0.342,2.604,0.517,3.907,0.517c1.261,0,1.711-0.183,1.845-0.262c0.271-0.157,0.294-0.295,0.294-0.413
			c0-0.251-0.082-0.576-0.712-0.869c-0.695-0.321-1.63-0.64-2.774-0.94c-1.203-0.316-2.544-0.688-3.987-1.105
			c-2.149-0.646-3.942-1.39-5.336-2.211c-1.448-0.852-2.537-1.887-3.233-3.078c-0.692-1.183-1.044-2.624-1.044-4.283
			c0-2.495,0.674-4.617,2.005-6.312c1.317-1.678,3.078-2.97,5.231-3.84c2.125-0.858,4.448-1.294,6.902-1.294
			c1.806,0,3.578,0.196,5.266,0.587c1.665,0.383,3.249,0.858,4.705,1.41l0.149,0.057c0.376,0.144,0.555,0.534,0.394,0.872
			c-0.16,0.338-0.599,0.496-0.975,0.352L55.702,5.02c-1.389-0.526-2.902-0.98-4.494-1.348c-1.568-0.361-3.216-0.544-4.896-0.544
			c-2.242,0-4.358,0.396-6.291,1.176c-1.908,0.771-3.462,1.912-4.626,3.393c-1.152,1.465-1.735,3.332-1.735,5.547
			c0,1.442,0.294,2.674,0.875,3.666c0.579,0.989,1.498,1.857,2.733,2.583c1.288,0.758,2.964,1.451,4.984,2.059
			c1.421,0.412,2.75,0.781,3.941,1.093c1.237,0.325,2.258,0.674,3.039,1.036c1.25,0.582,1.513,1.437,1.513,2.05
			c0,0.441-0.168,1.064-0.97,1.53C49.218,27.585,48.375,27.733,47.12,27.733"/>
	</g>
	<g>
		<defs>
			<rect id="SVGID_5_" x="-12.444" y="-29.25" width="118.944" height="106.429"/>
		</defs>
		<clipPath id="SVGID_6_">
			<use xlink:href="#SVGID_5_"  overflow="visible"/>
		</clipPath>
		<path clip-path="url(#SVGID_6_)" fill="#D41C5D" d="M46.97,35.696c-1.757,0-3.613-0.164-5.523-0.488
			c-1.903-0.32-3.771-0.771-5.545-1.338c-0.426-0.136-0.845-0.277-1.247-0.422c-0.382-0.138-0.566-0.525-0.413-0.865
			c0.153-0.342,0.586-0.505,0.967-0.37c0.384,0.139,0.785,0.274,1.191,0.403c1.703,0.544,3.495,0.977,5.323,1.286
			c1.818,0.307,3.583,0.462,5.247,0.462c1.617,0,3.226-0.168,4.781-0.496c1.526-0.324,2.926-0.859,4.16-1.589
			c1.205-0.712,2.176-1.679,2.89-2.874c0.712-1.196,1.075-2.714,1.075-4.505c0-1.862-0.404-3.362-1.197-4.457
			c-0.803-1.109-1.97-2.038-3.467-2.756c-1.563-0.753-3.457-1.431-5.625-2.011c-1.379-0.388-2.574-0.72-3.564-0.988
			c-1.077-0.292-1.897-0.612-2.504-0.983c-0.742-0.452-1.134-1.091-1.134-1.849c0-0.816,0.436-1.458,1.223-1.806
			c0.641-0.284,1.45-0.428,2.402-0.428c1.144,0,2.322,0.162,3.501,0.48c1.136,0.309,2.203,0.66,3.171,1.048
			c0.374,0.148,0.558,0.547,0.392,0.881c-0.166,0.335-0.59,0.493-0.964,0.346c-0.004-0.001-0.021-0.008-0.024-0.01
			c-0.921-0.367-1.929-0.699-3.006-0.992c-1.038-0.281-2.071-0.423-3.07-0.423c-0.722,0-1.308,0.098-1.743,0.29
			c-0.237,0.105-0.396,0.25-0.396,0.615c0,0.314,0.149,0.545,0.484,0.75c0.474,0.29,1.18,0.562,2.097,0.81
			c0.994,0.268,2.198,0.601,3.572,0.988c2.253,0.604,4.24,1.318,5.89,2.109c1.724,0.828,3.072,1.906,4.014,3.207
			c0.95,1.313,1.435,3.055,1.435,5.179c0,2.015-0.421,3.739-1.251,5.132c-0.83,1.394-1.968,2.521-3.381,3.356
			c-1.38,0.816-2.939,1.414-4.634,1.772C50.424,35.517,48.7,35.696,46.97,35.696"/>
	</g>
	<g>
		<defs>
			<rect id="SVGID_7_" x="-12.444" y="-29.25" width="118.944" height="106.429"/>
		</defs>
		<clipPath id="SVGID_8_">
			<use xlink:href="#SVGID_7_"  overflow="visible"/>
		</clipPath>
		<path clip-path="url(#SVGID_8_)" fill="#D41C5D" d="M67.082,35.696c-2.762,0-5.33-0.502-7.627-1.492
			c-0.37-0.16-0.525-0.556-0.348-0.888c0.179-0.33,0.622-0.471,0.993-0.311c2.095,0.9,4.444,1.36,6.981,1.36
			c1.971,0,3.987-0.289,5.994-0.854c1.998-0.562,3.812-1.385,5.387-2.452l0.044-0.028c0.888-0.606,1.358-1.529,1.295-2.535
			c-0.063-1.018-0.685-1.937-1.66-2.458l-0.829-0.442c-1.272-0.681-2.906-0.55-3.975,0.319c-0.071,0.06-0.145,0.118-0.221,0.174
			c-0.85,0.627-1.804,1.088-2.837,1.368c-1.01,0.274-2.018,0.413-2.996,0.413c-1.389,0-2.664-0.252-3.791-0.747
			c-0.368-0.162-0.521-0.562-0.338-0.89c0.181-0.328,0.625-0.467,0.994-0.305c0.921,0.406,1.976,0.61,3.135,0.61
			c0.832,0,1.695-0.12,2.564-0.354c0.844-0.23,1.625-0.607,2.32-1.12c0.055-0.044,0.111-0.087,0.166-0.132
			c1.55-1.262,3.91-1.459,5.74-0.479l0.83,0.443c1.397,0.748,2.289,2.066,2.381,3.525c0.091,1.432-0.61,2.803-1.875,3.665
			l-0.052,0.036c-1.712,1.156-3.675,2.051-5.839,2.658C71.369,35.389,69.204,35.696,67.082,35.696 M59.524,16.381
			c-0.068,0-0.138-0.008-0.203-0.026c-0.396-0.101-0.624-0.469-0.511-0.821c0.341-1.065,0.87-2.047,1.578-2.921
			c0.72-0.892,1.654-1.62,2.776-2.163c1.131-0.549,2.483-0.827,4.02-0.827c0.967,0,1.977,0.122,2.993,0.36
			c1.052,0.249,2.042,0.691,2.945,1.317c0.079,0.055,0.158,0.111,0.232,0.17c1.149,0.889,2.843,0.941,4.121,0.127l0.646-0.411
			c0.866-0.551,1.386-1.412,1.425-2.362c0.04-0.952-0.405-1.845-1.223-2.454c-0.688-0.511-1.464-0.985-2.304-1.405
			c-2.438-1.22-5.344-1.837-8.634-1.837c-2.745,0-5.237,0.444-7.404,1.32c-0.375,0.151-0.814,0.002-0.983-0.333
			c-0.168-0.334-0.004-0.729,0.372-0.879c2.36-0.955,5.058-1.439,8.016-1.439c3.548,0,6.695,0.675,9.36,2.007
			c0.918,0.461,1.771,0.979,2.527,1.543c1.177,0.874,1.816,2.16,1.761,3.527c-0.06,1.365-0.806,2.604-2.051,3.396l-0.646,0.41
			c-1.836,1.17-4.285,1.085-5.954-0.205c-0.056-0.042-0.113-0.084-0.173-0.124c-0.743-0.517-1.555-0.88-2.411-1.082
			c-0.895-0.211-1.774-0.317-2.615-0.317c-1.285,0-2.399,0.223-3.312,0.666c-0.925,0.448-1.691,1.043-2.28,1.773
			c-0.604,0.748-1.061,1.59-1.353,2.508C60.144,16.191,59.849,16.381,59.524,16.381"/>
	</g>
	<g>
		<defs>
			<rect id="SVGID_9_" x="-12.444" y="-29.25" width="118.944" height="106.429"/>
		</defs>
		<clipPath id="SVGID_10_">
			<use xlink:href="#SVGID_9_"  overflow="visible"/>
		</clipPath>
		<polygon clip-path="url(#SVGID_10_)" fill="#333333" points="16.543,40.252 14.85,40.252 14.85,44.131 14.382,44.131 
			14.382,40.252 12.69,40.252 12.69,39.882 16.543,39.882 		"/>
	</g>
	<g>
		<defs>
			<rect id="SVGID_11_" x="-12.444" y="-29.25" width="118.944" height="106.429"/>
		</defs>
		<clipPath id="SVGID_12_">
			<use xlink:href="#SVGID_11_"  overflow="visible"/>
		</clipPath>
		<polygon clip-path="url(#SVGID_12_)" fill="#333333" points="20.998,39.882 20.998,44.131 20.537,44.131 20.537,42.143 
			17.72,42.143 17.72,44.131 17.251,44.131 17.251,39.882 17.72,39.882 17.72,41.772 20.537,41.772 20.537,39.882 		"/>
	</g>
	<g>
		<defs>
			<rect id="SVGID_13_" x="-12.444" y="-29.25" width="118.944" height="106.429"/>
		</defs>
		<clipPath id="SVGID_14_">
			<use xlink:href="#SVGID_13_"  overflow="visible"/>
		</clipPath>
		<polygon clip-path="url(#SVGID_14_)" fill="#333333" points="25.381,43.76 25.381,44.131 22.189,44.131 22.189,39.882 
			25.32,39.882 25.32,40.252 22.657,40.252 22.657,41.784 24.979,41.784 24.979,42.138 22.657,42.138 22.657,43.76 		"/>
	</g>
	<g>
		<defs>
			<rect id="SVGID_15_" x="-12.444" y="-29.25" width="118.944" height="106.429"/>
		</defs>
		<clipPath id="SVGID_16_">
			<use xlink:href="#SVGID_15_"  overflow="visible"/>
		</clipPath>
		<path clip-path="url(#SVGID_16_)" fill="#333333" d="M30.72,40.881c-0.044-0.042-0.11-0.092-0.194-0.14
			c-0.085-0.051-0.186-0.099-0.301-0.143c-0.117-0.043-0.24-0.08-0.375-0.106c-0.134-0.028-0.273-0.043-0.416-0.043
			c-0.312,0-0.544,0.052-0.695,0.154c-0.151,0.105-0.228,0.248-0.228,0.431c0,0.134,0.042,0.242,0.128,0.318
			c0.084,0.078,0.213,0.144,0.387,0.195c0.175,0.051,0.392,0.106,0.655,0.166c0.322,0.068,0.6,0.149,0.837,0.242
			c0.236,0.094,0.417,0.216,0.542,0.373c0.124,0.155,0.187,0.361,0.187,0.615c0,0.214-0.044,0.399-0.134,0.556
			c-0.088,0.154-0.213,0.28-0.374,0.377c-0.161,0.098-0.346,0.17-0.556,0.215c-0.209,0.045-0.435,0.069-0.676,0.069
			c-0.236,0-0.471-0.022-0.706-0.065c-0.234-0.046-0.457-0.109-0.669-0.194c-0.212-0.086-0.407-0.192-0.585-0.316l0.341-0.573
			c0.058,0.052,0.142,0.108,0.251,0.17c0.109,0.063,0.237,0.121,0.382,0.177c0.144,0.056,0.303,0.103,0.475,0.143
			c0.172,0.036,0.347,0.055,0.526,0.055c0.298,0,0.527-0.046,0.686-0.14c0.158-0.092,0.237-0.226,0.237-0.401
			c0-0.144-0.051-0.258-0.153-0.344c-0.103-0.086-0.252-0.158-0.448-0.217c-0.197-0.061-0.431-0.12-0.703-0.18
			c-0.312-0.074-0.573-0.158-0.783-0.247c-0.209-0.091-0.366-0.206-0.472-0.348c-0.104-0.14-0.157-0.32-0.157-0.541
			c0-0.277,0.076-0.513,0.228-0.705c0.151-0.196,0.358-0.338,0.619-0.436c0.26-0.101,0.555-0.147,0.88-0.147
			c0.214,0,0.417,0.021,0.609,0.063c0.192,0.041,0.371,0.099,0.539,0.17c0.167,0.073,0.32,0.152,0.458,0.246L30.72,40.881z"/>
	</g>
	<g>
		<defs>
			<rect id="SVGID_17_" x="-12.444" y="-29.25" width="118.944" height="106.429"/>
		</defs>
		<clipPath id="SVGID_18_">
			<use xlink:href="#SVGID_17_"  overflow="visible"/>
		</clipPath>
		<path clip-path="url(#SVGID_18_)" fill="#333333" d="M33.972,44.161c-0.345,0-0.653-0.06-0.931-0.181
			c-0.276-0.119-0.515-0.28-0.715-0.486c-0.201-0.206-0.356-0.438-0.465-0.695c-0.11-0.255-0.165-0.522-0.165-0.793
			c0-0.284,0.058-0.555,0.174-0.813c0.116-0.256,0.276-0.484,0.482-0.688c0.206-0.2,0.446-0.361,0.725-0.478
			c0.279-0.118,0.581-0.178,0.908-0.178c0.338,0,0.647,0.062,0.926,0.186s0.517,0.289,0.716,0.497
			c0.198,0.209,0.354,0.438,0.461,0.694c0.109,0.257,0.165,0.518,0.165,0.785c0,0.284-0.057,0.555-0.171,0.811
			c-0.114,0.258-0.274,0.489-0.479,0.688c-0.205,0.204-0.447,0.361-0.726,0.477C34.599,44.104,34.296,44.161,33.972,44.161
			 M32.458,42.006c0,0.2,0.037,0.394,0.107,0.58c0.072,0.188,0.173,0.355,0.305,0.501c0.132,0.146,0.291,0.261,0.478,0.344
			c0.188,0.084,0.397,0.125,0.629,0.125c0.241,0,0.456-0.042,0.643-0.131c0.188-0.088,0.345-0.206,0.471-0.355
			c0.128-0.15,0.225-0.317,0.292-0.503c0.067-0.188,0.102-0.371,0.102-0.561c0-0.201-0.035-0.392-0.104-0.578
			c-0.069-0.186-0.171-0.352-0.304-0.496c-0.133-0.146-0.294-0.261-0.479-0.343c-0.185-0.086-0.392-0.126-0.619-0.126
			c-0.24,0-0.455,0.042-0.642,0.131c-0.187,0.087-0.346,0.204-0.476,0.353c-0.128,0.147-0.228,0.313-0.297,0.497
			C32.494,41.627,32.458,41.815,32.458,42.006"/>
	</g>
	<g>
		<defs>
			<rect id="SVGID_19_" x="-12.444" y="-29.25" width="118.944" height="106.429"/>
		</defs>
		<clipPath id="SVGID_20_">
			<use xlink:href="#SVGID_19_"  overflow="visible"/>
		</clipPath>
		<path clip-path="url(#SVGID_20_)" fill="#333333" d="M36.729,41.97c0-0.259,0.05-0.514,0.153-0.762
			c0.102-0.25,0.253-0.479,0.451-0.684c0.198-0.205,0.441-0.369,0.727-0.49c0.285-0.123,0.608-0.184,0.971-0.184
			c0.427,0,0.796,0.088,1.109,0.26c0.312,0.174,0.544,0.396,0.696,0.668l-0.59,0.354c-0.088-0.172-0.202-0.308-0.337-0.406
			c-0.136-0.101-0.284-0.17-0.441-0.21c-0.159-0.04-0.314-0.061-0.466-0.061c-0.25,0-0.467,0.045-0.654,0.136
			c-0.188,0.089-0.345,0.207-0.471,0.355c-0.129,0.147-0.224,0.313-0.288,0.496c-0.066,0.185-0.099,0.367-0.099,0.552
			c0,0.204,0.038,0.399,0.114,0.59c0.074,0.189,0.181,0.357,0.317,0.503c0.135,0.146,0.298,0.261,0.485,0.344
			c0.187,0.084,0.393,0.125,0.615,0.125c0.153,0,0.31-0.023,0.476-0.072c0.165-0.047,0.316-0.121,0.458-0.224
			c0.141-0.1,0.251-0.236,0.333-0.404l0.623,0.317c-0.098,0.212-0.252,0.391-0.459,0.538c-0.207,0.148-0.44,0.262-0.695,0.336
			c-0.258,0.076-0.511,0.114-0.76,0.114c-0.334,0-0.64-0.063-0.917-0.188c-0.277-0.126-0.514-0.296-0.715-0.504
			c-0.201-0.209-0.357-0.444-0.469-0.706S36.729,42.238,36.729,41.97"/>
	</g>
	<g>
		<defs>
			<rect id="SVGID_21_" x="-12.444" y="-29.25" width="118.944" height="106.429"/>
		</defs>
		<clipPath id="SVGID_22_">
			<use xlink:href="#SVGID_21_"  overflow="visible"/>
		</clipPath>
		<rect x="41.606" y="39.882" clip-path="url(#SVGID_22_)" fill="#333333" width="0.749" height="4.249"/>
	</g>
	<g>
		<defs>
			<rect id="SVGID_23_" x="-12.444" y="-29.25" width="118.944" height="106.429"/>
		</defs>
		<clipPath id="SVGID_24_">
			<use xlink:href="#SVGID_23_"  overflow="visible"/>
		</clipPath>
		<path clip-path="url(#SVGID_24_)" fill="#333333" d="M44.797,39.882h0.71l1.846,4.249h-0.791l-0.464-1.155h-1.899l-0.466,1.155
			h-0.796L44.797,39.882z M45.899,42.48l-0.748-1.862L44.4,42.48H45.899z"/>
	</g>
	<g>
		<defs>
			<rect id="SVGID_25_" x="-12.444" y="-29.25" width="118.944" height="106.429"/>
		</defs>
		<clipPath id="SVGID_26_">
			<use xlink:href="#SVGID_25_"  overflow="visible"/>
		</clipPath>
		<polygon clip-path="url(#SVGID_26_)" fill="#333333" points="47.941,44.131 47.941,39.882 48.691,39.882 48.691,43.54 
			51.239,43.54 51.239,44.131 		"/>
	</g>
	<g>
		<defs>
			<rect id="SVGID_27_" x="-12.444" y="-29.25" width="118.944" height="106.429"/>
		</defs>
		<clipPath id="SVGID_28_">
			<use xlink:href="#SVGID_27_"  overflow="visible"/>
		</clipPath>
		<path clip-path="url(#SVGID_28_)" fill="#333333" d="M53.299,41.97c0-0.259,0.052-0.514,0.152-0.762
			c0.102-0.25,0.246-0.479,0.438-0.684c0.19-0.205,0.428-0.369,0.709-0.49c0.28-0.123,0.6-0.184,0.957-0.184
			c0.424,0,0.786,0.088,1.086,0.26c0.302,0.174,0.523,0.396,0.666,0.668l-0.369,0.205c-0.101-0.189-0.229-0.339-0.388-0.447
			c-0.155-0.109-0.321-0.188-0.499-0.237c-0.175-0.047-0.35-0.07-0.523-0.07c-0.285,0-0.538,0.051-0.756,0.152
			c-0.22,0.102-0.403,0.237-0.553,0.407c-0.15,0.17-0.263,0.357-0.339,0.568c-0.073,0.21-0.111,0.423-0.111,0.638
			c0,0.236,0.043,0.461,0.133,0.677c0.089,0.215,0.214,0.405,0.374,0.571c0.16,0.167,0.35,0.298,0.566,0.396
			c0.215,0.098,0.451,0.146,0.706,0.146c0.178,0,0.361-0.027,0.549-0.084c0.188-0.056,0.361-0.142,0.525-0.257
			c0.162-0.115,0.292-0.266,0.39-0.45l0.389,0.18c-0.098,0.212-0.251,0.391-0.455,0.538c-0.204,0.148-0.434,0.262-0.686,0.336
			c-0.252,0.076-0.498,0.114-0.74,0.114c-0.324,0-0.623-0.063-0.896-0.188c-0.27-0.126-0.507-0.296-0.705-0.504
			c-0.199-0.209-0.353-0.444-0.458-0.706C53.354,42.501,53.299,42.238,53.299,41.97"/>
	</g>
	<g>
		<defs>
			<rect id="SVGID_29_" x="-12.444" y="-29.25" width="118.944" height="106.429"/>
		</defs>
		<clipPath id="SVGID_30_">
			<use xlink:href="#SVGID_29_"  overflow="visible"/>
		</clipPath>
		<path clip-path="url(#SVGID_30_)" fill="#333333" d="M59.608,39.882h0.396l1.974,4.249h-0.494l-0.594-1.329h-2.172l-0.595,1.329
			h-0.501L59.608,39.882z M60.743,42.475l-0.94-2.103l-0.938,2.103H60.743z"/>
	</g>
	<g>
		<defs>
			<rect id="SVGID_31_" x="-12.444" y="-29.25" width="118.944" height="106.429"/>
		</defs>
		<clipPath id="SVGID_32_">
			<use xlink:href="#SVGID_31_"  overflow="visible"/>
		</clipPath>
		<polygon clip-path="url(#SVGID_32_)" fill="#333333" points="62.66,44.131 62.66,39.882 63.129,39.882 63.129,43.76 65.872,43.76 
			65.872,44.131 		"/>
	</g>
	<g>
		<defs>
			<rect id="SVGID_33_" x="-12.444" y="-29.25" width="118.944" height="106.429"/>
		</defs>
		<clipPath id="SVGID_34_">
			<use xlink:href="#SVGID_33_"  overflow="visible"/>
		</clipPath>
		<polygon clip-path="url(#SVGID_34_)" fill="#333333" points="66.563,44.131 66.563,39.882 67.03,39.882 67.03,43.76 69.772,43.76 
			69.772,44.131 		"/>
	</g>
	<g>
		<defs>
			<rect id="SVGID_35_" x="-12.444" y="-29.25" width="118.944" height="106.429"/>
		</defs>
		<clipPath id="SVGID_36_">
			<use xlink:href="#SVGID_35_"  overflow="visible"/>
		</clipPath>
		<rect x="70.462" y="39.882" clip-path="url(#SVGID_36_)" fill="#333333" width="0.469" height="4.249"/>
	</g>
	<g>
		<defs>
			<rect id="SVGID_37_" x="-12.444" y="-29.25" width="118.944" height="106.429"/>
		</defs>
		<clipPath id="SVGID_38_">
			<use xlink:href="#SVGID_37_"  overflow="visible"/>
		</clipPath>
		<polygon clip-path="url(#SVGID_38_)" fill="#333333" points="72.588,40.652 72.588,44.131 72.122,44.131 72.122,39.882 
			72.509,39.882 75.626,43.425 75.626,39.887 76.096,39.887 76.096,44.131 75.66,44.131 		"/>
	</g>
	<g>
		<defs>
			<rect id="SVGID_39_" x="-12.444" y="-29.25" width="118.944" height="106.429"/>
		</defs>
		<clipPath id="SVGID_40_">
			<use xlink:href="#SVGID_39_"  overflow="visible"/>
		</clipPath>
		<path clip-path="url(#SVGID_40_)" fill="#333333" d="M79.192,44.161c-0.316,0-0.611-0.062-0.883-0.183s-0.509-0.285-0.709-0.493
			s-0.355-0.44-0.465-0.695s-0.164-0.518-0.164-0.791c0-0.286,0.055-0.558,0.164-0.815c0.109-0.261,0.262-0.488,0.458-0.686
			c0.195-0.2,0.428-0.359,0.695-0.472c0.269-0.116,0.56-0.176,0.875-0.176c0.471,0,0.853,0.087,1.145,0.258
			c0.296,0.171,0.519,0.395,0.671,0.67l-0.361,0.216c-0.153-0.264-0.354-0.456-0.607-0.579c-0.257-0.124-0.538-0.187-0.852-0.187
			c-0.264,0-0.502,0.05-0.713,0.15c-0.213,0.099-0.393,0.232-0.544,0.399c-0.152,0.168-0.267,0.357-0.346,0.569
			c-0.078,0.211-0.117,0.43-0.117,0.658c0,0.239,0.044,0.468,0.135,0.682c0.089,0.212,0.215,0.4,0.38,0.567
			c0.166,0.166,0.357,0.295,0.571,0.388c0.217,0.094,0.45,0.142,0.7,0.142c0.291,0,0.564-0.065,0.823-0.194
			c0.258-0.13,0.506-0.33,0.743-0.602v0.442C80.34,43.917,79.809,44.161,79.192,44.161 M80.719,42.365h-1.056v-0.324h1.45v2.09
			h-0.395V42.365L80.719,42.365z"/>
	</g>
	<g>
		<defs>
			<rect id="SVGID_41_" x="-12.444" y="-29.25" width="118.944" height="106.429"/>
		</defs>
		<clipPath id="SVGID_42_">
			<use xlink:href="#SVGID_41_"  overflow="visible"/>
		</clipPath>
		<path clip-path="url(#SVGID_42_)" fill="#FFFFFF" d="M29.594,35.469H28.33c-2.779,0-5.04-2.022-5.04-4.508V14.224
			c0-1.753-1.594-3.18-3.553-3.18h-1.769c-2.779,0-5.041-2.023-5.041-4.51c0-2.486,2.261-4.51,5.041-4.51h11.661
			c1.688,0,3.255,0.751,4.192,2.007c0.229,0.305,0.137,0.718-0.205,0.923c-0.341,0.206-0.802,0.123-1.031-0.184
			c-0.661-0.887-1.768-1.415-2.957-1.415H17.968c-1.959,0-3.553,1.427-3.553,3.179c0,1.754,1.594,3.18,3.553,3.18h1.769
			c2.778,0,5.04,2.023,5.04,4.511v16.737c0,1.751,1.593,3.178,3.553,3.178h1.264c0.773,0,1.508-0.22,2.126-0.631
			c0.329-0.221,0.794-0.159,1.04,0.134c0.246,0.296,0.178,0.712-0.149,0.934C31.733,35.159,30.691,35.469,29.594,35.469"/>
	</g>
	<g>
		<defs>
			<rect id="SVGID_43_" x="-12.444" y="-29.25" width="118.944" height="106.429"/>
		</defs>
		<clipPath id="SVGID_44_">
			<use xlink:href="#SVGID_43_"  overflow="visible"/>
		</clipPath>
		<path clip-path="url(#SVGID_44_)" fill="#FFFFFF" d="M47.12,27.733c-1.445,0-2.902-0.191-4.331-0.569
			c-1.391-0.369-2.672-0.791-3.812-1.254c-0.163-0.065-0.329-0.136-0.497-0.208c-0.37-0.159-0.526-0.556-0.349-0.885
			c0.176-0.333,0.62-0.474,0.991-0.315c0.16,0.068,0.316,0.133,0.471,0.197c1.075,0.438,2.293,0.839,3.619,1.189
			c1.291,0.342,2.604,0.517,3.907,0.517c1.261,0,1.711-0.183,1.845-0.262c0.271-0.157,0.294-0.295,0.294-0.413
			c0-0.251-0.082-0.576-0.712-0.869c-0.695-0.321-1.63-0.64-2.774-0.94c-1.203-0.316-2.544-0.688-3.987-1.105
			c-2.149-0.646-3.942-1.39-5.336-2.211c-1.448-0.852-2.537-1.887-3.233-3.078c-0.692-1.183-1.044-2.624-1.044-4.283
			c0-2.495,0.674-4.617,2.005-6.312c1.317-1.678,3.078-2.97,5.231-3.84c2.125-0.858,4.448-1.294,6.902-1.294
			c1.806,0,3.578,0.196,5.266,0.587c1.665,0.383,3.249,0.858,4.705,1.41l0.149,0.057c0.376,0.144,0.555,0.534,0.394,0.872
			c-0.16,0.338-0.599,0.496-0.975,0.352L55.702,5.02c-1.389-0.526-2.902-0.98-4.494-1.348c-1.568-0.361-3.216-0.544-4.896-0.544
			c-2.242,0-4.358,0.396-6.291,1.176c-1.908,0.771-3.462,1.912-4.626,3.393c-1.152,1.465-1.735,3.332-1.735,5.547
			c0,1.442,0.294,2.674,0.875,3.666c0.579,0.989,1.498,1.857,2.733,2.583c1.288,0.758,2.964,1.451,4.984,2.059
			c1.421,0.412,2.75,0.781,3.941,1.093c1.237,0.325,2.258,0.674,3.039,1.036c1.25,0.582,1.513,1.437,1.513,2.05
			c0,0.441-0.168,1.064-0.97,1.53C49.218,27.585,48.375,27.733,47.12,27.733"/>
	</g>
	<g>
		<defs>
			<rect id="SVGID_45_" x="-12.444" y="-29.25" width="118.944" height="106.429"/>
		</defs>
		<clipPath id="SVGID_46_">
			<use xlink:href="#SVGID_45_"  overflow="visible"/>
		</clipPath>
		<path clip-path="url(#SVGID_46_)" fill="#FFFFFF" d="M46.97,35.696c-1.757,0-3.613-0.164-5.523-0.488
			c-1.903-0.32-3.771-0.771-5.545-1.338c-0.426-0.136-0.845-0.277-1.247-0.422c-0.382-0.138-0.566-0.525-0.413-0.865
			c0.153-0.342,0.586-0.505,0.967-0.37c0.384,0.139,0.785,0.274,1.191,0.403c1.703,0.544,3.495,0.977,5.323,1.286
			c1.818,0.307,3.583,0.462,5.247,0.462c1.617,0,3.226-0.168,4.781-0.496c1.526-0.324,2.926-0.859,4.16-1.589
			c1.205-0.712,2.176-1.679,2.89-2.874c0.712-1.196,1.075-2.714,1.075-4.505c0-1.862-0.404-3.362-1.197-4.457
			c-0.803-1.109-1.97-2.038-3.467-2.756c-1.563-0.753-3.457-1.431-5.625-2.011c-1.379-0.388-2.574-0.72-3.564-0.988
			c-1.077-0.292-1.897-0.612-2.504-0.983c-0.742-0.452-1.134-1.091-1.134-1.849c0-0.816,0.436-1.458,1.223-1.806
			c0.641-0.284,1.45-0.428,2.402-0.428c1.144,0,2.322,0.162,3.501,0.48c1.136,0.309,2.203,0.66,3.171,1.048
			c0.374,0.148,0.558,0.547,0.392,0.881c-0.166,0.335-0.59,0.493-0.964,0.346c-0.004-0.001-0.021-0.008-0.024-0.01
			c-0.921-0.367-1.929-0.699-3.006-0.992c-1.038-0.281-2.071-0.423-3.07-0.423c-0.722,0-1.308,0.098-1.743,0.29
			c-0.237,0.105-0.396,0.25-0.396,0.615c0,0.314,0.149,0.545,0.484,0.75c0.474,0.29,1.18,0.562,2.097,0.81
			c0.994,0.268,2.198,0.601,3.572,0.988c2.253,0.604,4.24,1.318,5.89,2.109c1.724,0.828,3.072,1.906,4.014,3.207
			c0.95,1.313,1.435,3.055,1.435,5.179c0,2.015-0.421,3.739-1.251,5.132c-0.83,1.394-1.968,2.521-3.381,3.356
			c-1.38,0.816-2.939,1.414-4.634,1.772C50.424,35.517,48.7,35.696,46.97,35.696"/>
	</g>
	<g>
		<defs>
			<rect id="SVGID_47_" x="-12.444" y="-29.25" width="118.944" height="106.429"/>
		</defs>
		<clipPath id="SVGID_48_">
			<use xlink:href="#SVGID_47_"  overflow="visible"/>
		</clipPath>
		<path clip-path="url(#SVGID_48_)" fill="#FFFFFF" d="M67.082,35.696c-2.762,0-5.33-0.502-7.627-1.492
			c-0.37-0.16-0.525-0.556-0.348-0.888c0.179-0.33,0.622-0.471,0.993-0.311c2.095,0.9,4.444,1.36,6.981,1.36
			c1.971,0,3.987-0.289,5.994-0.854c1.998-0.562,3.812-1.385,5.387-2.452l0.044-0.028c0.888-0.606,1.358-1.529,1.295-2.535
			c-0.063-1.018-0.685-1.937-1.66-2.458l-0.829-0.442c-1.272-0.681-2.906-0.55-3.975,0.319c-0.071,0.06-0.145,0.118-0.221,0.174
			c-0.85,0.627-1.804,1.088-2.837,1.368c-1.01,0.274-2.018,0.413-2.996,0.413c-1.389,0-2.664-0.252-3.791-0.747
			c-0.368-0.162-0.521-0.562-0.338-0.89c0.181-0.328,0.625-0.467,0.994-0.305c0.921,0.406,1.976,0.61,3.135,0.61
			c0.832,0,1.695-0.12,2.564-0.354c0.844-0.23,1.625-0.607,2.32-1.12c0.055-0.044,0.111-0.087,0.166-0.132
			c1.55-1.262,3.91-1.459,5.74-0.479l0.83,0.443c1.397,0.748,2.289,2.066,2.381,3.525c0.091,1.432-0.61,2.803-1.875,3.665
			l-0.052,0.036c-1.712,1.156-3.675,2.051-5.839,2.658C71.369,35.389,69.204,35.696,67.082,35.696 M59.524,16.381
			c-0.068,0-0.138-0.008-0.203-0.026c-0.396-0.101-0.624-0.469-0.511-0.821c0.341-1.065,0.87-2.047,1.578-2.921
			c0.72-0.892,1.654-1.62,2.776-2.163c1.131-0.549,2.483-0.827,4.02-0.827c0.967,0,1.977,0.122,2.993,0.36
			c1.052,0.249,2.042,0.691,2.945,1.317c0.079,0.055,0.158,0.111,0.232,0.17c1.149,0.889,2.843,0.941,4.121,0.127l0.646-0.411
			c0.866-0.551,1.386-1.412,1.425-2.362c0.04-0.952-0.405-1.845-1.223-2.454c-0.688-0.511-1.464-0.985-2.304-1.405
			c-2.438-1.22-5.344-1.837-8.634-1.837c-2.745,0-5.237,0.444-7.404,1.32c-0.375,0.151-0.814,0.002-0.983-0.333
			c-0.168-0.334-0.004-0.729,0.372-0.879c2.36-0.955,5.058-1.439,8.016-1.439c3.548,0,6.695,0.675,9.36,2.007
			c0.918,0.461,1.771,0.979,2.527,1.543c1.177,0.874,1.816,2.16,1.761,3.527c-0.06,1.365-0.806,2.604-2.051,3.396l-0.646,0.41
			c-1.836,1.17-4.285,1.085-5.954-0.205c-0.056-0.042-0.113-0.084-0.173-0.124c-0.743-0.517-1.555-0.88-2.411-1.082
			c-0.895-0.211-1.774-0.317-2.615-0.317c-1.285,0-2.399,0.223-3.312,0.666c-0.925,0.448-1.691,1.043-2.28,1.773
			c-0.604,0.748-1.061,1.59-1.353,2.508C60.144,16.191,59.849,16.381,59.524,16.381"/>
	</g>
	<g>
		<defs>
			<rect id="SVGID_49_" x="-12.444" y="-29.25" width="118.944" height="106.429"/>
		</defs>
		<clipPath id="SVGID_50_">
			<use xlink:href="#SVGID_49_"  overflow="visible"/>
		</clipPath>
		<polygon clip-path="url(#SVGID_50_)" fill="#F3F3F3" points="16.543,40.252 14.85,40.252 14.85,44.131 14.382,44.131 
			14.382,40.252 12.69,40.252 12.69,39.882 16.543,39.882 		"/>
	</g>
	<g>
		<defs>
			<rect id="SVGID_51_" x="-12.444" y="-29.25" width="118.944" height="106.429"/>
		</defs>
		<clipPath id="SVGID_52_">
			<use xlink:href="#SVGID_51_"  overflow="visible"/>
		</clipPath>
		<polygon clip-path="url(#SVGID_52_)" fill="#F3F3F3" points="20.998,39.882 20.998,44.131 20.537,44.131 20.537,42.143 
			17.72,42.143 17.72,44.131 17.251,44.131 17.251,39.882 17.72,39.882 17.72,41.772 20.537,41.772 20.537,39.882 		"/>
	</g>
	<g>
		<defs>
			<rect id="SVGID_53_" x="-12.444" y="-29.25" width="118.944" height="106.429"/>
		</defs>
		<clipPath id="SVGID_54_">
			<use xlink:href="#SVGID_53_"  overflow="visible"/>
		</clipPath>
		<polygon clip-path="url(#SVGID_54_)" fill="#F3F3F3" points="25.381,43.76 25.381,44.131 22.189,44.131 22.189,39.882 
			25.32,39.882 25.32,40.252 22.657,40.252 22.657,41.784 24.979,41.784 24.979,42.138 22.657,42.138 22.657,43.76 		"/>
	</g>
	<g>
		<defs>
			<rect id="SVGID_55_" x="-12.444" y="-29.25" width="118.944" height="106.429"/>
		</defs>
		<clipPath id="SVGID_56_">
			<use xlink:href="#SVGID_55_"  overflow="visible"/>
		</clipPath>
		<path clip-path="url(#SVGID_56_)" fill="#F3F3F3" d="M30.72,40.881c-0.044-0.042-0.11-0.092-0.194-0.14
			c-0.085-0.051-0.186-0.099-0.301-0.143c-0.117-0.043-0.24-0.08-0.375-0.106c-0.134-0.028-0.273-0.043-0.416-0.043
			c-0.312,0-0.544,0.052-0.695,0.154c-0.151,0.105-0.228,0.248-0.228,0.431c0,0.134,0.042,0.242,0.128,0.318
			c0.084,0.078,0.213,0.144,0.387,0.195c0.175,0.051,0.392,0.106,0.655,0.166c0.322,0.068,0.6,0.149,0.837,0.242
			c0.236,0.094,0.417,0.216,0.542,0.373c0.124,0.155,0.187,0.361,0.187,0.615c0,0.214-0.044,0.399-0.134,0.556
			c-0.088,0.154-0.213,0.28-0.374,0.377c-0.161,0.098-0.346,0.17-0.556,0.215c-0.209,0.045-0.435,0.069-0.676,0.069
			c-0.236,0-0.471-0.022-0.706-0.065c-0.234-0.046-0.457-0.109-0.669-0.194c-0.212-0.086-0.407-0.192-0.585-0.316l0.341-0.573
			c0.058,0.052,0.142,0.108,0.251,0.17c0.109,0.063,0.237,0.121,0.382,0.177c0.144,0.056,0.303,0.103,0.475,0.143
			c0.172,0.036,0.347,0.055,0.526,0.055c0.298,0,0.527-0.046,0.686-0.14c0.158-0.092,0.237-0.226,0.237-0.401
			c0-0.144-0.051-0.258-0.153-0.344c-0.103-0.086-0.252-0.158-0.448-0.217c-0.197-0.061-0.431-0.12-0.703-0.18
			c-0.312-0.074-0.573-0.158-0.783-0.247c-0.209-0.091-0.366-0.206-0.472-0.348c-0.104-0.14-0.157-0.32-0.157-0.541
			c0-0.277,0.076-0.513,0.228-0.705c0.151-0.196,0.358-0.338,0.619-0.436c0.26-0.101,0.555-0.147,0.88-0.147
			c0.214,0,0.417,0.021,0.609,0.063c0.192,0.041,0.371,0.099,0.539,0.17c0.167,0.073,0.32,0.152,0.458,0.246L30.72,40.881z"/>
	</g>
	<g>
		<defs>
			<rect id="SVGID_57_" x="-12.444" y="-29.25" width="118.944" height="106.429"/>
		</defs>
		<clipPath id="SVGID_58_">
			<use xlink:href="#SVGID_57_"  overflow="visible"/>
		</clipPath>
		<path clip-path="url(#SVGID_58_)" fill="#F3F3F3" d="M33.972,44.161c-0.345,0-0.653-0.06-0.931-0.181
			c-0.276-0.119-0.515-0.28-0.715-0.486c-0.201-0.206-0.356-0.438-0.465-0.695c-0.11-0.255-0.165-0.522-0.165-0.793
			c0-0.284,0.058-0.555,0.174-0.813c0.116-0.256,0.276-0.484,0.482-0.688c0.206-0.2,0.446-0.361,0.725-0.478
			c0.279-0.118,0.581-0.178,0.908-0.178c0.338,0,0.647,0.062,0.926,0.186s0.517,0.289,0.716,0.497
			c0.198,0.209,0.354,0.438,0.461,0.694c0.109,0.257,0.165,0.518,0.165,0.785c0,0.284-0.057,0.555-0.171,0.811
			c-0.114,0.258-0.274,0.489-0.479,0.688c-0.205,0.204-0.447,0.361-0.726,0.477C34.599,44.104,34.296,44.161,33.972,44.161
			 M32.458,42.006c0,0.2,0.037,0.394,0.107,0.58c0.072,0.188,0.173,0.355,0.305,0.501c0.132,0.146,0.291,0.261,0.478,0.344
			c0.188,0.084,0.397,0.125,0.629,0.125c0.241,0,0.456-0.042,0.643-0.131c0.188-0.088,0.345-0.206,0.471-0.355
			c0.128-0.15,0.225-0.317,0.292-0.503c0.067-0.188,0.102-0.371,0.102-0.561c0-0.201-0.035-0.392-0.104-0.578
			c-0.069-0.186-0.171-0.352-0.304-0.496c-0.133-0.146-0.294-0.261-0.479-0.343c-0.185-0.086-0.392-0.126-0.619-0.126
			c-0.24,0-0.455,0.042-0.642,0.131c-0.187,0.087-0.346,0.204-0.476,0.353c-0.128,0.147-0.228,0.313-0.297,0.497
			C32.494,41.627,32.458,41.815,32.458,42.006"/>
	</g>
	<g>
		<defs>
			<rect id="SVGID_59_" x="-12.444" y="-29.25" width="118.944" height="106.429"/>
		</defs>
		<clipPath id="SVGID_60_">
			<use xlink:href="#SVGID_59_"  overflow="visible"/>
		</clipPath>
		<path clip-path="url(#SVGID_60_)" fill="#F3F3F3" d="M36.729,41.97c0-0.259,0.05-0.514,0.153-0.762
			c0.102-0.25,0.253-0.479,0.451-0.684c0.198-0.205,0.441-0.369,0.727-0.49c0.285-0.123,0.608-0.184,0.971-0.184
			c0.427,0,0.796,0.088,1.109,0.26c0.312,0.174,0.544,0.396,0.696,0.668l-0.59,0.354c-0.088-0.172-0.202-0.308-0.337-0.406
			c-0.136-0.101-0.284-0.17-0.441-0.21c-0.159-0.04-0.314-0.061-0.466-0.061c-0.25,0-0.467,0.045-0.654,0.136
			c-0.188,0.089-0.345,0.207-0.471,0.355c-0.129,0.147-0.224,0.313-0.288,0.496c-0.066,0.185-0.099,0.367-0.099,0.552
			c0,0.204,0.038,0.399,0.114,0.59c0.074,0.189,0.181,0.357,0.317,0.503c0.135,0.146,0.298,0.261,0.485,0.344
			c0.187,0.084,0.393,0.125,0.615,0.125c0.153,0,0.31-0.023,0.476-0.072c0.165-0.047,0.316-0.121,0.458-0.224
			c0.141-0.1,0.251-0.236,0.333-0.404l0.623,0.317c-0.098,0.212-0.252,0.391-0.459,0.538c-0.207,0.148-0.44,0.262-0.695,0.336
			c-0.258,0.076-0.511,0.114-0.76,0.114c-0.334,0-0.64-0.063-0.917-0.188c-0.277-0.126-0.514-0.296-0.715-0.504
			c-0.201-0.209-0.357-0.444-0.469-0.706S36.729,42.238,36.729,41.97"/>
	</g>
	<g>
		<defs>
			<rect id="SVGID_61_" x="-12.444" y="-29.25" width="118.944" height="106.429"/>
		</defs>
		<clipPath id="SVGID_62_">
			<use xlink:href="#SVGID_61_"  overflow="visible"/>
		</clipPath>
		<rect x="41.606" y="39.882" clip-path="url(#SVGID_62_)" fill="#F3F3F3" width="0.749" height="4.249"/>
	</g>
	<g>
		<defs>
			<rect id="SVGID_63_" x="-12.444" y="-29.25" width="118.944" height="106.429"/>
		</defs>
		<clipPath id="SVGID_64_">
			<use xlink:href="#SVGID_63_"  overflow="visible"/>
		</clipPath>
		<path clip-path="url(#SVGID_64_)" fill="#F3F3F3" d="M44.797,39.882h0.71l1.846,4.249h-0.791l-0.464-1.155h-1.899l-0.466,1.155
			h-0.796L44.797,39.882z M45.899,42.48l-0.748-1.862L44.4,42.48H45.899z"/>
	</g>
	<g>
		<defs>
			<rect id="SVGID_65_" x="-12.444" y="-29.25" width="118.944" height="106.429"/>
		</defs>
		<clipPath id="SVGID_66_">
			<use xlink:href="#SVGID_65_"  overflow="visible"/>
		</clipPath>
		<polygon clip-path="url(#SVGID_66_)" fill="#F3F3F3" points="47.941,44.131 47.941,39.882 48.691,39.882 48.691,43.54 
			51.239,43.54 51.239,44.131 		"/>
	</g>
	<g>
		<defs>
			<rect id="SVGID_67_" x="-12.444" y="-29.25" width="118.944" height="106.429"/>
		</defs>
		<clipPath id="SVGID_68_">
			<use xlink:href="#SVGID_67_"  overflow="visible"/>
		</clipPath>
		<path clip-path="url(#SVGID_68_)" fill="#F3F3F3" d="M53.299,41.97c0-0.259,0.052-0.514,0.152-0.762
			c0.102-0.25,0.246-0.479,0.438-0.684c0.19-0.205,0.428-0.369,0.709-0.49c0.28-0.123,0.6-0.184,0.957-0.184
			c0.424,0,0.786,0.088,1.086,0.26c0.302,0.174,0.523,0.396,0.666,0.668l-0.369,0.205c-0.101-0.189-0.229-0.339-0.388-0.447
			c-0.155-0.109-0.321-0.188-0.499-0.237c-0.175-0.047-0.35-0.07-0.523-0.07c-0.285,0-0.538,0.051-0.756,0.152
			c-0.22,0.102-0.403,0.237-0.553,0.407c-0.15,0.17-0.263,0.357-0.339,0.568c-0.073,0.21-0.111,0.423-0.111,0.638
			c0,0.236,0.043,0.461,0.133,0.677c0.089,0.215,0.214,0.405,0.374,0.571c0.16,0.167,0.35,0.298,0.566,0.396
			c0.215,0.098,0.451,0.146,0.706,0.146c0.178,0,0.361-0.027,0.549-0.084c0.188-0.056,0.361-0.142,0.525-0.257
			c0.162-0.115,0.292-0.266,0.39-0.45l0.389,0.18c-0.098,0.212-0.251,0.391-0.455,0.538c-0.204,0.148-0.434,0.262-0.686,0.336
			c-0.252,0.076-0.498,0.114-0.74,0.114c-0.324,0-0.623-0.063-0.896-0.188c-0.27-0.126-0.507-0.296-0.705-0.504
			c-0.199-0.209-0.353-0.444-0.458-0.706C53.354,42.501,53.299,42.238,53.299,41.97"/>
	</g>
	<g>
		<defs>
			<rect id="SVGID_69_" x="-12.444" y="-29.25" width="118.944" height="106.429"/>
		</defs>
		<clipPath id="SVGID_70_">
			<use xlink:href="#SVGID_69_"  overflow="visible"/>
		</clipPath>
		<path clip-path="url(#SVGID_70_)" fill="#F3F3F3" d="M59.608,39.882h0.396l1.974,4.249h-0.494l-0.594-1.329h-2.172l-0.595,1.329
			h-0.501L59.608,39.882z M60.743,42.475l-0.94-2.103l-0.938,2.103H60.743z"/>
	</g>
	<g>
		<defs>
			<rect id="SVGID_71_" x="-12.444" y="-29.25" width="118.944" height="106.429"/>
		</defs>
		<clipPath id="SVGID_72_">
			<use xlink:href="#SVGID_71_"  overflow="visible"/>
		</clipPath>
		<polygon clip-path="url(#SVGID_72_)" fill="#F3F3F3" points="62.66,44.131 62.66,39.882 63.129,39.882 63.129,43.76 65.872,43.76 
			65.872,44.131 		"/>
	</g>
	<g>
		<defs>
			<rect id="SVGID_73_" x="-12.444" y="-29.25" width="118.944" height="106.429"/>
		</defs>
		<clipPath id="SVGID_74_">
			<use xlink:href="#SVGID_73_"  overflow="visible"/>
		</clipPath>
		<polygon clip-path="url(#SVGID_74_)" fill="#F3F3F3" points="66.563,44.131 66.563,39.882 67.03,39.882 67.03,43.76 69.772,43.76 
			69.772,44.131 		"/>
	</g>
	<g>
		<defs>
			<rect id="SVGID_75_" x="-12.444" y="-29.25" width="118.944" height="106.429"/>
		</defs>
		<clipPath id="SVGID_76_">
			<use xlink:href="#SVGID_75_"  overflow="visible"/>
		</clipPath>
		<rect x="70.462" y="39.882" clip-path="url(#SVGID_76_)" fill="#F3F3F3" width="0.469" height="4.249"/>
	</g>
	<g>
		<defs>
			<rect id="SVGID_77_" x="-12.444" y="-29.25" width="118.944" height="106.429"/>
		</defs>
		<clipPath id="SVGID_78_">
			<use xlink:href="#SVGID_77_"  overflow="visible"/>
		</clipPath>
		<polygon clip-path="url(#SVGID_78_)" fill="#F3F3F3" points="72.588,40.652 72.588,44.131 72.122,44.131 72.122,39.882 
			72.509,39.882 75.626,43.425 75.626,39.887 76.096,39.887 76.096,44.131 75.66,44.131 		"/>
	</g>
	<g>
		<defs>
			<rect id="SVGID_79_" x="-12.444" y="-29.25" width="118.944" height="106.429"/>
		</defs>
		<clipPath id="SVGID_80_">
			<use xlink:href="#SVGID_79_"  overflow="visible"/>
		</clipPath>
		<path clip-path="url(#SVGID_80_)" fill="#F3F3F3" d="M79.192,44.161c-0.316,0-0.611-0.062-0.883-0.183s-0.509-0.285-0.709-0.493
			s-0.355-0.44-0.465-0.695s-0.164-0.518-0.164-0.791c0-0.286,0.055-0.558,0.164-0.815c0.109-0.261,0.262-0.488,0.458-0.686
			c0.195-0.2,0.428-0.359,0.695-0.472c0.269-0.116,0.56-0.176,0.875-0.176c0.471,0,0.853,0.087,1.145,0.258
			c0.296,0.171,0.519,0.395,0.671,0.67l-0.361,0.216c-0.153-0.264-0.354-0.456-0.607-0.579c-0.257-0.124-0.538-0.187-0.852-0.187
			c-0.264,0-0.502,0.05-0.713,0.15c-0.213,0.099-0.393,0.232-0.544,0.399c-0.152,0.168-0.267,0.357-0.346,0.569
			c-0.078,0.211-0.117,0.43-0.117,0.658c0,0.239,0.044,0.468,0.135,0.682c0.089,0.212,0.215,0.4,0.38,0.567
			c0.166,0.166,0.357,0.295,0.571,0.388c0.217,0.094,0.45,0.142,0.7,0.142c0.291,0,0.564-0.065,0.823-0.194
			c0.258-0.13,0.506-0.33,0.743-0.602v0.442C80.34,43.917,79.809,44.161,79.192,44.161 M80.719,42.365h-1.056v-0.324h1.45v2.09
			h-0.395V42.365L80.719,42.365z"/>
	</g>
	<g>
		<defs>
			<rect id="SVGID_81_" x="-12.444" y="-29.25" width="118.944" height="106.429"/>
		</defs>
		<clipPath id="SVGID_82_">
			<use xlink:href="#SVGID_81_"  overflow="visible"/>
		</clipPath>
		<path clip-path="url(#SVGID_82_)" fill="#D41C5D" d="M29.594,35.469H28.33c-2.779,0-5.04-2.022-5.04-4.508V14.224
			c0-1.753-1.594-3.18-3.553-3.18h-1.769c-2.779,0-5.041-2.023-5.041-4.51c0-2.486,2.261-4.51,5.041-4.51h11.661
			c1.688,0,3.255,0.751,4.192,2.007c0.229,0.305,0.137,0.718-0.205,0.923c-0.341,0.206-0.802,0.123-1.031-0.184
			c-0.661-0.887-1.768-1.415-2.957-1.415H17.968c-1.959,0-3.553,1.427-3.553,3.179c0,1.754,1.594,3.18,3.553,3.18h1.769
			c2.778,0,5.04,2.023,5.04,4.511v16.737c0,1.751,1.593,3.178,3.553,3.178h1.264c0.773,0,1.508-0.22,2.126-0.631
			c0.329-0.221,0.794-0.159,1.04,0.134c0.246,0.296,0.178,0.712-0.149,0.934C31.733,35.159,30.691,35.469,29.594,35.469"/>
	</g>
	<g>
		<defs>
			<rect id="SVGID_83_" x="-12.444" y="-29.25" width="118.944" height="106.429"/>
		</defs>
		<clipPath id="SVGID_84_">
			<use xlink:href="#SVGID_83_"  overflow="visible"/>
		</clipPath>
		<path clip-path="url(#SVGID_84_)" fill="#D41C5D" d="M47.12,27.733c-1.445,0-2.902-0.191-4.331-0.569
			c-1.391-0.369-2.672-0.791-3.812-1.254c-0.163-0.065-0.329-0.136-0.497-0.208c-0.37-0.159-0.526-0.556-0.349-0.885
			c0.176-0.333,0.62-0.474,0.991-0.315c0.16,0.068,0.316,0.133,0.471,0.197c1.075,0.438,2.293,0.839,3.619,1.189
			c1.291,0.342,2.604,0.517,3.907,0.517c1.261,0,1.711-0.183,1.845-0.262c0.271-0.157,0.294-0.295,0.294-0.413
			c0-0.251-0.082-0.576-0.712-0.869c-0.695-0.321-1.63-0.64-2.774-0.94c-1.203-0.316-2.544-0.688-3.987-1.105
			c-2.149-0.646-3.942-1.39-5.336-2.211c-1.448-0.852-2.537-1.887-3.233-3.078c-0.692-1.183-1.044-2.624-1.044-4.283
			c0-2.495,0.674-4.617,2.005-6.312c1.317-1.678,3.078-2.97,5.231-3.84c2.125-0.858,4.448-1.294,6.902-1.294
			c1.806,0,3.578,0.196,5.266,0.587c1.665,0.383,3.249,0.858,4.705,1.41l0.149,0.057c0.376,0.144,0.555,0.534,0.394,0.872
			c-0.16,0.338-0.599,0.496-0.975,0.352L55.702,5.02c-1.389-0.526-2.902-0.98-4.494-1.348c-1.568-0.361-3.216-0.544-4.896-0.544
			c-2.242,0-4.358,0.396-6.291,1.176c-1.908,0.771-3.462,1.912-4.626,3.393c-1.152,1.465-1.735,3.332-1.735,5.547
			c0,1.442,0.294,2.674,0.875,3.666c0.579,0.989,1.498,1.857,2.733,2.583c1.288,0.758,2.964,1.451,4.984,2.059
			c1.421,0.412,2.75,0.781,3.941,1.093c1.237,0.325,2.258,0.674,3.039,1.036c1.25,0.582,1.513,1.437,1.513,2.05
			c0,0.441-0.168,1.064-0.97,1.53C49.218,27.585,48.375,27.733,47.12,27.733"/>
	</g>
	<g>
		<defs>
			<rect id="SVGID_85_" x="-12.444" y="-29.25" width="118.944" height="106.429"/>
		</defs>
		<clipPath id="SVGID_86_">
			<use xlink:href="#SVGID_85_"  overflow="visible"/>
		</clipPath>
		<path clip-path="url(#SVGID_86_)" fill="#D41C5D" d="M46.97,35.696c-1.757,0-3.613-0.164-5.523-0.488
			c-1.903-0.32-3.771-0.771-5.545-1.338c-0.426-0.136-0.845-0.277-1.247-0.422c-0.382-0.138-0.566-0.525-0.413-0.865
			c0.153-0.342,0.586-0.505,0.967-0.37c0.384,0.139,0.785,0.274,1.191,0.403c1.703,0.544,3.495,0.977,5.323,1.286
			c1.818,0.307,3.583,0.462,5.247,0.462c1.617,0,3.226-0.168,4.781-0.496c1.526-0.324,2.926-0.859,4.16-1.589
			c1.205-0.712,2.176-1.679,2.89-2.874c0.712-1.196,1.075-2.714,1.075-4.505c0-1.862-0.404-3.362-1.197-4.457
			c-0.803-1.109-1.97-2.038-3.467-2.756c-1.563-0.753-3.457-1.431-5.625-2.011c-1.379-0.388-2.574-0.72-3.564-0.988
			c-1.077-0.292-1.897-0.612-2.504-0.983c-0.742-0.452-1.134-1.091-1.134-1.849c0-0.816,0.436-1.458,1.223-1.806
			c0.641-0.284,1.45-0.428,2.402-0.428c1.144,0,2.322,0.162,3.501,0.48c1.136,0.309,2.203,0.66,3.171,1.048
			c0.374,0.148,0.558,0.547,0.392,0.881c-0.166,0.335-0.59,0.493-0.964,0.346c-0.004-0.001-0.021-0.008-0.024-0.01
			c-0.921-0.367-1.929-0.699-3.006-0.992c-1.038-0.281-2.071-0.423-3.07-0.423c-0.722,0-1.308,0.098-1.743,0.29
			c-0.237,0.105-0.396,0.25-0.396,0.615c0,0.314,0.149,0.545,0.484,0.75c0.474,0.29,1.18,0.562,2.097,0.81
			c0.994,0.268,2.198,0.601,3.572,0.988c2.253,0.604,4.24,1.318,5.89,2.109c1.724,0.828,3.072,1.906,4.014,3.207
			c0.95,1.313,1.435,3.055,1.435,5.179c0,2.015-0.421,3.739-1.251,5.132c-0.83,1.394-1.968,2.521-3.381,3.356
			c-1.38,0.816-2.939,1.414-4.634,1.772C50.424,35.517,48.7,35.696,46.97,35.696"/>
	</g>
	<g>
		<defs>
			<rect id="SVGID_87_" x="-12.444" y="-29.25" width="118.944" height="106.429"/>
		</defs>
		<clipPath id="SVGID_88_">
			<use xlink:href="#SVGID_87_"  overflow="visible"/>
		</clipPath>
		<path clip-path="url(#SVGID_88_)" fill="#D41C5D" d="M67.082,35.696c-2.762,0-5.33-0.502-7.627-1.492
			c-0.37-0.16-0.525-0.556-0.348-0.888c0.179-0.33,0.622-0.471,0.993-0.311c2.095,0.9,4.444,1.36,6.981,1.36
			c1.971,0,3.987-0.289,5.994-0.854c1.998-0.562,3.812-1.385,5.387-2.452l0.044-0.028c0.888-0.606,1.358-1.529,1.295-2.535
			c-0.063-1.018-0.685-1.937-1.66-2.458l-0.829-0.442c-1.272-0.681-2.906-0.55-3.975,0.319c-0.071,0.06-0.145,0.118-0.221,0.174
			c-0.85,0.627-1.804,1.088-2.837,1.368c-1.01,0.274-2.018,0.413-2.996,0.413c-1.389,0-2.664-0.252-3.791-0.747
			c-0.368-0.162-0.521-0.562-0.338-0.89c0.181-0.328,0.625-0.467,0.994-0.305c0.921,0.406,1.976,0.61,3.135,0.61
			c0.832,0,1.695-0.12,2.564-0.354c0.844-0.23,1.625-0.607,2.32-1.12c0.055-0.044,0.111-0.087,0.166-0.132
			c1.55-1.262,3.91-1.459,5.74-0.479l0.83,0.443c1.397,0.748,2.289,2.066,2.381,3.525c0.091,1.432-0.61,2.803-1.875,3.665
			l-0.052,0.036c-1.712,1.156-3.675,2.051-5.839,2.658C71.369,35.389,69.204,35.696,67.082,35.696 M59.524,16.381
			c-0.068,0-0.138-0.008-0.203-0.026c-0.396-0.101-0.624-0.469-0.511-0.821c0.341-1.065,0.87-2.047,1.578-2.921
			c0.72-0.892,1.654-1.62,2.776-2.163c1.131-0.549,2.483-0.827,4.02-0.827c0.967,0,1.977,0.122,2.993,0.36
			c1.052,0.249,2.042,0.691,2.945,1.317c0.079,0.055,0.158,0.111,0.232,0.17c1.149,0.889,2.843,0.941,4.121,0.127l0.646-0.411
			c0.866-0.551,1.386-1.412,1.425-2.362c0.04-0.952-0.405-1.845-1.223-2.454c-0.688-0.511-1.464-0.985-2.304-1.405
			c-2.438-1.22-5.344-1.837-8.634-1.837c-2.745,0-5.237,0.444-7.404,1.32c-0.375,0.151-0.814,0.002-0.983-0.333
			c-0.168-0.334-0.004-0.729,0.372-0.879c2.36-0.955,5.058-1.439,8.016-1.439c3.548,0,6.695,0.675,9.36,2.007
			c0.918,0.461,1.771,0.979,2.527,1.543c1.177,0.874,1.816,2.16,1.761,3.527c-0.06,1.365-0.806,2.604-2.051,3.396l-0.646,0.41
			c-1.836,1.17-4.285,1.085-5.954-0.205c-0.056-0.042-0.113-0.084-0.173-0.124c-0.743-0.517-1.555-0.88-2.411-1.082
			c-0.895-0.211-1.774-0.317-2.615-0.317c-1.285,0-2.399,0.223-3.312,0.666c-0.925,0.448-1.691,1.043-2.28,1.773
			c-0.604,0.748-1.061,1.59-1.353,2.508C60.144,16.191,59.849,16.381,59.524,16.381"/>
	</g>
	<g>
		<defs>
			<rect id="SVGID_89_" x="-12.444" y="-29.25" width="118.944" height="106.429"/>
		</defs>
		<clipPath id="SVGID_90_">
			<use xlink:href="#SVGID_89_"  overflow="visible"/>
		</clipPath>
		<polygon clip-path="url(#SVGID_90_)" fill="#FFFFFF" points="16.543,40.252 14.85,40.252 14.85,44.131 14.382,44.131 
			14.382,40.252 12.69,40.252 12.69,39.882 16.543,39.882 		"/>
	</g>
	<g>
		<defs>
			<rect id="SVGID_91_" x="-12.444" y="-29.25" width="118.944" height="106.429"/>
		</defs>
		<clipPath id="SVGID_92_">
			<use xlink:href="#SVGID_91_"  overflow="visible"/>
		</clipPath>
		<polygon clip-path="url(#SVGID_92_)" fill="#FFFFFF" points="20.998,39.882 20.998,44.131 20.537,44.131 20.537,42.143 
			17.72,42.143 17.72,44.131 17.251,44.131 17.251,39.882 17.72,39.882 17.72,41.772 20.537,41.772 20.537,39.882 		"/>
	</g>
	<g>
		<defs>
			<rect id="SVGID_93_" x="-12.444" y="-29.25" width="118.944" height="106.429"/>
		</defs>
		<clipPath id="SVGID_94_">
			<use xlink:href="#SVGID_93_"  overflow="visible"/>
		</clipPath>
		<polygon clip-path="url(#SVGID_94_)" fill="#FFFFFF" points="25.381,43.76 25.381,44.131 22.189,44.131 22.189,39.882 
			25.32,39.882 25.32,40.252 22.657,40.252 22.657,41.784 24.979,41.784 24.979,42.138 22.657,42.138 22.657,43.76 		"/>
	</g>
	<g>
		<defs>
			<rect id="SVGID_95_" x="-12.444" y="-29.25" width="118.944" height="106.429"/>
		</defs>
		<clipPath id="SVGID_96_">
			<use xlink:href="#SVGID_95_"  overflow="visible"/>
		</clipPath>
		<path clip-path="url(#SVGID_96_)" fill="#FFFFFF" d="M30.72,40.881c-0.044-0.042-0.11-0.092-0.194-0.14
			c-0.085-0.051-0.186-0.099-0.301-0.143c-0.117-0.043-0.24-0.08-0.375-0.106c-0.134-0.028-0.273-0.043-0.416-0.043
			c-0.312,0-0.544,0.052-0.695,0.154c-0.151,0.105-0.228,0.248-0.228,0.431c0,0.134,0.042,0.242,0.128,0.318
			c0.084,0.078,0.213,0.144,0.387,0.195c0.175,0.051,0.392,0.106,0.655,0.166c0.322,0.068,0.6,0.149,0.837,0.242
			c0.236,0.094,0.417,0.216,0.542,0.373c0.124,0.155,0.187,0.361,0.187,0.615c0,0.214-0.044,0.399-0.134,0.556
			c-0.088,0.154-0.213,0.28-0.374,0.377c-0.161,0.098-0.346,0.17-0.556,0.215c-0.209,0.045-0.435,0.069-0.676,0.069
			c-0.236,0-0.471-0.022-0.706-0.065c-0.234-0.046-0.457-0.109-0.669-0.194c-0.212-0.086-0.407-0.192-0.585-0.316l0.341-0.573
			c0.058,0.052,0.142,0.108,0.251,0.17c0.109,0.063,0.237,0.121,0.382,0.177c0.144,0.056,0.303,0.103,0.475,0.143
			c0.172,0.036,0.347,0.055,0.526,0.055c0.298,0,0.527-0.046,0.686-0.14c0.158-0.092,0.237-0.226,0.237-0.401
			c0-0.144-0.051-0.258-0.153-0.344c-0.103-0.086-0.252-0.158-0.448-0.217c-0.197-0.061-0.431-0.12-0.703-0.18
			c-0.312-0.074-0.573-0.158-0.783-0.247c-0.209-0.091-0.366-0.206-0.472-0.348c-0.104-0.14-0.157-0.32-0.157-0.541
			c0-0.277,0.076-0.513,0.228-0.705c0.151-0.196,0.358-0.338,0.619-0.436c0.26-0.101,0.555-0.147,0.88-0.147
			c0.214,0,0.417,0.021,0.609,0.063c0.192,0.041,0.371,0.099,0.539,0.17c0.167,0.073,0.32,0.152,0.458,0.246L30.72,40.881z"/>
	</g>
	<g>
		<defs>
			<rect id="SVGID_97_" x="-12.444" y="-29.25" width="118.944" height="106.429"/>
		</defs>
		<clipPath id="SVGID_98_">
			<use xlink:href="#SVGID_97_"  overflow="visible"/>
		</clipPath>
		<path clip-path="url(#SVGID_98_)" fill="#FFFFFF" d="M33.972,44.161c-0.345,0-0.653-0.06-0.931-0.181
			c-0.276-0.119-0.515-0.28-0.715-0.486c-0.201-0.206-0.356-0.438-0.465-0.695c-0.11-0.255-0.165-0.522-0.165-0.793
			c0-0.284,0.058-0.555,0.174-0.813c0.116-0.256,0.276-0.484,0.482-0.688c0.206-0.2,0.446-0.361,0.725-0.478
			c0.279-0.118,0.581-0.178,0.908-0.178c0.338,0,0.647,0.062,0.926,0.186s0.517,0.289,0.716,0.497
			c0.198,0.209,0.354,0.438,0.461,0.694c0.109,0.257,0.165,0.518,0.165,0.785c0,0.284-0.057,0.555-0.171,0.811
			c-0.114,0.258-0.274,0.489-0.479,0.688c-0.205,0.204-0.447,0.361-0.726,0.477C34.599,44.104,34.296,44.161,33.972,44.161
			 M32.458,42.006c0,0.2,0.037,0.394,0.107,0.58c0.072,0.188,0.173,0.355,0.305,0.501c0.132,0.146,0.291,0.261,0.478,0.344
			c0.188,0.084,0.397,0.125,0.629,0.125c0.241,0,0.456-0.042,0.643-0.131c0.188-0.088,0.345-0.206,0.471-0.355
			c0.128-0.15,0.225-0.317,0.292-0.503c0.067-0.188,0.102-0.371,0.102-0.561c0-0.201-0.035-0.392-0.104-0.578
			c-0.069-0.186-0.171-0.352-0.304-0.496c-0.133-0.146-0.294-0.261-0.479-0.343c-0.185-0.086-0.392-0.126-0.619-0.126
			c-0.24,0-0.455,0.042-0.642,0.131c-0.187,0.087-0.346,0.204-0.476,0.353c-0.128,0.147-0.228,0.313-0.297,0.497
			C32.494,41.627,32.458,41.815,32.458,42.006"/>
	</g>
	<g>
		<defs>
			<rect id="SVGID_99_" x="-12.444" y="-29.25" width="118.944" height="106.429"/>
		</defs>
		<clipPath id="SVGID_100_">
			<use xlink:href="#SVGID_99_"  overflow="visible"/>
		</clipPath>
		<path clip-path="url(#SVGID_100_)" fill="#FFFFFF" d="M36.729,41.97c0-0.259,0.05-0.514,0.153-0.762
			c0.102-0.25,0.253-0.479,0.451-0.684c0.198-0.205,0.441-0.369,0.727-0.49c0.285-0.123,0.608-0.184,0.971-0.184
			c0.427,0,0.796,0.088,1.109,0.26c0.312,0.174,0.544,0.396,0.696,0.668l-0.59,0.354c-0.088-0.172-0.202-0.308-0.337-0.406
			c-0.136-0.101-0.284-0.17-0.441-0.21c-0.159-0.04-0.314-0.061-0.466-0.061c-0.25,0-0.467,0.045-0.654,0.136
			c-0.188,0.089-0.345,0.207-0.471,0.355c-0.129,0.147-0.224,0.313-0.288,0.496c-0.066,0.185-0.099,0.367-0.099,0.552
			c0,0.204,0.038,0.399,0.114,0.59c0.074,0.189,0.181,0.357,0.317,0.503c0.135,0.146,0.298,0.261,0.485,0.344
			c0.187,0.084,0.393,0.125,0.615,0.125c0.153,0,0.31-0.023,0.476-0.072c0.165-0.047,0.316-0.121,0.458-0.224
			c0.141-0.1,0.251-0.236,0.333-0.404l0.623,0.317c-0.098,0.212-0.252,0.391-0.459,0.538c-0.207,0.148-0.44,0.262-0.695,0.336
			c-0.258,0.076-0.511,0.114-0.76,0.114c-0.334,0-0.64-0.063-0.917-0.188c-0.277-0.126-0.514-0.296-0.715-0.504
			c-0.201-0.209-0.357-0.444-0.469-0.706S36.729,42.238,36.729,41.97"/>
	</g>
	<g>
		<defs>
			<rect id="SVGID_101_" x="-12.444" y="-29.25" width="118.944" height="106.429"/>
		</defs>
		<clipPath id="SVGID_102_">
			<use xlink:href="#SVGID_101_"  overflow="visible"/>
		</clipPath>
		<rect x="41.606" y="39.882" clip-path="url(#SVGID_102_)" fill="#FFFFFF" width="0.749" height="4.249"/>
	</g>
	<g>
		<defs>
			<rect id="SVGID_103_" x="-12.444" y="-29.25" width="118.944" height="106.429"/>
		</defs>
		<clipPath id="SVGID_104_">
			<use xlink:href="#SVGID_103_"  overflow="visible"/>
		</clipPath>
		<path clip-path="url(#SVGID_104_)" fill="#FFFFFF" d="M44.797,39.882h0.71l1.846,4.249h-0.791l-0.464-1.155h-1.899l-0.466,1.155
			h-0.796L44.797,39.882z M45.899,42.48l-0.748-1.862L44.4,42.48H45.899z"/>
	</g>
	<g>
		<defs>
			<rect id="SVGID_105_" x="-12.444" y="-29.25" width="118.944" height="106.429"/>
		</defs>
		<clipPath id="SVGID_106_">
			<use xlink:href="#SVGID_105_"  overflow="visible"/>
		</clipPath>
		<polygon clip-path="url(#SVGID_106_)" fill="#FFFFFF" points="47.941,44.131 47.941,39.882 48.691,39.882 48.691,43.54 
			51.239,43.54 51.239,44.131 		"/>
	</g>
	<g>
		<defs>
			<rect id="SVGID_107_" x="-12.444" y="-29.25" width="118.944" height="106.429"/>
		</defs>
		<clipPath id="SVGID_108_">
			<use xlink:href="#SVGID_107_"  overflow="visible"/>
		</clipPath>
		<path clip-path="url(#SVGID_108_)" fill="#FFFFFF" d="M53.299,41.97c0-0.259,0.052-0.514,0.152-0.762
			c0.102-0.25,0.246-0.479,0.438-0.684c0.19-0.205,0.428-0.369,0.709-0.49c0.28-0.123,0.6-0.184,0.957-0.184
			c0.424,0,0.786,0.088,1.086,0.26c0.302,0.174,0.523,0.396,0.666,0.668l-0.369,0.205c-0.101-0.189-0.229-0.339-0.388-0.447
			c-0.155-0.109-0.321-0.188-0.499-0.237c-0.175-0.047-0.35-0.07-0.523-0.07c-0.285,0-0.538,0.051-0.756,0.152
			c-0.22,0.102-0.403,0.237-0.553,0.407c-0.15,0.17-0.263,0.357-0.339,0.568c-0.073,0.21-0.111,0.423-0.111,0.638
			c0,0.236,0.043,0.461,0.133,0.677c0.089,0.215,0.214,0.405,0.374,0.571c0.16,0.167,0.35,0.298,0.566,0.396
			c0.215,0.098,0.451,0.146,0.706,0.146c0.178,0,0.361-0.027,0.549-0.084c0.188-0.056,0.361-0.142,0.525-0.257
			c0.162-0.115,0.292-0.266,0.39-0.45l0.389,0.18c-0.098,0.212-0.251,0.391-0.455,0.538c-0.204,0.148-0.434,0.262-0.686,0.336
			c-0.252,0.076-0.498,0.114-0.74,0.114c-0.324,0-0.623-0.063-0.896-0.188c-0.27-0.126-0.507-0.296-0.705-0.504
			c-0.199-0.209-0.353-0.444-0.458-0.706C53.354,42.501,53.299,42.238,53.299,41.97"/>
	</g>
	<g>
		<defs>
			<rect id="SVGID_109_" x="-12.444" y="-29.25" width="118.944" height="106.429"/>
		</defs>
		<clipPath id="SVGID_110_">
			<use xlink:href="#SVGID_109_"  overflow="visible"/>
		</clipPath>
		<path clip-path="url(#SVGID_110_)" fill="#FFFFFF" d="M59.608,39.882h0.396l1.974,4.249h-0.494l-0.594-1.329h-2.172l-0.595,1.329
			h-0.501L59.608,39.882z M60.743,42.475l-0.94-2.103l-0.938,2.103H60.743z"/>
	</g>
	<g>
		<defs>
			<rect id="SVGID_111_" x="-12.444" y="-29.25" width="118.944" height="106.429"/>
		</defs>
		<clipPath id="SVGID_112_">
			<use xlink:href="#SVGID_111_"  overflow="visible"/>
		</clipPath>
		<polygon clip-path="url(#SVGID_112_)" fill="#FFFFFF" points="62.66,44.131 62.66,39.882 63.129,39.882 63.129,43.76 
			65.872,43.76 65.872,44.131 		"/>
	</g>
	<g>
		<defs>
			<rect id="SVGID_113_" x="-12.444" y="-29.25" width="118.944" height="106.429"/>
		</defs>
		<clipPath id="SVGID_114_">
			<use xlink:href="#SVGID_113_"  overflow="visible"/>
		</clipPath>
		<polygon clip-path="url(#SVGID_114_)" fill="#FFFFFF" points="66.563,44.131 66.563,39.882 67.03,39.882 67.03,43.76 
			69.772,43.76 69.772,44.131 		"/>
	</g>
	<g>
		<defs>
			<rect id="SVGID_115_" x="-12.444" y="-29.25" width="118.944" height="106.429"/>
		</defs>
		<clipPath id="SVGID_116_">
			<use xlink:href="#SVGID_115_"  overflow="visible"/>
		</clipPath>
		<rect x="70.462" y="39.882" clip-path="url(#SVGID_116_)" fill="#FFFFFF" width="0.469" height="4.249"/>
	</g>
	<g>
		<defs>
			<rect id="SVGID_117_" x="-12.444" y="-29.25" width="118.944" height="106.429"/>
		</defs>
		<clipPath id="SVGID_118_">
			<use xlink:href="#SVGID_117_"  overflow="visible"/>
		</clipPath>
		<polygon clip-path="url(#SVGID_118_)" fill="#FFFFFF" points="72.588,40.652 72.588,44.131 72.122,44.131 72.122,39.882 
			72.509,39.882 75.626,43.425 75.626,39.887 76.096,39.887 76.096,44.131 75.66,44.131 		"/>
	</g>
	<g>
		<defs>
			<rect id="SVGID_119_" x="-12.444" y="-29.25" width="118.944" height="106.429"/>
		</defs>
		<clipPath id="SVGID_120_">
			<use xlink:href="#SVGID_119_"  overflow="visible"/>
		</clipPath>
		<path clip-path="url(#SVGID_120_)" fill="#FFFFFF" d="M79.192,44.161c-0.316,0-0.611-0.062-0.883-0.183s-0.509-0.285-0.709-0.493
			s-0.355-0.44-0.465-0.695s-0.164-0.518-0.164-0.791c0-0.286,0.055-0.558,0.164-0.815c0.109-0.261,0.262-0.488,0.458-0.686
			c0.195-0.2,0.428-0.359,0.695-0.472c0.269-0.116,0.56-0.176,0.875-0.176c0.471,0,0.853,0.087,1.145,0.258
			c0.296,0.171,0.519,0.395,0.671,0.67l-0.361,0.216c-0.153-0.264-0.354-0.456-0.607-0.579c-0.257-0.124-0.538-0.187-0.852-0.187
			c-0.264,0-0.502,0.05-0.713,0.15c-0.213,0.099-0.393,0.232-0.544,0.399c-0.152,0.168-0.267,0.357-0.346,0.569
			c-0.078,0.211-0.117,0.43-0.117,0.658c0,0.239,0.044,0.468,0.135,0.682c0.089,0.212,0.215,0.4,0.38,0.567
			c0.166,0.166,0.357,0.295,0.571,0.388c0.217,0.094,0.45,0.142,0.7,0.142c0.291,0,0.564-0.065,0.823-0.194
			c0.258-0.13,0.506-0.33,0.743-0.602v0.442C80.34,43.917,79.809,44.161,79.192,44.161 M80.719,42.365h-1.056v-0.324h1.45v2.09
			h-0.395V42.365L80.719,42.365z"/>
	</g>
</g>
</svg>
