<?xml version="1.0" encoding="utf-8"?>
<!-- Generator: Adobe Illustrator 16.0.0, SVG Export Plug-In . SVG Version: 6.00 Build 0)  -->
<!DOCTYPE svg PUBLIC "-//W3C//DTD SVG 1.1//EN" "http://www.w3.org/Graphics/SVG/1.1/DTD/svg11.dtd">
<svg version="1.1" id="Layer_1" xmlns="http://www.w3.org/2000/svg" xmlns:xlink="http://www.w3.org/1999/xlink" x="0px" y="0px"
	 width="350px" height="160px" viewBox="0 0 350 160" enable-background="new 0 0 350 160" xml:space="preserve">
<g>
	<g>
		<defs>
			<rect id="SVGID_1_" x="-41.525" y="-109.121" width="431.525" height="386.123"/>
		</defs>
		<clipPath id="SVGID_2_">
			<use xlink:href="#SVGID_1_"  overflow="visible"/>
		</clipPath>
		<path clip-path="url(#SVGID_2_)" fill="#D41C5C" d="M110.986,125.678h-4.584c-10.083,0-18.286-7.337-18.286-16.357V48.6
			c0-6.361-5.782-11.537-12.892-11.537h-6.418c-10.081,0-18.286-7.338-18.286-16.361c0-9.022,8.205-16.363,18.286-16.363h42.307
			c6.121,0,11.808,2.721,15.211,7.279c0.831,1.108,0.497,2.607-0.742,3.349c-1.237,0.743-2.912,0.443-3.742-0.667
			c-2.4-3.215-6.412-5.133-10.727-5.133H68.806c-7.108,0-12.89,5.175-12.89,11.535c0,6.361,5.782,11.536,12.89,11.536h6.418
			c10.083,0,18.287,7.339,18.287,16.362v60.72c0,6.357,5.782,11.531,12.89,11.531h4.584c2.805,0,5.472-0.793,7.711-2.287
			c1.194-0.801,2.883-0.58,3.773,0.486c0.893,1.07,0.648,2.58-0.543,3.381C118.748,124.557,114.967,125.678,110.986,125.678"/>
	</g>
	<g>
		<defs>
			<rect id="SVGID_3_" x="-41.525" y="-109.121" width="431.525" height="386.123"/>
		</defs>
		<clipPath id="SVGID_4_">
			<use xlink:href="#SVGID_3_"  overflow="visible"/>
		</clipPath>
		<path clip-path="url(#SVGID_4_)" fill="#D41C5C" d="M174.574,97.615c-5.246,0-10.533-0.694-15.712-2.066
			c-5.047-1.34-9.701-2.869-13.83-4.548c-0.589-0.24-1.193-0.492-1.804-0.755c-1.342-0.574-1.909-2.014-1.267-3.215
			c0.642-1.205,2.253-1.715,3.597-1.139c0.578,0.248,1.145,0.483,1.706,0.713c3.903,1.59,8.321,3.041,13.131,4.315
			c4.683,1.241,9.451,1.871,14.179,1.871c4.576,0,6.203-0.659,6.695-0.944c0.98-0.57,1.063-1.07,1.063-1.498
			c0-0.912-0.295-2.092-2.581-3.156c-2.521-1.166-5.913-2.32-10.065-3.41c-4.365-1.146-9.231-2.494-14.465-4.01
			c-7.8-2.348-14.302-5.045-19.359-8.023c-5.254-3.09-9.203-6.844-11.728-11.162c-2.515-4.294-3.792-9.521-3.792-15.543
			c0-9.05,2.448-16.752,7.278-22.898c4.779-6.086,11.165-10.775,18.977-13.931c7.713-3.115,16.139-4.697,25.041-4.697
			c6.552,0,12.981,0.716,19.105,2.128c6.044,1.395,11.785,3.118,17.068,5.119l0.539,0.205c1.371,0.518,2.016,1.936,1.432,3.163
			c-0.581,1.227-2.17,1.8-3.536,1.279l-0.541-0.204c-5.036-1.908-10.524-3.553-16.304-4.888c-5.689-1.31-11.663-1.975-17.764-1.975
			c-8.13,0-15.81,1.437-22.822,4.267c-6.92,2.797-12.563,6.938-16.782,12.309c-4.177,5.317-6.295,12.086-6.295,20.123
			c0,5.231,1.068,9.707,3.176,13.301c2.097,3.584,5.431,6.737,9.914,9.371c4.67,2.754,10.755,5.264,18.083,7.473
			c5.157,1.494,9.979,2.83,14.296,3.962c4.491,1.181,8.196,2.445,11.03,3.758c4.537,2.111,5.486,5.211,5.486,7.439
			c0,1.601-0.611,3.858-3.517,5.549C182.18,97.075,179.121,97.615,174.574,97.615"/>
	</g>
	<g>
		<defs>
			<rect id="SVGID_5_" x="-41.525" y="-109.121" width="431.525" height="386.123"/>
		</defs>
		<clipPath id="SVGID_6_">
			<use xlink:href="#SVGID_5_"  overflow="visible"/>
		</clipPath>
		<path clip-path="url(#SVGID_6_)" fill="#D41C5C" d="M174.025,126.502c-6.371,0-13.11-0.594-20.034-1.77
			c-6.906-1.168-13.677-2.801-20.121-4.854c-1.541-0.491-3.065-1.009-4.522-1.53c-1.383-0.498-2.052-1.908-1.497-3.141
			c0.556-1.234,2.126-1.835,3.509-1.338c1.391,0.498,2.845,0.992,4.321,1.461c6.181,1.971,12.679,3.539,19.313,4.664
			c6.592,1.111,12.997,1.679,19.031,1.679c5.868,0,11.7-0.606,17.35-1.804c5.533-1.174,10.609-3.116,15.09-5.764
			c4.367-2.582,7.893-6.088,10.484-10.424c2.584-4.343,3.898-9.844,3.898-16.345c0-6.759-1.464-12.199-4.339-16.17
			c-2.916-4.024-7.151-7.39-12.582-10c-5.677-2.727-12.543-5.182-20.409-7.295c-5-1.406-9.338-2.607-12.933-3.579
			c-3.909-1.056-6.882-2.223-9.085-3.57c-2.688-1.637-4.11-3.958-4.11-6.708c0-2.959,1.577-5.287,4.435-6.553
			c2.323-1.031,5.257-1.553,8.715-1.553c4.152,0,8.428,0.587,12.702,1.745c4.121,1.119,7.994,2.396,11.507,3.798
			c1.356,0.542,2.021,1.984,1.418,3.201c-0.601,1.216-2.14,1.789-3.498,1.253c-0.012-0.003-0.074-0.029-0.084-0.034
			c-3.342-1.333-7-2.539-10.905-3.598c-3.765-1.021-7.516-1.54-11.14-1.54c-2.621,0-4.746,0.355-6.32,1.052
			c-0.863,0.383-1.436,0.907-1.436,2.229c0,1.142,0.542,1.979,1.756,2.719c1.721,1.053,4.277,2.04,7.606,2.939
			c3.611,0.977,7.974,2.183,12.959,3.586c8.176,2.196,15.381,4.778,21.375,7.656c6.244,3,11.145,6.911,14.558,11.628
			c3.452,4.765,5.202,11.09,5.202,18.794c0,7.308-1.524,13.565-4.536,18.616c-3.015,5.053-7.144,9.15-12.265,12.178
			c-5.008,2.961-10.666,5.13-16.814,6.434C186.559,125.852,180.307,126.502,174.025,126.502"/>
	</g>
	<g>
		<defs>
			<rect id="SVGID_7_" x="-41.525" y="-109.121" width="431.525" height="386.123"/>
		</defs>
		<clipPath id="SVGID_8_">
			<use xlink:href="#SVGID_7_"  overflow="visible"/>
		</clipPath>
		<path clip-path="url(#SVGID_8_)" fill="#D41C5C" d="M246.994,126.502c-10.023,0-19.336-1.82-27.672-5.414
			c-1.344-0.576-1.907-2.018-1.262-3.217c0.646-1.198,2.26-1.708,3.602-1.128c7.6,3.271,16.124,4.934,25.332,4.934
			c7.146,0,14.463-1.043,21.746-3.094c7.251-2.037,13.826-5.032,19.542-8.896l0.163-0.105c3.218-2.199,4.927-5.544,4.695-9.195
			c-0.234-3.693-2.484-7.029-6.022-8.921l-3.007-1.608c-4.622-2.467-10.551-1.988-14.42,1.164c-0.262,0.213-0.529,0.424-0.803,0.627
			c-3.086,2.277-6.543,3.949-10.297,4.967c-3.658,0.992-7.314,1.498-10.867,1.498c-5.041,0-9.664-0.913-13.752-2.709
			c-1.334-0.588-1.888-2.037-1.229-3.23c0.659-1.191,2.269-1.691,3.608-1.101c3.344,1.468,7.166,2.212,11.373,2.212
			c3.021,0,6.151-0.436,9.305-1.292c3.063-0.829,5.896-2.198,8.42-4.062c0.201-0.154,0.404-0.312,0.604-0.473
			c5.62-4.581,14.184-5.294,20.824-1.743l3.007,1.609c5.074,2.713,8.31,7.493,8.642,12.791c0.328,5.194-2.215,10.166-6.803,13.299
			l-0.188,0.128c-6.209,4.193-13.33,7.441-21.177,9.645C262.549,125.389,254.689,126.502,246.994,126.502 M219.574,56.428
			c-0.247,0-0.496-0.032-0.742-0.093c-1.434-0.37-2.259-1.708-1.85-2.986c1.24-3.86,3.162-7.425,5.726-10.593
			c2.61-3.239,6.003-5.88,10.071-7.849c4.106-1.991,9.015-2.999,14.584-2.999c3.51,0,7.17,0.44,10.859,1.309
			c3.818,0.899,7.41,2.505,10.688,4.777c0.286,0.199,0.565,0.404,0.841,0.617c4.171,3.223,10.316,3.412,14.952,0.461l2.338-1.491
			c3.144-2,5.028-5.125,5.174-8.57c0.147-3.451-1.471-6.694-4.438-8.901c-2.5-1.857-5.311-3.573-8.357-5.1
			c-8.843-4.423-19.382-6.666-31.324-6.666c-9.959,0-18.996,1.612-26.859,4.791c-1.358,0.549-2.957,0.008-3.568-1.205
			c-0.611-1.216-0.01-2.646,1.348-3.193c8.564-3.464,18.349-5.221,29.08-5.221c12.875,0,24.297,2.45,33.961,7.281
			c3.33,1.672,6.418,3.555,9.168,5.601c4.267,3.172,6.59,7.834,6.385,12.792c-0.207,4.956-2.92,9.449-7.435,12.325l-2.345,1.489
			c-6.662,4.244-15.548,3.938-21.604-0.743c-0.205-0.156-0.41-0.307-0.625-0.451c-2.695-1.875-5.643-3.193-8.75-3.925
			c-3.246-0.764-6.438-1.152-9.488-1.152c-4.662,0-8.704,0.813-12.016,2.418c-3.354,1.622-6.132,3.784-8.27,6.43
			c-2.189,2.715-3.846,5.775-4.909,9.099C221.827,55.739,220.75,56.428,219.574,56.428"/>
	</g>
	<g>
		<defs>
			<rect id="SVGID_9_" x="-41.525" y="-109.121" width="431.525" height="386.123"/>
		</defs>
		<clipPath id="SVGID_10_">
			<use xlink:href="#SVGID_9_"  overflow="visible"/>
		</clipPath>
		<polygon clip-path="url(#SVGID_10_)" fill="#333333" points="63.639,143.03 57.498,143.03 57.498,157.102 55.798,157.102 
			55.798,143.03 49.657,143.03 49.657,141.686 63.639,141.686 		"/>
	</g>
	<g>
		<defs>
			<rect id="SVGID_11_" x="-41.525" y="-109.121" width="431.525" height="386.123"/>
		</defs>
		<clipPath id="SVGID_12_">
			<use xlink:href="#SVGID_11_"  overflow="visible"/>
		</clipPath>
		<polygon clip-path="url(#SVGID_12_)" fill="#333333" points="79.803,141.686 79.803,157.102 78.128,157.102 78.128,149.893 
			67.908,149.893 67.908,157.102 66.21,157.102 66.21,141.686 67.908,141.686 67.908,148.546 78.128,148.546 78.128,141.686 		"/>
	</g>
	<g>
		<defs>
			<rect id="SVGID_13_" x="-41.525" y="-109.121" width="431.525" height="386.123"/>
		</defs>
		<clipPath id="SVGID_14_">
			<use xlink:href="#SVGID_13_"  overflow="visible"/>
		</clipPath>
		<polygon clip-path="url(#SVGID_14_)" fill="#333333" points="95.702,155.759 95.702,157.102 84.125,157.102 84.125,141.686 
			95.481,141.686 95.481,143.03 85.822,143.03 85.822,148.589 94.246,148.589 94.246,149.873 85.822,149.873 85.822,155.759 		"/>
	</g>
	<g>
		<defs>
			<rect id="SVGID_15_" x="-41.525" y="-109.121" width="431.525" height="386.123"/>
		</defs>
		<clipPath id="SVGID_16_">
			<use xlink:href="#SVGID_15_"  overflow="visible"/>
		</clipPath>
		<path clip-path="url(#SVGID_16_)" fill="#333333" d="M115.073,145.313c-0.162-0.156-0.399-0.332-0.705-0.511
			c-0.307-0.182-0.672-0.352-1.092-0.512c-0.423-0.157-0.873-0.29-1.359-0.39c-0.486-0.104-0.99-0.155-1.507-0.155
			c-1.132,0-1.974,0.188-2.523,0.563c-0.549,0.377-0.825,0.898-0.825,1.563c0,0.484,0.152,0.877,0.461,1.154
			c0.308,0.283,0.777,0.519,1.407,0.705c0.633,0.188,1.423,0.389,2.379,0.606c1.165,0.246,2.175,0.536,3.033,0.875
			c0.859,0.343,1.513,0.789,1.968,1.353c0.451,0.565,0.677,1.31,0.677,2.23c0,0.781-0.162,1.455-0.485,2.016
			c-0.324,0.563-0.776,1.022-1.358,1.373c-0.583,0.355-1.255,0.615-2.014,0.779c-0.762,0.163-1.581,0.251-2.452,0.251
			c-0.858,0-1.711-0.081-2.561-0.241c-0.85-0.158-1.659-0.392-2.429-0.703c-0.768-0.31-1.476-0.692-2.123-1.144l1.238-2.083
			c0.211,0.186,0.516,0.396,0.91,0.619c0.397,0.227,0.859,0.438,1.384,0.64c0.525,0.203,1.1,0.375,1.722,0.515
			c0.624,0.134,1.258,0.203,1.91,0.203c1.082,0,1.91-0.17,2.486-0.51c0.574-0.335,0.86-0.82,0.86-1.455
			c0-0.52-0.186-0.936-0.556-1.248c-0.375-0.311-0.916-0.569-1.628-0.789c-0.713-0.219-1.562-0.433-2.548-0.649
			c-1.132-0.272-2.08-0.571-2.84-0.897c-0.762-0.326-1.332-0.744-1.711-1.258c-0.381-0.51-0.573-1.164-0.573-1.959
			c0-1.008,0.276-1.865,0.827-2.566c0.55-0.703,1.299-1.229,2.244-1.582c0.947-0.354,2.013-0.529,3.193-0.529
			c0.778,0,1.514,0.076,2.21,0.229c0.696,0.148,1.346,0.357,1.953,0.619c0.609,0.26,1.161,0.555,1.665,0.889L115.073,145.313z"/>
	</g>
	<g>
		<defs>
			<rect id="SVGID_17_" x="-41.525" y="-109.121" width="431.525" height="386.123"/>
		</defs>
		<clipPath id="SVGID_18_">
			<use xlink:href="#SVGID_17_"  overflow="visible"/>
		</clipPath>
		<path clip-path="url(#SVGID_18_)" fill="#333333" d="M126.87,157.215c-1.249,0-2.371-0.218-3.376-0.652
			c-1.002-0.437-1.87-1.023-2.596-1.771c-0.729-0.744-1.292-1.585-1.687-2.52c-0.399-0.931-0.594-1.894-0.594-2.873
			c0-1.03,0.208-2.016,0.63-2.947c0.421-0.932,1.004-1.766,1.749-2.497c0.747-0.729,1.62-1.313,2.632-1.736
			c1.011-0.428,2.108-0.642,3.291-0.642c1.23,0,2.351,0.224,3.361,0.673c1.011,0.448,1.876,1.05,2.597,1.803
			c0.721,0.757,1.281,1.593,1.673,2.52c0.398,0.93,0.597,1.877,0.597,2.849c0,1.027-0.207,2.008-0.62,2.939
			c-0.413,0.938-0.991,1.771-1.735,2.496c-0.745,0.734-1.622,1.308-2.633,1.73C129.146,157.006,128.048,157.215,126.87,157.215
			 M121.382,149.396c0,0.722,0.132,1.424,0.389,2.103c0.258,0.681,0.626,1.288,1.106,1.817c0.478,0.528,1.053,0.943,1.734,1.248
			c0.681,0.304,1.44,0.455,2.282,0.455c0.875,0,1.649-0.155,2.331-0.479c0.681-0.315,1.25-0.747,1.709-1.29
			c0.462-0.544,0.816-1.15,1.056-1.824c0.247-0.676,0.366-1.348,0.366-2.027c0-0.729-0.125-1.428-0.377-2.102
			c-0.249-0.672-0.619-1.273-1.101-1.799c-0.488-0.529-1.068-0.947-1.737-1.25c-0.671-0.307-1.421-0.455-2.247-0.455
			c-0.873,0-1.651,0.158-2.329,0.477c-0.68,0.319-1.257,0.746-1.727,1.28c-0.466,0.536-0.828,1.136-1.078,1.804
			C121.509,148.02,121.382,148.701,121.382,149.396"/>
	</g>
	<g>
		<defs>
			<rect id="SVGID_19_" x="-41.525" y="-109.121" width="431.525" height="386.123"/>
		</defs>
		<clipPath id="SVGID_20_">
			<use xlink:href="#SVGID_19_"  overflow="visible"/>
		</clipPath>
		<path clip-path="url(#SVGID_20_)" fill="#333333" d="M136.869,149.264c0-0.94,0.188-1.863,0.56-2.767
			c0.37-0.907,0.917-1.731,1.638-2.479c0.72-0.742,1.599-1.336,2.633-1.778c1.035-0.443,2.209-0.663,3.521-0.663
			c1.553,0,2.895,0.316,4.027,0.941c1.135,0.633,1.975,1.438,2.527,2.426l-2.139,1.281c-0.322-0.625-0.732-1.115-1.224-1.477
			c-0.493-0.361-1.029-0.615-1.601-0.759c-0.574-0.146-1.138-0.22-1.689-0.22c-0.908,0-1.697,0.16-2.378,0.488
			c-0.679,0.326-1.25,0.756-1.71,1.291c-0.463,0.536-0.809,1.137-1.043,1.803c-0.238,0.666-0.354,1.33-0.354,2
			c0,0.737,0.136,1.45,0.414,2.14c0.272,0.688,0.657,1.296,1.151,1.825c0.492,0.528,1.081,0.943,1.76,1.248
			c0.678,0.304,1.424,0.455,2.231,0.455c0.551,0,1.126-0.088,1.726-0.261c0.596-0.178,1.149-0.444,1.662-0.815
			c0.509-0.366,0.909-0.854,1.203-1.467l2.256,1.152c-0.354,0.768-0.912,1.418-1.663,1.957c-0.752,0.535-1.594,0.941-2.523,1.213
			c-0.932,0.276-1.851,0.415-2.757,0.415c-1.212,0-2.322-0.231-3.328-0.687c-1.001-0.455-1.867-1.066-2.595-1.823
			c-0.728-0.761-1.294-1.612-1.7-2.563C137.071,151.191,136.869,150.234,136.869,149.264"/>
	</g>
	<g>
		<defs>
			<rect id="SVGID_21_" x="-41.525" y="-109.121" width="431.525" height="386.123"/>
		</defs>
		<clipPath id="SVGID_22_">
			<use xlink:href="#SVGID_21_"  overflow="visible"/>
		</clipPath>
		<rect x="154.564" y="141.686" clip-path="url(#SVGID_22_)" fill="#333333" width="2.718" height="15.416"/>
	</g>
	<g>
		<defs>
			<rect id="SVGID_23_" x="-41.525" y="-109.121" width="431.525" height="386.123"/>
		</defs>
		<clipPath id="SVGID_24_">
			<use xlink:href="#SVGID_23_"  overflow="visible"/>
		</clipPath>
		<path clip-path="url(#SVGID_24_)" fill="#333333" d="M166.144,141.686h2.573l6.698,15.416h-2.867l-1.683-4.188h-6.891
			l-1.691,4.188h-2.889L166.144,141.686z M170.143,151.111l-2.713-6.754l-2.726,6.754H170.143z"/>
	</g>
	<g>
		<defs>
			<rect id="SVGID_25_" x="-41.525" y="-109.121" width="431.525" height="386.123"/>
		</defs>
		<clipPath id="SVGID_26_">
			<use xlink:href="#SVGID_25_"  overflow="visible"/>
		</clipPath>
		<polygon clip-path="url(#SVGID_26_)" fill="#333333" points="177.55,157.102 177.55,141.686 180.27,141.686 180.27,154.957 
			189.518,154.957 189.518,157.102 		"/>
	</g>
	<g>
		<defs>
			<rect id="SVGID_27_" x="-41.525" y="-109.121" width="431.525" height="386.123"/>
		</defs>
		<clipPath id="SVGID_28_">
			<use xlink:href="#SVGID_27_"  overflow="visible"/>
		</clipPath>
		<path clip-path="url(#SVGID_28_)" fill="#333333" d="M196.994,149.264c0-0.94,0.178-1.863,0.546-2.767
			c0.364-0.907,0.894-1.731,1.589-2.479c0.695-0.742,1.555-1.336,2.571-1.778c1.021-0.443,2.18-0.663,3.475-0.663
			c1.539,0,2.851,0.316,3.943,0.941c1.094,0.633,1.896,1.438,2.417,2.426l-1.34,0.742c-0.371-0.686-0.838-1.226-1.404-1.623
			c-0.568-0.396-1.17-0.687-1.811-0.859c-0.64-0.172-1.274-0.256-1.906-0.256c-1.034,0-1.95,0.185-2.742,0.55
			c-0.795,0.373-1.462,0.862-2.002,1.478c-0.543,0.616-0.952,1.303-1.227,2.063c-0.273,0.761-0.41,1.535-0.41,2.316
			c0,0.853,0.162,1.67,0.486,2.453c0.32,0.779,0.773,1.471,1.356,2.072c0.582,0.602,1.266,1.08,2.05,1.436
			c0.784,0.356,1.641,0.529,2.566,0.529c0.641,0,1.309-0.1,1.988-0.304c0.676-0.203,1.312-0.515,1.906-0.933
			c0.588-0.418,1.061-0.961,1.416-1.631l1.407,0.652c-0.354,0.768-0.91,1.418-1.651,1.957c-0.742,0.535-1.574,0.941-2.486,1.213
			c-0.912,0.276-1.809,0.415-2.683,0.415c-1.18,0-2.267-0.231-3.253-0.686c-0.982-0.456-1.84-1.067-2.559-1.824
			c-0.723-0.761-1.278-1.612-1.663-2.563C197.189,151.191,196.994,150.234,196.994,149.264"/>
	</g>
	<g>
		<defs>
			<rect id="SVGID_29_" x="-41.525" y="-109.121" width="431.525" height="386.123"/>
		</defs>
		<clipPath id="SVGID_30_">
			<use xlink:href="#SVGID_29_"  overflow="visible"/>
		</clipPath>
		<path clip-path="url(#SVGID_30_)" fill="#333333" d="M219.884,141.686h1.433l7.16,15.416h-1.795l-2.154-4.817h-7.877l-2.155,4.817
			h-1.82L219.884,141.686z M223.994,151.09l-3.407-7.625l-3.405,7.625H223.994z"/>
	</g>
	<g>
		<defs>
			<rect id="SVGID_31_" x="-41.525" y="-109.121" width="431.525" height="386.123"/>
		</defs>
		<clipPath id="SVGID_32_">
			<use xlink:href="#SVGID_31_"  overflow="visible"/>
		</clipPath>
		<polygon clip-path="url(#SVGID_32_)" fill="#333333" points="230.953,157.102 230.953,141.686 232.65,141.686 232.65,155.759 
			242.602,155.759 242.602,157.102 		"/>
	</g>
	<g>
		<defs>
			<rect id="SVGID_33_" x="-41.525" y="-109.121" width="431.525" height="386.123"/>
		</defs>
		<clipPath id="SVGID_34_">
			<use xlink:href="#SVGID_33_"  overflow="visible"/>
		</clipPath>
		<polygon clip-path="url(#SVGID_34_)" fill="#333333" points="245.104,157.102 245.104,141.686 246.805,141.686 246.805,155.759 
			256.754,155.759 256.754,157.102 		"/>
	</g>
	<g>
		<defs>
			<rect id="SVGID_35_" x="-41.525" y="-109.121" width="431.525" height="386.123"/>
		</defs>
		<clipPath id="SVGID_36_">
			<use xlink:href="#SVGID_35_"  overflow="visible"/>
		</clipPath>
		<rect x="259.256" y="141.686" clip-path="url(#SVGID_36_)" fill="#333333" width="1.7" height="15.416"/>
	</g>
	<g>
		<defs>
			<rect id="SVGID_37_" x="-41.525" y="-109.121" width="431.525" height="386.123"/>
		</defs>
		<clipPath id="SVGID_38_">
			<use xlink:href="#SVGID_37_"  overflow="visible"/>
		</clipPath>
		<polygon clip-path="url(#SVGID_38_)" fill="#333333" points="266.971,144.486 266.971,157.102 265.275,157.102 265.275,141.686 
			266.682,141.686 277.992,154.54 277.992,141.707 279.691,141.707 279.691,157.102 278.115,157.102 		"/>
	</g>
	<g>
		<defs>
			<rect id="SVGID_39_" x="-41.525" y="-109.121" width="431.525" height="386.123"/>
		</defs>
		<clipPath id="SVGID_40_">
			<use xlink:href="#SVGID_39_"  overflow="visible"/>
		</clipPath>
		<path clip-path="url(#SVGID_40_)" fill="#333333" d="M290.932,157.215c-1.152,0-2.221-0.222-3.207-0.663
			c-0.985-0.438-1.843-1.04-2.572-1.792c-0.727-0.755-1.288-1.594-1.687-2.521c-0.396-0.927-0.592-1.882-0.592-2.868
			c0-1.042,0.196-2.028,0.592-2.963c0.397-0.938,0.952-1.766,1.66-2.485c0.712-0.725,1.558-1.299,2.528-1.715
			c0.97-0.42,2.029-0.633,3.176-0.633c1.704,0,3.087,0.313,4.152,0.934c1.068,0.623,1.879,1.433,2.43,2.435l-1.313,0.781
			c-0.551-0.955-1.285-1.66-2.205-2.106c-0.928-0.448-1.949-0.671-3.086-0.671c-0.957,0-1.819,0.176-2.588,0.543
			c-0.768,0.357-1.426,0.844-1.977,1.453c-0.549,0.606-0.967,1.295-1.249,2.063c-0.283,0.768-0.429,1.565-0.429,2.393
			c0,0.865,0.164,1.688,0.492,2.466c0.319,0.772,0.777,1.457,1.379,2.06c0.599,0.604,1.295,1.07,2.071,1.409
			c0.788,0.344,1.636,0.513,2.543,0.513c1.05,0,2.044-0.236,2.983-0.705c0.938-0.469,1.836-1.197,2.695-2.183v1.606
			C295.092,156.328,293.165,157.215,290.932,157.215 M296.463,150.7h-3.83v-1.177h5.268v7.578h-1.438V150.7L296.463,150.7z"/>
	</g>
	<g>
		<defs>
			<rect id="SVGID_41_" x="-41.525" y="-109.121" width="431.525" height="386.123"/>
		</defs>
		<clipPath id="SVGID_42_">
			<use xlink:href="#SVGID_41_"  overflow="visible"/>
		</clipPath>
		<path clip-path="url(#SVGID_42_)" fill="#FFFFFF" d="M110.986,125.678h-4.584c-10.083,0-18.286-7.337-18.286-16.357V48.6
			c0-6.361-5.782-11.537-12.892-11.537h-6.418c-10.081,0-18.286-7.338-18.286-16.361c0-9.022,8.205-16.363,18.286-16.363h42.307
			c6.121,0,11.808,2.721,15.211,7.279c0.831,1.108,0.497,2.607-0.742,3.349c-1.237,0.743-2.912,0.443-3.742-0.667
			c-2.4-3.215-6.412-5.133-10.727-5.133H68.806c-7.108,0-12.89,5.175-12.89,11.535c0,6.361,5.782,11.536,12.89,11.536h6.418
			c10.083,0,18.287,7.339,18.287,16.362v60.72c0,6.357,5.782,11.531,12.89,11.531h4.584c2.805,0,5.472-0.793,7.711-2.287
			c1.194-0.801,2.883-0.58,3.773,0.486c0.893,1.07,0.648,2.58-0.543,3.381C118.748,124.557,114.967,125.678,110.986,125.678"/>
	</g>
	<g>
		<defs>
			<rect id="SVGID_43_" x="-41.525" y="-109.121" width="431.525" height="386.123"/>
		</defs>
		<clipPath id="SVGID_44_">
			<use xlink:href="#SVGID_43_"  overflow="visible"/>
		</clipPath>
		<path clip-path="url(#SVGID_44_)" fill="#FFFFFF" d="M174.574,97.615c-5.246,0-10.533-0.694-15.712-2.066
			c-5.047-1.34-9.701-2.869-13.83-4.548c-0.589-0.24-1.193-0.492-1.804-0.755c-1.342-0.574-1.909-2.014-1.267-3.215
			c0.642-1.205,2.253-1.715,3.597-1.139c0.578,0.248,1.145,0.483,1.706,0.713c3.903,1.59,8.321,3.041,13.131,4.315
			c4.683,1.241,9.451,1.871,14.179,1.871c4.576,0,6.203-0.659,6.695-0.944c0.98-0.57,1.063-1.07,1.063-1.498
			c0-0.912-0.295-2.092-2.581-3.156c-2.521-1.166-5.913-2.32-10.065-3.41c-4.365-1.146-9.231-2.494-14.465-4.01
			c-7.8-2.348-14.302-5.045-19.359-8.023c-5.254-3.09-9.203-6.844-11.728-11.162c-2.515-4.294-3.792-9.521-3.792-15.543
			c0-9.05,2.448-16.752,7.278-22.898c4.779-6.086,11.165-10.775,18.977-13.931c7.713-3.115,16.139-4.697,25.041-4.697
			c6.552,0,12.981,0.716,19.105,2.128c6.044,1.395,11.785,3.118,17.068,5.119l0.539,0.205c1.371,0.518,2.016,1.936,1.432,3.163
			c-0.581,1.227-2.17,1.8-3.536,1.279l-0.541-0.204c-5.036-1.908-10.524-3.553-16.304-4.888c-5.689-1.31-11.663-1.975-17.764-1.975
			c-8.13,0-15.81,1.437-22.822,4.267c-6.92,2.797-12.563,6.938-16.782,12.309c-4.177,5.317-6.295,12.086-6.295,20.123
			c0,5.231,1.068,9.707,3.176,13.301c2.097,3.584,5.431,6.737,9.914,9.371c4.67,2.754,10.755,5.264,18.083,7.473
			c5.157,1.494,9.979,2.83,14.296,3.962c4.491,1.181,8.196,2.445,11.03,3.758c4.537,2.111,5.486,5.211,5.486,7.439
			c0,1.601-0.611,3.858-3.517,5.549C182.18,97.075,179.121,97.615,174.574,97.615"/>
	</g>
	<g>
		<defs>
			<rect id="SVGID_45_" x="-41.525" y="-109.121" width="431.525" height="386.123"/>
		</defs>
		<clipPath id="SVGID_46_">
			<use xlink:href="#SVGID_45_"  overflow="visible"/>
		</clipPath>
		<path clip-path="url(#SVGID_46_)" fill="#FFFFFF" d="M174.025,126.502c-6.371,0-13.11-0.594-20.034-1.77
			c-6.906-1.168-13.677-2.801-20.121-4.854c-1.541-0.491-3.065-1.009-4.522-1.53c-1.383-0.498-2.052-1.908-1.497-3.141
			c0.556-1.234,2.126-1.835,3.509-1.338c1.391,0.498,2.845,0.992,4.321,1.461c6.181,1.971,12.679,3.539,19.313,4.664
			c6.592,1.111,12.997,1.679,19.031,1.679c5.868,0,11.7-0.606,17.35-1.804c5.533-1.174,10.609-3.116,15.09-5.764
			c4.367-2.582,7.893-6.088,10.484-10.424c2.584-4.343,3.898-9.844,3.898-16.345c0-6.759-1.464-12.199-4.339-16.17
			c-2.916-4.024-7.151-7.39-12.582-10c-5.677-2.727-12.543-5.182-20.409-7.295c-5-1.406-9.338-2.607-12.933-3.579
			c-3.909-1.056-6.882-2.223-9.085-3.57c-2.688-1.637-4.11-3.958-4.11-6.708c0-2.959,1.577-5.287,4.435-6.553
			c2.323-1.031,5.257-1.553,8.715-1.553c4.152,0,8.428,0.587,12.702,1.745c4.121,1.119,7.994,2.396,11.507,3.798
			c1.356,0.542,2.021,1.984,1.418,3.201c-0.601,1.216-2.14,1.789-3.498,1.253c-0.012-0.003-0.074-0.029-0.084-0.034
			c-3.342-1.333-7-2.539-10.905-3.598c-3.765-1.021-7.516-1.54-11.14-1.54c-2.621,0-4.746,0.355-6.32,1.052
			c-0.863,0.383-1.436,0.907-1.436,2.229c0,1.142,0.542,1.979,1.756,2.719c1.721,1.053,4.277,2.04,7.606,2.939
			c3.611,0.977,7.974,2.183,12.959,3.586c8.176,2.196,15.381,4.778,21.375,7.656c6.244,3,11.145,6.911,14.558,11.628
			c3.452,4.765,5.202,11.09,5.202,18.794c0,7.308-1.524,13.565-4.536,18.616c-3.015,5.053-7.144,9.15-12.265,12.178
			c-5.008,2.961-10.666,5.13-16.814,6.434C186.559,125.852,180.307,126.502,174.025,126.502"/>
	</g>
	<g>
		<defs>
			<rect id="SVGID_47_" x="-41.525" y="-109.121" width="431.525" height="386.123"/>
		</defs>
		<clipPath id="SVGID_48_">
			<use xlink:href="#SVGID_47_"  overflow="visible"/>
		</clipPath>
		<path clip-path="url(#SVGID_48_)" fill="#FFFFFF" d="M246.994,126.502c-10.023,0-19.336-1.82-27.672-5.414
			c-1.344-0.576-1.907-2.018-1.262-3.217c0.646-1.198,2.26-1.708,3.602-1.128c7.6,3.271,16.124,4.934,25.332,4.934
			c7.146,0,14.463-1.043,21.746-3.094c7.251-2.037,13.826-5.032,19.542-8.896l0.163-0.105c3.218-2.199,4.927-5.544,4.695-9.195
			c-0.234-3.693-2.484-7.029-6.022-8.921l-3.007-1.608c-4.622-2.467-10.551-1.988-14.42,1.164c-0.262,0.213-0.529,0.424-0.803,0.627
			c-3.086,2.277-6.543,3.949-10.297,4.967c-3.658,0.992-7.314,1.498-10.867,1.498c-5.041,0-9.664-0.913-13.752-2.709
			c-1.334-0.588-1.888-2.037-1.229-3.23c0.659-1.191,2.269-1.691,3.608-1.101c3.344,1.468,7.166,2.212,11.373,2.212
			c3.021,0,6.151-0.436,9.305-1.292c3.063-0.829,5.896-2.198,8.42-4.062c0.201-0.154,0.404-0.312,0.604-0.473
			c5.62-4.581,14.184-5.294,20.824-1.743l3.007,1.609c5.074,2.713,8.31,7.493,8.642,12.791c0.328,5.194-2.215,10.166-6.803,13.299
			l-0.188,0.128c-6.209,4.193-13.33,7.441-21.177,9.645C262.549,125.389,254.689,126.502,246.994,126.502 M219.574,56.428
			c-0.247,0-0.496-0.032-0.742-0.093c-1.434-0.37-2.259-1.708-1.85-2.986c1.24-3.86,3.162-7.425,5.726-10.593
			c2.61-3.239,6.003-5.88,10.071-7.849c4.106-1.991,9.015-2.999,14.584-2.999c3.51,0,7.17,0.44,10.859,1.309
			c3.818,0.899,7.41,2.505,10.688,4.777c0.286,0.199,0.565,0.404,0.841,0.617c4.171,3.223,10.316,3.412,14.952,0.461l2.338-1.491
			c3.144-2,5.028-5.125,5.174-8.57c0.147-3.451-1.471-6.694-4.438-8.901c-2.5-1.857-5.311-3.573-8.357-5.1
			c-8.843-4.423-19.382-6.666-31.324-6.666c-9.959,0-18.996,1.612-26.859,4.791c-1.358,0.549-2.957,0.008-3.568-1.205
			c-0.611-1.216-0.01-2.646,1.348-3.193c8.564-3.464,18.349-5.221,29.08-5.221c12.875,0,24.297,2.45,33.961,7.281
			c3.33,1.672,6.418,3.555,9.168,5.601c4.267,3.172,6.59,7.834,6.385,12.792c-0.207,4.956-2.92,9.449-7.435,12.325l-2.345,1.489
			c-6.662,4.244-15.548,3.938-21.604-0.743c-0.205-0.156-0.41-0.307-0.625-0.451c-2.695-1.875-5.643-3.193-8.75-3.925
			c-3.246-0.764-6.438-1.152-9.488-1.152c-4.662,0-8.704,0.813-12.016,2.418c-3.354,1.622-6.132,3.784-8.27,6.43
			c-2.189,2.715-3.846,5.775-4.909,9.099C221.827,55.739,220.75,56.428,219.574,56.428"/>
	</g>
	<g>
		<defs>
			<rect id="SVGID_49_" x="-41.525" y="-109.121" width="431.525" height="386.123"/>
		</defs>
		<clipPath id="SVGID_50_">
			<use xlink:href="#SVGID_49_"  overflow="visible"/>
		</clipPath>
		<polygon clip-path="url(#SVGID_50_)" fill="#F3F3F3" points="63.639,143.03 57.498,143.03 57.498,157.102 55.798,157.102 
			55.798,143.03 49.657,143.03 49.657,141.686 63.639,141.686 		"/>
	</g>
	<g>
		<defs>
			<rect id="SVGID_51_" x="-41.525" y="-109.121" width="431.525" height="386.123"/>
		</defs>
		<clipPath id="SVGID_52_">
			<use xlink:href="#SVGID_51_"  overflow="visible"/>
		</clipPath>
		<polygon clip-path="url(#SVGID_52_)" fill="#F3F3F3" points="79.803,141.686 79.803,157.102 78.128,157.102 78.128,149.893 
			67.908,149.893 67.908,157.102 66.21,157.102 66.21,141.686 67.908,141.686 67.908,148.546 78.128,148.546 78.128,141.686 		"/>
	</g>
	<g>
		<defs>
			<rect id="SVGID_53_" x="-41.525" y="-109.121" width="431.525" height="386.123"/>
		</defs>
		<clipPath id="SVGID_54_">
			<use xlink:href="#SVGID_53_"  overflow="visible"/>
		</clipPath>
		<polygon clip-path="url(#SVGID_54_)" fill="#F3F3F3" points="95.702,155.759 95.702,157.102 84.125,157.102 84.125,141.686 
			95.481,141.686 95.481,143.03 85.822,143.03 85.822,148.589 94.246,148.589 94.246,149.873 85.822,149.873 85.822,155.759 		"/>
	</g>
	<g>
		<defs>
			<rect id="SVGID_55_" x="-41.525" y="-109.121" width="431.525" height="386.123"/>
		</defs>
		<clipPath id="SVGID_56_">
			<use xlink:href="#SVGID_55_"  overflow="visible"/>
		</clipPath>
		<path clip-path="url(#SVGID_56_)" fill="#F3F3F3" d="M115.073,145.313c-0.162-0.156-0.399-0.332-0.705-0.511
			c-0.307-0.182-0.672-0.352-1.092-0.512c-0.423-0.157-0.873-0.29-1.359-0.39c-0.486-0.104-0.99-0.155-1.507-0.155
			c-1.132,0-1.974,0.188-2.523,0.563c-0.549,0.377-0.825,0.898-0.825,1.563c0,0.484,0.152,0.877,0.461,1.154
			c0.308,0.283,0.777,0.519,1.407,0.705c0.633,0.188,1.423,0.389,2.379,0.606c1.165,0.246,2.175,0.536,3.033,0.875
			c0.859,0.343,1.513,0.789,1.968,1.353c0.451,0.565,0.677,1.31,0.677,2.23c0,0.781-0.162,1.455-0.485,2.016
			c-0.324,0.563-0.776,1.022-1.358,1.373c-0.583,0.355-1.255,0.615-2.014,0.779c-0.762,0.163-1.581,0.251-2.452,0.251
			c-0.858,0-1.711-0.081-2.561-0.241c-0.85-0.158-1.659-0.392-2.429-0.703c-0.768-0.31-1.476-0.692-2.123-1.144l1.238-2.083
			c0.211,0.186,0.516,0.396,0.91,0.619c0.397,0.227,0.859,0.438,1.384,0.64c0.525,0.203,1.1,0.375,1.722,0.515
			c0.624,0.134,1.258,0.203,1.91,0.203c1.082,0,1.91-0.17,2.486-0.51c0.574-0.335,0.86-0.82,0.86-1.455
			c0-0.52-0.186-0.936-0.556-1.248c-0.375-0.311-0.916-0.569-1.628-0.789c-0.713-0.219-1.562-0.433-2.548-0.649
			c-1.132-0.272-2.08-0.571-2.84-0.897c-0.762-0.326-1.332-0.744-1.711-1.258c-0.381-0.51-0.573-1.164-0.573-1.959
			c0-1.008,0.276-1.865,0.827-2.566c0.55-0.703,1.299-1.229,2.244-1.582c0.947-0.354,2.013-0.529,3.193-0.529
			c0.778,0,1.514,0.076,2.21,0.229c0.696,0.148,1.346,0.357,1.953,0.619c0.609,0.26,1.161,0.555,1.665,0.889L115.073,145.313z"/>
	</g>
	<g>
		<defs>
			<rect id="SVGID_57_" x="-41.525" y="-109.121" width="431.525" height="386.123"/>
		</defs>
		<clipPath id="SVGID_58_">
			<use xlink:href="#SVGID_57_"  overflow="visible"/>
		</clipPath>
		<path clip-path="url(#SVGID_58_)" fill="#F3F3F3" d="M126.87,157.215c-1.249,0-2.371-0.218-3.376-0.652
			c-1.002-0.437-1.87-1.023-2.596-1.771c-0.729-0.744-1.292-1.585-1.687-2.52c-0.399-0.931-0.594-1.894-0.594-2.873
			c0-1.03,0.208-2.016,0.63-2.947c0.421-0.932,1.004-1.766,1.749-2.497c0.747-0.729,1.62-1.313,2.632-1.736
			c1.011-0.428,2.108-0.642,3.291-0.642c1.23,0,2.351,0.224,3.361,0.673c1.011,0.448,1.876,1.05,2.597,1.803
			c0.721,0.757,1.281,1.593,1.673,2.52c0.398,0.93,0.597,1.877,0.597,2.849c0,1.027-0.207,2.008-0.62,2.939
			c-0.413,0.938-0.991,1.771-1.735,2.496c-0.745,0.734-1.622,1.308-2.633,1.73C129.146,157.006,128.048,157.215,126.87,157.215
			 M121.382,149.396c0,0.722,0.132,1.424,0.389,2.103c0.258,0.681,0.626,1.288,1.106,1.817c0.478,0.528,1.053,0.943,1.734,1.248
			c0.681,0.304,1.44,0.455,2.282,0.455c0.875,0,1.649-0.155,2.331-0.479c0.681-0.315,1.25-0.747,1.709-1.29
			c0.462-0.544,0.816-1.15,1.056-1.824c0.247-0.676,0.366-1.348,0.366-2.027c0-0.729-0.125-1.428-0.377-2.102
			c-0.249-0.672-0.619-1.273-1.101-1.799c-0.488-0.529-1.068-0.947-1.737-1.25c-0.671-0.307-1.421-0.455-2.247-0.455
			c-0.873,0-1.651,0.158-2.329,0.477c-0.68,0.319-1.257,0.746-1.727,1.28c-0.466,0.536-0.828,1.136-1.078,1.804
			C121.509,148.02,121.382,148.701,121.382,149.396"/>
	</g>
	<g>
		<defs>
			<rect id="SVGID_59_" x="-41.525" y="-109.121" width="431.525" height="386.123"/>
		</defs>
		<clipPath id="SVGID_60_">
			<use xlink:href="#SVGID_59_"  overflow="visible"/>
		</clipPath>
		<path clip-path="url(#SVGID_60_)" fill="#F3F3F3" d="M136.869,149.264c0-0.94,0.188-1.863,0.56-2.767
			c0.37-0.907,0.917-1.731,1.638-2.479c0.72-0.742,1.599-1.336,2.633-1.778c1.035-0.443,2.209-0.663,3.521-0.663
			c1.553,0,2.895,0.316,4.027,0.941c1.135,0.633,1.975,1.438,2.527,2.426l-2.139,1.281c-0.322-0.625-0.732-1.115-1.224-1.477
			c-0.493-0.361-1.029-0.615-1.601-0.759c-0.574-0.146-1.138-0.22-1.689-0.22c-0.908,0-1.697,0.16-2.378,0.488
			c-0.679,0.326-1.25,0.756-1.71,1.291c-0.463,0.536-0.809,1.137-1.043,1.803c-0.238,0.666-0.354,1.33-0.354,2
			c0,0.737,0.136,1.45,0.414,2.14c0.272,0.688,0.657,1.296,1.151,1.825c0.492,0.528,1.081,0.943,1.76,1.248
			c0.678,0.304,1.424,0.455,2.231,0.455c0.551,0,1.126-0.088,1.726-0.261c0.596-0.178,1.149-0.444,1.662-0.815
			c0.509-0.366,0.909-0.854,1.203-1.467l2.256,1.152c-0.354,0.768-0.912,1.418-1.663,1.957c-0.752,0.535-1.594,0.941-2.523,1.213
			c-0.932,0.276-1.851,0.415-2.757,0.415c-1.212,0-2.322-0.231-3.328-0.687c-1.001-0.455-1.867-1.066-2.595-1.823
			c-0.728-0.761-1.294-1.612-1.7-2.563C137.071,151.191,136.869,150.234,136.869,149.264"/>
	</g>
	<g>
		<defs>
			<rect id="SVGID_61_" x="-41.525" y="-109.121" width="431.525" height="386.123"/>
		</defs>
		<clipPath id="SVGID_62_">
			<use xlink:href="#SVGID_61_"  overflow="visible"/>
		</clipPath>
		<rect x="154.564" y="141.686" clip-path="url(#SVGID_62_)" fill="#F3F3F3" width="2.718" height="15.416"/>
	</g>
	<g>
		<defs>
			<rect id="SVGID_63_" x="-41.525" y="-109.121" width="431.525" height="386.123"/>
		</defs>
		<clipPath id="SVGID_64_">
			<use xlink:href="#SVGID_63_"  overflow="visible"/>
		</clipPath>
		<path clip-path="url(#SVGID_64_)" fill="#F3F3F3" d="M166.144,141.686h2.573l6.698,15.416h-2.867l-1.683-4.188h-6.891
			l-1.691,4.188h-2.889L166.144,141.686z M170.143,151.111l-2.713-6.754l-2.726,6.754H170.143z"/>
	</g>
	<g>
		<defs>
			<rect id="SVGID_65_" x="-41.525" y="-109.121" width="431.525" height="386.123"/>
		</defs>
		<clipPath id="SVGID_66_">
			<use xlink:href="#SVGID_65_"  overflow="visible"/>
		</clipPath>
		<polygon clip-path="url(#SVGID_66_)" fill="#F3F3F3" points="177.55,157.102 177.55,141.686 180.27,141.686 180.27,154.957 
			189.518,154.957 189.518,157.102 		"/>
	</g>
	<g>
		<defs>
			<rect id="SVGID_67_" x="-41.525" y="-109.121" width="431.525" height="386.123"/>
		</defs>
		<clipPath id="SVGID_68_">
			<use xlink:href="#SVGID_67_"  overflow="visible"/>
		</clipPath>
		<path clip-path="url(#SVGID_68_)" fill="#F3F3F3" d="M196.994,149.264c0-0.94,0.178-1.863,0.546-2.767
			c0.364-0.907,0.894-1.731,1.589-2.479c0.695-0.742,1.555-1.336,2.571-1.778c1.021-0.443,2.18-0.663,3.475-0.663
			c1.539,0,2.851,0.316,3.943,0.941c1.094,0.633,1.896,1.438,2.417,2.426l-1.34,0.742c-0.371-0.686-0.838-1.226-1.404-1.623
			c-0.568-0.396-1.17-0.687-1.811-0.859c-0.64-0.172-1.274-0.256-1.906-0.256c-1.034,0-1.95,0.185-2.742,0.55
			c-0.795,0.373-1.462,0.862-2.002,1.478c-0.543,0.616-0.952,1.303-1.227,2.063c-0.273,0.761-0.41,1.535-0.41,2.316
			c0,0.853,0.162,1.67,0.486,2.453c0.32,0.779,0.773,1.471,1.356,2.072c0.582,0.602,1.266,1.08,2.05,1.436
			c0.784,0.356,1.641,0.529,2.566,0.529c0.641,0,1.309-0.1,1.988-0.304c0.676-0.203,1.312-0.515,1.906-0.933
			c0.588-0.418,1.061-0.961,1.416-1.631l1.407,0.652c-0.354,0.768-0.91,1.418-1.651,1.957c-0.742,0.535-1.574,0.941-2.486,1.213
			c-0.912,0.276-1.809,0.415-2.683,0.415c-1.18,0-2.267-0.231-3.253-0.686c-0.982-0.456-1.84-1.067-2.559-1.824
			c-0.723-0.761-1.278-1.612-1.663-2.563C197.189,151.191,196.994,150.234,196.994,149.264"/>
	</g>
	<g>
		<defs>
			<rect id="SVGID_69_" x="-41.525" y="-109.121" width="431.525" height="386.123"/>
		</defs>
		<clipPath id="SVGID_70_">
			<use xlink:href="#SVGID_69_"  overflow="visible"/>
		</clipPath>
		<path clip-path="url(#SVGID_70_)" fill="#F3F3F3" d="M219.884,141.686h1.433l7.16,15.416h-1.795l-2.154-4.817h-7.877l-2.155,4.817
			h-1.82L219.884,141.686z M223.994,151.09l-3.407-7.625l-3.405,7.625H223.994z"/>
	</g>
	<g>
		<defs>
			<rect id="SVGID_71_" x="-41.525" y="-109.121" width="431.525" height="386.123"/>
		</defs>
		<clipPath id="SVGID_72_">
			<use xlink:href="#SVGID_71_"  overflow="visible"/>
		</clipPath>
		<polygon clip-path="url(#SVGID_72_)" fill="#F3F3F3" points="230.953,157.102 230.953,141.686 232.65,141.686 232.65,155.759 
			242.602,155.759 242.602,157.102 		"/>
	</g>
	<g>
		<defs>
			<rect id="SVGID_73_" x="-41.525" y="-109.121" width="431.525" height="386.123"/>
		</defs>
		<clipPath id="SVGID_74_">
			<use xlink:href="#SVGID_73_"  overflow="visible"/>
		</clipPath>
		<polygon clip-path="url(#SVGID_74_)" fill="#F3F3F3" points="245.104,157.102 245.104,141.686 246.805,141.686 246.805,155.759 
			256.754,155.759 256.754,157.102 		"/>
	</g>
	<g>
		<defs>
			<rect id="SVGID_75_" x="-41.525" y="-109.121" width="431.525" height="386.123"/>
		</defs>
		<clipPath id="SVGID_76_">
			<use xlink:href="#SVGID_75_"  overflow="visible"/>
		</clipPath>
		<rect x="259.256" y="141.686" clip-path="url(#SVGID_76_)" fill="#F3F3F3" width="1.7" height="15.416"/>
	</g>
	<g>
		<defs>
			<rect id="SVGID_77_" x="-41.525" y="-109.121" width="431.525" height="386.123"/>
		</defs>
		<clipPath id="SVGID_78_">
			<use xlink:href="#SVGID_77_"  overflow="visible"/>
		</clipPath>
		<polygon clip-path="url(#SVGID_78_)" fill="#F3F3F3" points="266.971,144.486 266.971,157.102 265.275,157.102 265.275,141.686 
			266.682,141.686 277.992,154.54 277.992,141.707 279.691,141.707 279.691,157.102 278.115,157.102 		"/>
	</g>
	<g>
		<defs>
			<rect id="SVGID_79_" x="-41.525" y="-109.121" width="431.525" height="386.123"/>
		</defs>
		<clipPath id="SVGID_80_">
			<use xlink:href="#SVGID_79_"  overflow="visible"/>
		</clipPath>
		<path clip-path="url(#SVGID_80_)" fill="#F3F3F3" d="M290.932,157.215c-1.152,0-2.221-0.222-3.207-0.663
			c-0.985-0.438-1.843-1.04-2.572-1.792c-0.727-0.755-1.288-1.594-1.687-2.521c-0.396-0.927-0.592-1.882-0.592-2.868
			c0-1.042,0.196-2.028,0.592-2.963c0.397-0.938,0.952-1.766,1.66-2.485c0.712-0.725,1.558-1.299,2.528-1.715
			c0.97-0.42,2.029-0.633,3.176-0.633c1.704,0,3.087,0.313,4.152,0.934c1.068,0.623,1.879,1.433,2.43,2.435l-1.313,0.781
			c-0.551-0.955-1.285-1.66-2.205-2.106c-0.928-0.448-1.949-0.671-3.086-0.671c-0.957,0-1.819,0.176-2.588,0.543
			c-0.768,0.357-1.426,0.844-1.977,1.453c-0.549,0.606-0.967,1.295-1.249,2.063c-0.283,0.768-0.429,1.565-0.429,2.393
			c0,0.865,0.164,1.688,0.492,2.466c0.319,0.772,0.777,1.457,1.379,2.06c0.599,0.604,1.295,1.07,2.071,1.409
			c0.788,0.344,1.636,0.513,2.543,0.513c1.05,0,2.044-0.236,2.983-0.705c0.938-0.469,1.836-1.197,2.695-2.183v1.606
			C295.092,156.328,293.165,157.215,290.932,157.215 M296.463,150.7h-3.83v-1.177h5.268v7.578h-1.438V150.7L296.463,150.7z"/>
	</g>
	<g>
		<defs>
			<rect id="SVGID_81_" x="-41.525" y="-109.121" width="431.525" height="386.123"/>
		</defs>
		<clipPath id="SVGID_82_">
			<use xlink:href="#SVGID_81_"  overflow="visible"/>
		</clipPath>
		<path clip-path="url(#SVGID_82_)" fill="#D41C5C" d="M110.986,125.678h-4.584c-10.083,0-18.286-7.337-18.286-16.357V48.6
			c0-6.361-5.782-11.537-12.892-11.537h-6.418c-10.081,0-18.286-7.338-18.286-16.361c0-9.022,8.205-16.363,18.286-16.363h42.307
			c6.121,0,11.808,2.721,15.211,7.279c0.831,1.108,0.497,2.607-0.742,3.349c-1.237,0.743-2.912,0.443-3.742-0.667
			c-2.4-3.215-6.412-5.133-10.727-5.133H68.806c-7.108,0-12.89,5.175-12.89,11.535c0,6.361,5.782,11.536,12.89,11.536h6.418
			c10.083,0,18.287,7.339,18.287,16.362v60.72c0,6.357,5.782,11.531,12.89,11.531h4.584c2.805,0,5.472-0.793,7.711-2.287
			c1.194-0.801,2.883-0.58,3.773,0.486c0.893,1.07,0.648,2.58-0.543,3.381C118.748,124.557,114.967,125.678,110.986,125.678"/>
	</g>
	<g>
		<defs>
			<rect id="SVGID_83_" x="-41.525" y="-109.121" width="431.525" height="386.123"/>
		</defs>
		<clipPath id="SVGID_84_">
			<use xlink:href="#SVGID_83_"  overflow="visible"/>
		</clipPath>
		<path clip-path="url(#SVGID_84_)" fill="#D41C5C" d="M174.574,97.615c-5.246,0-10.533-0.694-15.712-2.066
			c-5.047-1.34-9.701-2.869-13.83-4.548c-0.589-0.24-1.193-0.492-1.804-0.755c-1.342-0.574-1.909-2.014-1.267-3.215
			c0.642-1.205,2.253-1.715,3.597-1.139c0.578,0.248,1.145,0.483,1.706,0.713c3.903,1.59,8.321,3.041,13.131,4.315
			c4.683,1.241,9.451,1.871,14.179,1.871c4.576,0,6.203-0.659,6.695-0.944c0.98-0.57,1.063-1.07,1.063-1.498
			c0-0.912-0.295-2.092-2.581-3.156c-2.521-1.166-5.913-2.32-10.065-3.41c-4.365-1.146-9.231-2.494-14.465-4.01
			c-7.8-2.348-14.302-5.045-19.359-8.023c-5.254-3.09-9.203-6.844-11.728-11.162c-2.515-4.294-3.792-9.521-3.792-15.543
			c0-9.05,2.448-16.752,7.278-22.898c4.779-6.086,11.165-10.775,18.977-13.931c7.713-3.115,16.139-4.697,25.041-4.697
			c6.552,0,12.981,0.716,19.105,2.128c6.044,1.395,11.785,3.118,17.068,5.119l0.539,0.205c1.371,0.518,2.016,1.936,1.432,3.163
			c-0.581,1.227-2.17,1.8-3.536,1.279l-0.541-0.204c-5.036-1.908-10.524-3.553-16.304-4.888c-5.689-1.31-11.663-1.975-17.764-1.975
			c-8.13,0-15.81,1.437-22.822,4.267c-6.92,2.797-12.563,6.938-16.782,12.309c-4.177,5.317-6.295,12.086-6.295,20.123
			c0,5.231,1.068,9.707,3.176,13.301c2.097,3.584,5.431,6.737,9.914,9.371c4.67,2.754,10.755,5.264,18.083,7.473
			c5.157,1.494,9.979,2.83,14.296,3.962c4.491,1.181,8.196,2.445,11.03,3.758c4.537,2.111,5.486,5.211,5.486,7.439
			c0,1.601-0.611,3.858-3.517,5.549C182.18,97.075,179.121,97.615,174.574,97.615"/>
	</g>
	<g>
		<defs>
			<rect id="SVGID_85_" x="-41.525" y="-109.121" width="431.525" height="386.123"/>
		</defs>
		<clipPath id="SVGID_86_">
			<use xlink:href="#SVGID_85_"  overflow="visible"/>
		</clipPath>
		<path clip-path="url(#SVGID_86_)" fill="#D41C5C" d="M174.025,126.502c-6.371,0-13.11-0.594-20.034-1.77
			c-6.906-1.168-13.677-2.801-20.121-4.854c-1.541-0.491-3.065-1.009-4.522-1.53c-1.383-0.498-2.052-1.908-1.497-3.141
			c0.556-1.234,2.126-1.835,3.509-1.338c1.391,0.498,2.845,0.992,4.321,1.461c6.181,1.971,12.679,3.539,19.313,4.664
			c6.592,1.111,12.997,1.679,19.031,1.679c5.868,0,11.7-0.606,17.35-1.804c5.533-1.174,10.609-3.116,15.09-5.764
			c4.367-2.582,7.893-6.088,10.484-10.424c2.584-4.343,3.898-9.844,3.898-16.345c0-6.759-1.464-12.199-4.339-16.17
			c-2.916-4.024-7.151-7.39-12.582-10c-5.677-2.727-12.543-5.182-20.409-7.295c-5-1.406-9.338-2.607-12.933-3.579
			c-3.909-1.056-6.882-2.223-9.085-3.57c-2.688-1.637-4.11-3.958-4.11-6.708c0-2.959,1.577-5.287,4.435-6.553
			c2.323-1.031,5.257-1.553,8.715-1.553c4.152,0,8.428,0.587,12.702,1.745c4.121,1.119,7.994,2.396,11.507,3.798
			c1.356,0.542,2.021,1.984,1.418,3.201c-0.601,1.216-2.14,1.789-3.498,1.253c-0.012-0.003-0.074-0.029-0.084-0.034
			c-3.342-1.333-7-2.539-10.905-3.598c-3.765-1.021-7.516-1.54-11.14-1.54c-2.621,0-4.746,0.355-6.32,1.052
			c-0.863,0.383-1.436,0.907-1.436,2.229c0,1.142,0.542,1.979,1.756,2.719c1.721,1.053,4.277,2.04,7.606,2.939
			c3.611,0.977,7.974,2.183,12.959,3.586c8.176,2.196,15.381,4.778,21.375,7.656c6.244,3,11.145,6.911,14.558,11.628
			c3.452,4.765,5.202,11.09,5.202,18.794c0,7.308-1.524,13.565-4.536,18.616c-3.015,5.053-7.144,9.15-12.265,12.178
			c-5.008,2.961-10.666,5.13-16.814,6.434C186.559,125.852,180.307,126.502,174.025,126.502"/>
	</g>
	<g>
		<defs>
			<rect id="SVGID_87_" x="-41.525" y="-109.121" width="431.525" height="386.123"/>
		</defs>
		<clipPath id="SVGID_88_">
			<use xlink:href="#SVGID_87_"  overflow="visible"/>
		</clipPath>
		<path clip-path="url(#SVGID_88_)" fill="#D41C5C" d="M246.994,126.502c-10.023,0-19.336-1.82-27.672-5.414
			c-1.344-0.576-1.907-2.018-1.262-3.217c0.646-1.198,2.26-1.708,3.602-1.128c7.6,3.271,16.124,4.934,25.332,4.934
			c7.146,0,14.463-1.043,21.746-3.094c7.251-2.037,13.826-5.032,19.542-8.896l0.163-0.105c3.218-2.199,4.927-5.544,4.695-9.195
			c-0.234-3.693-2.484-7.029-6.022-8.921l-3.007-1.608c-4.622-2.467-10.551-1.988-14.42,1.164c-0.262,0.213-0.529,0.424-0.803,0.627
			c-3.086,2.277-6.543,3.949-10.297,4.967c-3.658,0.992-7.314,1.498-10.867,1.498c-5.041,0-9.664-0.913-13.752-2.709
			c-1.334-0.588-1.888-2.037-1.229-3.23c0.659-1.191,2.269-1.691,3.608-1.101c3.344,1.468,7.166,2.212,11.373,2.212
			c3.021,0,6.151-0.436,9.305-1.292c3.063-0.829,5.896-2.198,8.42-4.062c0.201-0.154,0.404-0.312,0.604-0.473
			c5.62-4.581,14.184-5.294,20.824-1.743l3.007,1.609c5.074,2.713,8.31,7.493,8.642,12.791c0.328,5.194-2.215,10.166-6.803,13.299
			l-0.188,0.128c-6.209,4.193-13.33,7.441-21.177,9.645C262.549,125.389,254.689,126.502,246.994,126.502 M219.574,56.428
			c-0.247,0-0.496-0.032-0.742-0.093c-1.434-0.37-2.259-1.708-1.85-2.986c1.24-3.86,3.162-7.425,5.726-10.593
			c2.61-3.239,6.003-5.88,10.071-7.849c4.106-1.991,9.015-2.999,14.584-2.999c3.51,0,7.17,0.44,10.859,1.309
			c3.818,0.899,7.41,2.505,10.688,4.777c0.286,0.199,0.565,0.404,0.841,0.617c4.171,3.223,10.316,3.412,14.952,0.461l2.338-1.491
			c3.144-2,5.028-5.125,5.174-8.57c0.147-3.451-1.471-6.694-4.438-8.901c-2.5-1.857-5.311-3.573-8.357-5.1
			c-8.843-4.423-19.382-6.666-31.324-6.666c-9.959,0-18.996,1.612-26.859,4.791c-1.358,0.549-2.957,0.008-3.568-1.205
			c-0.611-1.216-0.01-2.646,1.348-3.193c8.564-3.464,18.349-5.221,29.08-5.221c12.875,0,24.297,2.45,33.961,7.281
			c3.33,1.672,6.418,3.555,9.168,5.601c4.267,3.172,6.59,7.834,6.385,12.792c-0.207,4.956-2.92,9.449-7.435,12.325l-2.345,1.489
			c-6.662,4.244-15.548,3.938-21.604-0.743c-0.205-0.156-0.41-0.307-0.625-0.451c-2.695-1.875-5.643-3.193-8.75-3.925
			c-3.246-0.764-6.438-1.152-9.488-1.152c-4.662,0-8.704,0.813-12.016,2.418c-3.354,1.622-6.132,3.784-8.27,6.43
			c-2.189,2.715-3.846,5.775-4.909,9.099C221.827,55.739,220.75,56.428,219.574,56.428"/>
	</g>
	<g>
		<defs>
			<rect id="SVGID_89_" x="-41.525" y="-109.121" width="431.525" height="386.123"/>
		</defs>
		<clipPath id="SVGID_90_">
			<use xlink:href="#SVGID_89_"  overflow="visible"/>
		</clipPath>
		<polygon clip-path="url(#SVGID_90_)" fill="#FFFFFF" points="63.639,143.03 57.498,143.03 57.498,157.102 55.798,157.102 
			55.798,143.03 49.657,143.03 49.657,141.686 63.639,141.686 		"/>
	</g>
	<g>
		<defs>
			<rect id="SVGID_91_" x="-41.525" y="-109.121" width="431.525" height="386.123"/>
		</defs>
		<clipPath id="SVGID_92_">
			<use xlink:href="#SVGID_91_"  overflow="visible"/>
		</clipPath>
		<polygon clip-path="url(#SVGID_92_)" fill="#FFFFFF" points="79.803,141.686 79.803,157.102 78.128,157.102 78.128,149.893 
			67.908,149.893 67.908,157.102 66.21,157.102 66.21,141.686 67.908,141.686 67.908,148.546 78.128,148.546 78.128,141.686 		"/>
	</g>
	<g>
		<defs>
			<rect id="SVGID_93_" x="-41.525" y="-109.121" width="431.525" height="386.123"/>
		</defs>
		<clipPath id="SVGID_94_">
			<use xlink:href="#SVGID_93_"  overflow="visible"/>
		</clipPath>
		<polygon clip-path="url(#SVGID_94_)" fill="#FFFFFF" points="95.702,155.759 95.702,157.102 84.125,157.102 84.125,141.686 
			95.481,141.686 95.481,143.03 85.822,143.03 85.822,148.589 94.246,148.589 94.246,149.873 85.822,149.873 85.822,155.759 		"/>
	</g>
	<g>
		<defs>
			<rect id="SVGID_95_" x="-41.525" y="-109.121" width="431.525" height="386.123"/>
		</defs>
		<clipPath id="SVGID_96_">
			<use xlink:href="#SVGID_95_"  overflow="visible"/>
		</clipPath>
		<path clip-path="url(#SVGID_96_)" fill="#FFFFFF" d="M115.073,145.313c-0.162-0.156-0.399-0.332-0.705-0.511
			c-0.307-0.182-0.672-0.352-1.092-0.512c-0.423-0.157-0.873-0.29-1.359-0.39c-0.486-0.104-0.99-0.155-1.507-0.155
			c-1.132,0-1.974,0.188-2.523,0.563c-0.549,0.377-0.825,0.898-0.825,1.563c0,0.484,0.152,0.877,0.461,1.154
			c0.308,0.283,0.777,0.519,1.407,0.705c0.633,0.188,1.423,0.389,2.379,0.606c1.165,0.246,2.175,0.536,3.033,0.875
			c0.859,0.343,1.513,0.789,1.968,1.353c0.451,0.565,0.677,1.31,0.677,2.23c0,0.781-0.162,1.455-0.485,2.016
			c-0.324,0.563-0.776,1.022-1.358,1.373c-0.583,0.355-1.255,0.615-2.014,0.779c-0.762,0.163-1.581,0.251-2.452,0.251
			c-0.858,0-1.711-0.081-2.561-0.241c-0.85-0.158-1.659-0.392-2.429-0.703c-0.768-0.31-1.476-0.692-2.123-1.144l1.238-2.083
			c0.211,0.186,0.516,0.396,0.91,0.619c0.397,0.227,0.859,0.438,1.384,0.64c0.525,0.203,1.1,0.375,1.722,0.515
			c0.624,0.134,1.258,0.203,1.91,0.203c1.082,0,1.91-0.17,2.486-0.51c0.574-0.335,0.86-0.82,0.86-1.455
			c0-0.52-0.186-0.936-0.556-1.248c-0.375-0.311-0.916-0.569-1.628-0.789c-0.713-0.219-1.562-0.433-2.548-0.649
			c-1.132-0.272-2.08-0.571-2.84-0.897c-0.762-0.326-1.332-0.744-1.711-1.258c-0.381-0.51-0.573-1.164-0.573-1.959
			c0-1.008,0.276-1.865,0.827-2.566c0.55-0.703,1.299-1.229,2.244-1.582c0.947-0.354,2.013-0.529,3.193-0.529
			c0.778,0,1.514,0.076,2.21,0.229c0.696,0.148,1.346,0.357,1.953,0.619c0.609,0.26,1.161,0.555,1.665,0.889L115.073,145.313z"/>
	</g>
	<g>
		<defs>
			<rect id="SVGID_97_" x="-41.525" y="-109.121" width="431.525" height="386.123"/>
		</defs>
		<clipPath id="SVGID_98_">
			<use xlink:href="#SVGID_97_"  overflow="visible"/>
		</clipPath>
		<path clip-path="url(#SVGID_98_)" fill="#FFFFFF" d="M126.87,157.215c-1.249,0-2.371-0.218-3.376-0.652
			c-1.002-0.437-1.87-1.023-2.596-1.771c-0.729-0.744-1.292-1.585-1.687-2.52c-0.399-0.931-0.594-1.894-0.594-2.873
			c0-1.03,0.208-2.016,0.63-2.947c0.421-0.932,1.004-1.766,1.749-2.497c0.747-0.729,1.62-1.313,2.632-1.736
			c1.011-0.428,2.108-0.642,3.291-0.642c1.23,0,2.351,0.224,3.361,0.673c1.011,0.448,1.876,1.05,2.597,1.803
			c0.721,0.757,1.281,1.593,1.673,2.52c0.398,0.93,0.597,1.877,0.597,2.849c0,1.027-0.207,2.008-0.62,2.939
			c-0.413,0.938-0.991,1.771-1.735,2.496c-0.745,0.734-1.622,1.308-2.633,1.73C129.146,157.006,128.048,157.215,126.87,157.215
			 M121.382,149.396c0,0.722,0.132,1.424,0.389,2.103c0.258,0.681,0.626,1.288,1.106,1.817c0.478,0.528,1.053,0.943,1.734,1.248
			c0.681,0.304,1.44,0.455,2.282,0.455c0.875,0,1.649-0.155,2.331-0.479c0.681-0.315,1.25-0.747,1.709-1.29
			c0.462-0.544,0.816-1.15,1.056-1.824c0.247-0.676,0.366-1.348,0.366-2.027c0-0.729-0.125-1.428-0.377-2.102
			c-0.249-0.672-0.619-1.273-1.101-1.799c-0.488-0.529-1.068-0.947-1.737-1.25c-0.671-0.307-1.421-0.455-2.247-0.455
			c-0.873,0-1.651,0.158-2.329,0.477c-0.68,0.319-1.257,0.746-1.727,1.28c-0.466,0.536-0.828,1.136-1.078,1.804
			C121.509,148.02,121.382,148.701,121.382,149.396"/>
	</g>
	<g>
		<defs>
			<rect id="SVGID_99_" x="-41.525" y="-109.121" width="431.525" height="386.123"/>
		</defs>
		<clipPath id="SVGID_100_">
			<use xlink:href="#SVGID_99_"  overflow="visible"/>
		</clipPath>
		<path clip-path="url(#SVGID_100_)" fill="#FFFFFF" d="M136.869,149.264c0-0.94,0.188-1.863,0.56-2.767
			c0.37-0.907,0.917-1.731,1.638-2.479c0.72-0.742,1.599-1.336,2.633-1.778c1.035-0.443,2.209-0.663,3.521-0.663
			c1.553,0,2.895,0.316,4.027,0.941c1.135,0.633,1.975,1.438,2.527,2.426l-2.139,1.281c-0.322-0.625-0.732-1.115-1.224-1.477
			c-0.493-0.361-1.029-0.615-1.601-0.759c-0.574-0.146-1.138-0.22-1.689-0.22c-0.908,0-1.697,0.16-2.378,0.488
			c-0.679,0.326-1.25,0.756-1.71,1.291c-0.463,0.536-0.809,1.137-1.043,1.803c-0.238,0.666-0.354,1.33-0.354,2
			c0,0.737,0.136,1.45,0.414,2.14c0.272,0.688,0.657,1.296,1.151,1.825c0.492,0.528,1.081,0.943,1.76,1.248
			c0.678,0.304,1.424,0.455,2.231,0.455c0.551,0,1.126-0.088,1.726-0.261c0.596-0.178,1.149-0.444,1.662-0.815
			c0.509-0.366,0.909-0.854,1.203-1.467l2.256,1.152c-0.354,0.768-0.912,1.418-1.663,1.957c-0.752,0.535-1.594,0.941-2.523,1.213
			c-0.932,0.276-1.851,0.415-2.757,0.415c-1.212,0-2.322-0.231-3.328-0.687c-1.001-0.455-1.867-1.066-2.595-1.823
			c-0.728-0.761-1.294-1.612-1.7-2.563C137.071,151.191,136.869,150.234,136.869,149.264"/>
	</g>
	<g>
		<defs>
			<rect id="SVGID_101_" x="-41.525" y="-109.121" width="431.525" height="386.123"/>
		</defs>
		<clipPath id="SVGID_102_">
			<use xlink:href="#SVGID_101_"  overflow="visible"/>
		</clipPath>
		<rect x="154.564" y="141.686" clip-path="url(#SVGID_102_)" fill="#FFFFFF" width="2.718" height="15.416"/>
	</g>
	<g>
		<defs>
			<rect id="SVGID_103_" x="-41.525" y="-109.121" width="431.525" height="386.123"/>
		</defs>
		<clipPath id="SVGID_104_">
			<use xlink:href="#SVGID_103_"  overflow="visible"/>
		</clipPath>
		<path clip-path="url(#SVGID_104_)" fill="#FFFFFF" d="M166.144,141.686h2.573l6.698,15.416h-2.867l-1.683-4.188h-6.891
			l-1.691,4.188h-2.889L166.144,141.686z M170.143,151.111l-2.713-6.754l-2.726,6.754H170.143z"/>
	</g>
	<g>
		<defs>
			<rect id="SVGID_105_" x="-41.525" y="-109.121" width="431.525" height="386.123"/>
		</defs>
		<clipPath id="SVGID_106_">
			<use xlink:href="#SVGID_105_"  overflow="visible"/>
		</clipPath>
		<polygon clip-path="url(#SVGID_106_)" fill="#FFFFFF" points="177.55,157.102 177.55,141.686 180.27,141.686 180.27,154.957 
			189.518,154.957 189.518,157.102 		"/>
	</g>
	<g>
		<defs>
			<rect id="SVGID_107_" x="-41.525" y="-109.121" width="431.525" height="386.123"/>
		</defs>
		<clipPath id="SVGID_108_">
			<use xlink:href="#SVGID_107_"  overflow="visible"/>
		</clipPath>
		<path clip-path="url(#SVGID_108_)" fill="#FFFFFF" d="M196.994,149.264c0-0.94,0.178-1.863,0.546-2.767
			c0.364-0.907,0.894-1.731,1.589-2.479c0.695-0.742,1.555-1.336,2.571-1.778c1.021-0.443,2.18-0.663,3.475-0.663
			c1.539,0,2.851,0.316,3.943,0.941c1.094,0.633,1.896,1.438,2.417,2.426l-1.34,0.742c-0.371-0.686-0.838-1.226-1.404-1.623
			c-0.568-0.396-1.17-0.687-1.811-0.859c-0.64-0.172-1.274-0.256-1.906-0.256c-1.034,0-1.95,0.185-2.742,0.55
			c-0.795,0.373-1.462,0.862-2.002,1.478c-0.543,0.616-0.952,1.303-1.227,2.063c-0.273,0.761-0.41,1.535-0.41,2.316
			c0,0.853,0.162,1.67,0.486,2.453c0.32,0.779,0.773,1.471,1.356,2.072c0.582,0.602,1.266,1.08,2.05,1.436
			c0.784,0.356,1.641,0.529,2.566,0.529c0.641,0,1.309-0.1,1.988-0.304c0.676-0.203,1.312-0.515,1.906-0.933
			c0.588-0.418,1.061-0.961,1.416-1.631l1.407,0.652c-0.354,0.768-0.91,1.418-1.651,1.957c-0.742,0.535-1.574,0.941-2.486,1.213
			c-0.912,0.276-1.809,0.415-2.683,0.415c-1.18,0-2.267-0.231-3.253-0.686c-0.982-0.456-1.84-1.067-2.559-1.824
			c-0.723-0.761-1.278-1.612-1.663-2.563C197.189,151.191,196.994,150.234,196.994,149.264"/>
	</g>
	<g>
		<defs>
			<rect id="SVGID_109_" x="-41.525" y="-109.121" width="431.525" height="386.123"/>
		</defs>
		<clipPath id="SVGID_110_">
			<use xlink:href="#SVGID_109_"  overflow="visible"/>
		</clipPath>
		<path clip-path="url(#SVGID_110_)" fill="#FFFFFF" d="M219.884,141.686h1.433l7.16,15.416h-1.795l-2.154-4.817h-7.877
			l-2.155,4.817h-1.82L219.884,141.686z M223.994,151.09l-3.407-7.625l-3.405,7.625H223.994z"/>
	</g>
	<g>
		<defs>
			<rect id="SVGID_111_" x="-41.525" y="-109.121" width="431.525" height="386.123"/>
		</defs>
		<clipPath id="SVGID_112_">
			<use xlink:href="#SVGID_111_"  overflow="visible"/>
		</clipPath>
		<polygon clip-path="url(#SVGID_112_)" fill="#FFFFFF" points="230.953,157.102 230.953,141.686 232.65,141.686 232.65,155.759 
			242.602,155.759 242.602,157.102 		"/>
	</g>
	<g>
		<defs>
			<rect id="SVGID_113_" x="-41.525" y="-109.121" width="431.525" height="386.123"/>
		</defs>
		<clipPath id="SVGID_114_">
			<use xlink:href="#SVGID_113_"  overflow="visible"/>
		</clipPath>
		<polygon clip-path="url(#SVGID_114_)" fill="#FFFFFF" points="245.104,157.102 245.104,141.686 246.805,141.686 246.805,155.759 
			256.754,155.759 256.754,157.102 		"/>
	</g>
	<g>
		<defs>
			<rect id="SVGID_115_" x="-41.525" y="-109.121" width="431.525" height="386.123"/>
		</defs>
		<clipPath id="SVGID_116_">
			<use xlink:href="#SVGID_115_"  overflow="visible"/>
		</clipPath>
		<rect x="259.256" y="141.686" clip-path="url(#SVGID_116_)" fill="#FFFFFF" width="1.7" height="15.416"/>
	</g>
	<g>
		<defs>
			<rect id="SVGID_117_" x="-41.525" y="-109.121" width="431.525" height="386.123"/>
		</defs>
		<clipPath id="SVGID_118_">
			<use xlink:href="#SVGID_117_"  overflow="visible"/>
		</clipPath>
		<polygon clip-path="url(#SVGID_118_)" fill="#FFFFFF" points="266.971,144.486 266.971,157.102 265.275,157.102 265.275,141.686 
			266.682,141.686 277.992,154.54 277.992,141.707 279.691,141.707 279.691,157.102 278.115,157.102 		"/>
	</g>
	<g>
		<defs>
			<rect id="SVGID_119_" x="-41.525" y="-109.121" width="431.525" height="386.123"/>
		</defs>
		<clipPath id="SVGID_120_">
			<use xlink:href="#SVGID_119_"  overflow="visible"/>
		</clipPath>
		<path clip-path="url(#SVGID_120_)" fill="#FFFFFF" d="M290.932,157.215c-1.152,0-2.221-0.222-3.207-0.663
			c-0.985-0.438-1.843-1.04-2.572-1.792c-0.727-0.755-1.288-1.594-1.687-2.521c-0.396-0.927-0.592-1.882-0.592-2.868
			c0-1.042,0.196-2.028,0.592-2.963c0.397-0.938,0.952-1.766,1.66-2.485c0.712-0.725,1.558-1.299,2.528-1.715
			c0.97-0.42,2.029-0.633,3.176-0.633c1.704,0,3.087,0.313,4.152,0.934c1.068,0.623,1.879,1.433,2.43,2.435l-1.313,0.781
			c-0.551-0.955-1.285-1.66-2.205-2.106c-0.928-0.448-1.949-0.671-3.086-0.671c-0.957,0-1.819,0.176-2.588,0.543
			c-0.768,0.357-1.426,0.844-1.977,1.453c-0.549,0.606-0.967,1.295-1.249,2.063c-0.283,0.768-0.429,1.565-0.429,2.393
			c0,0.865,0.164,1.688,0.492,2.466c0.319,0.772,0.777,1.457,1.379,2.06c0.599,0.604,1.295,1.07,2.071,1.409
			c0.788,0.344,1.636,0.513,2.543,0.513c1.05,0,2.044-0.236,2.983-0.705c0.938-0.469,1.836-1.197,2.695-2.183v1.606
			C295.092,156.328,293.165,157.215,290.932,157.215 M296.463,150.7h-3.83v-1.177h5.268v7.578h-1.438V150.7L296.463,150.7z"/>
	</g>
</g>
</svg>
